<?xml version="1.0" encoding="UTF-8" standalone="no"?>
<svg xmlns:ffdec="https://www.free-decompiler.com/flash" xmlns:xlink="http://www.w3.org/1999/xlink" ffdec:objectType="shape" height="596.1px" width="568.7px" xmlns="http://www.w3.org/2000/svg">
  <g transform="matrix(1.0, 0.0, 0.0, 1.0, -153.65, 0.05)">
    <path d="M618.35 158.25 L626.9 166.75 Q628.35 168.15 629.45 169.9 643.2 191.7 650.2 217.95 652.6 226.95 657.0 235.5 L663.1 247.8 650.15 247.75 638.05 247.65 610.15 247.4 597.45 247.25 595.9 247.25 593.2 247.2 Q591.55 247.85 590.1 248.65 L586.0 248.4 Q583.85 247.15 581.1 247.35 L575.95 247.65 575.85 247.5 575.55 247.0 560.8 246.85 559.55 246.8 555.8 246.85 Q542.5 247.2 529.3 246.95 518.5 246.75 507.75 246.85 L492.05 247.1 476.4 247.65 465.2 247.15 452.95 247.5 Q446.05 248.8 439.65 248.4 L439.75 242.8 439.95 235.65 Q437.45 233.15 437.15 230.1 436.9 227.85 437.85 225.3 L438.05 224.8 Q441.65 215.05 448.45 206.25 L449.35 205.05 449.0 204.95 Q446.65 204.1 444.65 202.9 440.35 202.1 436.75 200.8 435.95 197.95 435.85 194.85 L435.85 194.1 435.8 192.5 Q433.95 188.35 434.25 185.15 434.35 183.85 434.8 182.75 432.85 178.85 434.55 174.0 434.9 173.0 435.55 172.05 L435.9 171.6 Q438.55 168.9 441.6 166.45 446.45 157.15 457.25 157.4 L460.45 157.65 Q472.75 159.3 485.15 159.1 L528.15 158.2 567.2 156.95 570.55 156.85 616.7 158.25 618.35 158.25 M644.1 440.95 Q644.4 441.95 643.95 443.0 645.0 443.7 645.0 445.4 L645.0 445.5 646.2 446.7 Q647.1 447.9 647.15 449.35 647.15 450.65 646.35 452.15 645.25 454.2 645.35 456.4 645.55 465.35 644.2 474.1 643.65 477.7 641.9 480.75 641.65 481.2 641.05 481.2 L640.95 481.2 Q634.4 486.3 627.55 490.85 629.3 491.9 630.8 493.55 L632.15 494.85 Q635.45 498.05 640.1 498.55 L641.7 499.05 Q645.3 500.95 644.35 505.35 643.9 507.4 642.65 507.95 645.1 509.1 644.65 512.35 644.45 514.0 644.7 515.7 645.25 519.2 644.75 522.6 644.55 523.75 643.55 524.2 L640.85 524.15 638.6 524.55 Q637.0 524.9 635.5 525.5 630.2 527.75 630.0 534.35 L621.4 534.95 612.45 533.8 609.1 533.35 Q594.7 532.8 580.4 532.55 L578.45 532.5 Q560.65 532.2 543.7 535.65 L543.25 535.75 542.3 535.95 535.55 535.0 535.35 534.95 528.7 534.75 Q505.7 535.2 482.75 534.9 458.55 534.6 434.45 533.55 L420.05 534.2 Q380.8 534.75 341.6 535.55 L336.15 535.45 328.5 535.1 328.3 535.25 328.0 535.45 327.8 535.75 301.7 534.4 301.4 534.05 Q299.55 532.05 296.85 531.7 296.55 529.7 296.55 527.7 L295.65 527.3 Q294.8 526.65 294.6 525.4 294.45 524.45 295.15 524.15 295.4 524.0 295.7 523.95 L296.5 523.85 300.55 523.35 316.5 522.85 316.85 522.85 334.65 522.25 334.7 522.25 336.55 522.1 334.7 521.95 328.55 522.1 316.5 522.65 304.2 521.8 302.3 522.15 297.5 522.65 296.4 522.85 296.25 520.7 Q295.4 519.7 294.7 518.0 294.3 517.1 294.3 516.35 294.15 514.05 297.05 513.2 303.35 511.3 307.35 506.8 308.8 505.25 310.75 504.35 L310.85 504.3 Q310.75 503.15 310.2 502.15 306.05 494.65 297.95 491.45 L297.95 490.0 Q295.4 489.8 294.25 487.65 293.65 486.55 293.45 484.9 292.75 479.25 294.9 475.2 297.4 470.3 304.0 467.7 L307.25 466.25 Q304.65 465.85 301.95 464.45 301.05 464.0 300.6 463.35 L299.85 463.5 300.3 462.7 Q300.0 461.75 300.55 460.55 301.75 457.85 304.25 456.05 307.55 453.65 310.2 450.8 310.4 447.45 313.1 445.25 314.3 444.25 315.85 444.1 L336.95 442.7 343.6 442.6 386.15 444.3 Q403.95 445.95 420.05 442.6 L421.2 442.35 421.95 442.15 422.55 442.0 422.6 442.0 430.0 442.85 Q432.55 442.95 434.35 442.2 L437.75 442.45 446.65 443.1 449.1 443.6 Q450.2 443.95 451.2 444.6 452.1 444.05 453.2 443.6 L455.15 442.7 Q457.3 441.6 459.6 440.95 L623.3 441.5 Q633.65 441.5 644.1 440.95 M479.4 66.9 Q500.2 62.45 521.05 68.85 530.7 71.8 535.75 76.8 L538.7 79.6 535.95 79.5 534.95 79.7 534.45 79.85 531.05 79.25 Q519.1 78.8 507.1 78.7 L507.05 78.75 501.2 79.1 485.8 79.75 Q482.8 73.85 479.2 68.55 L479.2 68.3 480.15 68.45 480.1 67.15 479.3 67.5 479.4 66.9 M542.25 232.0 Q536.4 226.45 527.65 226.2 519.7 225.8 514.75 231.35 L514.45 231.65 515.4 232.35 Q517.3 233.2 519.05 234.3 530.3 236.35 540.8 233.5 542.1 233.15 542.25 232.0 M489.2 494.95 L489.5 494.65 489.2 494.8 489.2 494.95 M518.55 483.75 Q530.9 493.6 545.6 491.95 L547.1 491.75 Q551.2 491.1 555.45 489.6 557.85 488.75 559.4 486.9 L559.35 486.6 559.1 484.7 559.1 484.1 559.4 482.7 Q559.65 482.0 560.35 481.65 L560.85 481.6 Q561.55 481.6 561.8 482.15 L561.75 480.15 561.6 478.95 561.1 475.85 Q560.65 473.25 559.1 471.55 554.2 473.3 547.9 471.95 541.95 470.65 536.05 471.7 530.75 472.6 525.95 474.9 519.6 477.95 518.55 483.75 M513.8 506.55 L492.8 504.05 Q495.75 505.65 499.75 505.6 L508.4 506.0 513.8 506.55 M489.55 501.5 Q488.8 499.4 488.4 497.4 L487.55 498.65 Q488.4 500.25 489.55 501.5 M496.75 517.5 L497.85 517.5 Q497.4 517.25 496.75 517.15 485.7 515.5 474.4 515.85 L474.2 517.0 475.4 517.05 492.05 517.55 496.75 517.5 M640.05 507.65 L639.6 507.3 631.45 508.85 Q636.15 508.85 640.65 507.9 L640.05 507.65 M460.95 445.25 L460.95 445.15 460.95 445.25 M495.6 486.35 Q489.6 484.1 483.9 485.7 L495.6 486.35" fill="#4d4d13" fill-rule="evenodd" stroke="none"/>
    <path d="M699.6 440.15 Q707.55 436.0 707.55 441.95 L707.55 442.3 707.55 442.6 707.55 442.7 707.55 442.8 707.55 442.9 707.55 443.0 707.55 443.95 Q709.55 445.8 707.95 448.65 L707.55 449.35 707.55 454.65 707.55 455.75 707.55 456.4 709.55 456.55 Q713.9 456.85 717.9 458.45 722.1 460.1 720.55 464.25 718.9 468.65 714.3 467.3 713.5 467.1 712.95 466.6 L707.25 466.0 707.5 468.25 Q708.9 476.55 708.9 484.55 708.9 486.75 708.35 488.0 L708.65 488.65 709.7 490.85 710.8 493.05 711.65 495.25 712.15 497.35 712.75 499.65 713.35 501.7 713.75 503.0 Q714.1 504.0 714.1 505.1 L714.1 508.35 Q714.1 509.45 714.45 510.45 L714.85 511.75 Q715.2 512.75 715.2 513.85 L715.2 516.05 714.95 518.2 714.35 520.5 714.3 520.7 Q716.85 524.95 714.05 527.15 L713.9 533.25 713.9 533.65 713.8 533.65 713.8 533.25 Q713.55 528.0 713.35 533.2 L713.3 533.65 713.3 533.75 713.2 533.65 713.15 533.2 Q713.05 530.2 713.0 533.2 L713.0 533.5 712.55 533.2 710.55 532.9 698.0 533.8 Q679.15 534.7 660.4 533.2 L652.4 533.65 Q651.15 533.6 649.9 534.1 L649.4 534.35 Q648.6 534.85 647.8 535.05 648.7 532.9 648.6 530.4 647.95 530.0 647.55 529.15 645.0 523.9 648.3 518.95 649.9 516.5 650.95 513.8 L651.05 505.8 Q646.25 502.1 647.7 494.65 L648.15 490.05 Q645.65 482.85 649.75 476.4 650.05 471.05 647.8 466.55 L647.7 466.55 Q647.8 463.25 647.5 459.9 647.35 458.45 647.8 457.3 649.15 453.7 649.0 450.3 647.8 450.0 647.15 449.35 647.1 447.9 646.2 446.7 L646.45 444.95 Q647.05 442.5 649.7 442.2 L663.55 441.25 665.2 441.1 Q681.5 442.6 697.85 441.95 L697.9 441.95 697.85 441.85 697.5 441.35 697.55 441.3 Q698.6 440.65 699.6 440.15 M178.15 577.65 L178.0 580.15 177.9 580.15 177.75 577.65 178.15 577.65 M177.6 577.65 L177.45 580.2 177.35 580.2 177.25 577.65 177.6 577.65 M174.0 535.3 L173.5 535.3 Q173.25 539.05 173.0 535.3 172.7 536.35 172.4 535.3 L172.4 535.2 Q172.15 533.7 171.9 535.2 L171.85 535.3 171.85 535.2 Q171.65 532.15 171.6 534.1 171.6 526.6 171.35 535.2 171.1 523.7 170.8 522.55 L170.55 520.45 170.55 519.35 170.4 516.1 169.45 512.75 169.45 510.55 169.45 509.45 169.45 508.35 169.45 506.2 169.45 505.1 169.25 503.0 168.35 500.7 168.35 499.6 168.35 498.5 168.15 496.4 167.05 494.25 166.15 491.95 166.15 490.85 166.0 487.6 164.9 484.3 164.2 482.0 163.95 479.9 163.7 477.75 163.15 475.45 Q162.85 473.85 162.85 472.2 L162.85 468.9 162.85 464.55 162.85 461.25 162.85 456.85 162.6 453.65 Q162.3 451.45 162.0 442.2 L162.85 441.95 Q166.85 443.15 170.9 441.95 173.15 442.95 175.4 441.95 L178.55 442.15 184.45 441.95 Q185.2 441.65 189.75 441.95 L190.35 441.9 190.3 441.85 190.3 441.55 190.3 441.25 190.4 440.9 190.55 440.65 190.8 440.3 194.7 440.15 Q212.0 443.0 230.3 440.9 L231.1 440.85 234.9 440.75 240.7 440.6 294.65 442.45 295.3 443.85 Q296.8 448.25 296.4 453.05 295.5 464.1 294.9 475.2 292.75 479.25 293.45 484.9 293.65 486.55 294.25 487.65 L294.15 490.05 Q293.9 495.2 292.25 500.0 L292.7 501.9 293.3 504.45 293.5 505.6 293.75 506.55 294.05 507.45 294.35 508.85 294.5 510.25 Q294.4 512.45 292.7 513.95 L293.35 516.55 294.05 519.45 294.95 523.2 295.15 524.15 Q294.45 524.45 294.6 525.4 294.8 526.65 295.65 527.3 L295.9 531.7 295.85 533.25 Q295.7 536.15 293.5 536.75 L291.75 536.9 Q288.5 536.7 287.2 534.7 273.2 534.6 259.3 534.9 234.9 535.4 210.55 532.8 L207.6 532.9 200.05 533.55 194.7 534.1 193.9 534.15 Q193.0 534.25 192.0 534.65 L190.55 535.05 190.3 535.1 189.55 535.3 182.95 535.3 174.0 535.2 174.0 535.3 M593.0 257.8 L592.95 257.8 Q585.65 263.75 586.2 273.35 L586.6 278.3 Q587.1 283.65 585.7 288.95 588.95 294.8 590.55 300.95 L590.95 302.7 591.85 308.55 Q592.0 309.8 590.85 310.6 L590.45 310.9 590.35 313.4 589.8 313.45 Q580.55 315.2 571.45 318.4 L569.8 319.0 Q568.0 320.55 566.5 322.35 575.65 326.7 586.35 326.25 588.65 326.15 589.75 328.2 592.95 334.1 586.35 336.7 583.55 337.8 580.85 337.9 580.05 339.7 579.75 342.2 L574.3 341.4 Q570.7 341.05 567.1 341.25 L518.45 342.95 506.8 343.1 444.15 343.5 435.8 343.5 427.1 343.55 401.6 343.55 394.0 343.5 Q365.1 343.4 336.35 342.4 L335.05 342.35 334.45 342.3 Q333.5 340.6 331.85 339.5 330.85 338.9 330.6 338.05 329.25 333.55 326.05 330.55 L326.05 329.95 325.0 328.3 Q324.3 326.9 324.35 325.25 324.6 318.1 330.35 314.05 L335.75 310.25 340.35 307.15 340.15 305.5 339.95 303.85 Q332.65 301.45 337.05 295.8 338.25 294.2 340.25 293.5 343.1 292.5 343.85 289.6 L343.95 289.25 Q343.15 288.6 342.15 288.75 333.65 290.0 327.9 286.5 L328.3 281.6 328.45 278.65 328.4 276.65 328.25 274.9 Q329.75 269.75 330.3 264.6 328.7 261.4 329.65 257.2 327.35 253.9 329.95 250.85 331.3 249.3 333.2 249.25 L335.85 250.8 Q337.95 248.65 341.25 248.95 L360.7 249.2 377.0 249.75 383.15 249.95 390.85 249.95 405.6 249.8 Q422.6 249.65 439.65 249.8 L443.25 249.8 480.6 250.1 484.05 250.15 Q487.5 247.75 492.05 247.65 L507.75 247.25 529.25 248.0 532.65 248.15 Q546.75 248.9 560.8 248.35 L575.6 247.7 575.85 247.65 575.95 247.65 581.1 247.35 Q583.85 247.15 586.0 248.4 L587.9 250.0 Q588.95 249.25 590.1 248.65 591.55 247.85 593.2 247.2 L595.9 247.25 597.45 247.25 Q600.6 248.6 599.55 251.8 L597.7 252.9 Q594.55 254.95 593.0 257.8 M591.45 54.6 L591.15 54.35 591.45 53.9 591.45 54.6 M490.6 42.5 L490.6 42.45 491.55 42.35 490.7 42.5 490.6 42.5 M408.35 161.5 L408.0 163.0 408.0 161.5 408.35 161.5 M464.05 285.3 Q459.75 286.2 459.15 289.35 458.8 291.2 459.5 292.45 471.05 298.15 481.15 289.65 481.8 289.05 481.65 288.15 471.65 285.65 461.4 288.05 462.85 286.8 464.45 285.9 L464.05 285.3 M296.0 246.65 Q298.25 247.5 300.2 249.15 L300.75 248.8 301.9 248.3 Q308.1 248.9 308.4 254.75 L308.4 255.0 Q309.65 256.45 310.3 258.25 310.7 259.35 310.6 260.55 321.8 264.6 326.4 274.9 L326.95 276.75 326.9 278.7 Q326.3 282.45 326.2 286.3 326.1 289.9 324.6 291.45 326.4 297.15 325.45 303.35 327.45 306.35 327.0 309.95 326.6 313.25 325.55 316.5 324.2 320.75 324.3 325.25 L324.45 328.0 324.5 328.3 Q324.6 330.2 324.15 331.95 325.6 334.9 323.85 337.6 L322.55 339.1 322.55 340.1 316.85 340.65 297.4 341.0 297.15 341.0 273.15 341.3 Q253.1 341.5 233.05 341.05 L229.75 340.9 Q207.65 338.95 186.9 343.85 L184.85 344.35 184.8 344.45 182.35 344.35 181.45 344.3 181.05 344.6 180.1 344.85 192.35 295.1 196.95 274.75 202.1 249.8 Q210.15 249.35 218.25 249.45 L254.2 248.25 274.55 246.75 296.0 246.65 M437.55 347.9 L437.5 348.2 437.5 347.9 437.55 347.9 M496.55 260.3 L495.4 260.35 505.0 261.1 502.95 260.75 500.9 260.6 496.55 260.3 M253.3 49.05 L253.35 49.5 253.25 49.5 253.3 49.05 M245.65 158.2 L256.85 143.6 Q257.7 149.45 255.3 152.2 L255.85 152.6 Q254.8 155.05 254.3 157.65 L254.25 157.8 247.55 158.2 245.65 158.2 M238.95 222.3 L238.8 222.2 239.2 221.65 238.95 222.3 M193.0 472.0 L192.0 472.15 Q191.2 472.15 190.6 472.6 L189.35 473.3 188.15 473.9 Q186.35 474.85 184.9 476.3 183.65 477.5 182.7 478.9 180.9 481.5 181.75 484.55 182.05 485.6 182.95 486.3 184.45 487.4 186.35 487.7 L189.75 488.05 189.95 488.1 190.25 488.2 Q192.75 489.25 195.4 489.75 L195.85 489.85 196.1 489.35 196.7 488.7 197.0 488.35 Q207.3 486.5 216.7 482.45 L217.05 482.25 217.3 481.95 217.45 481.35 217.5 480.7 217.6 480.4 217.8 480.05 217.8 479.8 217.55 478.8 217.5 478.5 Q206.65 472.6 193.75 472.8 192.95 472.85 193.0 472.1 L193.0 472.0 M460.95 445.25 L460.95 445.15 460.95 445.25" fill="#595413" fill-rule="evenodd" stroke="none"/>
    <path d="M317.8 68.5 Q316.7 69.5 314.55 69.0 L314.55 68.9 317.8 68.5" fill="#000000" fill-rule="evenodd" stroke="none"/>
    <path d="M538.7 79.6 Q548.0 88.45 559.6 97.8 L562.5 100.5 589.0 128.45 Q591.95 129.85 589.0 131.35 594.75 133.6 589.0 135.85 597.55 137.35 589.0 138.75 605.15 145.2 612.85 152.8 L618.35 158.25 616.7 158.25 570.55 156.85 567.2 156.6 567.15 156.6 Q549.7 155.45 532.35 156.95 L528.15 157.15 Q522.0 157.1 516.6 155.3 L516.6 155.0 Q516.55 150.15 514.2 146.9 509.7 151.15 505.65 156.15 L505.0 156.0 501.7 156.4 480.65 157.1 Q470.55 156.9 460.45 156.95 L457.25 156.95 Q440.6 156.95 423.95 157.45 L405.15 158.0 401.7 158.1 396.35 158.25 377.6 158.55 Q359.2 158.65 340.75 158.0 326.9 157.55 313.15 157.5 297.25 157.5 281.5 158.05 L260.75 159.0 260.7 158.7 260.6 158.25 Q260.15 156.4 258.7 155.5 L258.75 155.25 259.0 154.65 Q259.75 153.45 259.8 152.1 L259.45 151.1 259.0 150.2 258.9 150.15 259.0 150.0 259.05 149.35 258.9 144.65 Q260.45 142.5 261.1 140.15 L260.45 138.8 281.6 110.5 Q290.1 103.45 281.6 98.65 296.0 97.2 281.6 95.45 299.3 92.3 302.05 87.6 305.2 82.25 311.6 80.35 L318.7 79.4 322.95 79.8 323.1 79.8 324.6 79.9 330.75 80.45 377.75 83.75 Q392.35 84.6 406.8 83.75 L456.5 81.7 Q466.3 81.45 476.05 81.35 L485.8 81.25 Q506.2 81.1 526.55 81.5 L530.5 81.65 Q532.3 80.4 534.45 79.85 L534.95 79.7 535.95 79.5 538.7 79.6 M719.15 246.95 L720.4 249.4 720.45 250.9 720.9 250.9 721.0 250.4 721.8 251.8 721.8 262.9 721.8 265.1 721.55 267.2 720.7 270.55 720.45 272.7 719.6 276.05 Q719.6 277.15 719.25 278.15 L718.85 279.45 Q718.5 280.45 718.3 282.5 L717.55 283.8 Q716.85 284.8 716.3 287.0 L716.3 289.2 716.15 292.45 715.45 294.7 715.2 296.85 715.05 300.1 714.3 303.5 713.85 305.6 713.3 307.85 Q713.0 309.45 713.0 311.1 L712.8 313.25 712.1 316.65 711.9 318.8 711.65 322.0 711.05 325.4 Q710.8 327.0 710.8 328.65 L710.55 331.9 Q710.25 333.5 710.05 342.95 L709.95 342.95 Q709.75 338.75 709.7 342.95 L708.9 342.95 707.7 343.0 706.6 343.0 696.55 343.05 Q695.2 338.85 693.45 334.8 684.5 314.0 679.85 291.3 678.75 285.75 676.8 280.5 670.7 263.95 663.1 247.8 L669.05 247.85 679.1 247.8 695.05 249.35 Q700.45 250.0 705.7 248.15 711.6 246.1 716.9 247.85 L716.9 247.75 716.9 247.7 Q718.0 247.15 719.15 246.95 M713.9 533.25 Q717.05 533.45 719.3 535.7 720.95 537.35 719.65 539.25 717.5 542.4 713.35 543.0 L713.0 543.05 713.0 548.9 713.0 551.1 713.0 553.3 713.0 555.5 713.0 558.8 713.0 561.0 712.75 564.2 712.1 567.6 711.9 569.75 711.9 579.5 Q711.85 577.6 711.65 581.4 711.35 578.5 710.65 581.4 710.25 580.15 710.05 581.4 L709.7 581.45 708.65 581.4 707.55 581.4 Q707.25 585.1 703.65 584.55 704.25 590.3 698.9 590.45 698.55 592.4 696.45 592.55 L696.45 592.95 696.45 593.65 Q698.2 593.85 696.45 594.05 697.1 594.4 696.45 594.75 696.0 594.95 696.4 594.95 694.95 594.95 696.45 595.15 693.85 595.5 696.45 595.85 693.45 596.0 695.35 596.05 L683.4 596.05 681.25 596.05 679.05 596.05 676.85 596.05 674.7 595.8 672.4 595.2 670.25 594.95 669.15 594.95 665.9 594.95 663.75 595.2 661.5 595.5 658.15 595.15 656.0 594.95 653.85 594.95 650.55 594.95 647.25 594.95 643.95 594.95 640.75 594.65 638.45 594.15 635.2 593.85 631.9 593.85 629.7 593.85 627.6 593.6 625.3 593.05 622.05 592.75 618.75 592.75 615.45 592.75 613.3 592.75 610.0 592.75 606.7 592.75 604.5 592.75 600.2 593.05 596.85 593.3 593.5 592.95 591.35 592.75 587.0 592.75 583.7 592.75 579.3 592.75 574.95 592.45 Q573.9 592.3 572.85 587.95 L572.85 587.85 572.65 587.95 572.4 588.05 Q557.75 588.3 543.85 587.45 543.45 587.45 543.4 586.85 529.7 585.4 515.3 586.9 510.9 587.3 507.25 585.5 L506.85 585.15 484.65 585.8 Q484.3 585.8 484.1 585.4 L483.65 585.35 479.7 585.2 478.3 585.15 474.85 585.0 Q474.0 586.05 473.2 584.65 L470.3 585.05 Q469.3 586.2 468.35 585.3 L464.75 585.75 463.9 585.85 463.5 585.9 Q460.45 586.25 457.4 585.95 455.9 587.05 454.1 586.8 L453.7 586.6 453.45 586.35 453.25 586.1 453.1 585.85 452.9 585.15 Q452.55 583.5 453.65 582.4 L453.35 581.45 453.85 581.25 Q455.0 580.05 454.85 578.1 454.55 575.2 454.6 572.35 454.6 569.45 454.9 566.65 453.5 563.85 454.0 560.45 L454.1 559.75 454.5 558.1 Q454.85 556.85 454.65 555.45 454.15 552.2 455.3 549.05 L456.3 546.85 454.4 544.5 454.25 544.45 454.25 544.3 Q452.45 541.3 454.3 538.95 L454.25 538.7 454.5 538.75 Q455.35 537.7 456.9 536.8 458.2 536.05 459.7 536.1 497.65 537.55 535.35 535.0 L535.55 535.0 542.3 535.95 543.25 535.75 543.55 535.9 543.75 536.0 546.05 535.85 Q560.05 536.0 573.8 533.6 L580.4 533.1 586.95 533.85 Q589.0 534.3 589.85 536.2 605.55 534.9 621.35 535.85 L626.75 536.25 Q628.25 536.4 629.6 535.45 L630.45 534.85 Q631.95 533.55 632.9 531.8 635.4 526.95 641.05 526.75 646.35 528.75 647.3 535.05 L647.4 535.2 647.8 535.25 Q672.95 536.3 698.05 534.7 L705.65 534.15 710.6 533.45 710.65 533.45 712.55 533.2 713.0 533.5 713.0 533.2 713.15 533.2 713.2 533.65 713.3 533.75 713.3 533.65 713.35 533.2 713.8 533.25 713.8 533.65 713.9 533.65 713.9 533.25 M162.0 442.2 L162.0 441.95 161.75 441.95 161.75 428.35 161.75 425.1 161.75 421.8 161.75 419.9 161.75 418.5 161.75 415.2 161.95 413.1 162.65 409.7 162.85 407.55 162.85 405.35 162.85 402.05 162.85 399.9 162.85 396.6 162.85 393.3 162.85 390.0 162.85 386.75 162.85 383.45 162.85 379.05 162.85 375.75 162.85 372.5 162.85 368.1 162.85 363.7 162.85 359.35 162.85 345.55 162.8 345.3 Q163.85 345.15 164.9 344.3 171.55 345.1 178.45 344.3 179.1 344.75 179.75 344.85 L180.1 344.85 181.05 344.6 181.45 344.3 182.35 344.35 184.8 344.45 184.85 344.35 186.9 343.85 215.45 341.5 252.0 342.3 Q260.7 342.5 268.8 344.75 283.3 344.35 297.15 341.0 L297.4 341.0 Q315.8 343.7 334.4 342.35 L335.05 342.35 336.35 342.4 Q338.75 342.6 340.8 343.9 L341.5 344.6 Q371.6 346.05 401.6 343.55 L427.1 343.55 Q430.6 344.3 433.8 345.9 L434.05 345.6 Q434.8 344.75 435.8 344.7 438.5 345.95 439.7 348.3 440.35 349.55 440.6 351.15 440.8 352.5 440.65 354.1 440.3 358.3 440.45 362.45 440.55 366.45 437.95 369.35 435.2 372.45 432.35 369.55 L432.25 369.4 431.75 369.55 431.75 370.45 Q433.6 372.95 435.25 375.8 436.55 378.05 437.4 380.45 438.35 383.4 438.25 386.55 438.2 388.5 437.75 390.35 439.35 397.2 439.05 404.6 L438.95 407.75 438.6 412.05 Q438.35 414.55 437.75 416.05 438.1 418.65 438.0 421.3 437.7 428.25 437.9 435.05 437.95 437.35 437.4 438.95 L437.8 441.65 435.8 441.3 Q435.15 441.85 434.35 442.2 432.55 442.95 430.0 442.85 L422.6 442.0 422.55 442.0 421.95 442.15 421.2 442.35 420.05 442.6 Q403.95 445.95 386.15 444.3 L343.6 442.6 336.95 442.7 315.85 442.7 295.3 442.45 294.65 442.45 240.7 440.6 234.9 440.75 231.1 440.85 230.3 440.9 Q212.0 443.0 194.7 440.15 L190.8 440.3 190.55 440.65 190.4 440.9 190.3 441.25 190.3 441.55 190.3 441.85 190.35 441.9 189.75 441.95 Q185.2 441.65 184.45 441.95 L178.55 442.15 175.4 441.95 Q173.15 442.95 170.9 441.95 166.85 443.15 162.85 441.95 L162.0 442.2 M215.85 79.9 L217.8 77.7 Q249.9 42.85 276.4 5.5 L276.8 5.55 280.15 6.2 283.4 6.45 286.7 6.45 290.0 6.45 294.35 6.45 297.65 6.45 302.05 6.45 306.4 6.45 309.7 6.45 315.2 6.45 318.5 6.45 322.85 6.45 323.1 6.45 Q323.6 8.65 323.6 11.0 L323.5 13.0 323.4 15.2 Q323.25 20.0 320.65 24.0 320.7 24.6 321.05 25.05 318.05 27.3 315.6 30.3 317.8 32.85 318.85 35.3 L318.9 35.4 Q325.95 39.3 319.65 47.95 318.05 50.15 315.45 49.25 L313.9 48.7 Q311.4 50.6 308.3 50.05 306.9 49.8 305.65 49.15 L302.45 49.95 301.65 50.2 302.4 50.3 Q309.55 51.4 314.85 54.65 316.65 54.0 318.7 53.95 332.6 54.0 327.4 65.3 L327.2 65.75 328.2 66.65 328.05 66.85 Q325.85 70.25 326.45 72.6 330.45 72.4 334.95 75.75 L337.65 77.35 Q342.7 79.7 349.25 78.75 L352.8 78.15 Q361.4 76.35 370.3 72.45 373.45 71.05 377.0 70.2 386.8 67.9 395.8 65.25 401.95 63.4 408.95 45.7 408.0 65.45 406.85 67.15 L405.2 69.15 403.15 70.65 Q406.15 75.95 416.5 73.35 430.85 69.75 444.65 64.2 446.3 63.55 448.05 45.7 450.05 64.5 451.95 64.65 456.95 65.05 459.75 66.5 L462.7 68.1 Q466.9 70.3 472.25 68.7 L477.45 67.3 475.7 71.75 Q475.65 76.05 476.05 80.45 L455.4 80.0 Q438.0 79.35 420.6 80.25 398.75 81.4 376.95 81.35 L366.95 81.3 330.8 79.95 330.7 79.65 Q330.9 78.15 329.7 77.65 L329.2 76.9 328.0 74.85 327.95 74.8 Q326.75 73.85 326.45 72.6 321.5 72.8 317.3 78.4 L316.9 78.9 307.5 79.3 299.7 79.65 292.9 80.0 Q284.15 80.5 275.4 80.45 L272.55 80.4 270.0 80.35 Q242.85 79.75 215.85 79.9 M706.45 339.75 L707.7 343.0 706.45 339.75 M697.05 581.75 L696.45 581.4 696.55 581.65 697.05 581.75 M316.55 12.4 Q320.45 11.15 323.6 11.0 320.45 11.15 316.55 12.4 M378.45 133.4 L379.55 133.2 377.6 132.95 375.15 132.55 374.25 132.35 371.35 132.15 370.0 132.1 367.9 131.95 367.9 132.1 368.15 132.35 Q365.0 133.8 360.65 134.7 356.0 135.65 353.15 138.75 359.4 145.25 370.25 143.75 L381.7 142.9 Q387.0 142.9 390.85 139.8 385.2 135.65 377.95 134.95 L377.7 134.65 377.75 134.35 377.85 134.0 Q378.05 133.55 378.45 133.4 M367.9 131.95 L367.7 131.95 365.55 132.05 364.45 132.05 Q363.05 131.95 362.0 132.65 363.05 131.95 364.45 132.05 L365.55 132.05 367.7 131.95 367.9 131.95 M382.95 134.2 L379.55 133.2 382.95 134.2 M350.5 370.15 L351.0 368.85 351.5 367.3 Q343.6 362.05 333.4 362.9 320.7 362.5 311.4 371.05 L311.25 371.3 Q330.4 379.2 350.2 370.8 L350.5 370.15 M328.15 372.55 Q332.45 370.5 337.0 367.65 337.7 371.35 332.25 372.75 L328.15 372.55 M437.55 347.9 L437.5 347.9 437.5 348.2 437.55 347.9 M253.3 49.05 L253.25 49.5 253.35 49.5 253.3 49.05 M260.4 106.4 L260.4 106.25 261.0 106.3 Q260.65 106.4 260.65 106.55 L260.1 110.15 259.8 108.85 259.7 108.6 259.9 108.1 260.35 106.45 260.4 106.4 M317.8 68.5 L314.55 68.9 314.55 69.0 Q316.7 69.5 317.8 68.5 M242.8 431.1 L244.75 430.45 Q243.6 430.65 242.5 431.1 L242.8 431.1 M575.8 553.95 L575.8 552.65 575.25 553.55 575.8 553.95 M579.1 560.65 L578.45 561.25 579.1 560.65" fill="#616018" fill-rule="evenodd" stroke="none"/>
    <path d="M452.9 585.15 Q451.1 587.25 447.7 586.75 L439.45 585.85 438.55 585.75 436.35 585.6 435.35 585.55 433.9 585.5 431.1 585.3 Q430.2 586.7 429.35 585.2 L426.85 585.05 Q425.85 586.95 424.85 584.95 L422.6 584.85 Q421.45 587.2 420.35 584.7 L418.3 584.6 Q417.1 587.4 415.9 584.5 L413.95 584.4 Q412.7 587.05 411.5 584.3 L409.2 584.2 Q407.75 586.2 406.35 584.1 L403.5 583.95 Q401.75 585.9 400.0 583.85 L397.35 583.75 Q395.7 586.1 394.1 583.65 L391.65 583.55 Q389.7 585.75 387.75 583.45 L385.3 583.35 Q383.65 585.4 382.05 583.25 L381.55 583.25 380.85 583.15 379.75 583.15 Q377.65 585.55 375.6 583.2 L373.25 583.2 Q371.65 584.95 370.05 583.25 L367.2 583.25 Q365.6 584.35 364.0 583.25 L360.65 583.25 Q359.05 584.4 357.4 583.2 L356.05 583.2 354.4 583.2 Q353.0 584.4 351.65 583.2 L348.7 583.15 Q347.55 583.9 346.35 583.15 L343.15 583.15 Q342.6 583.4 342.0 583.15 L339.25 583.1 Q338.75 583.4 338.3 583.1 L336.25 583.1 Q335.45 583.95 334.7 583.1 L333.3 583.1 Q332.75 584.55 332.15 583.1 L330.05 583.05 Q329.45 584.55 328.85 583.05 L327.9 583.05 Q327.25 584.55 326.7 583.05 L324.65 583.05 Q323.95 585.7 323.2 583.0 L322.3 583.0 Q321.2 585.7 320.1 583.0 L319.05 583.0 Q317.95 585.7 316.9 583.05 L315.85 583.05 Q314.65 586.15 313.55 583.15 L312.4 583.2 Q310.85 587.1 309.3 583.35 L308.0 583.45 Q306.5 587.8 304.95 583.7 L303.7 583.85 Q302.65 588.0 301.6 584.1 L300.2 584.25 Q298.85 588.0 297.55 584.75 L295.85 585.1 295.75 585.15 Q293.95 592.25 292.15 592.45 L286.7 592.75 281.2 592.75 275.75 592.75 271.35 592.75 265.9 592.5 Q264.05 592.3 262.2 587.4 L249.75 588.6 Q239.75 589.6 231.7 585.2 230.5 587.35 229.3 583.7 L229.15 583.6 228.3 583.0 Q226.8 589.1 225.25 581.4 223.7 589.45 222.05 581.4 220.4 589.45 218.8 581.4 217.1 588.95 215.45 581.4 213.8 587.85 212.1 581.4 211.1 587.3 210.05 581.4 208.9 586.75 207.75 581.4 206.7 586.2 205.6 581.4 204.5 586.2 203.4 581.4 202.3 586.2 201.2 581.4 200.65 586.2 189.75 581.4 180.0 576.4 178.6 580.3 L178.4 580.25 Q178.25 576.7 178.2 578.9 L178.15 577.65 177.75 577.65 Q177.65 576.8 177.6 577.65 L177.25 577.65 Q177.15 576.25 177.15 577.65 L177.1 569.75 176.95 567.6 176.0 564.25 176.0 563.15 175.75 561.05 175.15 558.75 174.9 556.6 174.9 554.4 174.9 551.1 174.7 548.95 Q174.35 547.3 174.0 535.3 L174.0 535.2 182.95 535.3 189.55 535.3 Q189.1 535.5 188.8 535.9 L194.05 535.4 203.05 535.25 Q211.85 535.05 220.6 535.65 L233.7 536.35 251.1 537.3 268.7 537.9 286.3 537.9 293.55 537.15 293.6 537.15 294.7 536.85 Q295.55 536.65 296.3 535.95 L296.5 535.8 Q296.6 534.5 297.85 534.2 299.4 535.2 301.05 535.85 304.05 537.0 307.35 537.1 L325.2 537.4 343.0 538.05 344.35 538.25 Q353.55 537.85 362.65 538.05 363.1 537.15 364.7 537.2 L374.2 537.55 375.05 537.3 380.8 537.7 Q395.8 537.9 410.8 537.35 L418.4 536.85 426.55 535.95 Q435.05 536.15 443.3 537.7 443.7 537.75 444.0 538.05 446.0 539.95 448.75 540.8 451.65 541.65 452.55 544.1 453.25 546.1 454.25 548.0 454.5 548.45 454.4 548.8 L453.85 549.25 453.5 549.35 452.35 551.2 Q452.95 552.45 453.1 554.1 L453.25 555.5 Q454.5 557.1 454.0 559.7 L453.9 560.45 453.5 564.1 452.95 569.25 453.15 572.45 453.1 574.25 Q453.6 577.85 452.8 581.25 L453.25 581.35 453.3 581.35 453.3 581.4 453.3 581.45 453.25 581.8 453.65 582.4 Q452.55 583.5 452.9 585.15 M650.15 247.75 L663.1 247.8 Q670.7 263.95 676.8 280.5 678.75 285.75 679.85 291.3 684.5 314.0 693.45 334.8 695.2 338.85 696.55 343.05 L694.45 343.0 680.05 342.4 679.95 342.4 Q664.65 341.45 649.35 341.55 624.3 341.7 599.05 341.0 L594.05 341.65 593.75 341.65 Q593.9 340.35 593.7 339.0 592.65 331.75 594.2 324.6 595.25 319.75 595.3 315.05 L594.9 311.8 594.55 307.1 592.85 304.95 Q591.8 303.75 591.3 302.6 590.95 301.75 590.9 300.9 590.7 298.3 593.3 295.9 595.2 294.15 597.9 294.1 603.1 294.0 607.2 291.15 L607.55 288.4 Q608.15 284.35 610.25 281.0 609.95 279.85 609.25 278.7 L604.9 277.35 Q603.95 278.15 602.5 277.95 592.0 276.35 591.35 265.65 591.1 261.15 593.0 257.8 594.55 254.95 597.7 252.9 L599.55 251.8 Q604.55 248.8 610.15 247.4 L638.05 247.65 642.65 248.8 650.15 247.75 M324.6 79.9 L323.1 79.8 322.95 79.8 322.85 79.75 319.05 78.8 318.7 78.85 316.9 78.9 317.3 78.4 Q321.5 72.8 326.45 72.6 326.75 73.85 327.95 74.8 L328.0 74.85 329.2 76.9 Q327.95 79.9 324.6 79.9" fill="#71751c" fill-rule="evenodd" stroke="none"/>
    <path d="M707.9 344.15 Q714.25 344.5 720.35 346.1 722.3 346.65 722.35 348.65 722.45 356.0 713.8 354.65 L711.5 354.35 711.65 356.1 711.9 359.35 711.9 361.5 711.9 364.8 711.9 368.1 711.65 370.25 711.05 372.55 710.8 374.65 710.55 376.8 709.95 379.1 709.4 381.15 708.65 383.45 708.65 383.95 708.3 385.55 707.9 386.85 Q707.75 387.2 706.15 387.6 705.0 396.7 704.55 405.95 704.55 406.45 703.95 406.75 L703.25 407.2 Q704.9 424.6 699.6 440.15 698.6 440.65 697.55 441.3 L697.5 441.35 697.4 441.25 697.15 441.15 Q696.05 440.6 694.85 440.6 L694.8 440.6 683.9 440.25 Q667.75 439.3 651.55 440.5 L644.1 440.95 Q633.65 441.5 623.3 441.5 L459.6 440.95 454.95 440.95 Q453.75 441.95 451.55 442.4 L449.55 442.25 Q448.65 441.85 448.0 440.8 445.45 436.6 443.65 432.25 L441.55 431.35 441.9 423.15 441.7 422.8 Q440.15 420.25 440.2 417.25 L440.05 416.3 440.0 416.05 Q439.6 414.1 440.5 412.35 439.55 410.0 439.75 407.8 439.95 405.5 441.25 403.35 444.6 397.95 450.4 395.05 459.75 390.4 469.5 386.75 456.35 385.85 443.65 383.7 443.95 379.5 443.05 375.5 L442.45 372.55 441.9 369.35 Q442.7 367.8 442.9 365.75 441.05 365.2 441.0 362.5 L441.1 361.05 441.5 359.9 441.55 354.1 441.55 354.0 441.55 351.8 440.6 351.15 Q440.35 349.55 439.7 348.3 439.9 347.25 440.75 345.95 441.95 344.15 444.15 344.35 461.45 345.75 478.9 345.15 L506.8 344.1 518.45 344.2 540.65 344.25 Q557.7 344.3 574.75 343.7 577.85 343.55 580.95 344.45 L581.1 344.5 Q584.0 343.45 587.1 343.1 L588.95 342.9 593.75 342.95 621.6 344.3 Q634.15 345.35 646.65 344.75 L671.7 343.9 680.0 343.8 Q687.3 343.75 694.45 343.85 L696.85 343.9 706.6 344.1 707.9 344.15 708.05 346.8 707.9 344.15 M651.3 390.8 L650.75 391.05 646.55 391.25 Q647.5 391.3 648.0 392.05 L648.2 392.65 Q647.65 393.65 646.2 393.7 L644.85 393.8 Q642.4 393.2 641.5 391.15 643.7 388.25 648.1 388.35 L648.65 388.3 Q650.6 388.35 651.75 389.6 L651.9 389.9 Q651.8 390.5 651.3 390.8 M656.2 385.7 Q644.35 383.7 634.4 389.55 633.6 390.0 633.0 390.95 L633.05 391.2 634.1 392.5 634.35 392.75 Q639.5 394.65 644.7 395.2 652.1 396.0 659.55 394.15 L659.95 393.3 660.2 392.15 Q660.2 390.65 659.8 389.1 659.1 386.5 657.1 385.25 656.75 385.65 656.2 385.7 M260.6 158.25 L260.7 158.7 260.75 159.0 281.5 158.05 Q297.25 157.5 313.15 157.5 326.9 157.55 340.75 158.0 359.2 158.65 377.6 158.55 L393.55 159.95 396.35 158.25 401.7 158.1 405.15 158.0 Q410.85 160.6 411.05 167.85 L411.1 168.3 Q414.8 171.05 416.6 175.35 L417.3 177.45 Q428.15 177.7 434.25 185.15 433.95 188.35 435.8 192.5 L435.85 194.1 435.3 194.9 Q433.9 196.85 432.15 198.25 434.65 204.25 434.55 210.8 434.5 212.95 433.85 215.0 437.65 220.3 438.05 224.8 L437.85 225.3 Q436.9 227.85 437.15 230.1 L435.85 232.3 435.9 233.85 435.85 233.85 435.55 234.2 Q430.6 240.7 428.0 248.05 L405.6 248.75 383.15 248.75 377.0 248.65 360.75 248.2 338.3 246.95 Q326.35 246.15 314.4 246.35 L296.0 246.65 274.55 246.75 270.6 246.75 202.3 248.95 204.7 237.05 Q205.5 233.1 206.75 229.55 212.65 213.4 213.75 196.2 L214.2 194.05 Q219.6 177.35 238.65 165.7 240.9 164.4 242.5 162.3 L245.55 158.35 247.55 158.35 260.6 158.25 M408.35 161.5 L408.0 161.5 408.0 163.0 408.35 161.5 M336.55 240.4 Q336.8 240.85 337.35 240.75 L338.65 240.6 336.55 240.4 M622.85 395.2 L622.8 395.2 622.85 395.25 622.85 395.2 M238.95 222.3 Q247.5 226.15 254.65 220.95 253.6 217.85 250.15 216.6 L249.95 216.25 251.35 215.9 251.2 215.3 247.95 215.55 247.95 215.6 Q242.5 217.2 239.2 221.65 L238.8 222.2 238.95 222.3 M561.0 420.95 L560.0 420.85 559.85 420.9 561.0 420.95" fill="#6d6616" fill-rule="evenodd" stroke="none"/>
    <path d="M656.2 385.7 Q656.75 385.65 657.1 385.25 659.1 386.5 659.8 389.1 660.2 390.65 660.2 392.15 L659.95 393.3 659.55 394.15 Q652.1 396.0 644.7 395.2 639.5 394.65 634.35 392.75 L634.1 392.5 633.05 391.2 633.0 390.95 Q633.6 390.0 634.4 389.55 644.35 383.7 656.2 385.7 M651.3 390.8 Q651.8 390.5 651.9 389.9 L651.75 389.6 Q650.6 388.35 648.65 388.3 L648.1 388.35 Q643.7 388.25 641.5 391.15 642.4 393.2 644.85 393.8 L646.2 393.7 Q647.65 393.65 648.2 392.65 L648.0 392.05 Q647.5 391.3 646.55 391.25 L650.75 391.05 651.3 390.8 M239.2 221.65 Q242.5 217.2 247.95 215.6 L247.95 215.55 251.2 215.3 251.35 215.9 249.95 216.25 250.15 216.6 Q253.6 217.85 254.65 220.95 247.5 226.15 238.95 222.3 L239.2 221.65" fill="#544912" fill-rule="evenodd" stroke="none"/>
    <path d="M708.65 581.4 Q708.1 586.75 707.55 581.4 L708.65 581.4 M696.45 592.95 Q699.3 593.3 696.45 593.65 L696.45 592.95 M260.4 106.25 L260.55 104.9 261.0 106.3 260.4 106.25 M579.1 560.65 L578.45 561.25 579.1 560.65 M575.8 553.95 L575.25 553.55 575.8 552.65 575.8 553.95" fill="#9e8223" fill-rule="evenodd" stroke="none"/>
    <path d="M574.6 51.7 Q571.45 53.4 567.55 53.75 558.85 54.55 550.1 54.1 541.5 53.65 536.15 49.8 L536.25 49.6 Q543.3 45.35 551.6 45.0 L552.4 45.05 Q554.8 44.7 553.6 45.5 L553.2 45.95 551.95 46.4 550.55 46.65 551.7 46.75 553.4 46.9 Q564.4 47.1 574.6 51.7 M515.65 23.05 L516.05 23.2 516.0 23.2 Q515.2 23.55 515.05 24.4 L515.25 24.95 516.2 26.3 516.15 27.25 515.7 28.5 Q513.7 29.7 512.0 31.35 503.55 35.25 497.4 31.05 L497.5 30.05 Q498.1 27.85 499.4 26.0 L499.3 25.35 498.95 24.7 498.95 24.65 Q501.75 22.35 505.2 21.25 L507.15 20.85 Q509.6 20.55 511.85 21.35 L513.35 22.05 514.35 22.55 515.65 23.05" fill="#302f0c" fill-rule="evenodd" stroke="none"/>
    <path d="M453.85 581.25 L453.35 581.45 453.3 581.4 453.3 581.35 453.85 581.25 M331.85 23.3 L332.35 23.35 Q332.0 23.45 331.9 23.7 L331.6 24.5 331.85 23.3" fill="#77621a" fill-rule="evenodd" stroke="none"/>
    <path d="M378.45 133.4 Q378.05 133.55 377.85 134.0 L377.75 134.35 377.7 134.65 377.95 134.95 Q385.2 135.65 390.85 139.8 387.0 142.9 381.7 142.9 L370.25 143.75 Q359.4 145.25 353.15 138.75 356.0 135.65 360.65 134.7 365.0 133.8 368.15 132.35 L367.9 132.1 367.9 131.95 370.0 132.1 371.35 132.15 374.25 132.35 375.15 132.55 377.6 132.95 379.55 133.2 378.45 133.4" fill="#474312" fill-rule="evenodd" stroke="none"/>
    <path d="M162.85 250.9 L162.85 238.8 162.6 235.55 162.0 232.15 161.75 228.9 161.75 225.65 161.75 222.35 Q161.75 220.15 162.0 218.0 L162.6 213.5 162.85 209.2 162.85 204.8 162.85 201.5 162.85 197.15 162.85 193.85 162.85 189.45 162.95 187.2 Q157.15 182.0 162.65 173.1 L163.95 171.45 163.95 159.65 163.95 159.3 169.45 159.4 172.9 159.65 174.35 159.35 174.55 158.8 Q184.95 158.5 195.45 158.35 L245.55 158.35 242.5 162.3 Q240.9 164.4 238.65 165.7 219.6 177.35 214.2 194.05 L213.75 196.2 Q212.65 213.4 206.75 229.55 205.5 233.1 204.7 237.05 L202.3 248.95 174.95 251.05 162.85 250.9 M464.05 285.3 L464.45 285.9 Q462.85 286.8 461.4 288.05 471.65 285.65 481.65 288.15 481.8 289.05 481.15 289.65 471.05 298.15 459.5 292.45 458.8 291.2 459.15 289.35 459.75 286.2 464.05 285.3" fill="#4f4511" fill-rule="evenodd" stroke="none"/>
    <path d="M328.15 372.55 L332.25 372.75 Q337.7 371.35 337.0 367.65 332.45 370.5 328.15 372.55 M350.5 370.15 L350.2 370.8 Q330.4 379.2 311.25 371.3 L311.4 371.05 Q320.7 362.5 333.4 362.9 343.6 362.05 351.5 367.3 L351.0 368.85 350.5 370.15" fill="#444011" fill-rule="evenodd" stroke="none"/>
    <path d="M635.8 80.6 L620.0 80.6 Q605.5 80.55 591.0 80.1 L555.4 79.0 555.35 79.05 553.3 79.15 Q551.0 78.95 548.65 79.15 L545.15 79.85 544.8 79.95 538.7 79.6 535.75 76.8 Q530.7 71.8 521.05 68.85 500.2 62.45 479.4 66.9 L479.95 64.0 480.3 62.4 480.15 61.4 479.9 58.3 Q479.65 53.9 480.45 49.45 480.9 46.95 481.6 44.55 482.3 41.85 483.3 39.2 L482.9 38.45 482.7 38.4 482.75 38.1 482.55 37.65 482.25 36.9 481.6 36.65 481.45 36.6 481.45 36.65 481.2 36.7 481.15 36.5 481.3 36.15 481.5 34.85 481.55 34.75 481.5 34.55 Q481.05 32.65 481.2 31.0 L481.2 30.95 Q481.55 27.0 485.15 24.2 L485.25 24.1 485.2 24.05 484.75 23.75 Q487.05 19.1 488.7 14.2 L489.15 12.95 Q489.9 10.9 490.25 8.85 490.65 6.15 490.3 3.45 L492.8 3.9 498.15 4.5 503.75 5.05 510.25 5.6 516.85 6.2 523.4 6.45 531.1 6.45 538.75 6.45 546.45 6.75 553.0 7.25 560.7 7.55 567.25 7.55 573.85 7.55 580.4 7.55 585.85 7.3 591.4 6.7 593.0 6.6 642.65 64.55 Q648.65 71.55 652.75 79.2 L636.1 79.45 635.95 80.0 635.8 80.55 635.8 80.6 M618.35 158.25 Q632.8 158.3 647.35 158.75 L686.5 159.85 Q700.95 196.9 714.0 234.75 716.25 241.3 719.15 246.95 718.0 247.15 716.9 247.7 L717.05 247.1 716.8 246.85 Q715.95 246.35 714.95 246.05 711.1 247.05 706.75 247.1 L682.1 247.7 679.1 247.8 669.05 247.85 663.1 247.8 657.0 235.5 Q652.6 226.95 650.2 217.95 643.2 191.7 629.45 169.9 628.35 168.15 626.9 166.75 L618.35 158.25 M591.45 54.6 L591.45 53.9 591.15 54.35 591.45 54.6 M574.6 51.7 Q564.4 47.1 553.4 46.9 L551.7 46.75 550.55 46.65 551.95 46.4 553.2 45.95 553.6 45.5 Q554.8 44.7 552.4 45.05 L551.6 45.0 Q543.3 45.35 536.25 49.6 L536.15 49.8 Q541.5 53.65 550.1 54.1 558.85 54.55 567.55 53.75 571.45 53.4 574.6 51.7 M515.65 23.05 L514.35 22.55 513.35 22.05 511.85 21.35 Q509.6 20.55 507.15 20.85 L505.2 21.25 Q501.75 22.35 498.95 24.65 L498.95 24.7 499.3 25.35 499.4 26.0 Q498.1 27.85 497.5 30.05 L497.4 31.05 Q503.55 35.25 512.0 31.35 513.7 29.7 515.7 28.5 L516.15 27.25 516.2 26.3 515.25 24.95 515.05 24.4 Q515.2 23.55 516.0 23.2 L516.05 23.2 515.65 23.05 M494.05 12.1 L493.3 11.25 Q492.05 9.65 490.25 8.85 492.05 9.65 493.3 11.25 L494.05 12.1 M490.6 42.5 L490.7 42.5 491.55 42.35 490.6 42.45 490.6 42.5 M542.25 232.0 Q542.1 233.15 540.8 233.5 530.3 236.35 519.05 234.3 517.3 233.2 515.4 232.35 L514.45 231.65 514.75 231.35 Q519.7 225.8 527.65 226.2 536.4 226.45 542.25 232.0 M518.55 483.75 Q519.6 477.95 525.95 474.9 530.75 472.6 536.05 471.7 541.95 470.65 547.9 471.95 554.2 473.3 559.1 471.55 560.65 473.25 561.1 475.85 L561.6 478.95 561.75 480.15 561.8 482.15 Q561.55 481.6 560.85 481.6 L560.35 481.65 Q559.65 482.0 559.4 482.7 L559.1 484.1 559.1 484.7 559.35 486.6 559.4 486.9 Q557.85 488.75 555.45 489.6 551.2 491.1 547.1 491.75 L545.6 491.95 Q530.9 493.6 518.55 483.75" fill="#39390f" fill-rule="evenodd" stroke="none"/>
    <path d="M162.8 345.3 L162.6 344.35 162.6 344.3 Q162.3 344.0 162.0 344.3 L162.0 343.65 Q161.8 340.7 161.75 342.85 L161.75 331.95 161.75 327.55 161.75 323.15 161.5 317.75 160.9 312.15 160.65 307.8 160.65 303.45 160.65 296.85 Q160.65 294.7 160.9 292.55 L161.5 288.05 161.75 283.7 161.75 280.4 161.75 276.05 161.75 272.75 Q161.75 271.1 162.0 269.5 L162.6 265.05 162.75 263.1 156.0 263.1 Q154.65 263.05 154.15 261.7 152.05 255.5 159.15 254.45 L162.85 253.9 162.85 250.9 174.95 251.05 173.35 251.2 172.85 251.55 Q172.25 252.0 172.1 252.65 L195.9 250.2 202.1 249.8 196.95 274.75 192.35 295.1 180.1 344.85 179.75 344.85 Q179.1 344.75 178.45 344.3 171.55 345.1 164.9 344.3 163.85 345.15 162.8 345.3 M175.3 129.0 L186.95 113.8 Q193.45 116.55 194.45 123.7 188.8 128.75 179.75 130.0 L179.6 130.15 179.3 130.55 178.25 130.2 Q177.7 129.9 177.15 129.75 L176.5 129.55 175.3 129.0" fill="#3c340d" fill-rule="evenodd" stroke="none"/>
    <path d="M193.0 472.0 L193.0 472.1 Q192.95 472.85 193.75 472.8 206.65 472.6 217.5 478.5 L217.55 478.8 217.8 479.8 217.8 480.05 217.6 480.4 217.5 480.7 217.45 481.35 217.3 481.95 217.05 482.25 216.7 482.45 Q207.3 486.5 197.0 488.35 L196.7 488.7 196.1 489.35 195.85 489.85 195.4 489.75 Q192.75 489.25 190.25 488.2 L189.95 488.1 189.75 488.05 186.35 487.7 Q184.45 487.4 182.95 486.3 182.05 485.6 181.75 484.55 180.9 481.5 182.7 478.9 183.65 477.5 184.9 476.3 186.35 474.85 188.15 473.9 L189.35 473.3 190.6 472.6 Q191.2 472.15 192.0 472.15 L193.0 472.0" fill="#463e0f" fill-rule="evenodd" stroke="none"/>
    <path d="M635.8 80.6 L635.95 80.6 653.35 80.35 655.15 84.2 Q671.55 121.6 686.5 159.85 L647.35 158.75 Q632.8 158.3 618.35 158.25 L612.85 152.8 Q605.15 145.2 589.0 138.75 597.55 137.35 589.0 135.85 594.75 133.6 589.0 131.35 591.95 129.85 589.0 128.45 L562.5 100.5 559.6 97.8 Q548.0 88.45 538.7 79.6 L544.8 79.95 545.15 79.85 548.65 79.15 Q551.0 78.95 553.3 79.15 L555.35 79.05 555.4 79.0 591.0 80.1 Q605.5 80.55 620.0 80.6 L635.8 80.6 M332.5 12.45 L332.75 5.55 337.1 5.35 341.5 5.35 346.95 5.35 351.35 5.35 355.75 5.35 360.1 5.35 364.5 5.35 368.9 5.35 372.2 5.35 376.55 5.35 379.85 5.35 383.15 5.35 386.4 5.1 390.85 4.5 394.1 4.25 396.3 4.25 400.65 4.25 403.95 4.25 407.25 4.25 409.45 4.25 412.7 4.0 416.05 3.4 419.25 2.85 421.55 2.35 424.8 2.05 428.0 1.8 432.5 1.2 435.75 0.95 439.05 0.95 443.4 0.95 446.65 0.7 451.15 0.1 Q452.75 -0.15 454.3 0.1 L458.8 0.7 462.05 0.95 465.35 0.95 469.7 0.95 474.05 1.3 476.35 1.7 480.65 2.05 481.8 2.1 Q480.9 3.75 480.5 5.75 L477.55 4.85 480.5 5.75 480.35 6.4 480.15 8.65 Q480.25 15.1 479.25 21.35 L478.95 20.85 478.9 20.95 477.9 22.8 Q480.75 26.15 481.2 30.95 L481.2 31.0 Q481.05 32.65 481.5 34.55 L481.5 34.85 481.3 36.15 481.15 36.5 481.2 36.7 481.45 36.65 481.45 36.6 481.6 36.65 481.65 37.6 481.6 44.55 Q480.9 46.95 480.45 49.45 479.65 53.9 479.9 58.3 L479.15 61.5 477.45 67.3 472.25 68.7 Q466.9 70.3 462.7 68.1 L459.75 66.5 Q456.95 65.05 451.95 64.65 450.05 64.5 448.05 45.7 446.3 63.55 444.65 64.2 430.85 69.75 416.5 73.35 406.15 75.95 403.15 70.65 L405.2 69.15 406.85 67.15 Q408.0 65.45 408.95 45.7 401.95 63.4 395.8 65.25 386.8 67.9 377.0 70.2 373.45 71.05 370.3 72.45 361.4 76.35 352.8 78.15 L349.25 78.75 Q342.7 79.7 337.65 77.35 L334.95 75.75 Q330.45 72.4 326.45 72.6 325.85 70.25 328.05 66.85 L328.2 66.65 328.5 66.25 Q331.5 62.15 337.05 62.55 340.85 62.8 344.55 61.45 347.95 60.2 351.2 59.75 349.5 59.4 348.15 58.5 342.45 54.6 335.4 56.95 L335.35 56.65 Q334.65 54.65 333.6 52.85 334.6 51.35 335.1 49.6 332.35 45.75 331.35 40.85 330.85 38.35 330.95 35.95 331.1 32.25 332.75 28.8 L333.25 27.85 332.35 23.35 331.85 23.3 Q332.3 20.4 332.2 17.4 L332.3 15.15 332.5 12.45 339.8 12.4 332.5 12.45 M311.6 80.35 Q305.2 82.25 302.05 87.6 299.3 92.3 281.6 95.45 296.0 97.2 281.6 98.65 290.1 103.45 281.6 110.5 L260.45 138.8 Q260.0 137.75 259.7 136.5 L259.65 136.35 259.05 133.05 Q258.15 125.75 261.4 118.45 L261.3 118.2 261.35 117.9 262.1 114.35 Q262.55 110.05 261.0 106.3 L260.55 104.9 260.6 103.4 260.65 99.8 260.7 99.5 261.1 96.05 Q260.35 94.8 260.0 93.3 259.6 91.45 260.15 89.7 262.55 82.0 270.05 81.05 L272.55 80.95 275.35 81.15 275.4 81.15 Q291.7 83.45 308.25 80.85 L311.6 80.35" fill="#4d4713" fill-rule="evenodd" stroke="none"/>
    <path d="M707.7 343.0 L707.9 344.15 706.6 344.1 696.85 343.9 694.45 343.85 Q687.3 343.75 680.0 343.8 L671.7 343.9 646.65 344.75 Q634.15 345.35 621.6 344.3 L593.75 342.95 588.95 342.9 587.1 343.1 Q584.0 343.45 581.1 344.5 L580.95 344.45 Q577.85 343.55 574.75 343.7 557.7 344.3 540.65 344.25 L518.45 344.2 506.8 344.1 478.9 345.15 Q461.45 345.75 444.15 344.35 441.95 344.15 440.75 345.95 439.9 347.25 439.7 348.3 438.5 345.95 435.8 344.7 434.8 344.75 434.05 345.6 L433.8 345.9 Q430.6 344.3 427.1 343.55 L435.8 343.5 444.15 343.5 506.8 343.1 518.45 342.95 567.1 341.25 Q570.7 341.05 574.3 341.4 L579.75 342.2 Q580.05 339.7 580.85 337.9 583.55 337.8 586.35 336.7 592.95 334.1 589.75 328.2 588.65 326.15 586.35 326.25 575.65 326.7 566.5 322.35 568.0 320.55 569.8 319.0 L571.45 318.4 Q580.55 315.2 589.8 313.45 L590.35 313.4 590.45 310.9 590.85 310.6 Q592.0 309.8 591.85 308.55 L590.95 302.7 590.55 300.95 Q588.95 294.8 585.7 288.95 587.1 283.65 586.6 278.3 L586.2 273.35 Q585.65 263.75 592.95 257.8 L593.0 257.8 Q591.1 261.15 591.35 265.65 592.0 276.35 602.5 277.95 603.95 278.15 604.9 277.35 L609.25 278.7 Q609.95 279.85 610.25 281.0 608.15 284.35 607.55 288.4 L607.2 291.15 Q603.1 294.0 597.9 294.1 595.2 294.15 593.3 295.9 590.7 298.3 590.9 300.9 590.95 301.75 591.3 302.6 591.8 303.75 592.85 304.95 L594.55 307.1 594.9 311.8 595.3 315.05 Q595.25 319.75 594.2 324.6 592.65 331.75 593.7 339.0 593.9 340.35 593.75 341.65 L594.05 341.65 599.05 341.0 Q624.3 341.7 649.35 341.55 664.65 341.45 679.95 342.4 L680.05 342.4 694.45 343.0 696.55 343.05 706.6 343.0 707.7 343.0 M213.95 82.0 L215.85 79.9 Q242.85 79.75 270.0 80.35 L270.05 81.05 Q262.55 82.0 260.15 89.7 259.6 91.45 260.0 93.3 260.35 94.8 261.1 96.05 L260.7 99.5 260.65 99.8 260.6 103.4 260.55 104.9 260.4 106.25 260.4 106.4 260.0 106.3 Q259.95 100.65 257.45 97.1 261.05 84.25 245.7 83.4 L213.95 82.0 M323.6 11.0 Q326.8 10.85 329.2 11.85 330.5 12.4 332.5 12.45 L332.3 15.15 332.2 17.4 Q332.3 20.4 331.85 23.3 L331.6 24.5 331.9 23.7 Q332.0 23.45 332.35 23.35 L333.25 27.85 332.75 28.8 Q331.1 32.25 330.95 35.95 330.85 38.35 331.35 40.85 332.35 45.75 335.1 49.6 334.6 51.35 333.6 52.85 334.65 54.65 335.35 56.65 L335.4 56.95 Q342.45 54.6 348.15 58.5 349.5 59.4 351.2 59.75 347.95 60.2 344.55 61.45 340.85 62.8 337.05 62.55 331.5 62.15 328.5 66.25 L327.4 65.3 Q332.6 54.0 318.7 53.95 316.65 54.0 314.85 54.65 309.55 51.4 302.4 50.3 L302.45 49.95 305.65 49.15 Q306.9 49.8 308.3 50.05 311.4 50.6 313.9 48.7 L315.45 49.25 Q318.05 50.15 319.65 47.95 325.95 39.3 318.9 35.4 L318.85 35.3 Q317.8 32.85 315.6 30.3 318.05 27.3 321.05 25.05 320.7 24.6 320.65 24.0 323.25 20.0 323.4 15.2 L323.5 13.0 323.6 11.0 M480.5 5.75 L489.25 8.45 490.25 8.85 Q489.9 10.9 489.15 12.95 L488.7 14.2 Q487.05 19.1 484.75 23.75 L485.2 24.05 485.15 24.2 Q481.55 27.0 481.2 30.95 480.75 26.15 477.9 22.8 L478.9 20.95 478.95 20.85 479.25 21.35 Q480.25 15.1 480.15 8.65 L480.35 6.4 480.5 5.75 M697.85 441.85 L697.85 441.95 Q681.5 442.6 665.2 441.1 L663.55 441.25 649.7 442.2 Q647.05 442.5 646.45 444.95 L646.2 446.7 645.0 445.5 645.0 445.4 Q645.0 443.7 643.95 443.0 644.4 441.95 644.1 440.95 L651.55 440.5 Q667.75 439.3 683.9 440.25 L694.8 440.6 694.85 440.6 Q696.05 440.6 697.15 441.15 L697.4 441.25 697.5 441.35 697.85 441.85 M712.55 533.2 L710.65 533.45 710.6 533.45 705.65 534.15 698.05 534.7 Q672.95 536.3 647.8 535.25 L647.4 535.2 647.3 535.05 Q646.35 528.75 641.05 526.75 635.4 526.95 632.9 531.8 631.95 533.55 630.45 534.85 L629.6 535.45 Q628.25 536.4 626.75 536.25 L621.35 535.85 Q605.55 534.9 589.85 536.2 589.0 534.3 586.95 533.85 L580.4 533.1 573.8 533.6 Q560.05 536.0 546.05 535.85 L543.75 536.0 543.55 535.9 543.7 535.65 Q560.65 532.2 578.45 532.5 L580.4 532.55 Q594.7 532.8 609.1 533.35 L612.45 533.8 621.4 534.95 630.0 534.35 Q630.2 527.75 635.5 525.5 637.0 524.9 638.6 524.55 L640.85 524.15 643.55 524.2 Q644.55 523.75 644.75 522.6 645.25 519.2 644.7 515.7 644.45 514.0 644.65 512.35 645.1 509.1 642.65 507.95 643.9 507.4 644.35 505.35 645.3 500.95 641.7 499.05 L640.1 498.55 Q635.45 498.05 632.15 494.85 L630.8 493.55 Q629.3 491.9 627.55 490.85 634.4 486.3 640.95 481.2 L641.05 481.2 Q641.65 481.2 641.9 480.75 643.65 477.7 644.2 474.1 645.55 465.35 645.35 456.4 645.25 454.2 646.35 452.15 647.15 450.65 647.15 449.35 647.8 450.0 649.0 450.3 649.15 453.7 647.8 457.3 647.35 458.45 647.5 459.9 647.8 463.25 647.7 466.55 L647.8 466.55 Q650.05 471.05 649.75 476.4 645.65 482.85 648.15 490.05 L647.7 494.65 Q646.25 502.1 651.05 505.8 L650.95 513.8 Q649.9 516.5 648.3 518.95 645.0 523.9 647.55 529.15 647.95 530.0 648.6 530.4 648.7 532.9 647.8 535.05 648.6 534.85 649.4 534.35 L649.9 534.1 Q651.15 533.6 652.4 533.65 L660.4 533.2 Q679.15 534.7 698.0 533.8 L710.55 532.9 712.55 533.2 M535.35 535.0 Q497.65 537.55 459.7 536.1 458.2 536.05 456.9 536.8 455.35 537.7 454.5 538.75 L454.25 538.7 454.3 538.95 Q452.45 541.3 454.25 544.3 L454.25 544.45 454.4 544.5 456.3 546.85 455.3 549.05 Q454.15 552.2 454.65 555.45 454.85 556.85 454.5 558.1 L454.1 559.75 454.0 559.7 Q454.5 557.1 453.25 555.5 L453.1 554.1 Q452.95 552.45 452.35 551.2 L453.5 549.35 453.85 549.25 454.4 548.8 Q454.5 548.45 454.25 548.0 453.25 546.1 452.55 544.1 451.65 541.65 448.75 540.8 446.0 539.95 444.0 538.05 443.7 537.75 443.3 537.7 435.05 536.15 426.55 535.95 L418.4 536.85 410.8 537.35 Q395.8 537.9 380.8 537.7 L375.05 537.3 374.2 537.55 364.7 537.2 Q363.1 537.15 362.65 538.05 353.55 537.85 344.35 538.25 L343.0 538.05 325.2 537.4 307.35 537.1 Q304.05 537.0 301.05 535.85 299.4 535.2 297.85 534.2 296.6 534.5 296.5 535.8 L296.3 535.95 Q295.55 536.65 294.7 536.85 L293.6 537.15 293.55 537.15 286.3 537.9 268.7 537.9 251.1 537.3 233.7 536.35 220.6 535.65 Q211.85 535.05 203.05 535.25 L194.05 535.4 188.8 535.9 Q189.1 535.5 189.55 535.3 L190.3 535.1 190.55 535.05 192.0 534.65 Q193.0 534.25 193.9 534.15 L194.7 534.1 200.05 533.55 207.6 532.9 210.55 532.8 Q234.9 535.4 259.3 534.9 273.2 534.6 287.2 534.7 288.5 536.7 291.75 536.9 L293.5 536.75 Q295.7 536.15 295.85 533.25 L295.9 531.7 295.65 527.3 296.55 527.7 Q296.55 529.7 296.85 531.7 299.55 532.05 301.4 534.05 L301.7 534.4 327.8 535.75 328.0 535.45 328.3 535.25 328.5 535.1 336.15 535.45 341.6 535.55 Q380.8 534.75 420.05 534.2 L434.45 533.55 Q458.55 534.6 482.75 534.9 505.7 535.2 528.7 534.75 L535.35 534.95 535.35 535.0 M454.0 560.45 Q453.5 563.85 454.9 566.65 454.6 569.45 454.6 572.35 454.55 575.2 454.85 578.1 455.0 580.05 453.85 581.25 L453.3 581.35 453.25 581.35 452.8 581.25 Q453.6 577.85 453.1 574.25 L453.15 572.45 452.95 569.25 453.5 564.1 453.9 560.45 454.0 560.45 M480.15 61.4 L480.3 62.4 479.95 64.0 479.4 66.9 479.3 67.5 480.1 67.15 480.15 68.45 479.2 68.3 479.2 68.55 Q482.8 73.85 485.8 79.75 L501.2 79.1 507.05 78.75 507.1 78.7 Q519.1 78.8 531.05 79.25 L534.45 79.85 Q532.3 80.4 530.5 81.65 L526.55 81.5 Q506.2 81.1 485.8 81.25 L476.05 81.35 Q466.3 81.45 456.5 81.7 L406.8 83.75 Q392.35 84.6 377.75 83.75 L330.75 80.45 324.6 79.9 Q327.95 79.9 329.2 76.9 L329.7 77.65 Q330.9 78.15 330.7 79.65 L330.8 79.95 366.95 81.3 376.95 81.35 Q398.75 81.4 420.6 80.25 438.0 79.35 455.4 80.0 L476.05 80.45 Q475.65 76.05 475.7 71.75 L477.45 67.3 479.15 61.5 480.15 61.4 M318.7 79.4 L311.6 80.35 308.25 80.85 Q291.7 83.45 275.4 81.15 L275.4 80.45 Q284.15 80.5 292.9 80.0 L299.7 79.65 307.5 79.3 316.9 78.9 318.7 78.85 318.7 79.4 M260.45 138.8 L261.1 140.15 Q260.45 142.5 258.9 144.65 L259.05 149.35 259.0 150.0 258.9 150.15 259.0 150.2 259.45 151.1 259.8 152.1 Q259.75 153.45 259.0 154.65 L258.75 155.25 258.7 155.5 Q260.15 156.4 260.6 158.25 L247.55 158.35 247.55 158.2 254.25 157.8 254.3 157.65 Q254.8 155.05 255.85 152.6 L255.3 152.2 Q257.7 149.45 256.85 143.6 L256.55 142.0 Q258.15 139.6 258.6 136.8 L258.7 136.35 259.7 136.5 Q260.0 137.75 260.45 138.8 M405.15 158.0 L423.95 157.45 Q440.6 156.95 457.25 156.95 L457.25 157.4 Q446.45 157.15 441.6 166.45 438.55 168.9 435.9 171.6 L435.55 172.05 Q434.9 173.0 434.55 174.0 432.85 178.85 434.8 182.75 434.35 183.85 434.25 185.15 428.15 177.7 417.3 177.45 L416.6 175.35 Q414.8 171.05 411.1 168.3 L411.05 167.85 Q410.85 160.6 405.15 158.0 M460.45 156.95 Q470.55 156.9 480.65 157.1 L501.7 156.4 505.0 156.0 505.65 156.15 Q509.7 151.15 514.2 146.9 516.55 150.15 516.6 155.0 L516.6 155.3 Q522.0 157.1 528.15 157.15 L528.15 158.2 485.15 159.1 Q472.75 159.3 460.45 157.65 L460.45 156.95 M435.85 194.1 L435.85 194.85 Q435.95 197.95 436.75 200.8 440.35 202.1 444.65 202.9 446.65 204.1 449.0 204.95 L448.45 206.25 Q441.65 215.05 438.05 224.8 437.65 220.3 433.85 215.0 434.5 212.95 434.55 210.8 434.65 204.25 432.15 198.25 433.9 196.85 435.3 194.9 L435.85 194.1 M437.15 230.1 Q437.45 233.15 439.95 235.65 L439.75 242.8 439.65 248.4 Q446.05 248.8 452.95 247.5 L465.2 247.15 476.4 247.65 492.05 247.1 507.75 246.85 Q518.5 246.75 529.3 246.95 542.5 247.2 555.8 246.85 L559.55 246.8 560.8 246.85 575.55 247.0 575.85 247.5 575.6 247.7 560.8 248.35 Q546.75 248.9 532.65 248.15 L529.25 248.0 507.75 247.25 492.05 247.65 Q487.5 247.75 484.05 250.15 L480.6 250.1 443.25 249.8 439.65 249.8 Q422.6 249.65 405.6 249.8 L405.6 248.75 428.0 248.05 Q430.6 240.7 435.55 234.2 L435.85 233.85 435.9 233.85 435.85 232.3 437.15 230.1 M597.45 247.25 L610.15 247.4 Q604.55 248.8 599.55 251.8 600.6 248.6 597.45 247.25 M360.7 249.2 L341.25 248.95 Q337.95 248.65 335.85 250.8 L333.2 249.25 Q331.3 249.3 329.95 250.85 327.35 253.9 329.65 257.2 328.7 261.4 330.3 264.6 329.75 269.75 328.25 274.9 L328.4 276.65 328.45 278.65 328.3 281.6 327.9 286.5 Q333.65 290.0 342.15 288.75 343.15 288.6 343.95 289.25 L343.85 289.6 Q343.1 292.5 340.25 293.5 338.25 294.2 337.05 295.8 332.65 301.45 339.95 303.85 L340.15 305.5 340.35 307.15 335.75 310.25 330.35 314.05 Q324.6 318.1 324.35 325.25 L324.3 325.25 Q324.2 320.75 325.55 316.5 326.6 313.25 327.0 309.95 327.45 306.35 325.45 303.35 326.4 297.15 324.6 291.45 326.1 289.9 326.2 286.3 326.3 282.45 326.9 278.7 L326.95 276.75 326.4 274.9 Q321.8 264.6 310.6 260.55 310.7 259.35 310.3 258.25 309.65 256.45 308.4 255.0 L308.4 254.75 Q308.1 248.9 301.9 248.3 L300.75 248.8 300.2 249.15 Q298.25 247.5 296.0 246.65 L314.4 246.35 Q326.35 246.15 338.3 246.95 L360.75 248.2 360.7 249.2 M325.0 328.3 L326.05 329.95 326.05 330.55 Q329.25 333.55 330.6 338.05 330.85 338.9 331.85 339.5 333.5 340.6 334.45 342.3 L334.4 342.35 Q315.8 343.7 297.4 341.0 L316.85 340.65 322.55 340.1 322.55 339.1 323.85 337.6 Q325.6 334.9 324.15 331.95 324.6 330.2 324.5 328.3 L325.0 328.3 M336.35 342.4 Q365.1 343.4 394.0 343.5 L401.6 343.55 Q371.6 346.05 341.5 344.6 L340.8 343.9 Q338.75 342.6 336.35 342.4 M440.45 362.45 L441.0 362.5 Q441.05 365.2 442.9 365.75 442.7 367.8 441.9 369.35 L442.45 372.55 443.05 375.5 Q443.95 379.5 443.65 383.7 456.35 385.85 469.5 386.75 459.75 390.4 450.4 395.05 444.6 397.95 441.25 403.35 439.95 405.5 439.75 407.8 439.55 410.0 440.5 412.35 439.6 414.1 440.0 416.05 L440.05 416.3 440.2 417.25 Q440.15 420.25 441.7 422.8 L441.9 423.15 441.55 431.35 443.65 432.25 Q445.45 436.6 448.0 440.8 448.65 441.85 449.55 442.25 L451.55 442.4 Q453.75 441.95 454.95 440.95 L459.6 440.95 Q457.3 441.6 455.15 442.7 L453.2 443.6 Q452.1 444.05 451.2 444.6 450.2 443.95 449.1 443.6 L446.65 443.1 437.75 442.45 437.8 441.65 437.4 438.95 Q437.95 437.35 437.9 435.05 437.7 428.25 438.0 421.3 438.1 418.65 437.75 416.05 438.35 414.55 438.6 412.05 L438.95 407.75 439.05 404.6 Q439.35 397.2 437.75 390.35 438.2 388.5 438.25 386.55 438.35 383.4 437.4 380.45 436.55 378.05 435.25 375.8 433.6 372.95 431.75 370.45 L431.75 369.55 432.25 369.4 432.35 369.55 Q435.2 372.45 437.95 369.35 440.55 366.45 440.45 362.45 M258.6 133.1 Q257.7 128.2 251.4 126.95 242.7 125.25 234.35 122.9 L237.3 121.85 Q245.8 121.9 253.55 117.15 L255.3 116.75 256.2 116.5 256.3 115.15 Q259.1 112.5 259.8 108.85 L260.1 110.15 260.65 106.55 Q260.65 106.4 261.0 106.3 262.55 110.05 262.1 114.35 L261.35 117.9 261.3 118.2 261.4 118.45 Q258.15 125.75 259.05 133.05 L258.6 133.1 M186.9 343.85 Q207.65 338.95 229.75 340.9 L233.05 341.05 Q253.1 341.5 273.15 341.3 L297.15 341.0 Q283.3 344.35 268.8 344.75 260.7 342.5 252.0 342.3 L215.45 341.5 186.9 343.85 M295.3 443.85 L295.3 442.45 315.85 442.7 315.85 444.1 Q314.3 444.25 313.1 445.25 310.4 447.45 310.2 450.8 307.55 453.65 304.25 456.05 301.75 457.85 300.55 460.55 300.0 461.75 300.3 462.7 L299.85 463.5 300.6 463.35 Q301.05 464.0 301.95 464.45 304.65 465.85 307.25 466.25 L304.0 467.7 Q297.4 470.3 294.9 475.2 295.5 464.1 296.4 453.05 296.8 448.25 295.3 443.85 M294.25 487.65 Q295.4 489.8 297.95 490.0 L297.95 491.45 Q306.05 494.65 310.2 502.15 310.75 503.15 310.85 504.3 L310.75 504.35 Q308.8 505.25 307.35 506.8 303.35 511.3 297.05 513.2 294.15 514.05 294.3 516.35 294.3 517.1 294.7 518.0 295.4 519.7 296.25 520.7 L296.4 522.85 297.5 522.65 302.3 522.15 304.2 521.8 316.5 522.65 316.5 522.85 300.55 523.35 296.5 523.85 295.7 523.95 Q295.4 524.0 295.15 524.15 L294.95 523.2 294.05 519.45 293.35 516.55 292.7 513.95 Q294.4 512.45 294.5 510.25 L294.35 508.85 294.05 507.45 293.75 506.55 293.5 505.6 293.3 504.45 292.7 501.9 292.25 500.0 Q293.9 495.2 294.15 490.05 L294.25 487.65 M496.75 517.15 L496.75 517.5 492.05 517.55 475.4 517.05 474.2 517.0 474.4 515.85 Q485.7 515.5 496.75 517.15" fill="#5a1005" fill-rule="evenodd" stroke="none"/>
    <path d="M163.95 159.3 Q163.9 158.65 163.8 159.3 L163.7 159.65 163.7 159.3 Q163.4 155.35 163.15 159.3 L163.1 159.6 163.1 159.3 162.9 156.25 162.9 152.1 159.35 151.4 Q167.05 140.05 175.3 129.0 L176.5 129.55 177.15 129.75 Q177.7 129.9 178.25 130.2 L179.3 130.55 179.6 130.15 179.75 130.0 Q188.8 128.75 194.45 123.7 193.45 116.55 186.95 113.8 199.85 97.55 213.95 82.0 L245.7 83.4 Q261.05 84.25 257.45 97.1 259.95 100.65 260.0 106.3 L259.9 108.1 259.7 108.6 259.8 108.85 Q259.1 112.5 256.3 115.15 L256.2 116.5 255.3 116.75 253.55 117.15 Q245.8 121.9 237.3 121.85 L234.35 122.9 Q242.7 125.25 251.4 126.95 257.7 128.2 258.6 133.1 258.85 134.5 258.7 136.25 L258.7 136.35 258.6 136.8 Q258.15 139.6 256.55 142.0 L256.85 143.6 245.65 158.2 Q220.4 157.95 195.45 158.35 184.95 158.5 174.55 158.8 L174.35 159.35 172.9 159.65 169.45 159.4 163.95 159.3" fill="#41380e" fill-rule="evenodd" stroke="none"/>
    <path d="M379.55 133.2 L382.95 134.2 M362.0 132.65 Q363.05 131.95 364.45 132.05 L365.55 132.05 367.7 131.95 367.9 131.95" ffdec:has-small-stroke="true" ffdec:original-stroke-width="0.05" fill="none" stroke="#000000" stroke-linecap="round" stroke-linejoin="round" stroke-width="1.0"/>
    <path d="M707.7 343.0 L707.9 344.15 708.05 346.8 M323.6 11.0 Q326.8 10.85 329.2 11.85 330.5 12.4 332.5 12.45 L339.8 12.4 M480.5 5.75 L489.25 8.45 490.25 8.85 Q492.05 9.65 493.3 11.25 L494.05 12.1 M707.7 343.0 L706.45 339.75 M477.55 4.85 L480.5 5.75 M323.6 11.0 Q320.45 11.15 316.55 12.4" ffdec:has-small-stroke="true" ffdec:original-stroke-width="0.05" fill="none" stroke="#000000" stroke-linecap="round" stroke-linejoin="round" stroke-width="1.0"/>
  </g>
</svg>
