<?xml version="1.0" encoding="UTF-8" standalone="no"?>
<svg xmlns:ffdec="https://www.free-decompiler.com/flash" xmlns:xlink="http://www.w3.org/1999/xlink" ffdec:objectType="shape" height="97.7px" width="113.1px" xmlns="http://www.w3.org/2000/svg">
  <g transform="matrix(1.0, 0.0, 0.0, 1.0, 0.0, 0.0)">
    <path d="M105.8 24.65 L106.7 24.9 Q112.45 35.7 113.1 48.0 L113.05 49.2 112.6 49.25 Q112.8 55.1 111.05 61.35 108.95 68.9 103.65 74.65 102.2 77.85 98.95 78.85 97.95 84.45 93.5 87.9 86.75 95.95 76.55 93.85 74.4 95.2 71.65 96.05 61.6 99.3 51.7 96.1 46.4 94.4 43.25 90.25 L43.1 90.2 43.05 90.05 42.6 89.1 Q37.35 87.25 34.4 81.75 29.8 73.0 28.35 63.1 27.9 60.1 28.85 57.9 27.1 57.55 26.2 54.9 25.9 53.3 25.9 51.6 L25.9 51.2 27.15 47.9 27.2 47.7 27.2 47.65 Q26.65 48.05 26.2 47.45 24.6 43.0 24.35 38.7 L24.3 38.95 24.05 36.25 24.1 36.1 Q24.4 35.25 24.3 34.55 L24.45 34.3 Q24.65 32.25 25.15 30.25 21.75 30.35 18.9 31.45 18.65 35.9 18.8 40.35 21.25 46.3 25.5 51.2 L25.7 51.55 25.2 52.35 Q25.35 53.35 24.25 54.8 23.05 56.4 22.25 58.15 L21.65 58.2 Q21.2 58.4 20.65 57.9 18.8 54.35 18.7 50.75 16.6 41.5 17.2 32.2 13.55 34.4 9.8 36.9 9.95 38.2 9.05 39.85 8.25 41.3 7.85 43.0 L6.95 45.85 8.3 52.95 8.5 53.2 8.75 53.8 8.75 53.95 8.6 54.35 8.5 54.55 Q9.7 57.3 10.35 60.05 11.05 60.3 11.1 61.1 L11.1 61.3 10.7 61.65 10.75 61.95 Q10.45 62.3 10.05 62.2 5.85 65.3 1.15 63.55 L1.1 64.0 Q0.45 64.2 0.2 63.55 L0.2 63.15 0.0 63.05 0.1 62.65 0.2 62.55 Q0.1 56.75 1.6 51.3 L1.7 50.75 3.0 48.45 Q3.05 48.35 3.2 48.35 4.7 44.2 6.9 40.4 7.45 38.7 8.45 37.15 L8.4 37.1 8.35 36.95 8.35 36.75 Q11.3 33.25 15.2 31.45 L15.2 31.05 Q16.25 30.4 17.4 29.85 17.7 26.55 18.35 23.25 19.0 20.05 20.05 17.0 22.85 14.05 26.8 13.35 L27.05 13.3 27.2 13.55 32.45 13.0 36.1 13.0 37.75 11.75 37.5 11.6 38.05 11.1 40.6 9.65 Q47.1 4.4 54.5 1.25 59.9 -0.1 65.6 0.0 76.9 -0.35 85.9 5.15 L85.95 5.1 86.35 4.95 Q88.4 6.15 90.2 7.8 L90.4 7.95 90.5 8.1 Q91.05 8.25 91.2 8.8 L91.25 9.0 91.85 9.6 Q92.4 9.75 92.5 10.3 L92.55 10.5 Q100.6 15.8 105.05 23.6 L105.7 24.45 105.8 24.65 M98.4 65.75 L98.75 67.2 Q98.45 69.65 99.3 71.35 99.5 74.15 99.2 77.15 110.45 65.7 110.65 49.3 L110.55 44.5 Q109.85 40.4 108.75 36.45 L108.25 36.1 108.1 35.1 107.5 32.7 106.45 29.9 106.1 29.75 106.1 29.7 Q105.65 28.45 104.9 27.55 L104.75 27.0 Q100.55 18.1 92.75 12.4 L92.7 12.35 92.6 12.25 Q94.25 16.1 95.15 20.1 L95.4 21.45 Q96.55 27.85 95.55 34.65 101.3 36.4 103.2 42.95 104.1 46.1 104.2 49.1 104.3 56.85 98.55 63.2 L97.85 63.9 98.4 65.75 M93.6 20.85 L93.4 20.05 93.15 19.0 Q92.25 15.75 90.75 12.9 L90.75 13.0 89.15 11.05 Q88.05 7.25 83.4 5.4 68.2 -0.65 54.1 3.55 48.6 5.85 43.8 9.6 L41.15 12.15 40.95 12.3 40.4 12.6 39.15 13.45 Q43.85 14.35 48.0 17.1 L48.2 17.25 48.25 17.45 48.5 18.0 48.85 18.6 Q49.15 19.0 48.75 19.4 L48.65 19.5 48.55 19.55 48.25 19.6 47.8 19.5 Q42.9 15.85 37.2 14.95 30.5 20.35 27.9 28.0 30.0 28.5 31.5 30.25 L31.55 30.4 31.45 30.6 31.15 30.95 30.95 31.1 30.65 31.2 30.2 31.0 29.65 30.65 29.4 30.45 27.2 30.25 Q26.25 33.8 26.15 37.8 L26.25 41.3 27.3 45.35 27.35 45.65 Q27.65 43.1 28.35 40.75 L28.5 40.65 Q30.4 45.45 28.2 50.9 L28.2 51.1 27.8 51.7 27.6 51.85 27.75 53.8 27.8 54.2 Q28.55 55.15 28.95 56.35 L29.85 56.6 Q30.1 56.3 30.4 56.25 34.5 49.35 34.1 41.15 L34.1 40.95 Q34.1 40.55 34.55 40.45 L34.9 41.35 Q35.65 43.5 35.75 45.8 40.05 49.85 41.45 54.95 L41.5 55.1 41.5 55.15 41.7 56.2 41.85 56.95 Q42.25 59.65 41.85 62.7 41.65 63.95 40.75 64.55 40.2 64.5 40.1 64.05 L40.1 63.85 40.2 63.45 39.9 63.6 Q38.35 63.0 37.1 62.25 37.6 64.0 37.55 66.25 37.5 67.85 38.45 69.25 L39.7 71.1 Q39.8 70.8 40.15 70.65 L40.5 70.6 41.8 71.3 Q49.5 72.75 56.1 71.4 66.6 69.2 74.3 59.85 L74.45 59.45 74.55 59.05 Q81.05 51.15 81.8 41.75 81.25 37.4 80.15 33.25 79.35 30.05 78.2 27.0 78.05 26.65 78.55 26.6 L79.65 28.3 79.7 28.4 Q81.1 30.85 82.0 33.5 L82.2 33.6 80.95 28.25 78.65 21.6 Q80.8 24.1 82.3 27.05 L82.65 28.4 Q83.3 31.25 83.6 34.25 L83.6 36.2 Q83.35 36.65 82.95 36.45 L83.25 39.05 Q83.55 41.5 83.45 44.05 L83.4 44.25 83.25 44.4 83.05 45.9 Q82.7 47.2 82.7 48.45 L82.6 48.4 81.6 51.7 84.4 50.05 85.4 49.8 85.5 49.7 Q86.25 49.3 86.35 48.5 L86.25 48.25 Q87.15 42.45 89.65 37.05 90.55 35.2 92.05 34.25 L92.75 34.25 92.8 34.25 93.1 34.2 93.1 34.15 93.95 34.3 Q95.2 27.9 93.6 20.85 M98.15 38.5 L97.15 37.45 Q96.3 36.7 95.3 36.25 L95.3 36.4 95.15 36.35 93.55 36.15 93.55 36.05 Q92.8 36.1 92.3 36.5 90.15 41.05 88.95 45.9 L89.0 45.85 88.95 45.9 87.2 52.6 87.1 53.05 87.1 53.45 86.9 53.5 Q86.15 57.5 89.3 61.2 91.95 64.35 95.3 63.1 96.95 62.95 97.6 61.95 L97.75 61.85 Q106.05 51.1 99.05 39.7 L98.15 38.5 M96.6 66.95 L95.95 64.85 94.65 65.0 Q87.25 65.2 85.55 58.35 84.75 55.1 85.55 51.8 L83.0 53.4 Q81.75 54.1 80.55 54.25 78.55 58.45 75.15 62.35 L74.2 63.4 Q76.4 64.65 78.15 66.6 L78.3 66.8 Q80.8 69.65 82.05 72.9 83.4 76.35 83.4 80.2 83.35 87.9 78.7 92.2 L83.05 91.85 Q85.0 91.9 86.65 90.9 90.4 88.7 93.4 85.75 L93.65 85.35 93.7 85.15 93.8 85.0 95.2 83.25 96.0 82.05 Q98.5 74.2 96.6 66.95 M54.1 26.4 L66.95 25.9 Q68.1 25.75 69.15 26.35 71.6 27.7 71.8 30.1 71.65 30.4 71.3 30.35 L70.85 30.25 Q69.1 28.4 66.7 27.7 65.25 27.35 63.8 27.7 L63.4 28.1 63.2 28.25 Q58.35 28.95 53.5 28.1 51.95 27.0 51.1 25.5 50.95 25.3 51.15 25.05 51.35 24.75 51.55 24.75 L53.95 26.3 54.1 26.4 M52.9 35.7 Q56.05 42.75 59.65 45.05 63.25 47.35 65.45 47.85 68.05 46.5 70.0 44.25 70.25 42.9 70.15 41.6 68.8 43.15 65.1 42.5 63.55 42.25 62.4 41.1 60.5 39.15 60.4 37.2 L58.1 36.55 54.9 35.95 52.9 35.7 M49.35 33.85 Q48.4 32.95 47.75 31.7 47.65 31.5 48.0 31.45 L48.2 31.55 48.6 32.0 48.7 32.2 Q57.9 35.75 67.85 34.6 68.95 34.45 70.0 33.85 L71.3 32.9 73.15 32.8 73.3 32.9 Q71.5 35.1 69.3 36.25 L70.15 37.15 Q70.45 37.1 70.7 37.45 L70.85 37.6 70.9 38.1 Q73.75 42.15 70.0 46.65 67.35 49.85 64.1 49.1 L64.2 48.75 Q61.65 48.75 59.05 46.45 56.6 44.3 54.95 41.85 52.9 38.85 52.05 35.45 50.45 34.9 49.35 33.85 M63.9 37.55 L61.75 37.4 Q63.6 39.7 66.2 41.25 L67.15 41.45 69.3 40.1 Q69.3 39.15 69.45 38.25 L68.65 36.6 66.35 37.3 66.15 37.2 65.6 37.05 63.9 37.45 63.9 37.55 M25.25 16.0 Q20.25 17.95 19.55 23.6 19.2 26.4 19.0 29.2 20.95 28.45 23.15 28.05 L25.9 27.75 Q26.65 25.45 27.85 23.2 30.45 18.25 34.3 14.6 L26.6 15.3 25.25 16.0 M19.35 48.25 Q20.3 52.15 21.55 56.15 22.3 53.6 24.1 51.6 21.2 48.15 19.0 44.4 L19.35 48.25 M37.45 50.05 L35.75 47.25 Q35.6 49.7 34.7 52.2 36.3 55.75 39.9 54.9 39.1 52.4 37.45 50.05 M34.15 53.55 L33.95 53.95 33.15 55.4 Q35.75 59.8 40.4 62.6 40.95 59.45 40.35 56.5 38.25 58.1 35.3 55.3 34.35 54.35 34.15 53.55 M39.85 72.75 L39.7 72.8 Q34.3 68.35 35.8 61.25 33.35 59.25 32.5 56.3 L31.25 57.4 31.25 57.45 30.95 57.6 30.15 58.05 Q30.15 73.75 40.6 85.4 42.75 87.75 45.65 88.35 50.7 87.75 54.7 83.8 L54.95 83.55 Q55.75 82.7 55.95 81.55 L56.35 81.15 56.55 80.95 57.55 78.6 57.6 78.45 57.85 78.05 58.05 77.85 Q58.95 75.4 59.25 72.75 53.3 74.4 46.45 73.8 L41.0 72.9 40.45 72.5 39.85 72.75 M8.95 60.7 Q5.1 53.6 5.8 45.75 4.25 49.0 3.1 52.4 1.65 57.3 1.25 62.3 5.3 62.45 8.95 60.7 M63.8 63.5 L63.55 63.9 Q63.3 64.3 62.75 64.35 L62.35 64.2 61.8 63.85 Q58.25 64.5 55.25 65.8 L55.15 65.6 55.0 65.2 55.0 65.0 55.55 64.25 56.2 63.45 Q58.75 62.15 61.45 61.85 L62.25 61.9 62.7 61.95 63.5 62.7 63.8 63.5 M79.9 72.9 Q78.6 70.3 76.4 67.95 L72.85 64.75 Q67.55 69.9 61.1 72.15 61.6 74.0 60.85 76.3 L59.65 79.3 57.8 82.45 Q55.95 86.0 52.45 88.0 48.7 90.2 45.05 90.3 49.75 93.2 55.2 94.8 67.4 98.25 76.9 90.9 80.65 88.0 81.35 83.2 82.2 77.6 79.9 72.9 L80.5 73.35 79.9 72.9 M58.55 53.05 L50.6 56.25 Q47.95 58.1 46.35 60.8 45.7 61.85 44.75 61.75 44.4 61.3 44.7 60.8 L44.85 60.0 Q48.45 53.55 56.05 52.55 L57.05 52.25 Q58.05 52.1 58.45 52.85 L58.55 53.05 M59.65 79.3 L59.5 79.4 Q57.5 81.2 56.65 83.7 57.5 81.2 59.5 79.4 L59.65 79.3" fill="#000000" fill-rule="evenodd" stroke="none"/>
    <path d="M95.4 21.45 L95.15 20.1 Q94.25 16.1 92.6 12.25 L92.7 12.35 92.75 12.4 Q100.55 18.1 104.75 27.0 L104.9 27.55 Q105.65 28.45 106.1 29.7 L106.1 29.75 106.45 29.9 107.5 32.7 108.1 35.1 108.25 36.1 108.75 36.45 Q109.85 40.4 110.55 44.5 L110.65 49.3 Q110.45 65.7 99.2 77.15 99.5 74.15 99.3 71.35 98.45 69.65 98.75 67.2 L98.4 65.75 98.45 65.65 98.85 65.25 100.75 63.6 102.4 61.6 Q103.9 59.7 104.45 57.35 L104.6 56.95 Q105.45 55.0 105.95 52.8 L106.0 52.05 106.0 49.2 105.95 48.35 Q105.85 46.4 105.35 44.55 103.9 39.1 101.8 33.95 L101.55 33.35 100.4 30.5 99.95 29.7 Q97.1 25.75 95.4 21.45 M87.2 52.6 L88.95 45.9 89.0 45.85 88.95 45.9 Q90.15 41.05 92.3 36.5 92.8 36.1 93.55 36.05 L93.55 36.15 95.15 36.35 95.3 36.4 95.3 36.25 Q96.3 36.7 97.15 37.45 L98.15 38.5 Q99.8 40.6 99.55 43.45 L99.4 44.25 97.9 49.15 97.65 50.1 Q97.1 51.75 96.1 53.0 94.15 55.45 91.15 55.95 89.2 56.25 88.0 54.95 L87.6 54.3 87.2 52.6 M91.95 40.6 L91.9 40.8 91.95 40.7 91.95 40.6 M92.3 39.9 L92.5 39.55 92.55 39.15 92.3 39.9 M19.35 48.25 L19.0 44.4 Q21.2 48.15 24.1 51.6 22.3 53.6 21.55 56.15 20.3 52.15 19.35 48.25 M8.95 60.7 Q5.3 62.45 1.25 62.3 1.65 57.3 3.1 52.4 4.25 49.0 5.8 45.75 5.1 53.6 8.95 60.7 M59.65 79.3 Q61.7 77.45 63.8 75.85 66.6 73.75 69.8 72.6 L70.5 72.35 71.25 72.05 76.5 71.55 Q77.45 71.65 78.25 72.1 L78.75 72.35 79.4 72.65 79.9 72.9 Q82.2 77.6 81.35 83.2 80.65 88.0 76.9 90.9 67.4 98.25 55.2 94.8 49.75 93.2 45.05 90.3 48.7 90.2 52.45 88.0 55.95 86.0 57.8 82.45 L59.65 79.3" fill="#ffcc66" fill-rule="evenodd" stroke="none"/>
    <path d="M34.9 41.35 L34.55 40.45 Q34.1 40.55 34.1 40.95 L34.1 41.15 Q34.5 49.35 30.4 56.25 30.1 56.3 29.85 56.6 L28.95 56.35 Q28.55 55.15 27.8 54.2 L27.75 53.8 27.6 51.85 27.8 51.7 28.2 51.1 28.2 50.9 Q30.4 45.45 28.5 40.65 L28.35 40.75 Q27.65 43.1 27.35 45.65 L27.3 45.35 26.25 41.3 26.15 37.8 Q26.25 33.8 27.2 30.25 L29.4 30.45 29.65 30.65 30.2 31.0 30.65 31.2 30.95 31.1 31.15 30.95 31.45 30.6 31.55 30.4 31.5 30.25 Q30.0 28.5 27.9 28.0 30.5 20.35 37.2 14.95 42.9 15.85 47.8 19.5 L48.25 19.6 48.55 19.55 48.65 19.5 48.75 19.4 Q49.15 19.0 48.85 18.6 L48.5 18.0 48.25 17.45 48.2 17.25 48.0 17.1 Q43.85 14.35 39.15 13.45 L40.4 12.6 40.95 12.3 41.15 12.15 43.8 9.6 Q48.6 5.85 54.1 3.55 68.2 -0.65 83.4 5.4 88.05 7.25 89.15 11.05 L90.75 13.0 90.75 12.9 Q92.25 15.75 93.15 19.0 L93.4 20.05 93.6 20.85 Q93.8 22.85 92.8 24.7 L92.5 25.35 Q92.05 26.65 90.8 27.5 L90.1 28.05 Q87.55 30.3 84.25 29.3 L82.65 28.4 82.3 27.05 Q80.8 24.1 78.65 21.6 L80.95 28.25 79.7 28.4 79.65 28.3 78.55 26.6 Q78.05 26.65 78.2 27.0 79.35 30.05 80.15 33.25 80.45 37.8 79.85 42.3 L79.2 44.95 77.9 48.9 77.65 49.5 75.25 53.75 74.8 54.4 Q72.7 56.9 70.95 59.5 L70.5 60.15 68.8 61.95 68.4 62.35 64.05 66.7 63.6 67.05 Q61.65 68.55 59.85 69.4 L58.95 69.9 56.1 71.4 Q49.5 72.75 41.8 71.3 L40.5 70.6 40.15 70.65 Q39.8 70.8 39.7 71.1 L38.45 69.25 Q37.5 67.85 37.55 66.25 37.6 64.0 37.1 62.25 38.35 63.0 39.9 63.6 L40.2 63.45 40.1 63.85 40.1 64.05 Q40.2 64.5 40.75 64.55 41.65 63.95 41.85 62.7 42.25 59.65 41.85 56.95 L41.7 56.2 41.4 53.5 Q40.25 47.85 37.1 43.15 36.2 41.8 34.9 41.35 M82.05 72.9 Q82.3 70.75 83.15 68.8 L83.35 68.4 Q84.85 65.9 86.5 64.65 L86.95 64.35 87.4 64.45 Q88.35 65.1 89.55 66.35 L90.9 67.2 94.3 67.4 95.75 67.2 96.35 67.05 96.6 66.95 Q98.5 74.2 96.0 82.05 L95.2 83.25 93.8 85.0 93.7 85.15 93.65 85.35 93.4 85.75 Q90.4 88.7 86.65 90.9 85.0 91.9 83.05 91.85 L78.7 92.2 Q83.35 87.9 83.4 80.2 83.4 76.35 82.05 72.9 M67.5 8.45 L67.45 8.45 67.5 8.45 M54.1 26.4 L53.95 26.3 51.55 24.75 Q51.35 24.75 51.15 25.05 50.95 25.3 51.1 25.5 51.95 27.0 53.5 28.1 58.35 28.95 63.2 28.25 L63.4 28.1 63.8 27.7 Q65.25 27.35 66.7 27.7 69.1 28.4 70.85 30.25 L71.3 30.35 Q71.65 30.4 71.8 30.1 71.6 27.7 69.15 26.35 68.1 25.75 66.95 25.9 L54.1 26.4 M51.25 29.15 Q51.8 28.3 50.9 27.9 L50.65 28.05 Q49.9 28.75 49.95 29.85 L50.05 30.1 50.7 31.55 Q52.5 33.0 53.95 31.75 55.85 32.55 57.8 32.2 L57.65 32.1 54.0 31.15 53.35 31.15 Q52.6 30.7 51.6 30.4 L51.55 30.2 51.2 29.35 51.25 29.15 M54.95 41.85 Q56.6 44.3 59.05 46.45 61.65 48.75 64.2 48.75 L64.1 49.1 Q67.35 49.85 70.0 46.65 73.75 42.15 70.9 38.1 L70.85 37.6 70.7 37.45 Q70.45 37.1 70.15 37.15 L69.3 36.25 Q71.5 35.1 73.3 32.9 L73.15 32.8 71.3 32.9 70.0 33.85 Q68.95 34.45 67.85 34.6 57.9 35.75 48.7 32.2 L48.6 32.0 48.2 31.55 48.0 31.45 Q47.65 31.5 47.75 31.7 48.4 32.95 49.35 33.85 L50.95 36.75 Q52.45 39.25 54.45 41.35 L54.95 41.85 M31.6 49.5 L31.4 49.6 Q30.15 51.45 29.55 53.4 L28.75 51.8 28.5 52.0 Q27.85 52.95 28.45 54.0 28.85 54.5 29.25 54.6 L29.2 54.85 29.5 54.85 29.85 54.55 29.95 54.5 30.0 54.4 Q32.3 52.2 31.6 49.5 M54.95 83.55 L54.7 83.8 Q50.7 87.75 45.65 88.35 42.75 87.75 40.6 85.4 30.15 73.75 30.15 58.05 L30.95 57.6 31.25 57.45 31.25 57.4 32.5 56.3 Q33.35 59.25 35.8 61.25 34.3 68.35 39.7 72.8 L39.85 72.75 Q40.2 73.75 41.7 73.8 L44.0 74.15 Q47.15 75.0 50.1 76.4 53.35 77.95 54.5 81.15 54.95 82.25 54.95 83.55 M31.35 61.0 L31.1 61.1 Q30.55 61.8 31.25 62.7 33.35 76.0 44.15 84.15 L44.55 84.25 Q44.9 84.3 45.0 84.0 L45.05 83.85 Q35.3 75.05 32.5 62.2 L32.35 62.0 31.35 61.0 M63.8 63.5 L63.5 62.7 62.7 61.95 62.25 61.9 61.45 61.85 Q58.75 62.15 56.2 63.45 L55.55 64.25 55.0 65.0 55.0 65.2 55.15 65.6 55.25 65.8 Q58.25 64.5 61.8 63.85 L62.35 64.2 62.75 64.35 Q63.3 64.3 63.55 63.9 L63.8 63.5 M58.55 53.05 L58.45 52.85 Q58.05 52.1 57.05 52.25 L56.05 52.55 Q48.45 53.55 44.85 60.0 L44.7 60.8 Q44.4 61.3 44.75 61.75 45.7 61.85 46.35 60.8 47.95 58.1 50.6 56.25 L58.55 53.05 M57.6 56.0 L57.2 56.05 Q51.85 57.3 49.0 61.4 L49.2 61.35 Q53.3 58.4 57.6 56.0" fill="#66cc99" fill-rule="evenodd" stroke="none"/>
    <path d="M92.3 39.9 L92.55 39.15 92.5 39.55 92.3 39.9 M91.95 40.6 L91.95 40.7 91.9 40.8 91.95 40.6 M67.5 8.45 L67.45 8.45 67.5 8.45 M9.9 47.35 L9.7 46.5 10.1 47.65 9.9 47.35" fill="#998204" fill-rule="evenodd" stroke="none"/>
    <path d="M52.9 35.7 L54.9 35.95 58.1 36.55 60.4 37.2 Q60.5 39.15 62.4 41.1 63.55 42.25 65.1 42.5 68.8 43.15 70.15 41.6 70.25 42.9 70.0 44.25 68.05 46.5 65.45 47.85 63.25 47.35 59.65 45.05 56.05 42.75 52.9 35.7 M66.35 37.3 L66.4 37.35 Q66.75 38.3 66.2 39.1 L66.05 39.3 Q64.8 39.8 63.9 38.6 63.8 38.25 63.85 37.8 L63.9 37.55 63.9 37.45 65.6 37.05 66.15 37.2 66.35 37.3 M36.35 50.3 Q38.4 51.0 38.5 53.05 L38.5 53.25 Q38.1 53.95 37.3 54.0 L36.9 53.95 Q36.2 53.45 35.95 52.6 L35.7 52.2 35.8 50.85 Q35.85 50.35 36.35 50.3 M34.15 53.55 Q34.35 54.35 35.3 55.3 38.25 58.1 40.35 56.5 40.95 59.45 40.4 62.6 35.75 59.8 33.15 55.4 L33.95 53.95 34.15 53.55" fill="#ffffff" fill-rule="evenodd" stroke="none"/>
    <path d="M63.9 37.55 L63.85 37.8 Q63.8 38.25 63.9 38.6 64.8 39.8 66.05 39.3 L66.2 39.1 Q66.75 38.3 66.4 37.35 L66.35 37.3 68.65 36.6 69.45 38.25 Q69.3 39.15 69.3 40.1 L67.15 41.45 66.2 41.25 Q63.6 39.7 61.75 37.4 L63.9 37.55 M36.35 50.3 Q35.85 50.35 35.8 50.85 L35.7 52.2 35.95 52.6 Q36.2 53.45 36.9 53.95 L37.3 54.0 Q38.1 53.95 38.5 53.25 L38.5 53.05 Q38.4 51.0 36.35 50.3 M37.45 50.05 Q39.1 52.4 39.9 54.9 36.3 55.75 34.7 52.2 35.6 49.7 35.75 47.25 L37.45 50.05" fill="#151515" fill-rule="evenodd" stroke="none"/>
    <path d="M34.9 41.35 Q36.2 41.8 37.1 43.15 40.25 47.85 41.4 53.5 L41.7 56.2 41.5 55.15 41.5 55.1 41.45 54.95 Q40.05 49.85 35.75 45.8 35.65 43.5 34.9 41.35 M56.1 71.4 L58.95 69.9 59.85 69.4 Q61.65 68.55 63.6 67.05 L64.05 66.7 68.4 62.35 68.8 61.95 70.5 60.15 70.95 59.5 Q72.7 56.9 74.8 54.4 L75.25 53.75 77.65 49.5 77.9 48.9 79.2 44.95 79.85 42.3 Q80.45 37.8 80.15 33.25 81.25 37.4 81.8 41.75 81.05 51.15 74.55 59.05 L74.45 59.45 74.3 59.85 Q66.6 69.2 56.1 71.4 M79.7 28.4 L80.95 28.25 82.2 33.6 82.0 33.5 Q81.1 30.85 79.7 28.4 M82.65 28.4 L84.25 29.3 Q87.55 30.3 90.1 28.05 L90.8 27.5 Q92.05 26.65 92.5 25.35 L92.8 24.7 Q93.8 22.85 93.6 20.85 95.2 27.9 93.95 34.3 L93.1 34.15 93.1 34.2 92.8 34.25 92.75 34.25 92.05 34.25 Q90.55 35.2 89.65 37.05 87.15 42.45 86.25 48.25 L86.35 48.5 Q86.25 49.3 85.5 49.7 L85.4 49.8 84.4 50.05 81.6 51.7 82.6 48.4 82.7 48.45 Q82.7 47.2 83.05 45.9 L83.25 44.4 83.4 44.25 83.45 44.05 Q83.55 41.5 83.25 39.05 L82.95 36.45 Q83.35 36.65 83.6 36.2 L83.6 34.25 Q83.3 31.25 82.65 28.4 M82.05 72.9 Q80.8 69.65 78.3 66.8 L78.15 66.6 Q76.4 64.65 74.2 63.4 L75.15 62.35 Q78.55 58.45 80.55 54.25 81.75 54.1 83.0 53.4 L85.55 51.8 Q84.75 55.1 85.55 58.35 87.25 65.2 94.65 65.0 L95.95 64.85 96.6 66.95 96.35 67.05 95.75 67.2 94.3 67.4 90.9 67.2 89.55 66.35 Q88.35 65.1 87.4 64.45 L86.95 64.35 86.5 64.65 Q84.85 65.9 83.35 68.4 L83.15 68.8 Q82.3 70.75 82.05 72.9 M54.95 41.85 L54.45 41.35 Q52.45 39.25 50.95 36.75 L49.35 33.85 Q50.45 34.9 52.05 35.45 52.9 38.85 54.95 41.85 M54.95 83.55 Q54.95 82.25 54.5 81.15 53.35 77.95 50.1 76.4 47.15 75.0 44.0 74.15 L41.7 73.8 Q40.2 73.75 39.85 72.75 L40.45 72.5 41.0 72.9 46.45 73.8 Q53.3 74.4 59.25 72.75 58.95 75.4 58.05 77.85 L57.85 78.05 57.6 78.45 57.55 78.6 56.55 80.95 56.35 81.15 55.95 81.55 Q55.75 82.7 54.95 83.55" fill="#3ab176" fill-rule="evenodd" stroke="none"/>
    <path d="M95.4 21.45 Q97.1 25.75 99.95 29.7 L100.4 30.5 101.55 33.35 101.8 33.95 Q103.9 39.1 105.35 44.55 105.85 46.4 105.95 48.35 L106.0 49.2 106.0 52.05 105.95 52.8 Q105.45 55.0 104.6 56.95 L104.45 57.35 Q103.9 59.7 102.4 61.6 L100.75 63.6 98.85 65.25 98.45 65.65 98.4 65.75 97.85 63.9 98.55 63.2 Q104.3 56.85 104.2 49.1 104.1 46.1 103.2 42.95 101.3 36.4 95.55 34.65 96.55 27.85 95.4 21.45 M87.2 52.6 L87.6 54.3 88.0 54.95 Q89.2 56.25 91.15 55.95 94.15 55.45 96.1 53.0 97.1 51.75 97.65 50.1 L97.9 49.15 99.4 44.25 99.55 43.45 Q99.8 40.6 98.15 38.5 L99.05 39.7 Q106.05 51.1 97.75 61.85 L97.6 61.95 Q96.95 62.95 95.3 63.1 91.95 64.35 89.3 61.2 86.15 57.5 86.9 53.5 L87.1 53.45 87.1 53.05 87.2 52.6 M79.9 72.9 L79.4 72.65 78.75 72.35 78.25 72.1 Q77.45 71.65 76.5 71.55 L71.25 72.05 70.5 72.35 69.8 72.6 Q66.6 73.75 63.8 75.85 61.7 77.45 59.65 79.3 L60.85 76.3 Q61.6 74.0 61.1 72.15 67.55 69.9 72.85 64.75 L76.4 67.95 Q78.6 70.3 79.9 72.9" fill="#feb030" fill-rule="evenodd" stroke="none"/>
    <path d="M51.25 29.15 L51.2 29.35 51.55 30.2 51.6 30.4 Q52.6 30.7 53.35 31.15 L54.0 31.15 57.65 32.1 57.8 32.2 Q55.85 32.55 53.95 31.75 52.5 33.0 50.7 31.55 L50.05 30.1 49.95 29.85 Q49.9 28.75 50.65 28.05 L50.9 27.9 Q51.8 28.3 51.25 29.15 M31.6 49.5 Q32.3 52.2 30.0 54.4 L29.95 54.5 29.85 54.55 29.5 54.85 29.2 54.85 29.25 54.6 Q28.85 54.5 28.45 54.0 27.85 52.95 28.5 52.0 L28.75 51.8 29.55 53.4 Q30.15 51.45 31.4 49.6 L31.6 49.5 M31.35 61.0 L32.35 62.0 32.5 62.2 Q35.3 75.05 45.05 83.85 L45.0 84.0 Q44.9 84.3 44.55 84.25 L44.15 84.15 Q33.35 76.0 31.25 62.7 30.55 61.8 31.1 61.1 L31.35 61.0 M57.6 56.0 Q53.3 58.4 49.2 61.35 L49.0 61.4 Q51.85 57.3 57.2 56.05 L57.6 56.0" fill="#c2ebd6" fill-rule="evenodd" stroke="none"/>
    <path d="M79.9 72.9 L80.5 73.35 M56.65 83.7 Q57.5 81.2 59.5 79.4 L59.65 79.3" ffdec:has-small-stroke="true" ffdec:original-stroke-width="0.05" fill="none" stroke="#000000" stroke-linecap="round" stroke-linejoin="round" stroke-width="1.0"/>
  </g>
</svg>
