<?xml version="1.0" encoding="UTF-8" standalone="no"?>
<svg xmlns:ffdec="https://www.free-decompiler.com/flash" xmlns:xlink="http://www.w3.org/1999/xlink" ffdec:objectType="shape" height="170.4px" width="408.6px" xmlns="http://www.w3.org/2000/svg">
  <g transform="matrix(1.0, 0.0, 0.0, 1.0, 204.3, 85.2)">
    <path d="M-189.05 75.35 L-191.3 75.35 -193.3 75.3 -195.6 75.3 -200.75 75.2 -200.95 75.7 Q-202.15 77.35 -202.2 79.15 -202.45 82.3 -200.55 85.2 L-201.95 85.2 Q-204.5 82.5 -204.3 79.4 -204.1 77.0 -202.2 74.9 L-202.2 74.85 -202.2 74.8 -202.2 74.7 -201.8 74.5 -201.6 74.4 -201.55 74.45 -201.1 74.35 -200.9 74.35 -199.35 74.25 -198.15 74.35 -196.9 74.3 -196.75 74.3 -192.95 74.2 -182.75 74.25 -172.8 74.35 -163.95 74.4 -152.3 74.2 Q-148.0 74.1 -143.7 74.35 L-143.45 74.35 -143.25 74.25 -143.05 74.2 -142.85 74.2 -140.65 74.7 -140.65 74.6 Q-140.95 74.45 -140.6 74.3 L-138.0 73.95 -137.5 73.95 -129.0 74.35 Q-126.95 74.55 -127.55 75.5 -127.9 76.05 -128.7 76.2 -128.0 76.7 -127.9 77.4 -127.6 79.35 -127.75 81.3 L-127.55 81.4 -127.5 81.45 -127.8 81.6 -127.8 81.7 -126.0 81.7 Q-125.75 82.05 -126.05 82.65 -126.45 83.3 -127.75 83.35 L-128.15 83.4 -128.35 84.2 Q-127.2 84.25 -126.35 84.65 -126.15 84.8 -126.3 84.95 L-126.0 85.2 -138.5 85.2 -138.9 85.1 Q-139.25 84.95 -139.35 84.9 -140.65 84.4 -140.95 83.4 L-140.95 83.35 -141.3 82.0 -141.3 81.7 -141.25 79.95 Q-140.9 77.95 -139.1 76.2 -138.75 75.8 -138.05 75.7 L-137.4 75.85 Q-136.6 75.3 -134.65 75.45 L-131.7 75.35 -129.8 75.3 -129.5 75.3 -136.7 74.9 -137.6 75.0 -139.25 75.0 -139.55 75.8 -139.8 75.9 -140.45 75.8 Q-141.5 75.75 -141.85 75.15 -144.05 77.45 -143.65 80.1 L-143.3 81.7 -143.2 81.95 -143.1 82.2 -142.8 83.0 -142.65 83.3 -141.5 85.2 -143.4 85.2 -144.55 83.3 -145.0 82.15 -145.15 81.7 Q-145.55 80.1 -145.35 78.45 -145.15 76.9 -144.1 75.5 L-144.0 75.35 -147.35 75.35 -147.9 75.35 -150.1 75.4 -152.7 75.4 -153.25 75.4 -154.6 75.4 -155.75 75.4 -164.2 75.45 -189.05 75.35 M-137.5 76.45 Q-139.9 78.95 -139.3 81.7 L-139.25 82.05 -139.0 82.75 -138.75 83.55 -138.6 84.45 -137.8 84.4 -131.45 84.35 -130.3 84.25 -129.7 84.2 -129.6 83.45 -129.5 82.4 -129.45 82.0 -131.2 81.9 -131.4 81.9 -132.35 81.75 -134.1 81.8 -137.15 81.7 -139.15 81.55 -129.4 81.25 -129.4 80.15 -132.2 80.05 -133.45 80.0 -138.9 79.85 -138.95 79.8 -134.45 79.3 -132.1 79.25 -129.4 79.35 -129.55 77.95 Q-129.65 77.1 -130.15 76.35 L-134.9 76.5 -137.5 76.45 M-127.9 82.25 L-127.55 82.25 -127.9 82.05 -127.9 82.25" fill="#000000" fill-rule="evenodd" stroke="none"/>
    <path d="M-189.05 75.35 L-164.2 75.45 -155.75 75.4 -156.5 77.5 -157.0 81.7 -157.0 81.9 -157.0 81.95 -156.9 83.1 -156.25 85.2 -187.85 85.2 -188.75 83.1 -189.1 82.05 -189.15 81.7 Q-189.9 78.55 -189.05 75.35 M-153.25 75.4 L-152.7 75.4 -150.1 75.4 Q-151.65 78.6 -151.3 81.7 L-151.25 82.15 -151.05 83.25 -150.35 85.2 -153.3 85.2 -153.9 83.2 -154.1 82.05 -154.15 81.7 Q-154.45 78.55 -153.25 75.4 M-147.35 75.35 L-144.0 75.35 -144.1 75.5 Q-145.15 76.9 -145.35 78.45 -145.55 80.1 -145.15 81.7 L-145.0 82.15 -144.55 83.3 -143.4 85.2 -147.8 85.2 -148.35 83.3 -148.55 82.15 -148.6 81.7 Q-148.9 78.5 -147.35 75.35 M-141.5 85.2 L-142.65 83.3 -142.8 83.0 -143.1 82.2 -143.2 81.95 -143.3 81.7 -143.65 80.1 Q-144.05 77.45 -141.85 75.15 -141.5 75.75 -140.45 75.8 L-139.8 75.9 -139.55 75.8 -139.25 75.0 -137.6 75.0 -136.7 74.9 -129.5 75.3 -129.8 75.3 -131.7 75.35 -134.65 75.45 Q-136.6 75.3 -137.4 75.85 L-138.05 75.7 Q-138.75 75.8 -139.1 76.2 -140.9 77.95 -141.25 79.95 L-141.3 81.7 -141.3 82.0 -140.95 83.35 -140.95 83.4 Q-140.65 84.4 -139.35 84.9 -139.25 84.95 -138.9 85.1 L-138.5 85.2 -141.5 85.2 M-200.55 85.2 Q-202.45 82.3 -202.2 79.15 -202.15 77.35 -200.95 75.7 L-200.75 75.2 -195.6 75.3 Q-197.35 77.8 -196.95 80.6 L-196.85 81.7 -196.8 82.0 -196.65 83.0 -196.45 84.15 -196.1 85.2 -200.55 85.2 M-193.3 75.3 L-191.3 75.35 Q-192.5 78.55 -191.8 81.7 L-191.75 82.0 -191.45 83.1 -190.45 85.2 -193.15 85.2 -193.9 83.05 -194.15 82.0 -194.15 81.7 Q-194.6 78.5 -193.3 75.3 M-127.9 82.25 L-127.9 82.05 -127.55 82.25 -127.9 82.25" fill="#612f62" fill-rule="evenodd" stroke="none"/>
    <path d="M-191.3 75.35 L-189.05 75.35 Q-189.9 78.55 -189.15 81.7 L-189.1 82.05 -188.75 83.1 -187.85 85.2 -190.45 85.2 -191.45 83.1 -191.75 82.0 -191.8 81.7 Q-192.5 78.55 -191.3 75.35 M-155.75 75.4 L-154.6 75.4 -153.25 75.4 Q-154.45 78.55 -154.15 81.7 L-154.1 82.05 -153.9 83.2 -153.3 85.2 -156.25 85.2 -156.9 83.1 -157.0 81.95 -157.0 81.9 -157.0 81.7 -156.5 77.5 -155.75 75.4 M-150.1 75.4 L-147.9 75.35 -147.35 75.35 Q-148.9 78.5 -148.6 81.7 L-148.55 82.15 -148.35 83.3 -147.8 85.2 -150.35 85.2 -151.05 83.25 -151.25 82.15 -151.3 81.7 Q-151.65 78.6 -150.1 75.4 M-195.6 75.3 L-193.3 75.3 Q-194.6 78.5 -194.15 81.7 L-194.15 82.0 -193.9 83.05 -193.15 85.2 -196.1 85.2 -196.45 84.15 -196.65 83.0 -196.8 82.0 -196.85 81.7 -196.95 80.6 Q-197.35 77.8 -195.6 75.3" fill="#f9d617" fill-rule="evenodd" stroke="none"/>
    <path d="M-137.5 76.45 L-134.9 76.5 -130.15 76.35 Q-129.65 77.1 -129.55 77.95 L-129.4 79.35 -132.1 79.25 -134.45 79.3 -138.95 79.8 -138.9 79.85 -133.45 80.0 -132.2 80.05 -129.4 80.15 -129.4 81.25 -139.15 81.55 -137.15 81.7 -134.1 81.8 -132.35 81.75 -131.4 81.9 -131.2 81.9 -129.45 82.0 -129.5 82.4 -129.6 83.45 -129.7 84.2 -130.3 84.25 -131.45 84.35 -137.8 84.4 -138.6 84.45 -138.75 83.55 -139.0 82.75 -139.25 82.05 -139.3 81.7 Q-139.9 78.95 -137.5 76.45" fill="#fef7cf" fill-rule="evenodd" stroke="none"/>
    <path d="M-137.65 65.0 L-137.6 65.05 -137.4 65.0 -137.15 64.95 Q-134.6 65.75 -135.9 67.2 L-136.0 67.3 -138.15 67.65 Q-137.0 68.4 -136.7 69.45 L-136.6 69.55 Q-136.4 69.7 -136.5 69.9 L-136.6 69.95 -136.6 70.3 Q-136.6 72.0 -137.55 73.55 L-137.0 73.7 -136.8 73.8 -136.6 73.95 -136.7 74.1 -136.85 74.2 -137.45 74.55 -138.2 74.5 -138.55 74.95 -136.9 74.95 Q-136.2 75.0 -135.75 75.3 -133.95 76.6 -135.85 76.95 L-135.85 77.0 -135.75 77.15 -135.85 77.35 -136.0 77.5 Q-154.05 78.45 -172.35 77.7 L-186.45 77.2 -187.3 76.95 -188.0 77.45 -188.35 77.7 -189.35 77.5 -189.35 77.45 Q-190.35 77.35 -190.65 76.8 L-192.1 75.55 Q-195.05 70.85 -192.25 66.15 L-192.0 66.0 -191.6 65.55 -191.4 65.3 -191.2 65.2 -190.9 65.05 -190.5 65.0 -190.05 64.95 Q-189.0 65.25 -188.35 65.85 L-188.3 65.8 -188.2 65.7 -187.7 65.45 -187.65 65.35 -187.65 65.25 -187.6 65.15 -187.5 65.05 -183.2 64.55 -180.95 64.8 -180.3 65.0 -165.4 64.4 Q-152.4 65.05 -139.15 64.7 L-137.8 64.9 -137.65 65.0 M-186.5 67.05 L-180.75 66.85 -178.85 66.7 -177.5 66.55 Q-164.05 66.9 -150.6 66.7 L-143.85 66.6 -142.35 66.65 -142.3 66.65 -137.7 66.45 Q-137.6 66.1 -137.8 65.7 -148.85 66.35 -160.2 65.5 L-165.4 65.35 -167.05 65.65 Q-176.6 66.0 -185.8 65.75 L-186.45 65.8 -186.9 66.05 -187.6 66.5 -187.85 66.65 -188.15 66.8 -188.45 66.85 -188.55 66.85 -189.3 66.85 -190.05 66.35 -190.3 66.15 -191.4 66.5 Q-191.15 67.05 -191.7 67.8 -192.35 68.65 -192.35 69.65 -192.4 72.65 -190.25 75.3 L-190.0 75.85 -189.85 76.0 -188.75 76.6 -188.5 76.45 -188.3 76.25 -188.05 75.85 -187.55 75.7 -187.35 75.75 -187.0 75.8 -185.8 76.3 -185.65 76.4 -149.45 76.7 -138.7 76.65 -137.8 76.65 -137.55 76.45 -137.15 76.1 -155.3 75.95 -164.45 76.05 Q-172.75 76.2 -180.95 75.6 -182.85 75.95 -184.65 75.65 L-185.4 75.1 -186.1 75.05 -186.4 75.3 -186.9 75.45 -187.7 75.25 -187.95 75.1 -188.0 74.55 -188.0 74.45 Q-189.35 74.2 -189.8 73.15 -191.1 70.25 -188.75 67.65 L-188.5 67.6 -188.25 67.55 -188.05 67.55 -187.8 67.55 -187.45 67.55 -187.3 67.55 -187.25 67.5 Q-187.3 67.05 -186.5 67.05 M-185.9 68.15 L-185.9 68.25 -185.9 68.35 -185.9 68.4 -185.9 68.5 -185.95 68.6 -186.0 68.65 Q-185.05 69.8 -184.7 71.35 L-184.05 74.2 -184.1 74.25 -184.0 74.3 -183.75 74.5 -183.55 74.65 -158.65 74.85 Q-149.55 74.8 -140.5 74.9 L-140.2 74.5 -151.15 74.4 Q-148.45 72.95 -143.35 73.5 L-140.95 73.5 -139.75 73.65 -139.15 72.0 Q-151.25 72.45 -163.35 72.05 L-166.0 71.95 Q-173.2 71.65 -179.95 71.75 L-179.9 71.65 -179.75 71.55 -179.55 71.5 -179.45 71.45 -179.3 71.4 Q-167.85 71.15 -156.3 71.25 L-152.95 71.2 -144.55 70.85 -139.0 71.0 -139.0 70.8 -138.8 70.35 -138.85 70.2 -158.0 69.35 Q-158.4 69.35 -158.4 69.15 -158.35 68.95 -158.0 68.95 L-157.7 68.9 -157.3 68.85 Q-154.15 69.1 -151.05 68.8 L-139.25 69.2 -140.05 67.95 Q-142.05 68.25 -144.6 68.0 L-150.6 67.8 Q-162.55 68.0 -174.6 67.8 -179.15 67.7 -183.8 67.9 L-185.1 67.95 -185.85 68.0 -185.9 68.05 -185.9 68.15 M-187.35 68.7 L-187.7 68.55 -187.8 68.5 Q-189.05 71.3 -187.0 74.05 L-186.55 73.8 -186.0 73.7 -185.9 73.75 Q-187.95 71.25 -186.25 68.75 L-186.4 68.8 -187.05 68.8 -187.35 68.7" fill="#000000" fill-rule="evenodd" stroke="none"/>
    <path d="M-186.5 67.05 Q-187.3 67.05 -187.25 67.5 L-187.3 67.55 -187.45 67.55 -187.8 67.55 -188.05 67.55 -188.25 67.55 -188.5 67.6 -188.75 67.65 Q-191.1 70.25 -189.8 73.15 -189.35 74.2 -188.0 74.45 L-188.0 74.55 -187.95 75.1 -187.7 75.25 -186.9 75.45 -186.4 75.3 -186.1 75.05 -185.4 75.1 -184.65 75.65 Q-182.85 75.95 -180.95 75.6 -172.75 76.2 -164.45 76.05 L-155.3 75.95 -137.15 76.1 -137.55 76.45 -137.8 76.65 -138.7 76.65 -149.45 76.7 -185.65 76.4 -185.8 76.3 -187.0 75.8 -187.35 75.75 -187.55 75.7 -188.05 75.85 -188.3 76.25 -188.5 76.45 -188.75 76.6 -189.85 76.0 -190.0 75.85 -190.25 75.3 Q-192.4 72.65 -192.35 69.65 -192.35 68.65 -191.7 67.8 -191.15 67.05 -191.4 66.5 L-190.3 66.15 -190.05 66.35 -189.3 66.85 -188.55 66.85 -188.45 66.85 -188.15 66.8 -187.85 66.65 -187.6 66.5 -186.9 66.05 -186.45 65.8 -185.8 65.75 Q-176.6 66.0 -167.05 65.65 L-165.4 65.35 -160.2 65.5 Q-148.85 66.35 -137.8 65.7 -137.6 66.1 -137.7 66.45 L-142.3 66.65 -142.35 66.65 -143.85 66.6 -150.6 66.7 Q-164.05 66.9 -177.5 66.55 L-178.85 66.7 -180.75 66.85 -186.5 67.05" fill="#284168" fill-rule="evenodd" stroke="none"/>
    <path d="M-187.35 68.7 L-187.05 68.8 -186.4 68.8 -186.25 68.75 Q-187.95 71.25 -185.9 73.75 L-186.0 73.7 -186.55 73.8 -187.0 74.05 Q-189.05 71.3 -187.8 68.5 L-187.7 68.55 -187.35 68.7 M-185.9 68.15 L-185.9 68.05 -185.85 68.0 -185.1 67.95 -183.8 67.9 Q-179.15 67.7 -174.6 67.8 -162.55 68.0 -150.6 67.8 L-144.6 68.0 Q-142.05 68.25 -140.05 67.95 L-139.25 69.2 -151.05 68.8 Q-154.15 69.1 -157.3 68.85 L-157.7 68.9 -158.0 68.95 Q-158.35 68.95 -158.4 69.15 -158.4 69.35 -158.0 69.35 L-138.85 70.2 -138.8 70.35 -139.0 70.8 -139.0 71.0 -144.55 70.85 -152.95 71.2 -156.3 71.25 Q-167.85 71.15 -179.3 71.4 L-179.45 71.45 -179.55 71.5 -179.75 71.55 -179.9 71.65 -179.95 71.75 Q-173.2 71.65 -166.0 71.95 L-163.35 72.05 Q-151.25 72.45 -139.15 72.0 L-139.75 73.65 -140.95 73.5 -143.35 73.5 Q-148.45 72.95 -151.15 74.4 L-140.2 74.5 -140.5 74.9 Q-149.55 74.8 -158.65 74.85 L-183.55 74.65 -183.75 74.5 -184.0 74.3 -184.1 74.25 -184.05 74.2 -184.7 71.35 Q-185.05 69.8 -186.0 68.65 L-185.95 68.6 -185.9 68.5 -185.9 68.4 -185.9 68.35 -185.9 68.25 -185.9 68.15" fill="#fef7cf" fill-rule="evenodd" stroke="none"/>
    <path d="M83.4 -60.7 Q82.45 -60.65 82.9 -60.4 90.35 -56.5 94.1 -59.65 L92.8 -60.0 83.4 -60.7 M183.5 -71.95 L186.55 -72.15 186.6 -72.25 200.4 -70.6 Q200.25 -69.3 199.55 -68.15 199.05 -67.35 198.85 -66.45 L196.65 -66.8 Q192.5 -66.4 188.05 -66.65 168.45 -67.9 150.05 -64.1 L150.05 -63.95 198.65 -65.2 198.6 -65.0 Q197.9 -64.2 196.95 -63.55 L194.75 -61.75 194.3 -61.2 179.9 -58.65 Q179.5 -58.3 179.6 -57.85 L179.65 -57.55 179.65 -57.3 179.8 -57.0 Q180.2 -56.7 180.55 -56.7 190.4 -57.3 199.8 -55.2 L200.1 -52.65 200.2 -51.85 200.35 -51.35 150.2 -54.35 144.25 -53.9 129.95 -53.25 Q125.65 -54.35 120.5 -54.6 L69.15 -56.8 Q49.5 -57.55 31.1 -57.5 26.65 -62.0 21.35 -57.25 L3.5 -58.2 -6.5 -58.3 -15.05 -58.4 -62.15 -60.65 -111.45 -62.8 Q-118.5 -62.85 -123.9 -64.3 L-124.25 -64.5 Q-127.3 -65.3 -128.6 -67.5 L-129.1 -67.75 -130.2 -68.15 -130.85 -67.7 -133.05 -64.85 -136.65 -64.4 -143.95 -64.5 Q-161.1 -64.65 -177.8 -64.25 L-177.15 -64.55 Q-179.2 -65.75 -182.1 -65.8 L-181.8 -66.85 Q-180.65 -68.85 -179.95 -71.0 L-179.0 -70.8 Q-162.15 -70.15 -146.2 -71.1 L-146.55 -71.2 -159.9 -72.05 Q-170.4 -72.5 -179.95 -71.0 L-179.45 -73.35 -179.65 -74.25 Q-180.35 -76.55 -180.55 -78.45 L-176.8 -78.05 -150.25 -78.9 -150.35 -79.0 Q-161.3 -79.3 -172.05 -81.15 L-179.85 -80.25 -180.85 -80.0 Q-181.65 -81.8 -183.25 -82.85 L-183.2 -83.0 -182.0 -82.85 Q-163.6 -82.4 -145.15 -82.35 -141.05 -80.45 -135.3 -80.25 -119.6 -79.6 -105.9 -76.8 -106.9 -76.5 -107.3 -75.7 L-107.35 -75.45 -107.3 -74.3 Q-105.25 -73.1 -102.7 -72.95 L-89.05 -71.3 Q-78.2 -69.3 -71.4 -75.4 L-71.65 -75.95 -71.95 -77.4 -73.3 -78.0 -70.2 -78.0 Q-65.05 -77.95 -61.95 -79.45 L-49.8 -78.95 -1.85 -78.25 5.05 -77.85 14.95 -76.7 34.05 -77.4 47.6 -76.5 Q56.35 -76.35 65.2 -76.35 L116.0 -74.6 120.0 -74.4 173.4 -71.95 175.75 -71.9 Q159.55 -71.55 143.8 -69.55 168.65 -68.9 193.15 -70.7 L193.0 -70.9 185.3 -71.9 183.5 -71.95 M116.65 -71.0 L115.5 -70.9 Q84.3 -70.8 53.5 -72.6 L85.3 -69.8 Q108.25 -68.2 130.55 -69.55 L130.35 -69.7 Q124.15 -71.45 116.65 -71.0 M116.85 -60.5 L123.7 -60.0 142.25 -59.25 162.85 -57.85 162.7 -57.95 Q153.8 -60.45 144.25 -61.7 131.6 -60.45 119.2 -62.0 106.35 -63.6 94.6 -61.8 L107.95 -61.25 116.85 -60.5 M181.85 -61.3 L179.45 -61.95 169.95 -61.2 Q175.35 -59.1 182.05 -61.05 L181.85 -61.3 M138.45 -65.2 L138.25 -65.4 130.55 -66.15 Q111.25 -66.4 92.0 -65.85 114.9 -63.35 138.45 -65.2 M-114.7 -70.9 Q-114.0 -70.35 -113.0 -70.05 -96.15 -65.55 -78.15 -66.65 -72.35 -67.0 -68.95 -69.2 -66.5 -70.75 -65.15 -73.2 -50.8 -77.2 -35.9 -74.8 L-30.55 -74.25 3.5 -73.15 Q2.8 -74.2 1.2 -74.25 -23.5 -75.3 -48.05 -78.0 L-53.7 -77.55 Q-60.85 -76.4 -67.45 -74.85 L-67.55 -74.3 -67.7 -73.45 -68.25 -72.1 -68.4 -71.85 Q-72.8 -70.3 -77.3 -69.5 L-87.6 -68.6 Q-97.9 -68.55 -107.05 -70.65 L-113.4 -72.35 -112.75 -72.9 Q-112.05 -73.3 -111.7 -74.0 L-111.6 -74.25 Q-113.9 -76.35 -117.4 -75.9 -118.25 -75.75 -118.55 -75.2 L-117.9 -74.65 -117.45 -74.35 -114.9 -74.1 -114.6 -73.9 -114.85 -73.65 -115.05 -73.4 Q-115.55 -72.9 -115.55 -72.25 L-115.6 -72.0 -114.7 -70.9 M-99.25 -78.8 Q-99.55 -78.1 -99.3 -77.4 -90.7 -73.5 -82.1 -77.0 -81.85 -77.4 -81.75 -77.85 -81.6 -78.75 -81.95 -79.55 -83.8 -80.8 -85.7 -81.05 L-71.55 -80.2 Q-76.35 -79.6 -80.55 -77.9 -77.6 -76.45 -74.3 -75.5 -74.5 -74.95 -75.3 -74.8 -89.85 -71.85 -104.4 -75.35 L-103.6 -75.7 Q-102.05 -76.1 -101.75 -77.4 -108.15 -79.8 -116.35 -80.45 L-129.25 -82.3 Q-111.5 -82.2 -93.85 -81.45 L-95.0 -81.35 -95.15 -81.25 -99.05 -79.35 -99.25 -78.8 M-44.25 -63.4 Q-43.05 -62.1 -41.15 -62.05 -12.45 -60.95 13.15 -62.4 L12.2 -62.6 -30.55 -64.95 Q-33.55 -63.75 -38.2 -64.3 -41.55 -64.7 -44.25 -63.4 M-47.45 -73.65 L-48.0 -73.6 -48.45 -73.3 -48.0 -72.8 Q-29.8 -69.6 -12.15 -69.75 L-12.55 -70.05 Q-28.8 -72.6 -45.2 -73.85 L-45.2 -73.75 -47.45 -73.65 M-87.65 -63.25 L-86.9 -63.9 -79.1 -63.3 Q-64.55 -61.3 -59.55 -71.05 -63.25 -69.25 -66.4 -66.6 L-88.2 -65.35 Q-92.8 -65.3 -96.95 -63.55 L-88.1 -63.05 Q-87.8 -63.1 -87.65 -63.25 M-43.25 -68.25 L-59.25 -68.2 -30.55 -65.95 -14.6 -66.75 14.1 -65.5 Q18.25 -65.1 22.0 -66.1 28.65 -67.9 35.5 -67.1 36.65 -66.45 37.2 -65.45 L37.85 -64.45 Q38.05 -63.05 37.7 -61.65 37.5 -60.9 37.65 -60.25 37.8 -59.7 38.4 -59.45 38.65 -59.25 38.95 -59.15 L72.05 -58.85 72.45 -59.05 Q73.1 -59.55 74.05 -59.75 L74.0 -59.85 39.5 -61.15 39.55 -61.7 39.9 -62.55 40.05 -62.8 39.75 -63.65 39.65 -64.8 39.6 -65.05 Q38.75 -65.85 38.15 -66.8 37.25 -68.3 35.35 -69.05 L32.65 -69.15 Q27.85 -69.0 23.55 -66.95 -9.9 -68.2 -43.25 -68.25 M42.65 -72.85 L41.8 -73.3 Q40.15 -74.3 38.0 -74.0 29.15 -73.9 20.65 -71.2 29.8 -72.1 39.95 -71.4 L41.55 -69.85 Q43.25 -67.45 42.2 -65.4 L42.8 -64.65 Q44.0 -63.65 45.05 -64.8 L45.4 -65.25 45.95 -65.05 Q55.8 -62.15 66.45 -62.3 L66.25 -62.45 46.2 -65.85 45.75 -65.8 45.85 -66.65 45.6 -68.1 Q44.55 -68.85 44.0 -69.95 43.25 -71.35 42.65 -72.85 M-158.15 -67.7 L-155.2 -67.15 Q-147.4 -66.9 -139.7 -67.5 L-139.85 -67.65 Q-145.35 -69.35 -151.35 -68.85 L-157.75 -67.95 -158.15 -67.7 M-173.65 -74.95 L-172.9 -74.75 Q-154.75 -73.35 -136.45 -74.7 L-136.55 -75.05 Q-141.0 -78.2 -147.85 -76.35 -152.0 -75.1 -157.7 -75.05 L-173.65 -74.95" fill="#5b5617" fill-rule="evenodd" stroke="none"/>
    <path d="M83.4 -60.7 L92.8 -60.0 94.1 -59.65 Q90.35 -56.5 82.9 -60.4 82.45 -60.65 83.4 -60.7 M183.5 -71.95 L185.3 -71.9 193.0 -70.9 193.15 -70.7 Q168.65 -68.9 143.8 -69.55 159.55 -71.55 175.75 -71.9 L183.5 -71.95 M138.45 -65.2 Q114.9 -63.35 92.0 -65.85 111.25 -66.4 130.55 -66.15 L138.25 -65.4 138.45 -65.2 M181.85 -61.3 L182.05 -61.05 Q175.35 -59.1 169.95 -61.2 L179.45 -61.95 181.85 -61.3 M-87.65 -63.25 Q-87.8 -63.1 -88.1 -63.05 L-96.95 -63.55 Q-92.8 -65.3 -88.2 -65.35 L-66.4 -66.6 Q-63.25 -69.25 -59.55 -71.05 -64.55 -61.3 -79.1 -63.3 L-86.9 -63.9 -87.65 -63.25 M-47.45 -73.65 L-45.2 -73.75 -45.2 -73.85 Q-28.8 -72.6 -12.55 -70.05 L-12.15 -69.75 Q-29.8 -69.6 -48.0 -72.8 L-48.45 -73.3 -48.0 -73.6 -47.45 -73.65 M-44.25 -63.4 Q-41.55 -64.7 -38.2 -64.3 -33.55 -63.75 -30.55 -64.95 L12.2 -62.6 13.15 -62.4 Q-12.45 -60.95 -41.15 -62.05 -43.05 -62.1 -44.25 -63.4 M42.65 -72.85 Q43.25 -71.35 44.0 -69.95 44.55 -68.85 45.6 -68.1 L45.85 -66.65 45.75 -65.8 46.2 -65.85 66.25 -62.45 66.45 -62.3 Q55.8 -62.15 45.95 -65.05 L45.4 -65.25 45.05 -64.8 Q44.0 -63.65 42.8 -64.65 L42.2 -65.4 Q43.25 -67.45 41.55 -69.85 L39.95 -71.4 Q29.8 -72.1 20.65 -71.2 29.15 -73.9 38.0 -74.0 40.15 -74.3 41.8 -73.3 L42.65 -72.85 M-173.65 -74.95 L-157.7 -75.05 Q-152.0 -75.1 -147.85 -76.35 -141.0 -78.2 -136.55 -75.05 L-136.45 -74.7 Q-154.75 -73.35 -172.9 -74.75 L-173.65 -74.95 M-158.15 -67.7 L-157.75 -67.95 -151.35 -68.85 Q-145.35 -69.35 -139.85 -67.65 L-139.7 -67.5 Q-147.4 -66.9 -155.2 -67.15 L-158.15 -67.7" fill="#8a7a24" fill-rule="evenodd" stroke="none"/>
    <path d="M95.75 -78.45 L126.9 -76.6 180.8 -74.25 185.85 -73.95 Q190.0 -74.7 194.8 -74.05 L202.45 -73.4 203.1 -73.2 203.55 -72.9 203.9 -72.6 204.1 -72.3 204.3 -71.75 204.1 -71.25 Q203.4 -70.3 203.3 -69.25 203.2 -67.95 202.3 -66.8 L202.25 -66.5 202.35 -66.25 202.5 -65.85 202.65 -64.5 202.2 -63.95 200.85 -62.75 199.0 -61.55 198.9 -61.25 199.05 -60.95 199.15 -60.7 199.25 -60.15 199.1 -59.85 198.85 -59.6 198.5 -59.25 198.3 -59.0 Q198.55 -58.7 198.85 -58.65 201.3 -58.0 202.75 -56.4 L203.0 -56.15 203.05 -55.6 Q203.2 -54.4 203.5 -53.3 203.8 -51.95 203.15 -50.75 L203.15 -50.65 202.9 -50.55 202.7 -50.55 202.65 -50.5 Q197.55 -49.05 191.35 -49.45 192.05 -45.5 191.6 -41.15 L191.1 -37.55 Q190.85 -36.0 190.85 -34.25 190.85 -29.6 191.1 -24.9 L190.2 -23.55 190.0 -23.35 187.25 -23.1 Q186.25 -21.45 184.6 -20.1 L187.35 -14.1 185.05 27.25 Q184.45 38.55 184.75 49.8 185.1 62.4 187.2 74.65 187.75 78.1 186.85 81.3 L187.65 82.35 187.65 82.6 Q184.15 84.7 179.4 82.25 178.75 78.4 178.7 74.35 L178.7 73.55 Q177.75 74.8 177.7 77.2 177.65 77.65 177.2 77.95 175.65 78.5 174.9 77.3 174.25 77.9 173.6 79.6 L173.4 80.15 Q168.65 81.75 165.4 80.45 L165.15 81.45 Q163.8 81.7 163.25 80.7 164.5 70.4 166.5 60.3 L166.65 60.0 166.3 58.85 166.25 58.6 Q167.75 51.7 167.05 44.8 L167.0 44.55 Q165.95 37.45 169.95 31.55 L171.05 29.45 170.55 26.9 170.5 26.6 Q168.8 25.25 166.55 24.35 165.5 13.5 166.85 2.15 168.45 -11.1 168.75 -24.25 168.45 -34.35 169.1 -44.2 169.3 -47.65 169.65 -51.0 151.75 -51.8 134.3 -51.9 L135.4 -51.45 Q128.25 -49.2 119.15 -51.1 110.75 -52.9 102.0 -52.95 69.45 -53.1 37.6 -55.6 L37.05 -55.75 30.55 -54.95 Q28.75 -55.6 27.8 -56.95 24.55 -57.2 22.0 -54.55 3.35 -54.95 -15.25 -55.6 L-89.85 -59.65 -114.25 -60.75 -117.35 -60.85 Q-120.6 -61.1 -123.75 -60.85 -125.65 -61.45 -126.4 -63.1 -128.3 -63.75 -129.8 -64.7 L-131.15 -62.55 -131.65 -62.0 Q-137.9 -61.75 -144.1 -61.8 L-150.3 -61.9 -150.3 -56.1 Q-150.45 -49.35 -151.3 -42.0 -153.1 -25.6 -152.95 -8.8 -152.7 12.5 -154.65 33.6 -156.05 50.4 -154.95 67.1 L-154.35 67.6 -154.8 68.4 -154.95 68.8 -155.25 69.05 -155.7 68.65 -162.85 67.55 Q-163.55 66.75 -164.6 66.4 L-164.9 67.45 Q-165.1 67.8 -165.6 67.95 -166.85 68.25 -167.75 67.5 -168.15 65.7 -169.1 64.05 L-169.4 63.45 -170.05 65.7 -170.4 66.55 Q-175.0 68.4 -178.45 66.35 L-178.8 66.95 -179.2 65.8 -179.9 65.15 Q-180.0 64.65 -179.45 64.5 -179.95 60.4 -177.15 55.9 L-174.95 52.6 Q-176.9 46.25 -174.95 39.9 L-174.85 39.6 Q-175.35 38.7 -174.95 37.65 L-174.8 37.35 Q-172.5 36.2 -169.65 36.5 -169.6 35.6 -169.05 34.8 L-169.0 34.55 -169.75 30.6 -169.75 30.35 -170.75 29.45 -173.8 28.7 Q-173.95 27.05 -174.65 25.55 L-174.8 25.25 Q-172.65 5.0 -174.05 -15.25 -174.4 -19.95 -174.2 -24.9 -174.15 -26.45 -173.65 -28.0 -174.1 -28.9 -174.0 -29.95 L-174.0 -30.2 -172.2 -31.85 -171.5 -34.05 -171.45 -34.35 Q-170.1 -35.5 -169.2 -36.8 -172.2 -39.25 -175.5 -41.1 -175.25 -42.8 -173.45 -43.8 -172.65 -50.25 -172.8 -56.55 L-172.9 -58.7 -172.85 -59.3 Q-173.7 -61.35 -172.7 -63.15 L-179.0 -63.8 Q-182.25 -62.75 -185.15 -63.9 -181.9 -70.4 -183.65 -77.0 L-183.95 -78.45 Q-183.6 -79.25 -183.7 -79.9 L-183.75 -80.15 -185.85 -82.5 Q-186.0 -83.35 -185.25 -83.95 L-185.15 -84.0 -185.4 -84.55 Q-179.95 -85.75 -173.5 -84.75 L-163.45 -84.2 Q-153.45 -84.65 -143.35 -84.35 L-131.1 -84.0 Q-119.0 -83.55 -106.95 -84.1 -99.9 -84.45 -92.9 -83.85 -47.25 -79.75 -1.6 -80.45 6.55 -80.6 14.5 -79.05 L24.6 -79.8 34.2 -79.1 68.65 -78.0 91.3 -78.25 95.75 -78.45 M116.85 -60.5 L107.95 -61.25 94.6 -61.8 Q106.35 -63.6 119.2 -62.0 131.6 -60.45 144.25 -61.7 153.8 -60.45 162.7 -57.95 L162.85 -57.85 142.25 -59.25 123.7 -60.0 116.85 -60.5 M116.65 -71.0 Q124.15 -71.45 130.35 -69.7 L130.55 -69.55 Q108.25 -68.2 85.3 -69.8 L53.5 -72.6 Q84.3 -70.8 115.5 -70.9 L116.65 -71.0 M175.75 -71.9 L173.4 -71.95 120.0 -74.4 116.0 -74.6 65.2 -76.35 Q56.35 -76.35 47.6 -76.5 L34.05 -77.4 14.95 -76.7 5.05 -77.85 -1.85 -78.25 -49.8 -78.95 -61.95 -79.45 Q-65.05 -77.95 -70.2 -78.0 L-73.3 -78.0 -71.95 -77.4 -71.65 -75.95 -71.4 -75.4 Q-78.2 -69.3 -89.05 -71.3 L-102.7 -72.95 Q-105.25 -73.1 -107.3 -74.3 L-107.35 -75.45 -107.3 -75.7 Q-106.9 -76.5 -105.9 -76.8 -119.6 -79.6 -135.3 -80.25 -141.05 -80.45 -145.15 -82.35 -163.6 -82.4 -182.0 -82.85 L-183.2 -83.0 -183.25 -82.85 Q-181.65 -81.8 -180.85 -80.0 L-179.85 -80.25 -172.05 -81.15 Q-161.3 -79.3 -150.35 -79.0 L-150.25 -78.9 -176.8 -78.05 -180.55 -78.45 Q-180.35 -76.55 -179.65 -74.25 L-179.45 -73.35 -179.95 -71.0 Q-170.4 -72.5 -159.9 -72.05 L-146.55 -71.2 -146.2 -71.1 Q-162.15 -70.15 -179.0 -70.8 L-179.95 -71.0 Q-180.65 -68.85 -181.8 -66.85 L-182.1 -65.8 Q-179.2 -65.75 -177.15 -64.55 L-177.8 -64.25 Q-161.1 -64.65 -143.95 -64.5 L-136.65 -64.4 -133.05 -64.85 -130.85 -67.7 -130.2 -68.15 -129.1 -67.75 -128.6 -67.5 Q-127.3 -65.3 -124.25 -64.5 L-123.9 -64.3 Q-118.5 -62.85 -111.45 -62.8 L-62.15 -60.65 -15.05 -58.4 -6.5 -58.3 3.5 -58.2 21.35 -57.25 Q26.65 -62.0 31.1 -57.5 49.5 -57.55 69.15 -56.8 L120.5 -54.6 Q125.65 -54.35 129.95 -53.25 L144.25 -53.9 150.2 -54.35 200.35 -51.35 200.2 -51.85 200.1 -52.65 199.8 -55.2 Q190.4 -57.3 180.55 -56.7 180.2 -56.7 179.8 -57.0 L179.65 -57.3 179.65 -57.55 179.6 -57.85 Q179.5 -58.3 179.9 -58.65 L194.3 -61.2 194.75 -61.75 196.95 -63.55 Q197.9 -64.2 198.6 -65.0 L198.65 -65.2 150.05 -63.95 150.05 -64.1 Q168.45 -67.9 188.05 -66.65 192.5 -66.4 196.65 -66.8 L198.85 -66.45 Q199.05 -67.35 199.55 -68.15 200.25 -69.3 200.4 -70.6 L186.6 -72.25 186.55 -72.15 183.5 -71.95 175.75 -71.9 M-96.95 -78.1 Q-90.1 -76.25 -84.15 -78.5 -86.85 -79.3 -88.1 -81.0 L-86.95 -81.1 -92.7 -81.4 Q-92.75 -79.55 -97.0 -78.25 L-96.95 -78.1 M-99.25 -78.8 L-99.05 -79.35 -95.15 -81.25 -95.0 -81.35 -93.85 -81.45 Q-111.5 -82.2 -129.25 -82.3 L-116.35 -80.45 Q-108.15 -79.8 -101.75 -77.4 -102.05 -76.1 -103.6 -75.7 L-104.4 -75.35 Q-89.85 -71.85 -75.3 -74.8 -74.5 -74.95 -74.3 -75.5 -77.6 -76.45 -80.55 -77.9 -76.35 -79.6 -71.55 -80.2 L-85.7 -81.05 Q-83.8 -80.8 -81.95 -79.55 -81.6 -78.75 -81.75 -77.85 -81.85 -77.4 -82.1 -77.0 -90.7 -73.5 -99.3 -77.4 -99.55 -78.1 -99.25 -78.8 M-114.7 -70.9 L-115.6 -72.0 -115.55 -72.25 Q-115.55 -72.9 -115.05 -73.4 L-114.85 -73.65 -114.6 -73.9 -114.9 -74.1 -117.45 -74.35 -117.9 -74.65 -118.55 -75.2 Q-118.25 -75.75 -117.4 -75.9 -113.9 -76.35 -111.6 -74.25 L-111.7 -74.0 Q-112.05 -73.3 -112.75 -72.9 L-113.4 -72.35 -107.05 -70.65 Q-97.9 -68.55 -87.6 -68.6 L-77.3 -69.5 Q-72.8 -70.3 -68.4 -71.85 L-68.25 -72.1 -67.7 -73.45 -67.55 -74.3 -67.45 -74.85 Q-60.85 -76.4 -53.7 -77.55 L-48.05 -78.0 Q-23.5 -75.3 1.2 -74.25 2.8 -74.2 3.5 -73.15 L-30.55 -74.25 -35.9 -74.8 Q-50.8 -77.2 -65.15 -73.2 -66.5 -70.75 -68.95 -69.2 -72.35 -67.0 -78.15 -66.65 -96.15 -65.55 -113.0 -70.05 -114.0 -70.35 -114.7 -70.9 M-43.25 -68.25 Q-9.9 -68.2 23.55 -66.95 27.85 -69.0 32.65 -69.15 L35.35 -69.05 Q37.25 -68.3 38.15 -66.8 38.75 -65.85 39.6 -65.05 L39.65 -64.8 39.75 -63.65 40.05 -62.8 39.9 -62.55 39.55 -61.7 39.5 -61.15 74.0 -59.85 74.05 -59.75 Q73.1 -59.55 72.45 -59.05 L72.05 -58.85 38.95 -59.15 Q38.65 -59.25 38.4 -59.45 37.8 -59.7 37.65 -60.25 37.5 -60.9 37.7 -61.65 38.05 -63.05 37.85 -64.45 L37.2 -65.45 Q36.65 -66.45 35.5 -67.1 28.65 -67.9 22.0 -66.1 18.25 -65.1 14.1 -65.5 L-14.6 -66.75 -30.55 -65.95 -59.25 -68.2 -43.25 -68.25 M188.75 -41.5 Q189.55 -45.55 190.95 -49.45 L187.15 -49.9 185.15 -50.2 Q185.2 -47.2 184.1 -44.0 L183.85 -43.85 Q182.65 -47.6 184.85 -50.2 L182.15 -50.45 174.95 -50.8 Q175.4 -47.4 175.5 -43.85 175.55 -40.0 175.25 -36.05 174.6 -28.75 174.35 -21.45 174.3 -20.2 173.5 -19.2 172.5 -31.25 173.45 -44.0 L174.1 -50.85 170.35 -51.0 171.35 -44.15 Q171.7 -40.05 171.55 -35.8 L170.35 -13.3 Q169.15 4.8 168.8 22.7 177.65 27.45 171.25 34.45 169.25 36.75 169.6 39.7 170.4 44.85 170.05 50.35 169.25 65.05 165.8 78.95 L169.75 78.35 Q170.2 72.55 171.1 66.2 L171.55 66.1 Q172.8 72.2 170.7 78.25 L171.7 78.1 Q172.05 76.2 173.25 74.5 L173.55 74.0 Q174.55 73.55 175.65 73.65 L175.9 73.55 Q176.7 69.85 178.95 67.35 177.6 65.9 177.75 63.0 L177.9 60.75 Q179.7 54.25 179.45 47.35 179.65 46.45 180.15 45.85 L180.2 45.85 Q180.2 56.1 179.55 66.8 L180.05 67.0 180.55 67.3 Q181.95 73.3 181.3 79.7 L181.3 80.25 184.5 80.8 Q182.45 60.7 181.65 40.25 L181.5 33.1 Q182.8 22.65 182.6 12.0 L183.7 3.15 Q183.25 -4.35 184.45 -12.05 L184.55 -12.9 Q183.05 -14.35 183.35 -16.3 L183.4 -16.6 181.45 -18.6 Q182.05 -24.05 188.55 -25.75 187.4 -33.9 188.75 -41.5 M186.5 -41.85 L187.0 -43.5 187.4 -43.55 187.2 -41.75 186.05 -25.0 Q186.05 -24.95 185.75 -24.85 184.05 -33.15 186.5 -41.85 M180.2 -18.3 Q180.4 -13.0 179.6 -7.3 L179.6 -7.05 Q180.2 -6.05 181.3 -5.3 L179.15 14.9 178.7 15.75 Q177.6 6.2 179.7 -3.95 L179.8 -4.8 178.3 -6.55 Q178.25 -12.5 179.75 -18.15 L180.2 -18.3 M177.6 23.15 Q179.95 33.65 174.55 43.5 173.9 44.75 173.9 46.1 173.95 51.85 172.2 57.3 172.7 58.35 172.15 59.25 L172.0 59.55 171.0 56.7 Q172.35 48.85 172.2 40.95 L172.2 40.65 Q176.4 35.45 176.95 29.0 176.85 25.15 174.5 21.95 L172.25 21.55 171.15 20.35 Q171.65 10.45 172.3 0.7 172.3 0.45 172.6 0.4 173.95 9.5 172.9 19.5 L173.0 19.75 Q173.9 20.3 175.25 20.5 L177.6 23.15 M-157.4 -56.95 Q-157.9 -58.55 -157.7 -60.3 -157.6 -61.0 -157.65 -61.75 L-157.25 -62.15 -166.1 -62.6 -166.5 -56.55 -167.25 -38.45 -165.95 -37.5 Q-166.35 -35.15 -168.8 -33.4 L-169.35 -31.2 -169.55 -30.95 -170.95 -29.3 Q-171.3 -9.0 -170.65 11.3 -170.4 17.65 -171.9 23.65 -171.3 24.75 -171.05 25.95 L-171.05 26.25 Q-168.5 27.55 -166.75 29.6 -164.7 34.9 -168.35 39.3 L-171.8 39.85 Q-173.25 47.15 -173.35 54.45 -173.35 55.6 -173.85 56.9 -175.55 60.95 -177.45 64.55 L-176.4 65.0 Q-174.2 65.0 -172.75 64.4 -172.5 60.5 -170.2 57.25 L-169.6 57.0 -168.55 57.3 -168.2 57.5 Q-166.95 59.95 -166.7 62.6 L-166.6 63.2 Q-163.55 63.55 -161.25 65.35 L-157.75 65.7 Q-158.45 63.8 -158.35 61.35 L-158.05 50.1 Q-157.4 27.8 -156.05 5.65 L-153.55 -39.05 -153.4 -41.7 Q-154.15 -42.25 -154.6 -43.1 -162.15 -48.15 -161.75 -56.55 L-161.75 -56.95 Q-161.55 -59.4 -160.05 -60.7 L-159.35 -57.05 -158.75 -52.05 Q-158.55 -49.2 -156.0 -47.15 L-154.95 -46.05 Q-155.55 -51.55 -157.35 -56.9 L-157.4 -56.95 M-152.85 -56.45 Q-152.4 -59.35 -151.3 -61.9 L-155.75 -62.05 Q-156.1 -59.45 -155.9 -56.8 -155.5 -51.95 -153.3 -46.95 L-153.25 -46.9 -153.2 -51.65 Q-153.25 -54.15 -152.85 -56.45 M-167.85 -56.55 L-166.6 -62.7 -171.45 -63.05 Q-171.0 -59.9 -170.9 -56.6 -170.55 -49.9 -171.4 -42.7 L-171.45 -42.45 Q-171.5 -41.05 -168.2 -39.05 L-167.75 -38.8 Q-169.2 -47.7 -167.85 -56.55 M-158.6 -5.85 Q-159.05 -13.6 -160.1 -21.9 -160.85 -27.9 -160.7 -33.95 L-160.45 -41.05 -159.35 -39.9 -159.2 -39.6 Q-159.4 -26.0 -158.65 -12.5 L-158.45 -5.85 -158.6 -5.85 M-163.05 -26.65 Q-161.75 -9.9 -162.75 7.2 L-162.85 7.4 Q-163.5 -9.65 -163.35 -26.65 L-163.05 -26.65 M-167.55 -3.5 Q-164.8 6.95 -166.9 17.1 L-166.9 17.35 Q-167.6 21.4 -164.5 25.05 -164.5 26.25 -163.75 27.35 -162.35 35.25 -165.7 42.75 -166.65 44.45 -168.5 44.95 -167.5 51.15 -167.7 57.25 L-168.1 57.45 Q-170.65 51.65 -169.3 44.95 -171.2 43.9 -171.55 42.0 -169.9 41.5 -168.65 43.05 L-167.7 42.05 Q-165.65 37.15 -165.8 32.25 -166.6 25.35 -168.75 18.7 -169.2 17.35 -168.95 15.8 -167.8 8.45 -168.3 0.9 -168.45 -1.7 -167.55 -3.5 M-161.35 38.3 Q-161.6 30.85 -161.35 24.75 -158.35 42.9 -160.45 61.35 L-160.5 61.65 Q-162.7 57.95 -161.95 52.6 -161.0 45.55 -161.35 38.3" fill="#000000" fill-rule="evenodd" stroke="none"/>
    <path d="M-96.95 -78.1 L-97.0 -78.25 Q-92.75 -79.55 -92.7 -81.4 L-86.95 -81.1 -88.1 -81.0 Q-86.85 -79.3 -84.15 -78.5 -90.1 -76.25 -96.95 -78.1" fill="#39360f" fill-rule="evenodd" stroke="none"/>
    <path d="M175.5 -43.85 Q175.4 -47.4 174.95 -50.8 L182.15 -50.45 184.85 -50.2 Q182.65 -47.6 183.85 -43.85 L184.1 -44.0 Q185.2 -47.2 185.15 -50.2 L187.15 -49.9 190.95 -49.45 Q189.55 -45.55 188.75 -41.5 L187.2 -41.75 187.4 -43.55 187.0 -43.5 186.5 -41.85 183.65 -42.45 175.5 -43.85 M171.35 -44.15 L170.35 -51.0 174.1 -50.85 173.45 -44.0 171.35 -44.15 M-166.5 -56.55 L-166.1 -62.6 -157.25 -62.15 -157.65 -61.75 Q-157.6 -61.0 -157.7 -60.3 -157.9 -58.55 -157.4 -56.95 L-158.65 -57.05 -159.35 -57.05 -160.05 -60.7 Q-161.55 -59.4 -161.75 -56.95 L-163.95 -56.75 -166.5 -56.55 M-155.9 -56.8 Q-156.1 -59.45 -155.75 -62.05 L-151.3 -61.9 Q-152.4 -59.35 -152.85 -56.45 L-155.9 -56.8 M-167.85 -56.55 L-170.9 -56.6 Q-171.0 -59.9 -171.45 -63.05 L-166.6 -62.7 -167.85 -56.55" fill="#46450f" fill-rule="evenodd" stroke="none"/>
    <path d="M175.5 -43.85 L183.65 -42.45 186.5 -41.85 Q184.05 -33.15 185.75 -24.85 186.05 -24.95 186.05 -25.0 L187.2 -41.75 188.75 -41.5 Q187.4 -33.9 188.55 -25.75 182.05 -24.05 181.45 -18.6 L183.4 -16.6 183.35 -16.3 Q183.05 -14.35 184.55 -12.9 L184.45 -12.05 Q183.25 -4.35 183.7 3.15 L182.6 12.0 182.2 5.15 Q179.5 8.6 180.05 14.5 181.75 30.55 176.0 44.35 176.05 54.0 177.15 63.05 L177.9 60.75 177.75 63.0 Q177.6 65.9 178.95 67.35 176.7 69.85 175.9 73.55 L175.65 73.65 Q174.55 73.55 173.55 74.0 L173.25 74.5 Q172.05 76.2 171.7 78.1 L170.7 78.25 Q172.8 72.2 171.55 66.1 L171.1 66.2 Q170.2 72.55 169.75 78.35 L165.8 78.95 Q169.25 65.05 170.05 50.35 170.4 44.85 169.6 39.7 169.25 36.75 171.25 34.45 177.65 27.45 168.8 22.7 169.15 4.8 170.35 -13.3 L171.55 -35.8 Q171.7 -40.05 171.35 -44.15 L173.45 -44.0 Q172.5 -31.25 173.5 -19.2 174.3 -20.2 174.35 -21.45 174.6 -28.75 175.25 -36.05 175.55 -40.0 175.5 -43.85 M181.5 33.1 L181.65 40.25 Q182.45 60.7 184.5 80.8 L181.3 80.25 181.3 79.7 Q181.95 73.3 180.55 67.3 L180.05 67.0 179.55 66.8 Q180.2 56.1 180.2 45.85 L180.15 45.85 Q179.65 46.45 179.45 47.35 L179.35 44.5 179.7 44.0 Q180.8 38.6 181.5 33.1 M179.45 -40.85 L178.95 -40.75 Q175.05 -28.55 176.2 -16.2 L176.5 -16.55 Q180.35 -28.5 179.45 -40.85 M177.6 23.15 L175.25 20.5 Q173.9 20.3 173.0 19.75 L172.9 19.5 Q173.95 9.5 172.6 0.4 172.3 0.45 172.3 0.7 171.65 10.45 171.15 20.35 L172.25 21.55 174.5 21.95 Q176.85 25.15 176.95 29.0 176.4 35.45 172.2 40.65 L172.2 40.95 Q172.35 48.85 171.0 56.7 L172.0 59.55 172.15 59.25 Q172.7 58.35 172.2 57.3 173.95 51.85 173.9 46.1 173.9 44.75 174.55 43.5 179.95 33.65 177.6 23.15 M180.2 -18.3 L179.75 -18.15 Q178.25 -12.5 178.3 -6.55 L179.8 -4.8 179.7 -3.95 Q177.6 6.2 178.7 15.75 L179.15 14.9 181.3 -5.3 Q180.2 -6.05 179.6 -7.05 L179.6 -7.3 Q180.4 -13.0 180.2 -18.3 M170.55 39.35 L171.2 39.1 Q175.6 36.55 173.5 33.8 173.0 33.85 172.55 34.35 170.7 36.7 170.55 39.35 M173.55 -16.0 L173.35 -15.95 Q169.7 -7.4 171.9 0.35 L172.05 -0.05 Q175.1 -7.95 173.55 -16.0 M-166.5 -56.55 L-163.95 -56.75 -161.75 -56.95 -161.75 -56.55 Q-162.15 -48.15 -154.6 -43.1 -154.15 -42.25 -153.4 -41.7 L-153.55 -39.05 -156.05 5.65 Q-157.4 27.8 -158.05 50.1 L-158.35 61.35 Q-158.45 63.8 -157.75 65.7 L-161.25 65.35 Q-163.55 63.55 -166.6 63.2 L-166.7 62.6 Q-166.95 59.95 -168.2 57.5 L-168.55 57.3 -169.6 57.0 -170.2 57.25 Q-172.5 60.5 -172.75 64.4 -174.2 65.0 -176.4 65.0 L-177.45 64.55 Q-175.55 60.95 -173.85 56.9 -173.35 55.6 -173.35 54.45 -173.25 47.15 -171.8 39.85 L-168.35 39.3 Q-164.7 34.9 -166.75 29.6 -168.5 27.55 -171.05 26.25 L-171.05 25.95 Q-171.3 24.75 -171.9 23.65 -170.4 17.65 -170.65 11.3 -171.3 -9.0 -170.95 -29.3 L-169.55 -30.95 -169.35 -31.2 -168.8 -33.4 Q-166.35 -35.15 -165.95 -37.5 L-167.25 -38.45 -166.5 -56.55 M-159.35 -57.05 L-158.65 -57.05 -157.4 -56.95 -157.35 -56.9 Q-155.55 -51.55 -154.95 -46.05 L-156.0 -47.15 Q-158.55 -49.2 -158.75 -52.05 L-159.35 -57.05 M-163.95 -55.05 L-164.45 -54.95 Q-165.55 -42.95 -163.95 -31.7 -163.6 -31.85 -163.6 -32.05 -161.55 -43.65 -163.95 -55.05 M-158.45 -5.85 L-158.65 -12.5 Q-159.4 -26.0 -159.2 -39.6 L-159.35 -39.9 -160.45 -41.05 -160.7 -33.95 Q-160.85 -27.9 -160.1 -21.9 -159.05 -13.6 -158.6 -5.85 L-158.9 -5.75 Q-159.75 4.85 -162.1 15.15 L-162.15 15.65 Q-162.6 19.05 -161.35 21.3 L-161.15 20.8 Q-157.35 7.75 -158.3 -5.85 L-158.45 -5.85 M-163.05 -26.65 L-163.35 -26.65 Q-163.5 -9.65 -162.85 7.4 L-162.75 7.2 Q-161.75 -9.9 -163.05 -26.65 M-168.35 -27.25 L-168.55 -27.2 Q-172.65 -15.35 -168.8 -4.7 L-168.7 -5.15 Q-167.85 -15.95 -168.35 -27.25 M-167.55 -3.5 Q-168.45 -1.7 -168.3 0.9 -167.8 8.45 -168.95 15.8 -169.2 17.35 -168.75 18.7 -166.6 25.35 -165.8 32.25 -165.65 37.15 -167.7 42.05 L-168.65 43.05 Q-169.9 41.5 -171.55 42.0 -171.2 43.9 -169.3 44.95 -170.65 51.65 -168.1 57.45 L-167.7 57.25 Q-167.5 51.15 -168.5 44.95 -166.65 44.45 -165.7 42.75 -162.35 35.25 -163.75 27.35 -164.5 26.25 -164.5 25.05 -167.6 21.4 -166.9 17.35 L-166.9 17.1 Q-164.8 6.95 -167.55 -3.5 M-163.45 57.2 L-163.35 56.75 Q-161.95 48.95 -163.0 41.75 -165.7 44.4 -166.05 49.3 -166.4 54.8 -163.45 57.2 M-161.35 38.3 Q-161.0 45.55 -161.95 52.6 -162.7 57.95 -160.5 61.65 L-160.45 61.35 Q-158.35 42.9 -161.35 24.75 -161.6 30.85 -161.35 38.3" fill="#595913" fill-rule="evenodd" stroke="none"/>
    <path d="M182.6 12.0 Q182.8 22.65 181.5 33.1 180.8 38.6 179.7 44.0 L179.35 44.5 179.45 47.35 Q179.7 54.25 177.9 60.75 L177.15 63.05 Q176.05 54.0 176.0 44.35 181.75 30.55 180.05 14.5 179.5 8.6 182.2 5.15 L182.6 12.0 M179.45 -40.85 Q180.35 -28.5 176.5 -16.55 L176.2 -16.2 Q175.05 -28.55 178.95 -40.75 L179.45 -40.85 M173.55 -16.0 Q175.1 -7.95 172.05 -0.05 L171.9 0.35 Q169.7 -7.4 173.35 -15.95 L173.55 -16.0 M170.55 39.35 Q170.7 36.7 172.55 34.35 173.0 33.85 173.5 33.8 175.6 36.55 171.2 39.1 L170.55 39.35 M-163.95 -55.05 Q-161.55 -43.65 -163.6 -32.05 -163.6 -31.85 -163.95 -31.7 -165.55 -42.95 -164.45 -54.95 L-163.95 -55.05 M-158.45 -5.85 L-158.3 -5.85 Q-157.35 7.75 -161.15 20.8 L-161.35 21.3 Q-162.6 19.05 -162.15 15.65 L-162.1 15.15 Q-159.75 4.85 -158.9 -5.75 L-158.6 -5.85 -158.45 -5.85 M-168.35 -27.25 Q-167.85 -15.95 -168.7 -5.15 L-168.8 -4.7 Q-172.65 -15.35 -168.55 -27.2 L-168.35 -27.25 M-163.45 57.2 Q-166.4 54.8 -166.05 49.3 -165.7 44.4 -163.0 41.75 -161.95 48.95 -163.35 56.75 L-163.45 57.2" fill="#77771a" fill-rule="evenodd" stroke="none"/>
    <path d="M-155.9 -56.8 L-152.85 -56.45 Q-153.25 -54.15 -153.2 -51.65 L-153.25 -46.9 -153.3 -46.95 Q-155.5 -51.95 -155.9 -56.8 M-170.9 -56.6 L-167.85 -56.55 Q-169.2 -47.7 -167.75 -38.8 L-168.2 -39.05 Q-171.5 -41.05 -171.45 -42.45 L-171.4 -42.7 Q-170.55 -49.9 -170.9 -56.6" fill="#515913" fill-rule="evenodd" stroke="none"/>
  </g>
</svg>
