<?xml version="1.0" encoding="UTF-8" standalone="no"?>
<svg xmlns:ffdec="https://www.free-decompiler.com/flash" xmlns:xlink="http://www.w3.org/1999/xlink" ffdec:objectType="shape" height="60.25px" width="264.1px" xmlns="http://www.w3.org/2000/svg">
  <g transform="matrix(1.0, 0.0, 0.0, 1.0, 0.05, 0.0)">
    <path d="M74.2 10.85 L115.85 13.25 116.3 13.4 115.9 13.5 112.05 14.15 111.3 14.25 Q63.15 13.6 16.05 11.65 L15.6 11.65 13.35 11.55 40.4 10.85 46.65 10.6 46.65 10.55 Q60.5 10.45 74.2 10.85 M5.3 20.85 Q5.9 20.55 6.75 20.35 L18.85 19.85 21.45 19.85 Q24.5 19.75 27.5 19.8 L27.4 20.05 Q27.0 21.05 27.75 21.95 16.55 22.4 5.3 21.9 L4.7 21.85 4.5 21.6 4.6 21.35 Q4.85 21.05 5.3 20.85 M36.9 20.2 L42.0 20.65 42.45 20.85 36.1 21.4 36.9 20.2 M227.65 41.85 L228.15 41.9 228.25 41.9 228.75 41.95 243.2 43.75 243.1 43.9 Q217.45 44.8 190.7 43.05 190.4 43.05 190.15 42.8 L190.3 42.5 190.5 42.2 Q190.6 42.05 190.85 42.0 L191.3 41.8 191.7 41.7 192.7 41.65 Q199.3 41.9 203.6 41.45 211.5 41.1 219.1 41.4 L221.05 41.5 222.3 42.6 226.4 42.5 Q227.0 42.2 227.55 41.95 L227.65 41.85 M241.05 12.25 L252.35 12.65 252.6 12.75 242.8 13.1 241.05 12.25 M234.3 13.3 L204.5 13.65 203.45 13.55 204.05 13.25 222.95 12.05 234.6 12.15 234.5 12.2 234.3 12.35 234.3 12.85 234.3 13.3 M165.0 11.45 Q142.9 14.2 122.05 12.3 L122.05 12.15 159.15 10.45 160.0 10.4 165.1 11.3 165.0 11.45 M174.05 28.05 Q178.2 26.0 182.7 24.6 L182.85 24.6 184.5 24.9 185.0 25.1 Q184.8 25.9 183.95 26.75 L183.7 26.95 181.25 27.95 Q212.0 28.55 241.9 31.15 208.45 31.95 174.65 29.6 173.7 29.05 174.0 28.3 L174.05 28.05 M122.05 28.95 L139.2 29.8 Q124.85 34.35 116.2 27.65 114.6 26.4 117.2 26.1 119.6 27.2 121.75 28.7 121.9 28.75 122.05 28.95 M112.15 19.9 Q88.7 23.3 65.85 21.4 64.4 21.25 64.5 20.7 L118.2 18.6 112.95 19.75 112.15 19.9 M93.25 43.85 Q54.0 45.05 15.45 43.9 L15.15 43.65 Q15.15 43.15 16.45 43.1 L42.45 41.85 Q68.4 41.0 93.0 43.7 L93.25 43.85 M114.25 35.95 Q74.7 37.8 36.15 35.85 L83.55 34.1 Q101.15 32.8 114.7 35.8 L114.25 35.95" fill="#7d7d20" fill-rule="evenodd" stroke="none"/>
    <path d="M74.2 10.85 L101.45 10.55 Q106.0 11.25 109.85 10.6 L111.9 10.6 Q117.9 10.3 123.9 10.35 L144.55 10.2 Q171.95 9.7 199.4 10.15 L200.25 10.15 Q212.75 9.8 225.25 9.95 L260.1 10.4 Q257.75 11.35 255.7 12.4 L255.5 12.35 Q254.45 12.55 253.65 13.0 L251.35 14.15 Q243.4 17.5 248.35 21.1 L248.15 21.6 246.95 23.1 Q242.65 26.35 250.7 28.95 L250.95 29.05 Q253.75 31.9 253.2 35.0 L252.7 35.0 235.35 36.95 230.75 37.8 229.65 38.05 Q227.5 37.15 225.0 36.95 L224.95 36.8 224.95 35.75 227.15 35.25 227.15 35.15 Q226.25 34.35 224.6 34.5 L223.95 34.65 Q223.35 34.8 222.9 35.1 L222.55 35.1 222.5 35.05 222.4 35.1 221.3 35.3 220.85 35.55 Q220.25 35.8 220.3 36.2 L221.55 36.15 220.3 38.05 Q220.55 38.75 221.2 39.25 220.25 40.35 221.05 41.5 L219.1 41.4 Q211.5 41.1 203.6 41.45 199.3 41.9 192.7 41.65 L191.7 41.7 191.3 41.8 190.85 42.0 Q190.6 42.05 190.5 42.2 L190.3 42.5 190.15 42.8 Q190.4 43.05 190.7 43.05 217.45 44.8 243.1 43.9 L243.2 43.75 228.75 41.95 228.25 41.9 228.15 41.9 227.65 41.85 229.25 40.6 229.95 40.55 230.8 40.55 245.55 41.1 251.8 41.5 251.8 42.95 Q244.2 42.8 243.2 46.45 L238.05 46.1 Q234.65 45.95 231.25 46.05 208.2 46.65 185.15 46.7 L67.4 46.95 Q39.15 46.9 11.05 46.45 10.1 45.75 8.55 45.35 L7.35 44.8 Q6.1 42.95 3.05 41.8 L3.15 40.55 3.7 40.4 22.6 40.5 Q28.7 40.4 28.1 38.85 L3.35 39.75 3.2 39.75 Q3.45 38.25 4.0 36.8 L4.15 36.8 7.95 35.95 12.85 34.6 19.9 34.3 20.3 34.05 Q20.65 33.9 20.6 33.65 L18.85 32.3 16.95 30.65 Q15.7 29.5 12.45 29.15 L14.0 28.75 17.35 28.05 Q19.7 27.6 21.1 26.75 21.5 26.1 20.6 25.6 19.65 25.1 18.35 25.15 10.25 25.65 4.8 24.25 L5.25 22.3 5.3 21.9 Q16.55 22.4 27.75 21.95 L28.6 22.55 29.25 23.05 29.8 23.1 31.25 23.1 32.3 23.3 33.4 23.05 Q35.15 22.35 36.1 21.4 L42.45 20.85 42.0 20.65 36.9 20.2 37.15 18.95 36.95 18.65 36.65 18.15 36.45 18.0 Q35.85 17.7 35.2 17.55 34.4 16.25 31.9 16.5 L31.4 16.6 Q29.0 17.4 27.6 18.75 L27.5 19.8 Q24.5 19.75 21.45 19.85 L18.85 19.85 6.75 20.35 Q5.9 20.55 5.3 20.85 L5.15 19.65 Q7.0 17.0 7.3 14.4 L11.9 14.8 14.2 14.95 17.05 15.0 Q34.8 15.6 52.15 14.15 L46.85 13.65 45.6 13.65 Q31.2 14.15 16.9 13.8 L14.45 13.7 11.4 13.6 7.35 13.75 Q7.4 12.1 6.9 10.45 L40.4 10.85 13.35 11.55 15.6 11.65 16.05 11.65 Q63.15 13.6 111.3 14.25 L112.05 14.15 115.9 13.5 116.3 13.4 115.85 13.25 74.2 10.85 M242.8 13.1 L252.6 12.75 252.35 12.65 241.05 12.25 239.9 11.7 239.35 11.65 236.1 11.6 235.75 11.65 Q235.1 11.8 234.6 12.15 L222.95 12.05 204.05 13.25 203.45 13.55 204.5 13.65 234.3 13.3 234.55 14.1 234.3 14.15 233.45 14.4 232.45 14.7 Q231.9 14.8 231.65 15.05 L231.1 15.45 231.0 16.1 230.45 17.0 230.5 17.1 223.15 16.7 221.4 16.85 220.1 17.35 220.1 17.45 230.85 17.7 Q231.1 18.0 231.8 17.9 L231.8 17.85 235.85 17.7 236.05 17.55 Q236.55 16.95 235.45 16.65 L238.1 15.85 Q240.5 16.6 243.35 16.35 L243.55 16.25 244.75 15.45 244.95 15.3 244.95 14.95 244.95 14.65 244.95 14.5 Q244.1 13.65 242.95 13.15 L242.8 13.1 M207.05 34.1 L207.1 33.95 Q174.3 31.3 141.5 32.5 146.75 29.85 155.35 29.35 166.55 28.65 164.0 24.35 163.55 23.6 162.2 23.25 152.75 20.65 141.05 20.65 125.55 21.2 110.4 23.05 89.8 25.5 68.55 25.2 L65.95 25.0 65.7 25.1 Q65.35 25.45 66.1 25.55 78.1 27.3 91.25 26.25 L119.8 23.3 Q135.9 21.2 152.55 22.35 164.0 23.15 160.4 27.2 145.85 27.95 137.3 32.45 L137.3 32.65 137.4 33.0 137.45 33.15 Q139.85 34.45 143.75 34.15 L152.25 33.85 Q179.25 33.75 206.2 34.35 L206.65 34.3 Q207.0 34.3 207.05 34.1 M236.75 22.25 L236.75 22.1 Q213.5 19.8 189.8 19.75 190.45 19.2 189.65 18.8 179.7 13.45 162.9 13.85 L160.7 13.9 Q154.15 13.75 149.45 15.15 L149.4 15.25 149.5 15.6 149.55 15.75 Q149.5 16.05 150.35 15.95 L150.65 15.85 161.75 14.8 Q177.35 14.55 187.1 19.1 L186.65 19.45 Q186.0 19.75 185.7 20.2 L185.65 20.3 185.8 20.6 186.4 21.05 186.75 21.2 Q211.9 21.75 236.45 22.7 L236.55 22.6 236.75 22.25 M235.35 16.7 L235.25 16.75 235.45 16.65 235.35 16.7 M165.0 11.45 L165.1 11.3 160.0 10.4 159.15 10.45 122.05 12.15 122.05 12.3 Q142.9 14.2 165.0 11.45 M164.35 40.9 L164.65 40.8 165.1 40.3 165.1 40.2 Q152.6 38.35 138.2 39.45 129.7 40.1 121.75 39.15 L98.9 38.0 66.2 38.55 66.0 38.55 65.5 38.9 65.5 39.05 Q65.55 39.45 66.55 39.45 88.15 39.7 109.8 39.6 L113.05 39.9 118.0 40.4 Q141.15 40.9 164.35 40.9 M174.05 28.05 L174.0 28.3 Q173.7 29.05 174.65 29.6 208.45 31.95 241.9 31.15 212.0 28.55 181.25 27.95 L183.7 26.95 183.95 26.75 Q184.8 25.9 185.0 25.1 L184.5 24.9 182.85 24.6 182.7 24.6 Q178.2 26.0 174.05 28.05 M130.3 26.8 L129.35 26.6 128.65 26.45 128.05 26.55 127.75 26.7 127.55 26.8 127.4 26.9 Q129.35 28.1 132.9 28.4 145.55 29.55 153.6 25.55 L153.6 25.45 153.3 24.75 153.1 24.4 152.95 24.15 152.75 24.05 Q149.1 22.95 144.55 23.05 L137.5 23.4 137.35 23.4 136.45 23.55 134.05 24.0 133.8 23.8 Q131.35 24.15 129.7 25.0 128.1 25.85 130.3 26.8 M114.25 35.95 L114.7 35.8 Q101.15 32.8 83.55 34.1 L36.15 35.85 Q74.7 37.8 114.25 35.95 M93.25 43.85 L93.0 43.7 Q68.4 41.0 42.45 41.85 L16.45 43.1 Q15.15 43.15 15.15 43.65 L15.45 43.9 Q54.0 45.05 93.25 43.85 M112.15 19.9 L112.95 19.75 118.2 18.6 64.5 20.7 Q64.4 21.25 65.85 21.4 88.7 23.3 112.15 19.9 M122.05 28.95 Q121.9 28.75 121.75 28.7 119.6 27.2 117.2 26.1 114.6 26.4 116.2 27.65 124.85 34.35 139.2 29.8 L122.05 28.95 M34.3 30.8 L33.7 30.45 Q32.1 31.0 30.15 30.5 L28.05 31.35 28.0 31.5 27.75 31.8 27.25 31.8 Q26.85 31.9 26.55 32.1 25.55 32.75 24.75 33.5 24.4 35.7 27.85 36.4 34.05 37.65 33.3 33.8 L33.1 33.7 33.4 33.65 33.9 33.5 34.95 33.05 35.35 32.65 35.65 31.5 35.45 31.35 Q34.95 31.0 34.3 30.8" fill="#66661a" fill-rule="evenodd" stroke="none"/>
    <path d="M263.45 10.45 Q260.25 12.2 258.2 14.2 L252.35 16.8 252.4 17.3 250.35 18.65 250.0 18.9 Q254.5 21.7 250.0 24.75 L249.35 25.25 252.25 27.3 253.1 27.15 Q253.45 27.9 255.15 28.55 L254.85 28.6 255.8 29.7 255.9 30.1 Q257.65 32.45 257.9 34.85 255.65 35.3 254.35 36.15 L252.45 37.55 252.8 36.3 236.6 38.7 251.95 39.75 252.1 39.0 Q252.8 39.95 256.5 40.3 256.1 41.25 256.0 42.2 252.9 43.3 250.85 44.6 L249.0 44.9 247.8 46.2 249.0 46.1 247.75 47.55 245.85 47.5 244.65 48.05 242.3 48.25 228.3 47.75 210.1 48.45 Q173.1 48.95 136.15 48.75 L112.2 48.65 107.95 48.55 106.8 48.65 98.1 48.75 55.55 48.75 42.3 48.7 Q25.75 48.65 9.8 47.75 L9.0 47.8 Q6.35 44.7 0.7 42.5 L0.8 41.45 Q1.0 39.95 -0.05 38.65 L0.0 37.7 0.15 35.8 Q2.9 34.95 5.0 33.9 L5.0 33.95 5.1 34.2 5.1 34.25 6.05 34.0 14.65 32.65 Q13.6 32.25 13.05 31.7 L12.55 31.2 12.45 31.1 12.35 31.0 Q8.95 30.9 7.55 29.7 L7.25 29.3 7.2 28.95 Q8.65 27.9 11.25 27.4 L15.45 26.75 15.8 26.65 5.55 26.3 Q4.25 25.3 0.9 25.15 1.15 23.05 1.7 20.95 4.2 18.1 3.1 15.25 L3.45 11.8 Q3.5 11.5 3.9 11.3 L3.75 11.15 Q5.75 9.65 6.0 8.35 L14.65 8.55 Q57.1 9.75 99.6 9.0 L100.1 8.4 103.3 8.95 103.15 9.25 103.7 9.25 Q105.45 9.1 107.15 9.2 L107.1 9.05 110.55 8.85 110.55 9.1 123.2 8.75 Q129.0 8.3 134.75 8.65 L145.4 8.85 Q170.45 8.3 195.45 8.55 L220.55 8.5 224.1 8.5 239.4 8.55 240.9 8.2 250.0 8.85 254.1 8.65 264.05 8.7 Q263.65 9.55 263.8 10.45 L263.45 10.45 M221.05 41.5 Q220.25 40.35 221.2 39.25 220.55 38.75 220.3 38.05 L221.55 36.15 220.3 36.2 Q220.25 35.8 220.85 35.55 L221.3 35.3 222.4 35.1 222.5 35.05 222.55 35.1 222.9 35.1 Q223.35 34.8 223.95 34.65 L224.6 34.5 Q226.25 34.35 227.15 35.15 L227.15 35.25 224.95 35.75 224.95 36.8 225.0 36.95 Q227.5 37.15 229.65 38.05 L230.75 37.8 235.35 36.95 252.7 35.0 253.2 35.0 Q253.75 31.9 250.95 29.05 L250.7 28.95 Q242.65 26.35 246.95 23.1 L248.15 21.6 248.35 21.1 Q243.4 17.5 251.35 14.15 L253.65 13.0 Q254.45 12.55 255.5 12.35 L255.7 12.4 Q257.75 11.35 260.1 10.4 L225.25 9.95 Q212.75 9.8 200.25 10.15 L199.4 10.15 Q171.95 9.7 144.55 10.2 L123.9 10.35 Q117.9 10.3 111.9 10.6 L109.85 10.6 Q106.0 11.25 101.45 10.55 L74.2 10.85 Q60.5 10.45 46.65 10.55 L46.65 10.6 40.4 10.85 6.9 10.45 Q7.4 12.1 7.35 13.75 L11.4 13.6 14.45 13.7 16.9 13.8 Q31.2 14.15 45.6 13.65 L46.85 13.65 52.15 14.15 Q34.8 15.6 17.05 15.0 L14.2 14.95 11.9 14.8 7.3 14.4 Q7.0 17.0 5.15 19.65 L5.3 20.85 Q4.85 21.05 4.6 21.35 L4.5 21.6 4.7 21.85 5.3 21.9 5.25 22.3 4.8 24.25 Q10.25 25.65 18.35 25.15 19.65 25.1 20.6 25.6 21.5 26.1 21.1 26.75 19.7 27.6 17.35 28.05 L14.0 28.75 12.45 29.15 Q15.7 29.5 16.95 30.65 L18.85 32.3 20.6 33.65 Q20.65 33.9 20.3 34.05 L19.9 34.3 12.85 34.6 7.95 35.95 4.15 36.8 4.0 36.8 Q3.45 38.25 3.2 39.75 L3.2 39.85 3.35 39.75 28.1 38.85 Q28.7 40.4 22.6 40.5 L3.7 40.4 3.15 40.55 3.05 41.8 Q6.1 42.95 7.35 44.8 L8.55 45.35 Q10.1 45.75 11.05 46.45 39.15 46.9 67.4 46.95 L185.15 46.7 Q208.2 46.65 231.25 46.05 234.65 45.95 238.05 46.1 L243.2 46.45 Q244.2 42.8 251.8 42.95 L251.8 41.5 245.55 41.1 230.8 40.55 229.95 40.55 229.25 40.6 227.65 41.85 227.55 41.95 Q227.0 42.2 226.4 42.5 L222.3 42.6 221.05 41.5 M27.5 19.8 L27.6 18.75 Q29.0 17.4 31.4 16.6 L31.9 16.5 Q34.4 16.25 35.2 17.55 35.85 17.7 36.45 18.0 L36.65 18.15 36.95 18.65 37.15 18.95 36.9 20.2 36.1 21.4 Q35.15 22.35 33.4 23.05 L32.3 23.3 31.25 23.1 29.8 23.1 29.25 23.05 28.6 22.55 27.75 21.95 Q27.0 21.05 27.4 20.05 L27.5 19.8 M242.8 13.1 L242.95 13.15 Q244.1 13.65 244.95 14.5 L244.95 14.65 244.95 14.95 244.95 15.3 244.75 15.45 243.55 16.25 243.35 16.35 Q240.5 16.6 238.1 15.85 L235.45 16.65 Q236.55 16.95 236.05 17.55 L235.85 17.7 231.8 17.85 231.8 17.9 Q231.1 18.0 230.85 17.7 L220.1 17.45 220.1 17.35 221.4 16.85 223.15 16.7 230.5 17.1 230.45 17.0 231.0 16.1 231.1 15.45 231.65 15.05 Q231.9 14.8 232.45 14.7 L233.45 14.4 234.3 14.15 234.55 14.1 234.3 13.3 234.3 12.85 234.3 12.35 234.5 12.2 234.6 12.15 Q235.1 11.8 235.75 11.65 L236.1 11.6 239.35 11.65 239.9 11.7 241.05 12.25 242.8 13.1 M237.65 12.95 L237.85 12.9 238.7 13.2 239.5 13.95 239.4 14.1 Q237.1 14.15 237.5 13.25 L237.65 12.95 M236.05 13.7 L236.1 13.85 238.2 14.75 238.3 14.75 238.9 14.95 Q240.85 15.35 242.9 14.9 242.65 14.2 241.3 14.2 L239.65 13.15 238.65 12.6 236.25 12.55 Q235.6 12.9 235.75 13.3 L236.05 13.7 M231.95 16.8 L232.5 17.15 232.7 17.25 233.15 17.2 233.25 16.8 233.3 16.45 Q234.8 15.75 236.45 15.25 L236.1 15.1 235.6 14.8 Q233.2 15.25 232.1 16.6 L231.95 16.8 M235.35 16.7 L235.45 16.65 235.25 16.75 235.35 16.7 M236.75 22.25 L236.55 22.6 236.45 22.7 Q211.9 21.75 186.75 21.2 L186.4 21.05 185.8 20.6 185.65 20.3 185.7 20.2 Q186.0 19.75 186.65 19.45 L187.1 19.1 Q177.35 14.55 161.75 14.8 L150.65 15.85 150.35 15.95 Q149.5 16.05 149.55 15.75 L149.5 15.6 149.4 15.25 149.45 15.15 Q154.15 13.75 160.7 13.9 L162.9 13.85 Q179.7 13.45 189.65 18.8 190.45 19.2 189.8 19.75 213.5 19.8 236.75 22.1 L236.75 22.25 M207.05 34.1 Q207.0 34.3 206.65 34.3 L206.2 34.35 Q179.25 33.75 152.25 33.85 L143.75 34.15 Q139.85 34.45 137.45 33.15 L137.4 33.0 137.3 32.65 137.3 32.45 Q145.85 27.95 160.4 27.2 164.0 23.15 152.55 22.35 135.9 21.2 119.8 23.3 L91.25 26.25 Q78.1 27.3 66.1 25.55 65.35 25.45 65.7 25.1 L65.95 25.0 68.55 25.2 Q89.8 25.5 110.4 23.05 125.55 21.2 141.05 20.65 152.75 20.65 162.2 23.25 163.55 23.6 164.0 24.35 166.55 28.65 155.35 29.35 146.75 29.85 141.5 32.5 174.3 31.3 207.1 33.95 L207.05 34.1 M222.35 38.4 L223.6 37.75 223.9 37.5 Q223.55 36.7 223.65 35.95 L222.9 36.0 Q223.0 37.05 222.1 38.2 L222.1 38.35 222.35 38.4 M222.2 40.4 L222.2 40.55 222.2 40.85 222.3 40.95 222.8 41.3 223.0 41.5 225.15 41.65 226.75 40.85 227.2 40.55 227.2 40.5 227.25 40.4 227.35 40.2 227.35 40.05 227.6 39.85 227.85 39.7 228.0 39.4 227.95 38.75 227.65 38.6 226.7 38.3 226.15 38.35 225.55 38.5 224.75 38.6 Q223.75 39.1 223.1 39.7 L222.3 40.2 222.2 40.4 M164.35 40.9 Q141.15 40.9 118.0 40.4 L113.05 39.9 109.8 39.6 Q88.15 39.7 66.55 39.45 65.55 39.45 65.5 39.05 L65.5 38.9 66.0 38.55 66.2 38.55 98.9 38.0 121.75 39.15 Q129.7 40.1 138.2 39.45 152.6 38.35 165.1 40.2 L165.1 40.3 164.65 40.8 164.35 40.9 M134.05 24.0 L136.45 23.55 137.35 23.4 137.5 23.4 144.55 23.05 Q149.1 22.95 152.75 24.05 L152.95 24.15 153.1 24.4 153.3 24.75 153.6 25.45 153.6 25.55 Q145.55 29.55 132.9 28.4 129.35 28.1 127.4 26.9 L127.55 26.8 127.75 26.7 128.05 26.55 128.65 26.45 129.35 26.6 130.3 26.8 Q140.75 28.75 149.9 25.5 150.5 25.25 150.35 24.9 140.85 23.9 131.2 24.9 132.5 24.35 134.05 24.0 M29.05 19.35 L29.05 19.55 29.1 19.7 29.0 19.85 Q28.55 20.4 28.9 21.0 L29.85 21.8 30.0 21.95 31.7 22.15 33.55 21.6 34.9 20.65 35.1 20.45 Q35.05 20.3 35.15 20.1 L35.15 20.0 35.35 19.7 35.45 19.55 Q35.45 19.2 35.1 19.0 L34.95 18.75 Q33.3 18.2 32.6 17.5 30.1 17.65 29.05 19.2 L29.05 19.35 M32.85 19.0 Q33.55 19.35 34.05 19.8 L34.2 19.95 Q32.1 20.0 32.7 19.0 L32.85 19.0 M31.15 19.75 L31.5 19.9 Q32.7 20.5 32.75 21.45 L32.7 21.6 Q31.75 21.8 31.3 21.3 30.8 20.55 31.0 19.9 L31.15 19.75 M34.3 30.8 Q34.95 31.0 35.45 31.35 L35.65 31.5 35.35 32.65 34.95 33.05 33.9 33.5 33.4 33.65 33.1 33.7 33.3 33.8 Q34.05 37.65 27.85 36.4 24.4 35.7 24.75 33.5 25.55 32.75 26.55 32.1 26.85 31.9 27.25 31.8 L27.75 31.8 28.0 31.5 28.05 31.35 30.15 30.5 Q32.1 31.0 33.7 30.45 L34.3 30.8 M31.95 32.75 L33.55 32.6 33.65 32.25 33.7 31.8 33.55 31.7 33.4 31.8 30.5 31.55 29.35 31.85 29.3 31.9 30.15 31.95 30.6 32.1 31.95 32.75 M28.35 33.55 Q29.1 33.75 29.6 34.3 L29.8 34.45 Q31.05 34.5 31.5 35.05 28.25 35.75 28.1 33.65 L28.35 33.55 M27.25 32.75 Q24.75 34.8 28.65 35.95 L29.1 36.1 31.4 35.6 31.7 34.9 31.85 34.6 Q30.8 32.95 28.0 32.65 L27.25 32.75" fill="#000000" fill-rule="evenodd" stroke="none"/>
    <path d="M130.3 26.8 Q128.1 25.85 129.7 25.0 131.35 24.15 133.8 23.8 L134.05 24.0 Q132.5 24.35 131.2 24.9 140.85 23.9 150.35 24.9 150.5 25.25 149.9 25.5 140.75 28.75 130.3 26.8" fill="#474612" fill-rule="evenodd" stroke="none"/>
    <path d="M231.95 16.8 L232.1 16.6 Q233.2 15.25 235.6 14.8 L236.1 15.1 236.45 15.25 Q234.8 15.75 233.3 16.45 L233.25 16.8 233.15 17.2 232.7 17.25 232.5 17.15 231.95 16.8 M236.05 13.7 L235.75 13.3 Q235.6 12.9 236.25 12.55 L238.65 12.6 239.65 13.15 241.3 14.2 Q242.65 14.2 242.9 14.9 240.85 15.35 238.9 14.95 L238.3 14.75 238.2 14.75 236.1 13.85 236.05 13.7 M237.65 12.95 L237.5 13.25 Q237.1 14.15 239.4 14.1 L239.5 13.95 238.7 13.2 237.85 12.9 237.65 12.95 M222.2 40.4 L222.3 40.2 223.1 39.7 Q223.75 39.1 224.75 38.6 L225.55 38.5 226.15 38.35 226.7 38.3 227.65 38.6 227.95 38.75 228.0 39.4 227.85 39.7 227.6 39.85 227.35 40.05 227.35 40.2 227.25 40.4 227.2 40.5 227.2 40.55 226.75 40.85 225.15 41.65 223.0 41.5 222.8 41.3 222.3 40.95 222.2 40.85 222.2 40.55 222.2 40.4 M222.35 38.4 L222.1 38.35 222.1 38.2 Q223.0 37.05 222.9 36.0 L223.65 35.95 Q223.55 36.7 223.9 37.5 L223.6 37.75 222.35 38.4 M226.25 39.85 L226.15 39.9 225.95 40.15 226.0 40.15 226.25 39.85 M29.05 19.35 L29.05 19.2 Q30.1 17.65 32.6 17.5 33.3 18.2 34.95 18.75 L35.1 19.0 Q35.45 19.2 35.45 19.55 L35.35 19.7 35.15 20.0 35.15 20.1 Q35.05 20.3 35.1 20.45 L34.9 20.65 33.55 21.6 31.7 22.15 30.0 21.95 29.85 21.8 28.9 21.0 Q28.55 20.4 29.0 19.85 L29.1 19.7 29.05 19.55 29.05 19.35 M31.15 19.75 L31.0 19.9 Q30.8 20.55 31.3 21.3 31.75 21.8 32.7 21.6 L32.75 21.45 Q32.7 20.5 31.5 19.9 L31.15 19.75 M32.85 19.0 L32.7 19.0 Q32.1 20.0 34.2 19.95 L34.05 19.8 Q33.55 19.35 32.85 19.0 M27.25 32.75 L28.0 32.65 Q30.8 32.95 31.85 34.6 L31.7 34.9 31.4 35.6 29.1 36.1 28.65 35.95 Q24.75 34.8 27.25 32.75 M28.35 33.55 L28.1 33.65 Q28.25 35.75 31.5 35.05 31.05 34.5 29.8 34.45 L29.6 34.3 Q29.1 33.75 28.35 33.55 M31.95 32.75 L30.6 32.1 30.15 31.95 29.3 31.9 29.35 31.85 30.5 31.55 33.4 31.8 33.55 31.7 33.7 31.8 33.65 32.25 33.55 32.6 31.95 32.75" fill="#8e8e8e" fill-rule="evenodd" stroke="none"/>
    <path d="M226.25 39.85 L226.0 40.15 225.95 40.15 226.15 39.9 226.25 39.85" fill="#e2eb32" fill-rule="evenodd" stroke="none"/>
    <path d="M44.45 4.6 Q45.2 10.45 43.75 16.55 L43.45 16.7 43.25 16.65 43.0 16.65 42.8 16.55 42.65 16.45 42.55 16.35 42.5 16.1 Q42.7 14.6 42.35 13.65 41.6 8.85 44.3 4.6 L44.45 4.6 M15.7 43.3 Q16.2 38.45 17.8 33.75 L17.9 33.65 18.05 33.75 Q18.1 34.25 18.6 34.65 L18.7 34.8 Q18.15 45.8 16.45 56.55 L16.45 56.65 16.4 57.15 15.7 51.0 15.55 49.55 15.5 49.55 Q15.35 46.4 15.7 43.3 M24.5 58.95 L24.1 58.6 Q23.25 57.35 23.6 55.85 L23.6 55.25 Q23.4 52.85 24.3 50.6 L24.45 50.45 Q26.1 54.65 25.4 58.95 L25.4 59.1 25.15 59.15 24.9 59.1 24.5 58.95 M44.45 38.8 Q45.55 47.75 44.55 56.55 L44.35 56.6 43.85 56.3 42.8 50.4 Q42.0 44.45 44.35 38.85 L44.45 38.8 M29.75 18.25 L30.55 18.8 Q31.05 11.75 33.3 4.95 34.05 12.55 32.0 20.3 L30.85 20.45 30.65 20.45 27.65 18.45 27.95 18.05 28.1 17.95 29.5 18.2 29.75 18.25 M17.3 2.6 Q18.05 7.9 18.1 13.55 L18.05 13.8 17.75 13.65 Q16.65 11.5 16.7 9.35 16.65 5.95 17.2 2.65 L17.3 2.6 M16.1 22.55 L16.2 22.55 Q18.65 27.6 17.0 32.35 L16.85 32.35 Q15.2 28.4 15.35 23.9 L15.3 23.7 16.1 22.55 M31.45 32.3 L32.2 28.35 Q36.2 31.6 30.3 33.65 29.3 34.0 29.0 33.4 29.95 32.85 31.25 32.35 L31.45 32.3 M37.6 34.05 Q39.25 43.05 37.6 51.85 L36.0 41.05 Q34.85 37.0 37.45 33.95 L37.6 34.05 M23.6 34.6 Q26.55 39.9 24.9 45.15 L24.35 45.45 Q23.75 39.55 22.45 33.2 L23.45 34.4 23.6 34.6" fill="#7d7d20" fill-rule="evenodd" stroke="none"/>
    <path d="M44.45 4.6 L44.3 4.6 Q41.6 8.85 42.35 13.65 42.7 14.6 42.5 16.1 L42.55 16.35 42.65 16.45 42.8 16.55 43.0 16.65 43.25 16.65 43.45 16.7 43.75 16.55 Q45.2 10.45 44.45 4.6 M15.7 43.3 L15.45 37.05 Q16.1 36.0 15.5 35.15 L15.5 34.65 Q15.2 33.3 15.25 31.95 L15.15 27.25 Q14.65 20.95 15.05 14.7 L15.0 14.55 Q14.7 11.65 14.85 8.8 L15.2 0.85 17.0 1.85 17.0 1.9 17.5 2.35 Q18.05 2.55 18.45 2.85 21.4 4.65 24.55 3.5 L25.0 3.55 26.3 3.85 Q29.2 4.8 31.4 2.95 L31.5 2.9 36.65 2.35 36.65 2.45 Q37.25 4.45 38.35 6.4 39.2 7.85 40.7 8.75 41.8 8.4 41.5 7.45 40.85 5.65 42.0 4.05 42.6 3.2 42.35 2.65 L43.6 2.65 Q43.45 4.35 46.6 4.6 L46.35 5.75 Q46.2 6.55 46.3 7.3 46.8 12.55 46.9 17.8 L47.2 44.7 46.8 57.55 Q46.2 57.75 45.8 58.1 L45.35 58.4 Q43.8 58.65 42.7 59.4 L41.65 59.35 41.5 59.25 41.6 54.95 Q41.5 53.5 40.15 53.65 40.4 56.5 40.95 59.3 L40.95 59.35 38.4 59.2 38.4 59.15 37.6 58.3 36.5 57.2 36.2 55.55 35.95 55.45 35.65 55.4 34.5 55.8 33.05 56.25 Q32.0 56.55 31.75 57.3 L31.4 56.95 30.7 56.2 Q30.35 55.65 29.6 55.3 L28.65 55.45 Q28.15 55.65 28.25 55.95 28.65 57.8 27.45 59.05 L25.75 58.95 25.4 58.95 Q26.1 54.65 24.45 50.45 L24.3 50.6 Q23.4 52.85 23.6 55.25 L23.6 55.85 Q23.25 57.35 24.1 58.6 L24.5 58.95 23.45 59.0 18.85 58.5 19.2 57.45 19.35 56.95 19.4 56.3 Q19.9 52.25 18.65 48.3 18.3 48.8 18.2 49.5 L18.25 49.8 Q18.65 53.05 18.3 56.35 L18.3 56.9 18.2 57.6 Q17.8 58.2 18.3 58.5 L15.4 58.65 15.7 51.0 16.4 57.15 16.45 56.65 16.45 56.55 Q18.15 45.8 18.7 34.8 L18.6 34.65 Q18.1 34.25 18.05 33.75 L17.9 33.65 17.8 33.75 Q16.2 38.45 15.7 43.3 M41.8 22.55 L41.35 22.4 41.25 22.45 Q39.6 25.25 40.65 28.55 41.2 30.5 40.35 32.3 39.25 34.85 39.4 37.55 L39.85 45.0 39.9 45.05 40.2 45.15 40.3 45.15 40.7 44.9 40.75 35.05 Q40.7 34.65 41.05 34.3 41.45 33.75 41.45 33.2 41.85 27.85 41.85 22.6 L41.8 22.55 M44.45 38.8 L44.35 38.85 Q42.0 44.45 42.8 50.4 L43.85 56.3 44.35 56.6 44.55 56.55 Q45.55 47.75 44.45 38.8 M25.55 6.15 L25.4 6.15 Q23.45 11.45 23.4 16.85 L22.55 16.9 Q17.95 19.2 18.3 23.05 L18.35 23.55 Q18.2 25.0 19.4 26.1 L19.55 26.1 19.85 26.1 19.95 26.05 20.15 25.9 20.1 25.8 Q19.2 24.75 19.15 23.3 18.85 19.7 22.85 17.5 L23.2 17.6 23.8 17.8 23.95 17.8 24.15 17.8 24.55 17.65 24.65 17.55 25.95 6.25 25.85 6.2 25.55 6.15 M29.75 18.25 L29.5 18.2 28.1 17.95 27.95 18.05 27.65 18.45 30.65 20.45 30.85 20.45 32.0 20.3 Q34.05 12.55 33.3 4.95 31.05 11.75 30.55 18.8 L29.75 18.25 M27.45 22.75 Q26.85 22.8 26.5 23.15 24.2 25.3 24.25 28.0 24.7 31.5 26.3 35.0 28.5 39.65 28.25 44.5 27.8 44.75 28.1 45.1 L28.15 45.15 28.55 45.05 Q30.05 42.3 29.15 39.35 28.15 36.05 26.55 32.85 24.7 29.15 25.7 25.35 26.35 22.75 29.95 23.55 30.6 26.85 34.55 28.8 L34.7 28.8 35.0 28.75 35.1 28.75 Q36.2 28.2 35.95 27.3 L35.7 25.4 Q35.65 19.2 36.15 13.1 L36.1 13.0 35.9 12.9 35.8 12.9 Q33.45 20.35 34.55 27.85 32.25 26.65 31.8 24.7 31.2 22.1 27.45 22.75 M16.1 22.55 L15.3 23.7 15.35 23.9 Q15.2 28.4 16.85 32.35 L17.0 32.35 Q18.65 27.6 16.2 22.55 L16.1 22.55 M17.3 2.6 L17.2 2.65 Q16.65 5.95 16.7 9.35 16.65 11.5 17.75 13.65 L18.05 13.8 18.1 13.55 Q18.05 7.9 17.3 2.6 M37.6 34.05 L37.45 33.95 Q34.85 37.0 36.0 41.05 L37.6 51.85 Q39.25 43.05 37.6 34.05 M31.45 32.3 L31.25 32.35 Q29.95 32.85 29.0 33.4 29.3 34.0 30.3 33.65 36.2 31.6 32.2 28.35 L31.45 32.3 M29.6 30.4 L29.45 30.65 29.3 30.8 29.4 30.95 29.5 31.0 29.6 31.05 29.75 31.1 Q30.75 30.6 31.05 29.8 31.95 26.9 28.5 25.1 L28.4 25.1 27.8 25.2 27.5 25.25 27.3 25.25 27.2 25.3 Q26.25 26.15 26.3 27.2 26.25 28.05 26.65 28.8 L26.75 29.05 27.2 29.6 26.95 29.65 Q27.25 30.2 28.05 30.55 L29.6 30.4 M23.6 34.6 L23.45 34.4 22.45 33.2 Q23.75 39.55 24.35 45.45 L24.9 45.15 Q26.55 39.9 23.6 34.6" fill="#66661a" fill-rule="evenodd" stroke="none"/>
    <path d="M15.25 0.1 Q16.8 0.8 18.55 1.3 L20.85 2.6 21.2 2.6 22.4 3.05 22.65 3.15 Q25.05 2.1 27.75 3.1 L28.2 3.25 29.95 2.6 29.85 2.4 31.05 1.95 31.05 2.0 32.1 1.8 32.4 1.75 36.5 1.3 Q36.9 1.75 37.65 2.1 L38.9 2.5 37.85 2.45 Q38.6 4.3 39.9 6.1 40.15 4.25 40.8 2.6 L40.15 2.6 Q41.0 2.4 41.3 1.6 L42.95 1.7 45.1 2.85 45.25 3.3 46.4 3.55 46.3 3.25 47.65 3.55 47.55 4.0 48.05 4.25 Q48.35 4.45 48.2 4.8 47.45 6.3 47.8 8.0 L48.4 12.15 Q48.9 20.55 48.7 29.0 L48.7 34.45 48.6 35.45 48.7 35.7 48.75 37.65 48.8 47.4 48.75 50.4 Q48.7 54.15 47.9 57.8 L48.0 58.0 Q45.25 58.6 43.4 59.9 L42.45 59.9 40.0 60.1 39.2 60.1 37.55 60.05 35.85 58.95 35.9 58.95 36.15 58.95 35.95 58.75 34.75 56.8 33.95 57.15 33.55 57.25 33.4 57.3 33.3 57.3 Q33.25 58.05 32.15 58.4 L31.85 58.5 31.55 58.5 30.2 57.55 29.6 56.6 29.55 56.55 29.25 58.85 Q28.35 59.15 28.3 59.95 L24.55 59.8 19.6 59.5 16.65 59.4 16.2 59.3 16.05 59.35 Q14.75 58.85 13.6 58.85 L13.75 56.85 Q14.8 47.15 14.1 37.5 L13.55 37.4 14.1 36.65 14.25 36.7 14.3 36.55 Q14.2 36.15 14.25 35.75 L14.15 35.8 13.95 35.0 14.2 35.0 Q14.35 33.6 13.9 32.1 13.5 30.75 13.75 29.45 14.0 28.25 13.9 27.05 13.5 21.35 13.65 15.65 L13.6 9.9 13.55 9.1 13.65 5.6 13.3 5.25 Q13.95 4.35 13.85 3.2 L13.7 2.25 13.7 0.0 15.25 0.05 15.25 0.1 M40.95 59.3 Q40.4 56.5 40.15 53.65 41.5 53.5 41.6 54.95 L41.5 59.25 41.65 59.35 42.7 59.4 Q43.8 58.65 45.35 58.4 L45.8 58.1 Q46.2 57.75 46.8 57.55 L47.2 44.7 46.9 17.8 Q46.8 12.55 46.3 7.3 46.2 6.55 46.35 5.75 L46.6 4.6 Q43.45 4.35 43.6 2.65 L42.35 2.65 Q42.6 3.2 42.0 4.05 40.85 5.65 41.5 7.45 41.8 8.4 40.7 8.75 39.2 7.85 38.35 6.4 37.25 4.45 36.65 2.45 L36.65 2.35 31.5 2.9 31.4 2.95 Q29.2 4.8 26.3 3.85 L25.0 3.55 24.55 3.5 Q21.4 4.65 18.45 2.85 18.05 2.55 17.5 2.35 L17.0 1.9 17.0 1.85 15.2 0.85 14.85 8.8 Q14.7 11.65 15.0 14.55 L15.05 14.7 Q14.65 20.95 15.15 27.25 L15.25 31.95 Q15.2 33.3 15.5 34.65 L15.5 35.15 Q16.1 36.0 15.45 37.05 L15.7 43.3 Q15.35 46.4 15.5 49.55 L15.55 49.55 15.7 51.0 15.4 58.65 18.3 58.5 Q17.8 58.2 18.2 57.6 L18.3 56.9 18.3 56.35 Q18.65 53.05 18.25 49.8 L18.2 49.5 Q18.3 48.8 18.65 48.3 19.9 52.25 19.4 56.3 L19.35 56.95 19.2 57.45 18.85 58.5 23.45 59.0 24.5 58.95 24.9 59.1 25.15 59.15 25.4 59.1 25.4 58.95 25.75 58.95 27.45 59.05 Q28.65 57.8 28.25 55.95 28.15 55.65 28.65 55.45 L29.6 55.3 Q30.35 55.65 30.7 56.2 L31.4 56.95 31.75 57.3 Q32.0 56.55 33.05 56.25 L34.5 55.8 35.65 55.4 35.95 55.45 36.2 55.55 36.5 57.2 37.6 58.3 38.4 59.15 38.4 59.2 40.95 59.35 41.05 59.35 40.95 59.3 M41.8 22.55 L41.85 22.6 Q41.85 27.85 41.45 33.2 41.45 33.75 41.05 34.3 40.7 34.65 40.75 35.05 L40.7 44.9 40.3 45.15 40.2 45.15 39.9 45.05 39.85 45.0 39.4 37.55 Q39.25 34.85 40.35 32.3 41.2 30.5 40.65 28.55 39.6 25.25 41.25 22.45 L41.35 22.4 41.8 22.55 M25.55 6.15 L25.85 6.2 25.95 6.25 24.65 17.55 24.55 17.65 24.15 17.8 23.95 17.8 23.8 17.8 23.2 17.6 22.85 17.5 Q18.85 19.7 19.15 23.3 19.2 24.75 20.1 25.8 L20.15 25.9 19.95 26.05 19.85 26.1 19.55 26.1 19.4 26.1 Q18.2 25.0 18.35 23.55 L18.3 23.05 Q17.95 19.2 22.55 16.9 L23.4 16.85 Q23.45 11.45 25.4 6.15 L25.55 6.15 M27.45 22.75 Q31.2 22.1 31.8 24.7 32.25 26.65 34.55 27.85 33.45 20.35 35.8 12.9 L35.9 12.9 36.1 13.0 36.15 13.1 Q35.65 19.2 35.7 25.4 L35.95 27.3 Q36.2 28.2 35.1 28.75 L35.0 28.75 34.7 28.8 34.55 28.8 Q30.6 26.85 29.95 23.55 26.35 22.75 25.7 25.35 24.7 29.15 26.55 32.85 28.15 36.05 29.15 39.35 30.05 42.3 28.55 45.05 L28.15 45.15 28.1 45.1 Q27.8 44.75 28.25 44.5 28.5 39.65 26.3 35.0 24.7 31.5 24.25 28.0 24.2 25.3 26.5 23.15 26.85 22.8 27.45 22.75 M27.2 29.6 L26.75 29.05 26.65 28.8 Q26.25 28.05 26.3 27.2 26.25 26.15 27.2 25.3 L27.3 25.25 27.5 25.25 27.8 25.2 28.4 25.1 28.5 25.1 Q31.95 26.9 31.05 29.8 30.75 30.6 29.75 31.1 L29.6 31.05 29.5 31.0 29.4 30.95 29.3 30.8 29.45 30.65 29.6 30.4 Q31.25 28.0 28.5 25.95 L27.95 25.85 Q27.05 28.0 27.95 30.2 L27.2 29.6" fill="#000000" fill-rule="evenodd" stroke="none"/>
    <path d="M27.2 29.6 L27.95 30.2 Q27.05 28.0 27.95 25.85 L28.5 25.95 Q31.25 28.0 29.6 30.4 L28.05 30.55 Q27.25 30.2 26.95 29.65 L27.2 29.6" fill="#474612" fill-rule="evenodd" stroke="none"/>
    <path d="M239.45 16.95 Q238.9 21.75 237.15 26.45 L237.0 26.55 236.9 26.5 236.3 25.6 236.15 25.4 Q236.8 14.45 238.7 3.7 L238.7 3.6 238.75 3.1 239.45 9.25 239.65 10.7 239.7 10.7 Q239.85 13.85 239.45 16.95 M230.0 1.25 L230.45 1.6 Q231.3 2.8 230.95 4.35 230.8 4.65 230.95 4.9 231.15 7.3 230.15 9.6 L230.0 9.7 Q228.2 5.5 229.0 1.25 L229.05 1.1 229.25 1.05 229.55 1.1 230.0 1.25 M238.15 27.85 Q239.9 31.85 239.8 36.35 L239.85 36.55 239.0 37.7 238.85 37.7 Q236.15 32.65 238.05 27.9 L238.15 27.85 M237.6 57.65 Q236.75 52.3 236.75 46.7 236.7 46.55 236.8 46.45 L237.1 46.55 Q238.3 48.7 238.2 50.9 238.3 54.25 237.7 57.6 L237.6 57.65 M230.15 14.75 Q230.7 20.65 232.1 27.0 L231.0 25.8 230.85 25.6 Q227.65 20.25 229.5 15.05 229.55 14.7 230.15 14.75 M208.45 3.45 Q208.9 3.45 208.95 3.75 L210.1 9.7 Q210.9 15.6 208.35 21.2 L208.25 21.25 Q207.05 12.3 208.2 3.5 L208.45 3.45 M217.45 19.05 Q218.65 23.05 215.8 26.15 L215.65 26.05 Q213.9 17.05 215.8 8.25 L217.45 19.05 M209.2 43.4 L209.5 43.4 209.75 43.45 210.0 43.55 210.15 43.65 210.25 43.75 210.25 43.95 Q210.05 45.45 210.45 46.45 211.2 51.2 208.3 55.45 L208.15 55.45 Q207.3 49.55 208.95 43.5 208.95 43.4 209.2 43.4 M222.35 27.85 L221.5 31.75 Q217.2 28.45 223.55 26.5 224.7 26.15 225.0 26.75 L222.55 27.8 222.35 27.85 M226.1 42.1 L225.9 42.2 224.4 41.95 224.15 41.9 223.25 41.35 Q222.7 48.35 220.2 55.2 219.4 47.55 221.65 39.85 L222.9 39.7 223.15 39.7 226.4 41.7 226.4 41.75 226.1 42.1" fill="#7d7d20" fill-rule="evenodd" stroke="none"/>
    <path d="M239.45 9.25 L238.75 3.1 238.7 3.6 238.7 3.7 Q236.8 14.45 236.15 25.4 L236.3 25.6 236.9 26.5 237.0 26.55 237.15 26.45 Q238.9 21.75 239.45 16.95 L239.7 23.2 Q239.0 24.2 239.65 25.1 L239.65 25.55 239.85 28.3 240.0 33.0 Q240.45 39.25 240.05 45.55 L240.1 45.7 Q240.4 48.55 240.25 51.45 L239.85 59.35 237.85 58.35 237.9 58.3 Q237.8 58.05 237.35 57.9 L236.25 57.35 Q233.1 55.55 229.7 56.65 L229.25 56.65 227.85 56.35 Q224.7 55.35 222.25 57.2 L222.15 57.25 216.6 57.75 216.55 57.65 Q215.9 55.65 214.7 53.7 213.8 52.2 212.25 51.35 210.95 51.65 211.35 52.65 212.0 54.4 210.75 56.0 210.1 56.85 210.35 57.45 L209.0 57.4 Q209.2 55.7 205.75 55.45 L206.05 54.3 206.1 52.75 Q205.55 47.5 205.5 42.25 205.2 28.8 205.3 15.35 205.35 8.9 205.75 2.5 206.4 2.3 206.85 1.95 207.05 1.7 207.4 1.7 209.05 1.4 210.2 0.7 L211.35 0.7 211.5 0.85 Q211.25 2.95 211.45 5.15 211.5 6.55 212.95 6.4 L212.1 0.75 214.95 0.9 214.95 0.95 215.75 1.8 217.0 2.95 217.3 4.55 217.5 4.65 217.85 4.7 219.2 4.3 220.7 3.9 Q221.8 3.6 222.1 2.85 L222.5 3.2 223.25 3.95 Q223.55 4.5 224.4 4.85 L225.5 4.7 225.9 4.2 Q225.45 2.35 226.75 1.1 L228.6 1.2 229.0 1.25 Q228.2 5.5 230.0 9.7 L230.15 9.6 Q231.15 7.3 230.95 4.9 230.8 4.65 230.95 4.35 231.3 2.8 230.45 1.6 L230.0 1.25 231.1 1.2 236.1 1.7 235.7 2.75 235.55 3.3 235.5 3.9 Q234.9 7.95 236.3 11.95 L236.8 10.7 236.75 10.45 Q236.3 7.15 236.7 3.9 L236.7 3.35 236.85 2.65 Q237.25 2.0 236.7 1.7 L239.85 1.6 239.45 9.25 M237.6 57.65 L237.7 57.6 Q238.3 54.25 238.2 50.9 238.3 48.7 237.1 46.55 L236.8 46.45 Q236.7 46.55 236.75 46.7 236.75 52.3 237.6 57.65 M238.15 27.85 L238.05 27.9 Q236.15 32.65 238.85 37.7 L239.0 37.7 239.85 36.55 239.8 36.35 Q239.9 31.85 238.15 27.85 M225.95 15.0 L225.55 15.1 Q223.85 17.85 224.85 20.85 225.9 24.1 227.65 27.35 229.6 31.0 228.55 34.8 227.8 37.4 223.95 36.6 223.25 33.25 218.95 31.35 L218.85 31.35 218.5 31.35 218.4 31.35 Q217.1 31.9 217.4 32.8 L217.7 34.75 Q217.7 40.9 217.2 47.05 L217.25 47.15 217.45 47.25 217.55 47.25 Q220.1 39.75 218.95 32.3 221.45 33.45 221.9 35.45 222.55 38.0 226.65 37.45 L227.7 37.05 Q230.15 34.85 230.15 32.2 229.6 28.65 227.9 25.2 225.55 20.5 225.85 15.65 226.35 15.4 226.05 15.05 L225.95 15.0 M208.45 3.45 L208.2 3.5 Q207.05 12.3 208.25 21.25 L208.35 21.2 Q210.9 15.6 210.1 9.7 L208.95 3.75 Q208.9 3.45 208.45 3.45 M230.15 14.75 Q229.55 14.7 229.5 15.05 227.65 20.25 230.85 25.6 L231.0 25.8 232.1 27.0 Q230.7 20.65 230.15 14.75 M213.25 15.1 L213.2 15.05 212.9 14.95 212.8 14.95 Q212.4 14.95 212.35 15.2 212.15 20.1 212.25 25.05 L211.95 25.8 Q211.5 26.35 211.45 26.9 211.0 32.2 211.0 37.5 L211.1 37.55 211.55 37.65 211.7 37.65 Q213.45 34.8 212.35 31.5 211.75 29.55 212.65 27.75 213.85 25.2 213.75 22.55 213.35 18.85 213.25 15.1 M209.2 43.4 Q208.95 43.4 208.95 43.5 207.3 49.55 208.15 55.45 L208.3 55.45 Q211.2 51.2 210.45 46.45 210.05 45.45 210.25 43.95 L210.25 43.75 210.15 43.65 210.0 43.55 209.75 43.45 209.5 43.4 209.2 43.4 M217.45 19.05 L215.8 8.25 Q213.9 17.05 215.65 26.05 L215.8 26.15 Q218.65 23.05 217.45 19.05 M234.6 34.35 L234.65 34.4 Q235.55 35.45 235.65 36.95 235.9 40.5 231.6 42.7 L231.3 42.6 230.55 42.4 230.45 42.4 230.2 42.4 229.75 42.55 229.6 42.6 Q229.05 48.35 228.15 53.95 L228.3 54.0 228.65 54.05 228.75 54.0 Q230.95 48.7 231.0 43.3 L231.9 43.3 Q236.9 41.0 236.55 37.2 L236.5 36.7 Q236.65 35.2 235.35 34.1 L235.3 34.1 234.9 34.15 234.75 34.15 Q234.45 34.15 234.6 34.35 M224.35 29.75 L224.5 29.55 224.65 29.35 224.55 29.2 224.4 29.15 224.35 29.1 224.2 29.1 Q223.1 29.5 222.8 30.35 221.7 33.2 225.5 35.05 L225.6 35.05 226.25 35.0 226.6 34.95 226.8 34.9 226.9 34.85 Q227.95 34.0 227.85 33.0 227.95 32.1 227.55 31.4 L227.55 31.35 227.4 31.15 227.0 30.6 227.2 30.55 Q226.85 29.95 226.05 29.6 L224.35 29.75 M226.1 42.1 L226.4 41.75 226.4 41.7 223.15 39.7 222.9 39.7 221.65 39.85 Q219.4 47.55 220.2 55.2 222.7 48.35 223.25 41.35 L224.15 41.9 224.4 41.95 225.9 42.2 226.1 42.1 M222.35 27.85 L222.55 27.8 225.0 26.75 Q224.7 26.15 223.55 26.5 217.2 28.45 221.5 31.75 L222.35 27.85" fill="#66661a" fill-rule="evenodd" stroke="none"/>
    <path d="M241.6 3.4 Q240.45 13.05 241.2 22.75 L241.75 22.9 241.2 23.6 241.0 23.55 240.95 23.7 241.0 24.5 241.1 24.5 241.3 25.25 241.05 25.25 Q240.9 26.65 241.4 28.15 241.85 29.45 241.55 30.8 241.25 32.0 241.3 33.2 241.8 38.9 241.6 44.65 L241.6 50.35 241.6 51.15 241.55 54.65 241.9 55.0 Q241.15 55.9 241.3 57.05 L241.5 58.0 241.45 60.25 239.75 60.2 239.75 60.15 Q238.1 59.4 236.2 58.9 L233.75 57.6 233.3 57.6 232.05 57.15 231.8 57.05 Q229.1 58.05 226.2 57.05 L225.75 56.9 223.8 57.55 223.95 57.75 Q223.25 57.8 222.65 58.2 L222.65 58.15 221.55 58.35 221.2 58.4 216.7 58.85 215.5 58.0 214.1 57.6 215.25 57.65 Q214.4 55.75 213.05 54.0 212.8 55.8 212.1 57.45 L212.75 57.5 Q211.85 57.65 211.5 58.5 L209.75 58.4 Q208.7 57.65 207.45 57.2 L207.2 56.8 206.0 56.5 206.1 56.8 204.65 56.5 204.75 56.05 204.2 55.8 Q203.8 55.6 204.05 55.25 204.9 53.7 204.5 52.05 204.0 50.0 203.85 47.9 203.35 39.45 203.6 31.05 L203.65 25.6 203.75 24.6 203.65 24.35 203.6 22.35 203.6 12.65 203.65 9.65 Q203.7 5.85 204.6 2.25 L204.55 2.05 Q207.45 1.45 209.5 0.15 L210.5 0.2 213.15 0.0 214.05 0.0 215.8 0.05 217.7 1.15 217.6 1.15 217.35 1.2 217.55 1.4 218.9 3.35 Q219.25 3.1 219.7 3.0 L220.2 2.9 220.3 2.85 220.4 2.85 Q220.45 2.05 221.65 1.75 L222.0 1.65 222.35 1.65 Q223.3 2.0 223.8 2.6 L224.4 3.55 224.5 3.65 Q224.6 2.5 224.85 1.3 225.8 0.95 225.9 0.2 L229.9 0.4 235.3 0.75 238.5 0.85 239.0 0.95 239.15 0.9 241.85 1.4 241.6 3.4 M239.45 9.25 L239.85 1.6 236.7 1.7 Q237.25 2.0 236.85 2.65 L236.7 3.35 236.7 3.9 Q236.3 7.15 236.75 10.45 L236.8 10.7 236.3 11.95 Q234.9 7.95 235.5 3.9 L235.55 3.3 235.7 2.75 236.1 1.7 231.1 1.2 230.0 1.25 229.55 1.1 229.25 1.05 229.05 1.1 229.0 1.25 228.6 1.2 226.75 1.1 Q225.45 2.35 225.9 4.2 L225.5 4.7 224.4 4.85 Q223.55 4.5 223.25 3.95 L222.5 3.2 222.1 2.85 Q221.8 3.6 220.7 3.9 L219.2 4.3 217.85 4.7 217.5 4.65 217.3 4.55 217.0 2.95 215.75 1.8 214.95 0.95 214.95 0.9 212.1 0.75 212.95 6.4 Q211.5 6.55 211.45 5.15 211.25 2.95 211.5 0.85 L211.35 0.7 210.2 0.7 Q209.05 1.4 207.4 1.7 207.05 1.7 206.85 1.95 206.4 2.3 205.75 2.5 205.35 8.9 205.3 15.35 205.2 28.8 205.5 42.25 205.55 47.5 206.1 52.75 L206.05 54.3 205.75 55.45 Q209.2 55.7 209.0 57.4 L210.35 57.45 Q210.1 56.85 210.75 56.0 212.0 54.4 211.35 52.65 210.95 51.65 212.25 51.35 213.8 52.2 214.7 53.7 215.9 55.65 216.55 57.65 L216.6 57.75 222.15 57.25 222.25 57.2 Q224.7 55.35 227.85 56.35 L229.25 56.65 229.7 56.65 Q233.1 55.55 236.25 57.35 L237.35 57.9 Q237.8 58.05 237.9 58.3 L237.85 58.35 239.85 59.35 240.25 51.45 Q240.4 48.55 240.1 45.7 L240.05 45.55 Q240.45 39.25 240.0 33.0 L239.85 28.3 239.65 25.55 239.65 25.1 Q239.0 24.2 239.7 23.2 L239.45 16.95 Q239.85 13.85 239.7 10.7 L239.65 10.7 239.45 9.25 M225.95 15.0 L226.05 15.05 Q226.35 15.4 225.85 15.65 225.55 20.5 227.9 25.2 229.6 28.65 230.15 32.2 230.15 34.85 227.7 37.05 L226.65 37.45 Q222.55 38.0 221.9 35.45 221.45 33.45 218.95 32.3 220.1 39.75 217.55 47.25 L217.45 47.25 217.25 47.15 217.2 47.05 Q217.7 40.9 217.7 34.75 L217.4 32.8 Q217.1 31.9 218.4 31.35 L218.5 31.35 218.85 31.35 218.95 31.35 Q223.25 33.25 223.95 36.6 227.8 37.4 228.55 34.8 229.6 31.0 227.65 27.35 225.9 24.1 224.85 20.85 223.85 17.85 225.55 15.1 L225.95 15.0 M213.25 15.1 Q213.35 18.85 213.75 22.55 213.85 25.2 212.65 27.75 211.75 29.55 212.35 31.5 213.45 34.8 211.7 37.65 L211.55 37.65 211.1 37.55 211.0 37.5 Q211.0 32.2 211.45 26.9 211.5 26.35 211.95 25.8 L212.25 25.05 Q212.15 20.1 212.35 15.2 212.4 14.95 212.8 14.95 L212.9 14.95 213.2 15.05 213.25 15.1 M234.6 34.35 Q234.45 34.15 234.75 34.15 L234.9 34.15 235.3 34.1 235.35 34.1 Q236.65 35.2 236.5 36.7 L236.55 37.2 Q236.9 41.0 231.9 43.3 L231.0 43.3 Q230.95 48.7 228.75 54.0 L228.65 54.05 228.3 54.0 228.15 53.95 Q229.05 48.35 229.6 42.6 L229.75 42.55 230.2 42.4 230.45 42.4 230.55 42.4 231.3 42.6 231.6 42.7 Q235.9 40.5 235.65 36.95 235.55 35.45 234.65 34.4 L234.6 34.35 M227.0 30.6 L227.4 31.15 227.55 31.35 227.55 31.4 Q227.95 32.1 227.85 33.0 227.95 34.0 226.9 34.85 L226.8 34.9 226.6 34.95 226.25 35.0 225.6 35.05 225.5 35.05 Q221.7 33.2 222.8 30.35 223.1 29.5 224.2 29.1 L224.35 29.1 224.4 29.15 224.55 29.2 224.65 29.35 224.5 29.55 224.35 29.75 Q222.5 32.1 225.55 34.2 L226.1 34.3 Q227.05 32.15 226.15 29.95 L227.0 30.6" fill="#000000" fill-rule="evenodd" stroke="none"/>
    <path d="M227.0 30.6 L226.15 29.95 Q227.05 32.15 226.1 34.3 L225.55 34.2 Q222.5 32.1 224.35 29.75 L226.05 29.6 Q226.85 29.95 227.2 30.55 L227.0 30.6" fill="#474612" fill-rule="evenodd" stroke="none"/>
    <path d="M243.3 13.4 L242.4 14.4 242.25 14.55 Q240.1 14.9 238.3 14.0 237.2 14.3 236.3 14.95 237.15 15.3 236.75 16.1 L236.6 16.3 Q234.65 17.4 233.6 16.5 L233.55 16.5 Q233.05 16.65 232.85 16.3 L224.75 15.95 224.75 15.85 Q225.2 15.45 225.75 15.2 L227.05 15.0 Q230.05 14.45 232.6 15.5 L232.55 15.4 232.95 14.25 233.05 13.4 233.45 12.9 234.05 12.45 234.8 12.05 235.45 11.75 235.65 11.75 235.45 10.7 235.45 10.1 235.45 9.45 235.6 9.25 235.65 9.2 Q236.05 8.8 236.55 8.6 L236.8 8.5 239.25 8.6 239.65 8.65 240.55 9.35 241.85 10.45 241.95 10.5 Q242.85 11.15 243.45 12.2 L243.45 12.4 243.45 12.8 243.45 13.2 243.3 13.4 M236.8 11.35 L238.4 12.55 238.45 12.5 238.95 12.8 241.9 12.7 Q241.75 11.85 240.7 11.85 L239.5 10.55 238.7 9.8 236.9 9.75 Q236.45 10.15 236.55 10.65 L236.75 11.2 236.8 11.35 M238.1 10.15 Q238.5 10.3 238.75 10.55 239.15 10.95 239.35 11.5 L239.3 11.7 Q237.6 11.8 237.85 10.6 L237.95 10.25 238.1 10.15 M236.45 12.65 Q234.65 13.2 233.8 14.9 L233.7 15.15 234.1 15.55 234.25 15.7 234.6 15.65 234.65 15.1 234.7 14.7 237.05 13.15 236.8 12.95 236.45 12.65 M236.3 14.95 L236.2 15.05 236.25 15.0 236.3 14.95 M207.6 41.3 L207.05 41.4 Q206.35 41.95 206.25 42.85 206.2 43.15 206.3 43.45 209.6 45.15 211.6 42.1 211.6 41.7 211.25 41.45 L210.85 41.15 Q209.45 40.9 208.05 41.15 L207.6 41.3 M210.05 42.8 L210.15 42.95 Q208.45 44.1 207.65 42.7 207.5 42.45 207.85 42.45 209.1 42.2 210.05 42.8 M211.1 39.8 Q212.5 40.35 212.6 41.75 212.8 43.6 211.25 44.75 L209.15 45.2 206.3 45.25 206.1 45.05 205.95 44.9 205.1 43.85 205.1 43.25 Q205.2 41.3 206.7 40.0 L206.95 39.85 207.05 39.8 207.3 39.7 207.85 39.7 211.1 39.8 M230.45 47.1 L230.35 47.15 229.5 47.85 226.4 48.0 Q225.75 47.25 225.45 46.55 224.85 45.15 225.6 43.8 225.1 43.1 224.9 42.2 L225.85 39.8 224.9 39.85 Q224.85 39.35 225.3 39.0 L225.65 38.7 226.5 38.45 226.55 38.35 226.6 38.45 226.85 38.45 227.65 37.85 228.15 37.7 Q229.4 37.5 230.05 38.5 L230.05 38.65 228.45 39.25 228.4 40.6 228.45 40.8 Q230.35 41.05 231.95 42.2 L232.75 41.9 232.75 42.1 Q232.75 43.9 232.2 45.45 L231.65 45.5 Q231.25 46.35 230.45 47.1 M229.3 42.55 L228.85 42.75 228.25 42.9 227.0 44.3 226.4 44.95 226.35 45.15 226.35 45.35 226.35 45.75 226.4 45.9 226.8 46.35 226.95 46.55 228.55 46.75 229.75 45.75 230.1 45.35 230.15 45.3 230.15 45.15 230.2 44.95 230.2 44.75 230.4 44.5 230.6 44.3 230.7 43.9 230.65 43.1 230.45 42.95 229.7 42.5 229.3 42.55 M226.85 39.65 Q226.95 40.9 226.25 42.4 L226.25 42.55 226.45 42.65 227.4 41.8 227.6 41.5 Q227.35 40.5 227.45 39.5 L226.85 39.65 M27.6 16.85 L27.85 17.45 28.0 17.85 27.8 19.5 27.2 21.0 Q26.5 22.2 25.15 23.1 L24.35 23.4 23.55 23.15 22.45 23.15 22.05 23.05 21.55 22.45 20.9 21.65 Q20.35 20.55 20.65 19.25 L20.75 19.0 20.8 17.6 Q21.85 15.9 23.65 14.9 L24.05 14.75 Q25.95 14.45 26.55 16.1 L27.45 16.65 27.6 16.85 M26.35 17.6 Q25.1 16.95 24.55 16.05 22.7 16.25 21.9 18.2 L21.9 18.4 21.9 18.6 21.95 18.8 21.85 19.0 Q21.55 19.7 21.8 20.45 22.0 21.0 22.5 21.55 L22.6 21.65 23.9 21.95 Q24.7 21.75 25.3 21.25 L26.3 20.05 26.45 19.8 Q26.4 19.55 26.5 19.35 L26.5 19.2 26.65 18.8 26.7 18.6 26.45 17.9 26.35 17.6 M24.75 17.95 L25.65 18.95 25.75 19.15 Q24.2 19.25 24.65 17.95 L24.75 17.95 M23.5 18.9 L23.75 19.1 Q24.65 19.85 24.7 21.05 L24.65 21.25 Q23.95 21.55 23.6 20.85 23.2 19.9 23.35 19.1 L23.35 19.05 23.5 18.9 M20.0 34.65 L20.55 34.25 20.95 34.25 21.1 33.85 21.15 33.7 22.7 32.6 25.4 32.55 25.85 32.95 26.7 33.65 26.85 33.85 26.65 35.3 26.35 35.85 25.55 36.4 25.15 36.6 24.95 36.65 25.1 36.8 Q25.65 41.7 21.0 40.1 18.4 39.2 18.65 36.4 19.25 35.45 20.0 34.65 M22.7 34.45 L23.05 34.6 24.1 35.45 25.3 35.25 25.35 34.85 25.4 34.25 25.3 34.1 25.15 34.25 Q23.85 34.75 23.0 33.95 22.5 34.05 22.1 34.3 L22.1 34.35 22.7 34.45 M21.35 36.45 L22.3 37.4 22.45 37.6 Q23.4 37.65 23.75 38.35 21.3 39.25 21.2 36.6 L21.35 36.45 M20.55 35.45 Q18.65 38.05 21.6 39.55 L21.95 39.7 Q22.9 39.8 23.65 39.05 L23.9 38.2 24.0 37.8 Q23.2 35.7 21.1 35.3 L20.55 35.45" fill="#000000" fill-rule="evenodd" stroke="none"/>
    <path d="M236.45 12.65 L236.8 12.95 237.05 13.15 234.7 14.7 234.65 15.1 234.6 15.65 234.25 15.7 234.1 15.55 233.7 15.15 233.8 14.9 Q234.65 13.2 236.45 12.65 M238.1 10.15 L237.95 10.25 237.85 10.6 Q237.6 11.8 239.3 11.7 L239.35 11.5 Q239.15 10.95 238.75 10.55 238.5 10.3 238.1 10.15 M236.8 11.35 L236.75 11.2 236.55 10.65 Q236.45 10.15 236.9 9.75 L238.7 9.8 239.5 10.55 240.7 11.85 Q241.75 11.85 241.9 12.7 L238.95 12.8 238.45 12.5 238.4 12.55 236.8 11.35 M210.05 42.8 Q209.1 42.2 207.85 42.45 207.5 42.45 207.65 42.7 208.45 44.1 210.15 42.95 L210.05 42.8 M207.6 41.3 L208.05 41.15 Q209.45 40.9 210.85 41.15 L211.25 41.45 Q211.6 41.7 211.6 42.1 209.6 45.15 206.3 43.45 206.2 43.15 206.25 42.85 206.35 41.95 207.05 41.4 L207.6 41.3 M226.85 39.65 L227.45 39.5 Q227.35 40.5 227.6 41.5 L227.4 41.8 226.45 42.65 226.25 42.55 226.25 42.4 Q226.95 40.9 226.85 39.65 M229.3 42.55 L229.7 42.5 230.45 42.95 230.65 43.1 230.7 43.9 230.6 44.3 230.4 44.5 230.2 44.75 230.2 44.95 230.15 45.15 230.15 45.3 230.1 45.35 229.75 45.75 228.55 46.75 226.95 46.55 226.8 46.35 226.4 45.9 226.35 45.75 226.35 45.35 226.35 45.15 226.4 44.95 227.0 44.3 228.25 42.9 228.85 42.75 229.3 42.55 M229.3 44.55 L229.2 44.85 229.2 44.9 229.4 44.5 229.3 44.55 M23.5 18.9 L23.35 19.05 23.35 19.1 Q23.2 19.9 23.6 20.85 23.95 21.55 24.65 21.25 L24.7 21.05 Q24.65 19.85 23.75 19.1 L23.5 18.9 M24.75 17.95 L24.65 17.95 Q24.2 19.25 25.75 19.15 L25.65 18.95 24.75 17.95 M26.35 17.6 L26.45 17.9 26.7 18.6 26.65 18.8 26.5 19.2 26.5 19.35 Q26.4 19.55 26.45 19.8 L26.3 20.05 25.3 21.25 Q24.7 21.75 23.9 21.95 L22.6 21.65 22.5 21.55 Q22.0 21.0 21.8 20.45 21.55 19.7 21.85 19.0 L21.95 18.8 21.9 18.6 21.9 18.4 21.9 18.2 Q22.7 16.25 24.55 16.05 25.1 16.95 26.35 17.6 M20.55 35.45 L21.1 35.3 Q23.2 35.7 24.0 37.8 L23.9 38.2 23.65 39.05 Q22.9 39.8 21.95 39.7 L21.6 39.55 Q18.65 38.05 20.55 35.45 M21.35 36.45 L21.2 36.6 Q21.3 39.25 23.75 38.35 23.4 37.65 22.45 37.6 L22.3 37.4 21.35 36.45 M22.7 34.45 L22.1 34.35 22.1 34.3 Q22.5 34.05 23.0 33.95 23.85 34.75 25.15 34.25 L25.3 34.1 25.4 34.25 25.35 34.85 25.3 35.25 24.1 35.45 23.05 34.6 22.7 34.45" fill="#8e8e8e" fill-rule="evenodd" stroke="none"/>
    <path d="M232.2 45.45 L231.25 47.2 230.9 47.15 231.15 46.7 230.85 47.15 230.45 47.1 Q231.25 46.35 231.65 45.5 L232.2 45.45" fill="#66661a" fill-rule="evenodd" stroke="none"/>
    <path d="M229.3 44.55 L229.4 44.5 229.2 44.9 229.2 44.85 229.3 44.55" fill="#e2eb32" fill-rule="evenodd" stroke="none"/>
  </g>
</svg>
