<?xml version="1.0" encoding="UTF-8" standalone="no"?>
<svg xmlns:ffdec="https://www.free-decompiler.com/flash" xmlns:xlink="http://www.w3.org/1999/xlink" ffdec:objectType="shape" height="530.45px" width="543.4px" xmlns="http://www.w3.org/2000/svg">
  <g transform="matrix(1.0, 0.0, 0.0, 1.0, 22.6, 29.45)">
    <path d="M423.45 -5.3 L423.45 -5.35 Q423.5 -8.15 425.25 -9.2 L426.45 -5.3 Q427.25 -1.85 427.15 2.25 427.0 17.8 426.2 32.9 L426.2 33.0 425.8 39.7 427.5 40.25 428.6 33.55 429.65 28.25 429.7 27.95 Q425.15 11.35 429.0 -5.3 L429.6 -7.9 429.85 -8.05 430.75 -5.3 Q431.35 -2.3 430.75 1.35 428.45 15.4 432.45 29.3 L431.1 36.4 430.1 41.05 435.25 42.15 435.0 41.85 434.85 37.1 Q434.7 30.6 435.15 23.9 435.15 23.6 435.55 23.75 435.45 30.65 436.35 37.15 L437.25 42.3 437.25 42.5 438.25 42.65 444.75 43.25 Q444.25 40.6 444.15 38.0 443.65 29.25 446.95 20.7 448.35 21.95 448.05 24.3 L449.55 25.65 Q450.45 28.5 450.75 31.45 L450.8 31.85 Q455.75 24.8 450.8 15.2 450.1 14.05 448.3 13.05 448.0 3.8 448.1 -5.3 448.15 -15.8 448.65 -26.1 448.7 -27.5 449.15 -28.95 449.3 -29.5 449.85 -29.45 452.2 -19.5 450.8 -8.8 L450.4 -5.3 Q450.1 -2.0 450.2 1.4 L450.25 11.7 452.45 13.05 Q458.45 24.3 452.45 34.7 450.3 35.05 448.6 33.6 448.8 30.15 447.5 27.0 L447.35 26.6 446.05 38.05 445.5 43.3 449.4 43.4 Q463.05 43.4 475.8 38.95 L475.85 38.95 475.75 38.85 476.1 33.95 477.25 18.05 477.3 17.2 Q475.45 11.25 477.35 5.1 L477.4 4.8 Q477.0 -0.3 477.35 -5.3 L477.7 -8.65 Q477.8 -9.15 478.3 -9.2 479.3 -7.4 479.8 -5.3 480.65 -1.95 480.05 2.0 479.8 3.95 480.0 5.95 479.4 9.1 479.05 12.3 L478.85 12.9 Q480.4 23.25 479.3 33.9 L478.8 37.85 481.05 36.9 481.0 34.05 Q481.0 29.0 481.5 23.85 L481.55 22.95 Q479.7 8.65 482.35 -5.3 L482.85 -8.1 Q483.0 -8.8 483.65 -8.85 484.65 -7.4 484.6 -5.3 L484.35 -3.0 Q483.8 -0.6 483.85 2.0 L483.95 8.5 484.0 8.5 Q487.35 19.85 487.6 31.95 L487.6 33.2 487.55 33.6 486.8 32.4 Q484.25 28.05 484.25 21.25 484.25 18.0 483.9 14.75 483.85 24.2 483.35 33.65 L483.15 35.95 486.1 34.55 493.85 29.85 493.9 26.45 Q494.1 10.75 495.1 -4.7 L495.15 -5.3 Q495.3 -9.05 494.65 -12.85 493.4 -20.2 495.9 -26.15 L496.1 -25.4 496.3 -24.95 Q497.35 -15.15 497.4 -5.3 497.45 9.95 495.1 25.15 L494.35 29.45 Q498.75 26.2 502.5 22.15 501.5 22.35 501.25 21.1 L501.1 19.55 Q500.6 15.1 501.75 11.95 L501.8 11.8 Q503.4 14.1 503.7 16.9 503.85 18.95 503.3 21.25 L506.35 17.55 507.8 15.75 Q510.15 13.0 512.85 11.0 514.05 11.2 514.15 12.35 L514.1 12.6 Q511.15 16.85 507.8 20.6 495.4 34.4 477.6 41.05 463.55 46.35 449.0 46.35 440.7 46.3 432.2 44.55 412.7 40.5 400.6 25.3 L400.6 25.4 Q400.25 26.7 399.25 27.7 396.65 28.5 394.95 26.6 394.85 25.55 395.05 24.4 L394.95 23.75 394.95 23.3 395.3 22.1 Q383.85 37.75 367.5 47.8 L362.25 50.8 Q341.1 62.15 318.15 52.35 302.45 45.65 291.95 32.05 L290.7 30.4 287.1 25.45 286.95 26.4 286.95 26.7 Q288.85 28.95 289.9 32.1 L290.0 32.3 290.05 32.55 290.15 32.55 Q291.1 32.8 291.85 33.3 L292.8 34.3 Q292.4 35.3 291.5 35.55 L290.05 35.55 Q286.4 32.85 286.15 28.6 L284.25 29.85 283.45 30.2 281.6 29.55 Q282.3 32.35 280.85 35.9 279.8 38.3 279.15 40.95 273.35 63.1 258.8 81.05 244.4 98.8 224.6 110.5 220.35 113.0 215.75 114.35 210.7 115.75 205.25 115.8 L196.25 115.0 Q188.4 113.6 181.7 109.25 L181.45 108.65 181.3 108.05 Q178.5 106.4 177.05 104.1 L176.9 103.75 Q179.6 104.25 181.95 106.8 193.45 113.95 206.9 112.45 L214.55 111.05 217.4 110.25 Q224.35 108.2 230.35 103.95 252.25 88.25 265.45 65.2 271.6 54.5 275.15 42.8 L275.45 41.9 276.7 37.15 Q277.9 32.45 280.05 28.85 279.05 28.25 278.45 27.55 L278.05 26.95 277.85 28.85 Q277.15 32.4 273.9 36.3 272.05 38.5 269.5 38.6 269.05 38.05 269.25 37.35 L269.5 36.9 Q273.15 30.75 277.75 25.85 277.65 24.1 279.9 21.95 L281.25 20.75 282.35 21.45 282.65 21.7 283.8 21.55 284.2 21.5 282.35 18.95 281.05 19.85 Q267.35 38.9 245.15 47.5 228.6 53.9 211.35 54.85 L191.85 54.15 Q173.6 51.9 158.35 42.1 154.9 39.55 151.9 36.65 L150.05 34.9 Q145.7 31.1 142.35 26.55 L141.7 27.75 141.55 28.0 139.9 28.75 140.75 29.25 141.85 29.55 143.5 29.5 144.15 29.65 Q144.5 30.25 144.3 30.9 L144.15 31.3 142.65 32.4 139.15 32.7 138.1 32.3 138.1 32.4 138.55 32.9 Q139.8 34.15 141.65 33.8 142.75 31.95 144.0 33.35 143.9 34.6 143.15 35.8 L142.75 36.5 Q138.35 37.35 135.75 33.65 135.65 32.0 136.5 30.85 L136.55 30.8 Q136.75 30.6 137.0 30.5 L137.25 30.55 137.25 30.3 Q137.2 29.7 137.3 29.05 137.1 28.7 137.35 28.6 L137.45 28.15 137.55 27.9 137.7 27.6 137.2 27.0 137.1 26.8 136.0 28.5 Q122.3 47.5 100.65 56.15 92.1 59.55 84.4 57.1 81.55 56.95 78.8 56.0 75.9 55.1 73.15 53.45 L63.85 47.85 Q59.3 45.15 55.3 41.6 L50.4 37.0 Q48.0 34.65 46.05 32.1 L45.95 32.4 45.95 32.8 45.55 33.3 45.0 33.8 Q44.25 34.5 43.2 34.9 L44.85 34.4 45.7 34.05 45.95 33.9 Q47.9 36.4 44.1 38.2 L43.2 38.6 Q39.9 37.75 39.1 35.0 39.7 34.3 40.5 34.2 L39.4 32.8 Q36.25 37.15 31.6 40.55 25.15 45.25 18.4 49.2 12.9 52.45 7.15 53.15 L-1.15 52.85 -1.9 52.4 -5.35 51.55 Q-10.4 49.8 -14.8 45.25 -15.35 44.7 -13.9 45.15 -9.2 45.25 -5.35 46.6 -2.0 47.75 0.7 49.8 -0.05 47.95 -0.2 45.75 -0.5 43.0 0.1 39.7 1.25 33.55 0.4 27.05 -0.75 23.15 0.55 19.25 L0.65 18.85 Q0.9 17.9 0.25 17.15 0.4 14.95 0.85 12.85 L1.05 12.75 Q4.2 29.15 2.85 45.65 L2.3 51.0 7.1 49.85 12.55 48.05 12.55 44.05 Q12.5 23.8 13.2 3.35 L13.4 0.8 Q13.05 -2.3 13.3 -5.3 L13.6 -7.75 Q13.65 -7.9 13.9 -7.85 L14.3 -5.3 Q16.75 10.0 16.2 26.15 15.9 35.0 14.75 43.55 L14.25 47.4 Q22.1 44.1 28.65 38.85 L28.45 38.55 Q27.2 36.4 28.7 32.2 29.95 28.65 30.4 24.85 L29.3 23.6 Q28.9 20.05 31.15 17.75 L31.25 17.75 Q31.25 20.0 30.7 22.25 L30.7 22.65 Q30.75 23.45 31.5 23.9 31.05 30.95 29.2 38.1 L29.1 38.45 29.85 37.85 30.6 37.2 32.6 35.3 32.85 35.75 32.9 35.55 33.1 34.85 36.4 31.35 36.6 31.1 38.35 31.05 38.6 31.0 Q37.2 30.95 35.8 30.35 L35.7 30.2 Q34.75 28.95 34.8 27.45 L34.85 24.55 37.3 22.3 Q38.3 21.4 39.4 21.15 41.2 21.1 42.75 22.05 L43.35 22.4 Q44.7 24.05 44.3 26.05 L44.25 26.3 49.8 32.4 54.85 37.15 54.7 35.4 Q54.55 31.7 55.05 27.95 L55.1 27.65 Q54.2 27.15 53.85 26.25 50.8 24.8 47.95 22.95 47.55 22.1 48.0 21.25 L48.15 20.95 Q51.1 20.7 51.9 18.15 L53.25 17.2 53.95 15.75 54.0 15.45 Q53.65 5.1 53.75 -5.3 L54.1 -18.5 54.1 -19.1 55.3 -20.6 55.45 -20.6 Q55.65 -19.95 56.1 -19.45 L56.35 -19.2 56.55 -12.6 56.6 -5.55 57.4 -12.6 Q57.45 -13.15 57.95 -13.2 59.5 -9.6 59.15 -5.3 L58.7 -2.6 Q57.55 2.75 57.95 8.0 60.05 15.4 59.8 23.55 59.6 30.7 58.65 37.45 L58.25 39.95 Q67.15 46.9 77.8 51.6 L78.6 51.95 79.85 52.45 Q78.95 48.75 78.6 44.95 78.15 40.2 78.55 35.2 L78.95 30.75 Q79.65 24.15 81.2 18.25 82.25 31.8 81.05 45.25 L80.25 52.6 83.45 53.65 Q96.05 56.8 108.35 49.8 113.3 46.95 117.6 43.55 L117.45 39.9 Q116.95 28.35 115.45 16.95 L115.4 16.05 Q114.65 15.2 114.35 14.05 L114.25 13.8 Q115.15 7.85 117.45 2.25 116.95 -1.6 117.1 -5.3 117.25 -10.1 118.4 -14.7 L118.7 -14.85 119.7 -11.45 Q120.1 -13.15 120.95 -14.4 122.5 -10.25 122.55 -5.3 L122.45 -2.9 Q121.8 8.35 123.0 19.5 124.0 28.25 122.75 36.55 L122.3 39.35 Q126.15 35.6 129.35 31.25 L129.6 30.85 Q132.65 26.8 135.95 23.1 L135.95 23.05 135.5 22.6 Q134.35 21.5 133.45 19.65 L133.55 19.45 133.85 19.05 134.25 18.85 134.55 18.85 Q135.45 20.0 136.75 20.75 L136.85 20.85 Q141.05 21.95 144.3 19.5 L144.95 18.95 145.05 19.1 Q145.45 19.9 145.3 21.0 L145.1 21.85 142.8 23.2 145.35 26.3 145.45 26.4 146.55 27.6 150.45 31.8 152.35 33.35 Q154.05 34.8 155.55 36.4 161.85 40.95 168.4 44.2 L167.9 42.05 Q165.95 32.85 167.95 23.6 L168.15 23.2 Q167.3 8.9 166.95 -5.3 L166.95 -6.3 Q166.95 -6.55 167.3 -6.4 L167.45 -5.3 Q170.6 18.35 171.25 42.1 L171.25 43.25 171.0 45.45 176.65 47.75 176.7 44.65 177.6 3.0 Q177.65 -1.2 178.0 -5.3 L178.65 -10.8 Q178.65 -10.95 179.0 -11.0 180.0 -8.35 180.4 -5.3 180.75 -2.6 180.65 0.4 179.85 22.65 179.4 45.15 L179.4 45.9 179.2 46.8 179.35 47.95 179.4 48.5 179.3 48.7 180.9 49.2 180.05 46.7 179.95 46.4 180.0 45.25 Q180.7 29.25 180.5 13.3 180.5 12.0 181.15 10.9 L181.5 10.1 181.75 9.8 182.1 9.5 Q182.25 8.2 183.1 7.2 L183.3 6.95 183.5 5.45 Q183.45 5.2 183.55 4.9 L187.25 0.3 Q188.25 -2.75 189.35 -5.3 L190.5 -7.85 190.5 -7.95 191.45 -5.3 Q191.8 -2.4 189.9 0.9 L189.75 1.15 186.6 5.8 Q186.7 7.8 185.25 9.25 L185.05 9.5 Q183.95 12.6 182.35 15.55 183.6 24.7 183.1 34.0 L182.65 36.3 Q183.25 41.0 183.2 45.75 L183.2 46.7 Q183.15 47.25 183.4 47.85 183.5 48.9 182.95 49.8 L190.5 51.5 189.75 46.6 188.15 34.4 Q187.95 32.3 189.65 31.6 192.5 38.85 192.0 46.65 L191.35 51.65 211.45 52.4 211.75 52.35 Q211.1 49.5 210.85 46.55 210.1 38.45 212.05 29.7 L212.15 29.5 Q214.2 32.15 215.75 36.75 L217.35 40.5 Q221.3 29.25 216.55 18.85 L215.2 23.0 214.9 23.2 Q213.45 23.4 213.4 22.1 212.95 8.45 213.15 -5.3 L213.6 -22.3 Q213.65 -23.7 214.5 -24.0 L215.05 -5.3 215.3 14.7 215.3 15.15 218.2 16.35 219.85 20.45 Q224.05 32.7 217.65 43.1 214.75 41.85 213.4 38.7 212.7 42.55 212.4 46.5 L212.1 52.3 Q220.25 51.6 228.7 49.35 237.55 47.05 245.85 43.45 L245.85 43.4 246.05 39.2 246.4 28.45 246.45 27.6 242.55 23.25 Q242.8 20.95 244.8 19.5 246.65 10.0 244.8 0.1 L244.0 -5.3 243.55 -11.9 Q243.5 -14.7 244.15 -17.4 244.45 -18.5 245.45 -18.7 246.5 -18.5 246.65 -17.4 L246.7 -17.1 246.5 -16.2 246.35 -15.65 246.75 -5.3 Q247.25 5.1 248.05 15.55 248.35 19.6 245.65 22.7 L248.9 25.85 Q249.05 32.3 248.45 38.7 L248.0 42.55 250.85 41.2 250.2 40.45 249.95 40.15 250.0 38.3 250.3 -4.8 250.3 -5.3 Q250.4 -10.7 252.0 -14.8 253.95 -10.6 253.5 -5.3 L253.4 -4.7 252.5 5.3 Q253.65 21.2 252.9 37.25 L252.75 40.15 252.75 40.25 252.75 40.2 Q258.05 37.5 263.15 34.3 270.3 29.75 275.55 22.8 L276.25 21.85 279.0 18.35 279.55 18.15 280.0 17.65 281.85 15.9 Q287.3 20.45 292.2 26.15 L292.65 26.65 Q292.15 21.9 294.0 17.9 L294.15 17.85 Q294.3 22.6 293.55 27.75 L296.4 31.35 297.65 33.05 Q299.85 35.8 302.35 38.35 L304.55 40.45 304.1 37.9 Q302.15 26.05 302.45 13.45 302.55 7.85 303.9 4.0 306.05 10.65 305.9 18.0 L305.95 18.4 Q304.55 27.6 304.4 36.5 L304.3 36.9 304.65 37.75 304.85 38.15 304.8 38.35 Q304.55 39.5 304.7 40.6 308.9 44.35 313.5 47.0 L313.4 43.45 Q313.1 33.3 312.4 23.3 L312.2 22.7 Q312.15 13.7 312.85 4.8 L313.05 3.95 Q312.25 -0.9 313.0 -5.3 L313.25 -6.55 313.45 -6.7 313.8 -5.3 Q316.2 4.55 315.25 15.7 314.7 21.95 315.35 28.1 316.25 36.05 315.95 44.05 L315.75 48.2 317.85 49.2 Q317.4 47.0 317.55 44.6 317.6 42.8 318.05 40.9 318.7 37.9 322.0 37.3 327.15 29.5 321.55 22.3 319.85 23.6 318.35 22.1 317.85 8.65 317.5 -5.3 L317.45 -7.6 Q317.45 -8.65 318.45 -8.75 L319.6 -5.3 Q320.85 -0.55 320.5 5.05 320.05 12.05 321.2 18.85 331.2 26.9 324.4 38.3 323.3 40.1 321.3 41.05 L320.65 45.4 320.55 45.9 320.35 46.5 Q321.0 48.5 320.35 50.2 332.0 54.55 346.1 52.65 357.55 51.1 367.35 44.75 L367.7 44.55 369.4 43.45 Q368.35 41.45 369.3 38.85 L369.2 37.25 Q368.75 28.05 369.05 18.9 L368.95 18.35 Q369.05 6.35 369.6 -5.3 L369.75 -9.15 369.95 -9.4 371.2 -5.3 Q372.15 -0.95 371.95 4.05 L371.55 17.6 Q372.5 27.15 371.7 36.3 L370.95 42.4 373.15 40.75 Q372.15 38.85 372.15 36.15 L372.2 34.7 Q372.85 26.35 372.85 18.05 372.75 5.7 375.3 -5.3 L376.1 -8.5 376.8 -5.3 Q377.2 -1.6 376.2 2.6 L376.1 2.9 Q374.4 18.65 375.6 34.6 L375.75 37.15 375.8 38.7 376.55 38.05 383.1 32.0 382.75 29.65 Q381.75 20.65 384.55 11.0 383.1 7.2 385.05 4.35 L385.25 4.25 Q386.55 16.3 384.5 28.45 L384.0 31.1 385.4 29.6 Q388.1 26.65 390.15 23.3 L391.3 21.25 Q393.7 16.75 397.55 14.25 398.0 14.95 398.05 15.8 L398.2 15.9 399.05 17.25 399.25 17.2 399.45 17.15 399.5 17.15 399.75 17.7 400.35 16.3 401.1 15.15 Q401.45 14.6 401.95 14.55 L404.15 14.95 404.85 15.1 Q411.25 19.35 406.9 24.95 L406.85 24.95 406.45 25.4 404.85 25.8 Q410.65 32.1 417.95 36.15 L417.05 32.1 Q414.95 20.7 416.7 9.0 L417.05 8.9 Q418.15 20.7 418.5 32.7 L418.6 36.5 424.2 39.1 424.0 34.2 Q423.3 14.65 423.45 -5.3 M467.95 -5.3 Q468.15 -10.0 468.6 -13.95 469.3 -9.7 469.6 -5.3 470.15 2.45 469.6 10.3 L469.45 10.7 Q472.05 17.45 470.95 24.3 470.0 30.2 470.4 35.8 L470.55 37.75 469.95 36.0 Q467.45 27.95 470.4 19.35 467.6 11.4 467.7 2.5 467.75 -1.6 467.95 -5.3 M507.8 104.65 Q510.4 82.85 513.55 62.2 516.35 94.5 511.1 128.85 L507.8 151.3 Q502.35 189.75 498.3 228.55 491.25 295.4 488.9 363.05 488.45 376.45 484.4 388.25 L482.75 392.65 Q482.35 327.15 490.4 259.5 498.4 192.9 505.4 126.15 L507.8 104.65 M507.8 454.65 L520.8 455.85 520.8 463.95 507.8 462.1 502.7 461.1 Q500.85 459.7 500.1 457.65 L499.85 457.1 Q495.8 455.2 491.3 454.25 L487.9 450.85 Q486.4 454.7 485.95 459.1 L485.6 459.95 Q470.45 462.4 455.15 463.5 415.7 466.35 375.4 460.35 L374.7 460.25 Q365.1 458.85 355.35 460.95 333.5 465.7 312.35 465.9 284.6 466.1 258.1 458.5 257.55 455.15 256.65 452.0 246.35 457.35 233.2 450.85 226.25 452.4 220.55 452.1 215.9 451.85 212.1 450.35 L211.9 450.55 213.55 459.15 213.3 459.95 Q197.75 458.65 179.55 460.5 L160.05 461.5 Q142.4 461.5 125.35 458.25 101.7 462.1 77.65 461.65 L64.45 461.1 Q46.7 459.9 28.8 461.0 L23.0 461.15 Q13.95 460.95 5.45 458.35 2.45 457.45 -0.4 456.25 L-0.7 456.15 Q-2.95 455.2 -5.35 455.15 L-6.2 455.15 -8.15 454.5 -8.35 454.3 -8.4 454.05 Q-8.3 453.45 -7.7 453.35 L-5.85 452.9 -5.35 452.7 -5.0 452.6 -0.4 452.95 -0.05 452.95 0.55 453.05 5.75 454.8 Q14.25 457.4 23.0 458.2 35.8 459.35 49.15 456.75 L57.55 456.4 78.2 457.9 Q90.95 458.3 103.7 457.65 113.75 457.1 123.65 455.45 L125.45 455.95 126.7 456.75 126.95 457.3 Q143.5 457.65 160.0 457.05 L176.8 456.2 177.45 456.15 184.45 455.65 185.0 455.6 194.55 454.75 195.95 454.6 206.75 453.4 Q210.35 441.35 220.05 432.25 223.25 429.3 227.1 426.6 237.95 419.15 240.3 405.2 241.85 395.9 244.4 386.4 247.25 385.5 247.25 382.4 251.95 378.35 254.65 374.4 259.8 397.0 252.5 420.35 L252.4 421.15 Q252.45 423.2 254.0 424.7 L254.65 425.45 255.45 429.6 256.0 429.6 Q256.6 431.0 255.9 432.35 L256.85 438.3 256.95 439.15 Q261.2 446.2 261.5 454.55 284.85 459.35 308.45 460.15 L308.5 460.15 Q341.4 461.25 374.75 454.65 L375.55 454.55 Q382.25 453.3 389.1 454.45 422.7 459.9 455.05 457.65 L466.5 456.6 481.05 454.55 Q481.25 449.75 482.45 445.2 L483.0 444.3 Q494.9 445.35 505.3 454.55 L507.8 454.65 M-5.35 215.25 L-6.05 215.0 -6.65 213.6 -6.8 212.95 -6.95 212.25 -8.25 210.8 -8.6 210.15 Q-14.3 210.0 -19.15 207.65 -11.05 201.9 -5.35 208.3 -4.35 209.4 -3.5 210.8 L-3.1 211.35 Q0.3 213.2 4.3 214.55 4.8 214.75 5.15 215.45 L6.1 214.7 6.6 214.25 6.75 214.05 7.45 213.35 7.6 213.0 7.95 212.0 8.45 210.65 8.85 209.95 Q7.85 206.6 8.0 203.1 L8.3 200.4 Q8.5 199.05 8.85 197.8 9.6 194.5 10.9 191.35 10.55 189.9 9.8 188.6 L8.7 187.15 6.9 185.75 Q7.4 188.55 6.25 191.75 L6.0 192.15 4.8 192.3 4.2 191.65 4.1 191.35 Q3.8 186.2 5.2 182.45 L5.05 181.8 Q4.55 180.0 3.1 178.55 L1.25 178.45 0.7 186.75 Q0.0 193.6 -1.4 200.35 L-1.55 201.65 Q-0.15 204.35 0.7 207.4 L0.95 208.2 Q0.6 209.0 0.7 209.85 0.8 210.65 0.1 211.1 -5.85 201.75 -2.9 189.45 L-1.65 184.2 -1.25 182.4 Q-0.75 180.25 -0.75 178.05 -2.65 177.35 -3.55 175.75 L-5.35 173.9 Q-8.9 170.3 -12.35 167.85 L-11.6 167.75 -9.45 168.15 -7.2 168.45 -5.35 169.95 -2.05 172.7 -1.45 173.25 -1.25 172.95 -0.7 172.55 1.05 173.35 1.35 173.65 1.35 174.35 3.8 174.85 5.4 176.75 7.0 178.3 Q7.9 181.65 9.9 184.45 L10.1 184.75 12.05 187.0 Q14.3 189.4 14.35 192.75 12.85 196.85 12.15 201.05 L11.35 207.2 12.0 208.55 12.3 209.25 12.5 209.95 Q12.55 211.0 12.0 212.0 11.3 213.2 11.6 214.75 L10.55 216.0 8.85 217.5 8.5 218.85 8.15 219.55 7.35 219.65 4.25 220.0 2.5 218.75 1.55 217.7 1.5 217.5 -5.35 215.25 M-5.35 102.75 Q-12.85 104.25 -20.3 99.8 L-20.6 98.95 -20.6 98.65 -22.6 97.2 Q-21.6 97.0 -20.5 98.05 -12.65 101.25 -5.35 99.5 -1.05 98.45 3.0 95.85 L3.5 95.55 Q20.35 84.5 30.45 67.6 L32.0 64.85 32.75 63.5 34.35 60.15 34.7 59.35 Q34.7 59.2 34.95 59.2 36.2 63.35 33.6 68.05 22.65 87.55 2.9 99.35 L2.4 99.65 1.7 100.05 Q-1.8 102.05 -5.35 102.75 M-5.35 76.5 Q-12.1 76.2 -18.0 72.65 -19.2 70.55 -22.15 69.45 -20.15 70.1 -18.3 71.2 -17.65 71.4 -17.05 70.9 -10.95 73.05 -5.35 73.4 0.1 73.75 5.05 72.4 15.0 69.8 23.25 60.6 28.8 54.4 33.4 47.4 L34.0 46.5 Q36.6 42.4 38.35 38.35 L39.15 36.4 Q41.0 43.05 36.2 49.6 24.5 65.9 6.6 74.35 L3.5 75.5 2.9 75.7 -0.45 76.3 -5.35 76.5 M6.6 -5.3 L6.25 -13.95 Q6.2 -14.2 6.7 -14.1 7.5 -9.75 7.95 -5.3 8.8 3.5 8.35 12.65 L8.35 13.05 Q7.7 14.85 6.4 14.7 6.85 4.6 6.6 -5.3 M25.0 -5.3 L26.0 -16.5 26.45 -16.7 26.6 -5.3 Q26.45 15.3 24.0 35.9 L23.7 36.1 Q23.4 15.35 25.0 -5.3 M43.35 -5.3 L42.65 -9.85 42.5 -10.1 Q41.45 -11.1 43.45 -12.3 44.45 -8.8 44.9 -5.3 46.4 5.4 43.35 16.05 L43.15 16.35 42.6 12.75 42.5 12.35 Q44.3 3.65 43.35 -5.3 M69.0 -5.3 Q68.95 -9.45 68.55 -13.15 L69.4 -5.3 Q70.25 4.75 69.7 15.2 69.0 29.3 70.3 43.1 L70.35 43.65 70.25 43.1 Q67.6 23.2 68.85 1.4 L69.0 -5.3 M91.2 -5.3 Q90.95 -8.65 90.05 -11.9 89.65 -13.55 90.9 -14.1 92.45 -13.8 93.55 -12.65 L93.8 -12.3 92.7 -11.8 92.15 -11.6 92.7 -5.3 92.75 -3.8 Q92.8 -2.65 93.65 -1.75 L93.8 -0.5 Q93.75 0.25 93.1 0.6 L92.1 -1.35 91.3 -2.6 91.2 -5.3 M97.15 -5.3 L97.1 -14.1 97.15 -14.6 Q98.3 -10.1 98.95 -5.3 99.75 0.95 99.6 7.55 L99.7 8.0 Q99.45 12.25 99.65 16.65 L99.7 17.85 Q108.15 27.05 101.3 36.35 100.05 38.05 98.05 38.15 95.5 36.65 95.3 33.75 93.4 39.15 93.2 45.8 93.1 49.45 93.5 53.55 L93.4 53.9 Q91.9 49.85 91.65 45.75 91.2 38.65 94.35 31.3 92.25 27.75 92.7 23.5 L92.95 23.05 Q94.3 22.3 95.15 23.45 L95.3 26.75 95.3 27.6 Q97.3 30.75 97.8 34.55 L98.05 35.0 Q105.2 31.25 100.25 21.7 L97.75 19.65 Q97.25 14.6 97.6 9.35 L97.6 8.55 Q96.8 7.8 96.55 6.9 L96.55 6.45 Q97.1 0.65 97.15 -5.3 M127.0 -5.3 Q127.2 -7.9 127.7 -10.5 L127.7 -10.7 129.05 -5.3 Q130.35 2.35 128.55 10.6 L128.35 11.0 Q126.4 2.7 127.0 -5.3 M199.0 -5.3 L198.9 -13.8 199.25 -13.8 200.2 -5.3 Q200.5 1.1 199.9 7.55 L199.8 8.0 Q203.1 15.5 201.3 23.6 200.8 15.95 198.3 8.0 198.9 1.35 199.0 -5.3 M232.0 -5.3 Q231.75 -11.2 233.55 -16.85 L235.05 -15.95 234.9 -15.75 Q234.4 -10.55 234.5 -5.3 234.7 5.45 237.45 16.55 238.0 19.05 237.7 21.7 236.3 32.0 236.1 41.9 L236.1 42.05 235.85 41.95 235.75 41.85 Q233.9 27.65 234.9 13.0 235.15 9.15 233.95 5.35 232.15 -0.1 232.0 -5.3 M262.9 -5.3 L263.3 -9.45 263.4 -9.45 263.85 -5.3 Q265.0 8.15 263.45 21.85 L263.4 22.25 Q261.7 8.65 262.9 -5.3 M282.25 -5.3 L282.75 -12.45 283.05 -12.6 282.85 -5.3 282.75 3.45 282.75 3.85 Q285.1 8.15 283.2 12.95 282.3 12.75 282.35 11.0 281.8 2.95 282.25 -5.3 M325.9 -5.3 L326.15 -8.6 326.5 -8.6 326.95 -5.3 Q328.05 4.7 326.7 14.85 L326.8 15.25 Q331.25 17.2 334.6 21.0 335.15 32.85 332.45 44.85 L332.3 45.3 Q329.95 41.4 331.8 34.45 333.25 28.9 332.55 23.2 L328.7 18.85 Q324.95 18.5 324.05 14.85 L325.9 -5.3 M340.7 -5.3 L340.25 -11.1 341.25 -9.9 341.6 -9.45 341.9 -5.3 Q343.4 16.4 343.35 37.9 343.35 41.5 343.85 45.15 L344.1 46.95 344.5 49.8 343.0 45.25 Q339.35 32.85 340.4 19.35 341.4 6.3 340.7 -5.3 M357.45 -5.3 Q357.55 -9.25 358.05 -13.15 L358.05 -13.3 Q359.05 -9.4 359.4 -5.3 360.0 1.25 359.0 8.35 L358.6 8.65 Q357.3 1.6 357.45 -5.3 M400.85 -5.3 Q400.75 -10.6 401.15 -15.9 L401.4 -16.05 Q402.7 -10.75 403.15 -5.3 403.7 2.25 402.5 10.1 L402.25 10.3 Q401.0 2.5 400.85 -5.3 M96.65 -16.3 L96.95 -15.3 96.55 -16.3 96.65 -16.3 M154.7 -3.1 Q156.85 14.15 153.85 31.35 L153.45 31.7 154.3 -3.0 154.7 -3.1 M381.3 43.7 L381.6 43.4 387.65 35.95 Q388.75 38.7 386.3 42.25 378.05 54.4 366.8 63.05 L366.8 63.1 Q360.3 68.1 352.8 72.0 339.25 79.0 325.65 72.75 318.65 69.55 313.1 64.3 302.45 58.35 298.55 47.6 299.15 46.6 300.2 47.1 L302.0 49.6 302.45 50.2 Q315.0 66.6 335.05 72.55 L336.9 72.75 Q354.0 71.7 366.7 60.45 L369.8 57.45 Q373.25 53.85 376.3 50.0 L381.3 43.7 M385.85 76.3 Q386.05 76.0 386.75 76.0 387.3 76.25 387.45 76.85 L387.5 77.15 Q384.6 82.05 381.15 86.45 375.2 93.85 367.65 99.55 362.65 103.3 356.9 106.35 354.25 107.75 351.2 107.8 335.8 108.1 321.95 101.0 317.15 98.55 312.75 95.45 301.85 87.85 296.3 75.5 L293.2 68.6 292.4 66.95 290.65 63.0 Q285.7 51.1 284.55 38.6 284.45 37.6 285.4 37.5 286.8 38.0 286.2 39.4 L286.1 39.7 287.65 44.85 Q289.3 50.25 291.35 55.5 294.35 63.15 298.15 70.45 302.45 78.7 307.25 86.6 309.1 89.75 312.15 91.9 330.55 104.85 352.65 104.45 357.85 104.35 361.9 101.1 L367.55 96.4 367.95 96.0 Q377.9 87.1 385.85 76.3 M386.5 389.8 Q384.4 385.15 384.45 377.85 L385.7 243.55 Q385.95 218.0 389.25 193.1 391.5 143.3 394.3 93.8 L394.35 93.35 394.95 93.0 395.15 97.7 395.15 97.95 Q397.7 161.6 392.55 227.05 387.65 290.15 390.0 353.7 390.75 373.9 389.25 393.8 387.55 392.15 386.5 389.8 M405.2 205.6 Q405.9 203.6 406.9 201.9 412.55 268.9 410.85 337.05 409.85 377.85 413.4 417.3 L413.75 420.9 Q403.45 391.05 405.1 355.1 408.15 287.45 403.65 219.95 403.1 211.5 405.2 205.6 M454.9 370.3 L448.5 370.85 Q448.6 378.0 447.3 386.2 L447.15 386.45 Q442.65 379.65 444.9 371.05 L442.45 371.1 442.15 371.55 442.05 372.7 441.65 373.8 441.2 372.7 439.25 374.85 433.9 379.7 Q433.3 380.15 432.3 380.05 433.3 372.4 438.95 366.4 433.15 349.25 432.5 331.75 426.5 330.85 425.65 324.5 L426.05 324.3 Q429.1 326.1 432.4 326.9 L432.45 324.1 432.05 324.1 432.45 323.85 432.5 322.25 432.5 322.0 433.1 323.55 435.65 322.35 431.65 313.5 431.1 312.15 Q426.45 310.25 430.6 307.3 L430.65 307.1 Q436.6 312.85 439.1 320.95 445.85 318.45 453.5 317.65 L458.85 317.25 Q464.75 308.9 468.6 299.45 468.7 299.2 469.2 299.1 470.5 309.2 463.8 317.55 L464.65 318.0 465.75 318.6 466.65 320.15 Q469.1 317.45 471.9 315.55 L471.9 315.35 Q473.6 321.25 468.25 324.8 L468.3 325.35 474.45 365.2 474.5 365.8 Q477.05 369.35 478.25 374.05 L478.55 374.75 478.35 376.15 478.55 377.5 476.8 377.45 Q476.2 376.85 475.15 376.6 472.95 372.9 471.3 369.0 L470.65 367.45 Q462.75 369.35 454.9 370.3 M457.75 101.0 Q442.05 105.2 427.25 92.4 416.55 83.2 410.45 70.4 404.35 57.6 401.1 44.05 400.6 41.85 402.2 41.15 L402.95 42.8 403.45 43.95 404.95 48.05 405.2 48.7 Q406.85 53.6 408.9 58.35 415.8 74.4 426.8 87.9 430.85 92.95 436.8 95.8 446.85 100.55 456.35 98.8 L456.8 98.7 Q463.9 97.2 470.7 92.05 489.15 77.95 500.5 57.7 L501.85 55.3 503.15 53.15 504.05 52.8 504.2 52.7 504.3 52.55 504.35 52.45 505.4 50.05 505.6 49.85 504.95 52.2 504.7 52.75 505.1 53.7 505.35 54.2 Q493.45 79.4 470.15 95.15 463.85 99.4 457.75 101.0 M452.75 79.9 Q440.8 81.15 430.3 72.25 427.25 69.6 424.75 66.35 421.05 61.55 418.35 56.35 418.45 55.3 418.85 54.3 L419.2 53.75 Q420.35 53.2 420.85 54.3 421.05 54.9 420.85 55.5 L420.75 55.9 420.75 56.0 Q427.0 66.25 436.5 73.05 438.25 74.35 440.3 75.1 445.5 76.85 450.55 76.95 L451.05 76.95 Q459.05 76.85 466.7 72.6 481.3 64.4 491.75 51.1 L500.65 39.0 502.3 36.6 502.6 36.2 504.0 34.05 Q505.1 36.95 502.5 40.9 L497.3 48.75 Q484.1 68.15 462.55 77.3 457.55 79.4 452.75 79.9 M403.6 20.35 L402.95 20.2 Q402.25 19.35 403.1 18.75 L403.6 18.5 Q405.5 20.5 403.6 20.35 M399.3 19.75 L399.3 19.6 399.35 19.25 398.4 20.1 398.35 20.15 398.4 20.3 397.95 20.6 397.4 22.15 396.75 24.05 397.15 25.25 397.9 23.55 398.9 22.1 399.05 21.95 399.55 21.4 399.5 21.15 399.4 20.95 399.3 19.75 M401.4 19.9 Q402.0 21.4 403.05 22.65 404.95 23.65 405.55 22.1 406.4 18.5 402.5 17.4 L401.5 19.5 401.4 19.9 M240.7 72.55 L240.8 73.2 240.65 73.5 Q228.1 82.65 213.35 85.5 207.5 86.65 201.25 86.8 184.2 87.2 171.05 77.35 165.75 73.4 161.35 68.4 155.0 61.1 149.1 53.6 L148.45 52.8 147.3 51.3 Q143.55 46.45 144.15 41.35 L144.4 41.2 145.1 42.2 145.5 42.8 148.85 47.7 148.95 47.8 Q159.65 62.8 173.5 75.9 178.95 81.05 186.65 82.6 199.6 85.25 211.85 82.95 221.55 81.15 230.8 76.2 235.55 73.65 240.3 72.05 L240.7 72.55 M282.75 24.25 Q282.2 24.15 281.75 23.7 L281.65 23.7 281.4 23.6 280.8 24.15 280.05 24.95 279.8 25.3 279.65 25.65 280.15 26.1 Q281.1 26.75 282.25 26.8 L283.35 26.75 Q283.75 26.05 283.7 25.15 L283.75 24.3 282.75 24.25 M216.6 205.1 Q218.95 204.25 221.95 205.05 220.85 202.4 221.55 199.45 221.8 198.4 222.95 198.7 L225.2 202.95 Q227.85 201.25 230.7 200.2 L230.75 200.05 Q232.35 203.55 228.35 206.05 L230.65 208.35 238.1 204.3 238.55 204.2 Q236.65 209.1 232.9 211.9 234.0 214.45 234.25 217.5 L234.4 218.2 Q238.15 220.6 240.85 224.35 242.45 229.9 241.3 235.45 L240.6 238.85 Q239.1 240.35 239.0 242.25 238.75 243.4 240.1 243.7 240.4 243.75 240.6 244.1 242.0 249.5 239.95 254.45 239.45 255.65 238.3 256.5 L222.15 254.85 222.15 255.4 222.05 255.8 Q221.45 255.35 221.0 254.8 L217.45 254.65 215.25 252.8 Q207.45 245.6 213.05 235.0 L213.3 233.8 216.4 230.4 Q221.75 223.75 223.45 215.35 L217.7 215.55 Q217.35 215.55 217.0 215.2 L224.05 211.75 224.1 211.1 224.1 208.3 223.9 208.1 223.65 208.3 Q218.5 210.15 216.4 207.5 215.75 206.7 215.4 205.6 L216.45 205.1 216.6 205.1 M263.55 360.1 Q266.8 301.95 274.45 244.8 283.3 178.95 282.1 111.25 281.9 100.95 282.6 90.85 L283.0 84.85 283.55 84.75 283.75 84.75 Q288.8 128.8 286.3 173.75 286.3 174.15 286.6 174.6 281.05 241.45 274.1 308.2 272.15 326.55 270.65 344.8 269.1 363.3 265.5 380.7 L265.35 384.1 265.2 385.0 Q263.75 384.3 264.25 381.55 L264.35 380.7 Q263.25 379.5 262.65 378.1 L263.55 360.1 M290.5 132.35 L290.7 129.0 Q290.75 128.45 291.45 128.65 292.35 178.45 291.15 228.75 L291.15 229.6 Q294.85 296.75 298.9 363.8 L302.0 414.35 300.35 409.3 Q291.45 380.65 290.4 347.65 L286.3 231.3 Q287.4 181.8 290.5 132.35 M226.4 210.4 L226.4 210.55 226.5 210.5 226.4 210.4 M237.7 232.0 L238.1 230.6 Q237.5 223.95 231.45 221.4 230.6 217.3 228.9 214.1 L226.5 214.85 Q226.1 222.2 222.2 228.3 L222.2 229.05 222.3 229.45 222.05 235.6 Q221.8 242.95 222.0 250.35 L224.3 250.4 224.4 251.1 224.65 251.0 224.8 250.4 236.7 251.2 Q237.1 249.15 236.95 247.05 L236.95 246.4 235.35 244.3 235.35 240.9 235.35 240.2 Q235.4 238.9 236.7 238.15 236.9 235.05 237.7 232.0 M227.1 228.7 L227.1 228.65 227.15 228.35 227.25 228.15 Q228.15 224.35 229.9 220.65 L230.25 220.4 Q230.45 223.0 230.25 225.8 229.9 230.8 228.25 236.3 L228.2 236.75 Q228.95 239.65 230.65 242.1 230.85 243.25 231.6 244.15 L231.9 244.55 Q232.3 247.45 231.55 250.25 L231.35 250.7 Q228.95 250.5 229.55 246.3 L229.55 245.9 227.35 242.6 227.35 241.8 227.35 241.4 226.8 240.6 226.4 240.15 Q225.85 234.3 227.1 228.7 M219.55 238.05 L219.6 236.3 Q219.7 233.6 220.05 231.25 L217.65 233.8 217.0 234.45 217.0 237.9 217.0 238.6 Q215.95 240.1 215.2 241.75 L214.2 244.1 214.25 244.2 Q214.6 245.45 215.25 246.5 216.6 248.75 219.35 250.1 L219.25 248.25 219.55 238.05 M136.0 18.25 Q138.2 16.15 142.2 17.3 141.65 21.25 136.1 18.5 L136.0 18.25 M138.85 24.15 L138.5 24.15 139.8 25.75 139.8 25.8 140.15 25.8 140.45 24.95 Q140.65 24.6 140.95 24.55 L140.6 24.0 139.75 24.15 138.85 24.15 M137.1 23.7 L136.6 23.5 136.7 24.65 137.1 23.7 M128.45 48.15 L129.45 46.15 131.25 42.55 Q131.55 41.95 132.1 41.9 133.75 44.7 131.3 48.75 L128.9 52.8 Q117.0 73.15 95.45 81.8 92.2 83.1 88.7 83.25 83.55 83.6 79.6 81.75 76.2 81.15 72.95 79.55 L68.5 76.75 Q61.35 71.55 56.05 64.35 52.1 59.05 49.7 52.95 L49.5 50.05 49.4 48.9 49.7 48.8 Q50.4 50.0 50.75 51.4 L50.85 51.7 51.25 52.4 52.35 54.25 Q60.15 67.25 73.3 74.9 L76.2 76.6 79.75 78.75 Q98.65 83.15 112.9 68.85 122.15 59.55 128.45 48.15 M127.45 63.55 Q130.1 57.0 133.65 51.2 L133.65 51.1 Q135.4 54.1 133.4 58.45 L127.8 70.35 Q120.95 90.35 101.8 99.15 96.8 101.4 92.15 101.85 L92.85 101.15 Q95.0 99.25 98.4 97.8 117.15 89.85 124.9 70.7 126.05 67.0 127.45 63.55 M84.15 110.9 Q87.05 111.25 90.1 110.9 L90.45 111.15 90.5 111.5 90.3 112.0 90.05 112.3 Q82.35 114.1 75.85 111.1 71.7 109.15 68.05 105.3 58.4 95.1 52.95 82.05 50.55 76.35 50.4 70.7 L50.65 70.55 51.9 73.0 52.6 74.25 54.7 78.3 55.1 79.15 Q60.05 88.45 65.45 97.7 68.65 103.25 74.0 106.9 L75.55 107.9 Q79.65 110.25 84.15 110.9 M121.75 378.5 Q119.6 327.1 126.7 276.0 135.85 209.55 134.15 141.8 133.75 124.45 136.1 109.05 L136.25 108.05 136.35 107.3 Q142.55 174.65 134.5 242.25 126.6 308.85 127.9 376.7 128.25 395.25 124.05 411.2 122.45 394.85 121.75 378.5 M148.4 181.45 Q149.15 176.25 150.05 171.15 150.65 238.6 148.4 306.25 146.7 355.15 152.5 404.6 154.45 421.2 152.1 437.4 L152.0 438.0 Q146.7 433.1 146.35 422.1 L144.15 354.45 Q142.1 287.85 144.8 220.1 145.6 200.15 148.4 181.45 M116.95 13.0 Q120.2 25.45 119.85 38.5 L119.7 41.75 120.45 41.1 120.2 40.75 Q119.95 39.55 120.1 38.35 L120.2 37.9 120.4 37.3 Q119.65 19.75 119.4 2.0 L118.9 4.2 Q117.75 8.55 116.95 13.0 M55.45 18.85 Q53.7 20.45 52.5 22.3 54.9 23.6 57.0 25.4 56.9 17.5 56.2 9.6 L55.6 18.55 55.45 18.85 M24.75 419.3 L24.3 416.9 Q35.65 350.8 34.75 282.6 33.9 214.7 34.2 147.5 34.3 120.4 38.3 95.6 36.1 151.7 38.3 208.0 L38.9 222.5 39.05 225.65 39.3 229.95 39.55 234.85 Q41.05 266.25 40.55 297.45 39.9 343.2 33.85 387.95 31.8 403.05 28.85 418.05 27.15 419.95 25.95 422.0 L25.45 422.6 24.75 419.3 M38.55 28.35 L39.9 27.6 41.15 26.9 41.3 26.5 41.7 25.65 41.65 24.4 41.0 23.2 39.65 23.45 37.7 25.65 Q37.3 26.15 37.3 26.75 L37.45 27.3 37.55 27.6 Q37.65 28.45 38.4 28.4 L38.55 28.35 M45.0 30.95 L45.1 30.85 44.15 29.6 43.6 28.75 43.2 29.1 44.4 31.1 44.5 31.4 44.75 31.2 45.0 30.95 M41.8 30.5 L41.75 30.15 41.55 30.25 40.9 30.55 42.15 32.35 42.95 32.35 Q42.1 31.65 41.8 30.5 M42.65 35.0 L43.2 34.9 42.4 34.8 42.65 35.0 M251.05 385.8 L250.95 384.4 250.8 385.8 Q250.25 388.75 247.55 390.35 L247.75 392.1 247.8 393.8 246.25 398.45 Q247.45 406.05 248.3 413.75 L248.85 419.55 251.4 409.55 252.55 405.45 252.65 404.65 Q250.3 395.6 251.05 385.8 M235.5 424.8 L234.3 427.25 Q233.4 429.15 231.4 430.9 226.95 434.7 222.8 438.8 L229.35 437.7 229.7 435.85 229.7 435.45 230.85 434.1 230.95 434.1 Q231.05 434.85 231.6 435.35 L231.9 435.7 231.7 437.45 233.9 437.35 234.6 437.3 Q233.85 433.8 234.65 429.3 L235.5 424.8 M249.4 426.05 L249.55 427.75 249.7 430.4 250.85 430.15 250.2 427.7 250.1 426.85 249.4 426.05 M237.45 420.65 Q238.0 428.9 237.45 437.3 L243.85 437.7 243.5 433.1 243.5 433.05 Q243.2 426.95 243.25 420.9 243.4 412.4 244.3 404.0 241.15 412.55 237.45 420.65 M250.0 435.9 L250.2 440.85 250.05 441.8 Q234.5 443.85 220.35 442.4 L219.35 442.25 214.95 447.05 220.45 445.65 Q227.5 444.4 235.4 445.9 L255.5 448.5 Q254.2 444.85 252.4 441.4 L251.85 435.55 250.0 435.9 M434.7 13.6 L434.75 14.4 Q435.0 15.1 435.8 15.65 L436.85 19.25 Q437.1 19.95 436.5 20.6 433.95 20.35 433.65 17.4 L432.7 16.6 Q432.85 14.95 432.55 13.35 L432.4 12.1 Q432.4 11.2 432.9 10.4 L432.95 10.0 Q429.7 7.0 430.6 4.6 L430.75 4.55 433.95 8.2 434.45 8.65 Q434.8 9.9 434.4 11.1 L434.05 11.95 Q434.65 12.65 434.7 13.6 M453.7 322.6 L439.85 323.85 440.15 325.5 440.05 325.9 437.8 325.85 437.1 325.25 436.5 324.0 433.3 324.1 434.4 327.2 435.5 327.55 Q436.75 328.3 437.7 329.5 438.5 330.5 438.0 331.65 L435.8 331.9 Q439.25 343.65 440.8 356.75 L441.7 363.8 443.6 362.3 444.4 361.9 Q445.6 365.3 443.55 369.25 L445.75 368.25 Q446.5 366.35 447.5 364.4 L448.1 363.95 448.4 367.2 Q451.6 366.0 454.9 365.1 460.15 363.65 465.65 363.0 465.1 361.6 465.75 359.95 466.0 359.4 466.45 359.15 L470.05 361.35 Q466.6 345.85 465.4 330.0 L464.6 328.9 464.6 326.85 464.6 326.65 463.5 327.0 Q460.0 328.2 459.1 325.45 460.1 322.75 463.7 323.15 L463.2 322.5 462.55 321.35 459.75 321.75 457.8 323.4 Q457.5 323.6 456.8 323.4 L456.2 322.3 453.7 322.6 M455.35 334.1 L455.4 333.95 454.65 342.1 Q453.9 347.4 452.4 353.55 L451.75 354.15 Q447.85 343.95 454.6 335.1 L455.35 334.1 M457.5 351.85 Q456.75 349.95 457.8 348.65 L458.6 348.4 Q459.75 349.95 460.4 351.85 L460.45 352.55 Q459.95 356.25 457.25 355.95 456.25 354.3 457.2 352.5 L457.5 351.85" fill="#000000" fill-rule="evenodd" stroke="none"/>
    <path d="M436.3 -5.3 Q436.65 -7.6 437.5 -10.0 437.6 -10.25 438.1 -10.35 439.25 -8.0 439.75 -5.3 440.6 -0.5 439.15 5.35 L438.85 6.0 Q435.4 1.2 436.3 -5.3 M459.25 -5.3 Q459.7 -8.0 460.5 -10.6 460.6 -10.95 461.15 -10.75 L461.95 -5.3 Q464.55 15.4 461.3 36.0 L460.95 36.4 Q460.15 35.3 459.95 33.65 460.05 32.7 460.55 31.85 460.55 20.5 458.55 9.95 L458.4 9.35 Q457.85 1.8 459.25 -5.3 M10.15 -5.3 Q10.3 -6.55 10.95 -7.25 L11.55 -5.3 11.7 -3.0 Q11.6 5.0 10.55 12.85 10.2 12.95 10.0 12.6 L9.95 12.5 10.1 -4.65 10.15 -5.3 M258.7 -5.3 L259.5 -8.85 260.05 -9.0 260.15 -5.3 Q260.3 9.25 259.05 24.75 L258.85 25.15 Q255.55 9.55 258.7 -5.3 M271.7 4.25 Q273.2 15.6 270.0 26.65 L269.5 26.9 Q269.45 15.6 271.35 4.45 L271.7 4.25 M300.1 31.65 Q295.3 15.7 297.15 -1.9 297.2 -2.25 297.75 -2.1 301.8 14.25 300.35 31.05 L300.1 31.65 M177.05 104.1 L176.85 103.8 176.9 103.75 177.05 104.1 M10.05 26.85 Q11.05 34.45 9.65 42.1 L9.6 42.2 Q9.05 34.7 9.85 26.9 L10.05 26.85 M2.3 192.3 Q5.8 201.65 4.1 212.6 L3.9 212.85 Q1.8 213.5 1.3 211.45 0.15 201.95 1.9 192.85 1.95 192.5 2.3 192.3 M440.85 27.15 Q442.4 31.9 441.2 37.15 L440.85 37.8 Q437.6 33.65 440.3 27.3 440.35 27.15 440.85 27.15 M-4.1 -0.95 Q-1.8 10.15 -2.05 21.85 -2.15 25.25 -2.55 28.65 L-2.6 31.3 Q-2.4 34.6 -3.55 37.25 -4.25 31.55 -3.9 25.9 L-3.7 20.1 Q-3.65 15.55 -4.2 11.1 -4.75 6.55 -4.25 2.05 -4.6 0.5 -4.2 -0.85 L-4.1 -0.95" fill="#a59123" fill-rule="evenodd" stroke="none"/>
    <path d="M430.75 -5.3 L436.3 -5.3 Q435.4 1.2 438.85 6.0 L439.15 5.35 Q440.6 -0.5 439.75 -5.3 L448.1 -5.3 Q448.0 3.8 448.3 13.05 450.1 14.05 450.8 15.2 455.75 24.8 450.8 31.85 L450.75 31.45 Q450.45 28.5 449.55 25.65 L448.05 24.3 Q448.35 21.95 446.95 20.7 443.65 29.25 444.15 38.0 L439.35 37.75 438.45 37.6 436.35 37.15 Q435.45 30.65 435.55 23.75 435.15 23.6 435.15 23.9 434.7 30.6 434.85 37.1 L434.2 37.1 Q432.55 37.15 431.25 36.5 L431.1 36.4 432.45 29.3 Q428.45 15.4 430.75 1.35 431.35 -2.3 430.75 -5.3 M450.4 -5.3 L459.25 -5.3 Q457.85 1.8 458.4 9.35 L458.55 9.95 Q460.55 20.5 460.55 31.85 460.05 32.7 459.95 33.65 460.15 35.3 460.95 36.4 L461.3 36.0 Q464.55 15.4 461.95 -5.3 L467.95 -5.3 Q467.75 -1.6 467.7 2.5 467.6 11.4 470.4 19.35 467.45 27.95 469.95 36.0 L469.2 36.25 462.65 37.75 461.5 37.85 456.15 37.95 447.75 38.0 446.05 38.05 447.35 26.6 447.5 27.0 Q448.8 30.15 448.6 33.6 450.3 35.05 452.45 34.7 458.45 24.3 452.45 13.05 L450.25 11.7 450.2 1.4 Q450.1 -2.0 450.4 -5.3 M469.6 -5.3 L477.35 -5.3 Q477.0 -0.3 477.4 4.8 L477.35 5.1 Q475.45 11.25 477.3 17.2 L477.25 18.05 476.1 33.95 470.8 35.65 470.4 35.8 Q470.0 30.2 470.95 24.3 472.05 17.45 469.45 10.7 L469.6 10.3 Q470.15 2.45 469.6 -5.3 M-5.35 208.3 L-5.35 181.9 Q-4.15 182.3 -3.15 183.1 L-2.2 183.8 -1.65 184.2 -2.9 189.45 Q-5.85 201.75 0.1 211.1 0.8 210.65 0.7 209.85 0.6 209.0 0.95 208.2 L0.7 207.4 Q-0.15 204.35 -1.55 201.65 L-1.4 200.35 Q0.0 193.6 0.7 186.75 L0.7 186.85 1.1 188.2 1.4 188.8 2.05 189.35 4.2 191.65 4.8 192.3 5.3 193.1 6.6 196.2 6.65 196.6 Q6.85 198.55 6.35 200.35 5.9 202.15 6.0 204.1 L6.1 205.0 6.5 213.2 6.6 214.25 6.1 214.7 5.15 215.45 Q4.8 214.75 4.3 214.55 0.3 213.2 -3.1 211.35 L-3.5 210.8 Q-4.35 209.4 -5.35 208.3 M-5.35 45.65 L-5.35 -5.3 6.6 -5.3 Q6.85 4.6 6.4 14.7 7.7 14.85 8.35 13.05 L8.35 12.65 Q8.8 3.5 7.95 -5.3 L10.15 -5.3 10.1 -4.65 9.95 12.5 10.0 12.6 Q10.2 12.95 10.55 12.85 11.6 5.0 11.7 -3.0 L11.55 -5.3 13.3 -5.3 Q13.05 -2.3 13.4 0.8 L13.2 3.35 Q12.5 23.8 12.55 44.05 L5.0 45.4 2.85 45.65 Q4.2 29.15 1.05 12.75 L0.85 12.85 Q0.4 14.95 0.25 17.15 0.9 17.9 0.65 18.85 L0.55 19.25 Q-0.75 23.15 0.4 27.05 1.25 33.55 0.1 39.7 -0.5 43.0 -0.2 45.75 L-3.15 45.75 -5.35 45.65 M122.55 -5.3 L127.0 -5.3 Q126.4 2.7 128.35 11.0 L128.55 10.6 Q130.35 2.35 129.05 -5.3 L132.45 -5.3 132.7 -5.05 133.0 -3.6 133.45 0.75 133.65 4.1 134.15 12.7 134.2 12.85 Q134.45 13.6 135.1 13.65 136.25 11.3 135.7 8.6 L135.5 7.4 134.75 -1.6 Q134.55 -3.7 133.6 -5.3 L166.95 -5.3 Q167.3 8.9 168.15 23.2 L167.95 23.6 Q165.95 32.85 167.9 42.05 L166.95 41.75 Q165.05 41.1 163.4 40.15 L162.4 39.45 160.4 38.2 155.35 35.1 154.35 34.5 152.6 33.2 146.6 27.5 146.55 27.6 145.45 26.4 145.35 26.3 142.8 23.2 145.1 21.85 145.3 21.0 Q145.45 19.9 145.05 19.1 144.9 16.65 142.35 15.3 L142.25 15.1 Q140.7 13.8 138.55 13.9 134.65 14.4 132.85 17.85 L132.65 18.6 Q132.55 21.35 135.35 22.55 L135.95 23.1 Q132.65 26.8 129.6 30.85 L129.35 31.25 125.9 34.2 123.55 36.0 122.75 36.55 Q124.0 28.25 123.0 19.5 121.8 8.35 122.45 -2.9 L122.55 -5.3 M167.45 -5.3 L171.35 -5.3 171.6 -0.2 Q171.25 11.35 173.35 22.6 L173.45 22.7 173.7 23.05 173.75 23.45 Q173.75 24.0 174.0 24.2 L174.05 23.75 173.9 22.85 174.1 22.55 174.2 22.3 174.1 21.85 173.85 19.9 Q173.6 11.85 173.7 3.6 173.75 -0.85 173.05 -5.3 L178.0 -5.3 Q177.65 -1.2 177.6 3.0 L176.7 44.65 176.45 44.6 Q173.8 44.25 171.25 43.25 L171.25 42.1 Q170.6 18.35 167.45 -5.3 M253.5 -5.3 L258.7 -5.3 Q255.55 9.55 258.85 25.15 L259.05 24.75 Q260.3 9.25 260.15 -5.3 L262.9 -5.3 Q261.7 8.65 263.4 22.25 L263.45 21.85 Q265.0 8.15 263.85 -5.3 L282.25 -5.3 Q281.8 2.95 282.35 11.0 282.3 12.75 283.2 12.95 285.1 8.15 282.75 3.85 L282.75 3.45 282.85 -5.3 313.0 -5.3 Q312.25 -0.9 313.05 3.95 L312.85 4.8 Q312.15 13.7 312.2 22.7 L312.4 23.3 Q313.1 33.3 313.4 43.45 L312.3 42.9 310.7 41.95 309.65 41.3 308.5 40.55 304.8 38.35 304.85 38.15 304.65 37.75 304.3 36.9 304.4 36.5 Q304.55 27.6 305.95 18.4 L305.9 18.0 Q306.05 10.65 303.9 4.0 302.55 7.85 302.45 13.45 302.15 26.05 304.1 37.9 L302.8 37.0 301.35 36.15 299.55 34.9 297.65 33.05 296.4 31.35 293.55 27.75 Q294.3 22.6 294.15 17.85 L294.0 17.9 Q292.15 21.9 292.65 26.65 L292.2 26.15 Q287.3 20.45 281.85 15.9 L280.0 17.65 279.55 18.15 279.0 18.35 276.25 21.85 275.55 22.8 Q273.85 24.0 272.5 25.55 L271.75 26.2 Q270.8 26.8 270.15 27.65 L269.45 28.35 268.6 28.9 267.8 29.45 Q265.1 30.95 262.5 32.6 L258.55 34.75 255.1 36.4 253.6 36.95 252.9 37.25 Q253.65 21.2 252.5 5.3 L253.4 -4.7 253.5 -5.3 M154.7 -3.1 L154.3 -3.0 153.45 31.7 153.85 31.35 Q156.85 14.15 154.7 -3.1 M271.7 4.25 L271.35 4.45 Q269.45 15.6 269.5 26.9 L270.0 26.65 Q273.2 15.6 271.7 4.25 M300.1 31.65 L300.35 31.05 Q301.8 14.25 297.75 -2.1 297.2 -2.25 297.15 -1.9 295.3 15.7 300.1 31.65 M126.35 14.15 L126.0 13.85 125.85 13.85 125.4 14.3 Q125.4 16.5 126.0 18.65 126.35 20.0 126.15 21.35 125.3 27.05 126.7 32.6 127.2 33.15 127.7 32.6 127.95 31.5 127.7 30.25 127.5 29.0 127.65 27.8 128.65 20.9 126.45 14.3 L126.35 14.15 M10.05 26.85 L9.85 26.9 Q9.05 34.7 9.6 42.2 L9.65 42.1 Q11.05 34.45 10.05 26.85 M2.3 192.3 Q1.95 192.5 1.9 192.85 0.15 201.95 1.3 211.45 1.8 213.5 3.9 212.85 L4.1 212.6 Q5.8 201.65 2.3 192.3 M434.7 13.6 Q434.65 12.65 434.05 11.95 L434.4 11.1 Q434.8 9.9 434.45 8.65 L433.95 8.2 430.75 4.55 430.6 4.6 Q429.7 7.0 432.95 10.0 L432.9 10.4 Q432.4 11.2 432.4 12.1 L432.55 13.35 Q432.85 14.95 432.7 16.6 L433.65 17.4 Q433.95 20.35 436.5 20.6 437.1 19.95 436.85 19.25 L435.8 15.65 Q435.0 15.1 434.75 14.4 L434.7 13.6 M440.85 27.15 Q440.35 27.15 440.3 27.3 437.6 33.65 440.85 37.8 L441.2 37.15 Q442.4 31.9 440.85 27.15 M-4.1 -0.95 L-4.2 -0.85 Q-4.6 0.5 -4.25 2.05 -4.75 6.55 -4.2 11.1 -3.65 15.55 -3.7 20.1 L-3.9 25.9 Q-4.25 31.55 -3.55 37.25 -2.4 34.6 -2.6 31.3 L-2.55 28.65 Q-2.15 25.25 -2.05 21.85 -1.8 10.15 -4.1 -0.95" fill="#6d6616" fill-rule="evenodd" stroke="none"/>
    <path d="M484.6 -5.3 L495.15 -5.3 495.1 -4.7 Q494.1 10.75 493.9 26.45 L491.55 28.8 Q492.35 24.55 490.4 20.2 L490.4 19.65 Q491.15 11.85 489.8 3.65 L489.25 3.75 Q487.55 10.5 489.2 17.25 487.7 24.2 491.05 29.25 L491.05 29.3 487.6 31.95 Q487.35 19.85 484.0 8.5 L483.95 8.5 483.85 2.0 Q483.8 -0.6 484.35 -3.0 L484.6 -5.3 M497.4 -5.3 L503.1 -5.3 Q502.7 3.6 506.75 9.0 L507.05 8.55 Q507.65 6.8 506.75 5.05 L506.9 4.45 Q507.65 1.0 507.8 -2.3 L507.8 13.15 505.3 15.35 504.2 16.3 503.7 16.9 Q503.4 14.1 501.8 11.8 L501.75 11.95 Q500.6 15.1 501.1 19.55 L499.45 21.1 496.35 23.9 495.4 24.8 495.1 25.15 Q497.45 9.95 497.4 -5.3 M14.3 -5.3 L19.0 -5.3 Q18.95 2.35 19.55 10.25 L19.6 16.3 19.55 18.35 Q19.3 24.75 19.8 31.25 19.9 31.8 20.45 31.55 L20.55 24.45 20.55 21.95 Q20.6 16.05 21.15 10.1 21.1 2.4 20.7 -5.3 L25.0 -5.3 Q23.4 15.35 23.7 36.1 L24.0 35.9 Q26.45 15.3 26.6 -5.3 L35.75 -5.3 Q35.75 -2.2 36.35 0.9 L36.45 0.8 Q36.9 -2.3 36.1 -5.3 L43.35 -5.3 Q44.3 3.65 42.5 12.35 L42.6 12.75 43.15 16.35 43.35 16.05 Q46.4 5.4 44.9 -5.3 L48.7 -5.3 48.8 -5.2 48.7 -4.65 Q48.2 4.1 48.75 12.7 L48.6 13.0 48.35 13.3 48.2 13.85 47.85 15.65 48.0 15.95 48.15 16.25 Q46.85 17.6 46.35 19.35 L46.4 19.95 46.45 21.0 46.5 21.1 Q46.7 21.45 47.05 21.35 L47.65 19.3 48.7 16.75 Q51.7 10.35 49.9 3.25 L49.9 2.7 Q49.7 -1.35 49.95 -5.3 L53.75 -5.3 Q53.65 5.1 54.0 15.45 L53.95 15.75 53.25 17.2 51.9 18.15 Q51.1 20.7 48.15 20.95 L48.0 21.25 Q47.55 22.1 47.95 22.95 50.8 24.8 53.85 26.25 54.2 27.15 55.1 27.65 L55.05 27.95 Q54.55 31.7 54.7 35.4 L54.2 35.15 52.85 34.35 49.8 32.4 44.25 26.3 44.3 26.05 Q44.7 24.05 43.35 22.4 L42.75 22.05 Q41.2 21.1 39.4 21.15 38.3 21.4 37.3 22.3 L34.85 24.55 34.8 27.45 Q34.75 28.95 35.7 30.2 L35.65 30.25 35.6 30.45 35.6 30.5 35.95 30.85 36.4 31.35 33.1 34.85 Q34.0 30.85 33.4 26.85 L33.25 26.75 32.9 26.45 Q32.75 26.4 32.75 26.5 L32.5 27.05 Q32.75 29.25 32.25 31.45 31.75 33.75 32.6 35.3 L30.6 37.2 29.85 37.85 29.75 37.75 29.2 38.1 Q31.05 30.95 31.5 23.9 30.75 23.45 30.7 22.65 L30.7 22.25 Q31.25 20.0 31.25 17.75 L31.15 17.75 Q28.9 20.05 29.3 23.6 L30.4 24.85 Q29.95 28.65 28.7 32.2 27.2 36.4 28.45 38.55 25.65 40.2 22.5 41.2 L20.4 41.9 14.75 43.55 Q15.9 35.0 16.2 26.15 16.75 10.0 14.3 -5.3 M191.45 -5.3 L199.0 -5.3 Q198.9 1.35 198.3 8.0 200.8 15.95 201.3 23.6 203.1 15.5 199.8 8.0 L199.9 7.55 Q200.5 1.1 200.2 -5.3 L213.15 -5.3 Q212.95 8.45 213.4 22.1 213.45 23.4 214.9 23.2 L215.2 23.0 216.55 18.85 Q221.3 29.25 217.35 40.5 L215.75 36.75 Q214.2 32.15 212.15 29.5 L212.05 29.7 Q210.1 38.45 210.85 46.55 L210.8 46.55 206.3 46.65 204.7 46.7 196.05 46.75 192.0 46.65 Q192.5 38.85 189.65 31.6 187.95 32.3 188.15 34.4 L189.75 46.6 185.8 46.15 183.2 45.75 Q183.25 41.0 182.65 36.3 L183.1 34.0 Q183.6 24.7 182.35 15.55 183.95 12.6 185.05 9.5 L185.25 9.25 Q186.7 7.8 186.6 5.8 L189.75 1.15 189.9 0.9 Q191.8 -2.4 191.45 -5.3 M215.05 -5.3 L232.0 -5.3 Q232.15 -0.1 233.95 5.35 235.15 9.15 234.9 13.0 233.9 27.65 235.75 41.85 L235.85 41.95 234.1 42.45 233.1 42.8 232.0 43.15 230.8 43.4 227.05 44.4 225.45 44.85 222.65 45.4 216.15 46.35 212.4 46.5 Q212.7 42.55 213.4 38.7 214.75 41.85 217.65 43.1 224.05 32.7 219.85 20.45 L218.2 16.35 215.3 15.15 215.3 14.7 215.05 -5.3 M234.5 -5.3 L244.0 -5.3 244.8 0.1 Q246.65 10.0 244.8 19.5 242.8 20.95 242.55 23.25 L246.45 27.6 246.4 28.45 246.05 39.2 242.9 40.05 242.0 40.35 241.05 40.6 238.7 41.2 236.4 41.85 236.1 41.9 Q236.3 32.0 237.7 21.7 238.0 19.05 237.45 16.55 234.7 5.45 234.5 -5.3 M376.8 -5.3 L390.5 -5.3 Q389.7 6.7 391.9 17.85 L392.15 17.25 Q394.65 5.7 393.95 -5.3 L400.85 -5.3 Q401.0 2.5 402.25 10.3 L402.5 10.1 Q403.7 2.25 403.15 -5.3 L423.45 -5.3 Q423.3 14.65 424.0 34.2 L422.8 34.25 422.35 34.15 421.2 33.9 Q420.15 33.8 419.1 33.05 L418.5 32.7 Q418.15 20.7 417.05 8.9 L416.7 9.0 Q414.95 20.7 417.05 32.1 L415.4 31.1 414.6 30.65 414.5 30.6 Q414.7 25.55 414.4 20.6 L413.0 18.85 413.05 18.25 Q413.35 14.15 411.45 10.55 L411.1 10.8 Q410.95 11.95 411.45 13.1 L411.3 13.7 Q410.9 16.65 411.0 19.6 412.1 20.7 412.6 22.0 411.75 26.95 413.05 29.85 L410.7 28.45 408.9 27.15 Q408.0 26.5 407.4 25.65 L406.85 24.95 406.9 24.95 Q411.25 19.35 404.85 15.1 L404.15 14.95 401.95 14.55 Q401.45 14.6 401.1 15.15 L400.35 16.3 399.45 17.15 399.25 17.2 399.05 17.25 398.2 15.9 398.05 15.8 Q398.0 14.95 397.55 14.25 393.7 16.75 391.3 21.25 L390.15 23.3 Q388.45 24.55 387.15 25.85 L386.55 26.6 386.1 27.1 384.5 28.45 Q386.55 16.3 385.25 4.25 L385.05 4.35 Q383.1 7.2 384.55 11.0 381.75 20.65 382.75 29.65 L382.35 29.95 381.7 30.45 380.9 31.0 379.35 32.25 379.05 18.45 Q378.5 18.25 378.55 18.65 L378.3 20.2 377.1 21.4 Q375.6 28.0 378.65 32.7 L378.1 33.1 375.6 34.6 Q374.4 18.65 376.1 2.9 L376.2 2.6 Q377.2 -1.6 376.8 -5.3 M240.25 -5.2 L240.15 -5.1 Q240.25 -2.2 239.75 1.05 238.9 6.55 238.9 12.2 L238.6 35.0 239.45 35.1 240.35 29.4 Q240.75 25.8 240.45 22.15 239.75 12.6 241.45 3.35 242.35 -1.4 240.25 -5.2 M205.55 3.65 L205.25 1.85 205.15 1.9 Q204.7 2.6 205.05 3.7 L205.65 25.6 205.6 28.5 Q204.9 36.5 205.8 44.55 L206.85 44.5 Q206.75 37.85 207.65 31.15 L207.9 26.75 Q207.6 14.95 205.55 3.8 L205.55 3.65 M222.05 235.6 L222.5 235.15 223.5 234.3 224.5 233.45 Q226.4 231.4 227.1 228.7 225.85 234.3 226.4 240.15 L226.8 240.6 227.35 241.4 227.35 241.8 227.35 242.6 229.55 245.9 229.55 246.3 Q228.95 250.5 231.35 250.7 L231.55 250.25 Q232.3 247.45 231.9 244.55 L231.6 244.15 Q230.85 243.25 230.65 242.1 228.95 239.65 228.2 236.75 L228.25 236.3 Q229.9 230.8 230.25 225.8 L230.35 225.8 Q232.05 225.9 233.2 227.4 L234.8 228.75 Q235.95 229.35 236.65 230.4 L237.55 231.8 237.7 232.0 Q236.9 235.05 236.7 238.15 235.4 238.9 235.35 240.2 L235.35 240.9 235.35 244.3 236.95 246.4 236.95 247.05 Q237.1 249.15 236.7 251.2 L224.8 250.4 Q225.9 243.65 224.9 236.55 L224.9 236.4 224.1 235.6 223.95 235.7 Q223.25 243.1 224.3 250.4 L222.0 250.35 Q221.8 242.95 222.05 235.6 M214.2 244.1 L214.3 244.15 Q216.35 241.35 218.75 238.85 L219.55 238.05 219.25 248.25 219.35 250.1 Q216.6 248.75 215.25 246.5 214.6 245.45 214.25 244.2 L214.2 244.1 M233.05 245.9 L233.1 246.05 Q233.7 248.25 233.65 250.6 234.15 251.1 234.6 250.6 L234.65 250.35 Q234.85 247.0 234.5 243.7 L234.4 243.55 234.05 243.2 233.85 243.3 233.3 243.8 233.3 244.15 233.05 245.9 M233.95 230.65 Q233.4 230.65 233.25 231.2 L233.3 231.5 233.5 232.1 Q233.8 232.45 234.25 232.25 L234.4 232.05 Q235.0 231.05 233.95 230.65 M187.2 25.55 Q186.9 22.1 185.6 19.4 L185.45 19.5 Q184.95 21.6 185.3 24.15 L185.4 27.25 Q185.3 30.1 186.6 31.75 187.45 28.75 187.2 25.55 M248.3 413.75 L248.9 412.85 249.95 411.3 Q250.6 410.35 251.4 409.55 L248.85 419.55 248.3 413.75 M486.8 32.4 L483.65 33.55 483.35 33.65 Q483.85 24.2 483.9 14.75 484.25 18.0 484.25 21.25 484.25 28.05 486.8 32.4" fill="#71751c" fill-rule="evenodd" stroke="none"/>
    <path d="M503.1 -5.3 L503.45 -9.1 Q504.0 -13.25 506.4 -15.1 508.15 -8.85 507.8 -2.3 507.65 1.0 506.9 4.45 L506.75 5.05 Q507.65 6.8 507.05 8.55 L506.75 9.0 Q502.7 3.6 503.1 -5.3 M390.5 -5.3 Q390.85 -10.85 391.85 -16.65 L392.25 -16.9 Q393.55 -11.2 393.95 -5.3 394.65 5.7 392.15 17.25 L391.9 17.85 Q389.7 6.7 390.5 -5.3 M491.05 29.25 Q487.7 24.2 489.2 17.25 487.55 10.5 489.25 3.75 L489.8 3.65 Q491.15 11.85 490.4 19.65 L490.4 20.2 Q492.35 24.55 491.55 28.8 L491.35 29.7 491.05 29.25 M240.25 -5.2 Q242.35 -1.4 241.45 3.35 239.75 12.6 240.45 22.15 240.75 25.8 240.35 29.4 L239.45 35.1 238.6 35.0 238.9 12.2 Q238.9 6.55 239.75 1.05 240.25 -2.2 240.15 -5.1 L240.25 -5.2 M413.05 29.85 Q411.75 26.95 412.6 22.0 412.1 20.7 411.0 19.6 410.9 16.65 411.3 13.7 L411.45 13.1 Q410.95 11.95 411.1 10.8 L411.45 10.55 Q413.35 14.15 413.05 18.25 L413.0 18.85 414.4 20.6 Q414.7 25.55 414.5 30.6 L414.5 30.7 414.4 31.85 Q413.55 31.0 413.05 29.85 M378.65 32.7 Q375.6 28.0 377.1 21.4 L378.3 20.2 378.55 18.65 Q378.5 18.25 379.05 18.45 L379.35 32.25 379.35 32.65 378.85 33.05 378.65 32.7 M205.55 3.65 L205.55 3.8 Q207.6 14.95 207.9 26.75 L207.65 31.15 Q206.75 37.85 206.85 44.5 L205.8 44.55 Q204.9 36.5 205.6 28.5 L205.65 25.6 205.05 3.7 Q204.7 2.6 205.15 1.9 L205.25 1.85 205.55 3.65 M224.8 250.4 L224.65 251.0 224.4 251.1 224.3 250.4 Q223.25 243.1 223.95 235.7 L224.1 235.6 224.9 236.4 224.9 236.55 Q225.9 243.65 224.8 250.4 M233.95 230.65 Q235.0 231.05 234.4 232.05 L234.25 232.25 Q233.8 232.45 233.5 232.1 L233.3 231.5 233.25 231.2 Q233.4 230.65 233.95 230.65 M233.05 245.9 L233.3 244.15 233.3 243.8 233.85 243.3 234.05 243.2 234.4 243.55 234.5 243.7 Q234.85 247.0 234.65 250.35 L234.6 250.6 Q234.15 251.1 233.65 250.6 233.7 248.25 233.1 246.05 L233.05 245.9 M187.2 25.55 Q187.45 28.75 186.6 31.75 185.3 30.1 185.4 27.25 L185.3 24.15 Q184.95 21.6 185.45 19.5 L185.6 19.4 Q186.9 22.1 187.2 25.55" fill="#a6a628" fill-rule="evenodd" stroke="none"/>
    <path d="M19.0 -5.3 L19.05 -10.5 19.25 -10.6 Q20.45 -8.4 20.65 -5.45 L20.7 -5.3 Q21.1 2.4 21.15 10.1 20.6 16.05 20.55 21.95 L20.55 24.45 20.45 31.55 Q19.9 31.8 19.8 31.25 19.3 24.75 19.55 18.35 L19.6 16.3 19.55 10.25 Q18.95 2.35 19.0 -5.3 M35.75 -5.3 L35.75 -6.1 35.85 -6.15 36.1 -5.3 Q36.9 -2.3 36.45 0.8 L36.35 0.9 Q35.75 -2.2 35.75 -5.3 M48.7 -5.3 Q48.05 -5.9 48.65 -6.4 L48.85 -6.6 Q49.5 -6.35 49.85 -5.75 L49.95 -5.6 49.95 -5.3 Q49.7 -1.35 49.9 2.7 L49.9 3.25 Q51.7 10.35 48.7 16.75 L47.65 19.3 47.05 21.35 Q46.7 21.45 46.5 21.1 L46.45 21.0 46.4 19.95 46.35 19.35 Q46.85 17.6 48.15 16.25 L48.0 15.95 47.85 15.65 48.2 13.85 48.35 13.3 48.6 13.0 48.75 12.7 Q48.2 4.1 48.7 -4.65 L48.8 -5.2 48.7 -5.3 M32.6 35.3 Q31.75 33.75 32.25 31.45 32.75 29.25 32.5 27.05 L32.75 26.5 Q32.75 26.4 32.9 26.45 L33.25 26.75 33.4 26.85 Q34.0 30.85 33.1 34.85 L32.9 35.55 32.85 35.75 32.6 35.3" fill="#b3b32d" fill-rule="evenodd" stroke="none"/>
    <path d="M59.15 -5.3 L64.45 -5.3 Q64.95 1.65 65.1 8.8 L64.95 9.4 Q63.85 17.6 65.05 25.95 L65.1 26.1 66.0 26.2 Q66.4 24.35 66.4 22.35 66.4 19.2 66.75 16.05 67.85 5.3 65.7 -5.3 L69.0 -5.3 68.85 1.4 Q67.6 23.2 70.25 43.1 L67.75 42.3 65.55 41.5 64.05 40.85 62.75 40.1 61.45 39.25 58.65 37.45 Q59.6 30.7 59.8 23.55 60.05 15.4 57.95 8.0 57.55 2.75 58.7 -2.6 L59.15 -5.3 M69.4 -5.3 L91.2 -5.3 91.3 -2.6 92.1 -1.35 93.1 0.6 Q93.75 0.25 93.8 -0.5 L93.65 -1.75 Q92.8 -2.65 92.75 -3.8 L92.7 -5.3 97.15 -5.3 Q97.1 0.65 96.55 6.45 L96.55 6.9 Q96.8 7.8 97.6 8.55 L97.6 9.35 Q97.25 14.6 97.75 19.65 L100.25 21.7 Q105.2 31.25 98.05 35.0 L97.8 34.55 Q97.3 30.75 95.3 27.6 L95.3 26.75 95.15 23.45 Q94.3 22.3 92.95 23.05 L92.7 23.5 Q92.25 27.75 94.35 31.3 91.2 38.65 91.65 45.75 L91.0 45.7 88.4 45.55 83.75 45.3 81.05 45.25 Q82.25 31.8 81.2 18.25 79.65 24.15 78.95 30.75 L78.55 35.2 Q78.15 40.2 78.6 44.95 L77.25 44.75 75.4 44.35 71.4 43.4 70.3 43.1 Q69.0 29.3 69.7 15.2 70.25 4.75 69.4 -5.3 M98.95 -5.3 L111.85 -5.3 Q110.65 -3.5 111.1 -0.9 111.55 1.65 111.2 4.2 110.1 12.65 111.6 21.2 111.7 21.7 112.25 21.45 112.4 20.1 112.2 18.65 111.7 14.35 112.05 10.1 112.55 4.35 112.55 -1.35 112.6 -3.6 112.1 -5.3 L117.1 -5.3 Q116.95 -1.6 117.45 2.25 115.15 7.85 114.25 13.8 L114.35 14.05 Q114.65 15.2 115.4 16.05 L115.45 16.95 Q116.95 28.35 117.45 39.9 L111.95 42.5 Q110.85 42.95 109.85 43.5 L108.25 44.1 107.25 44.35 106.4 44.6 104.05 45.25 98.9 45.6 97.1 45.8 94.45 45.9 93.2 45.8 Q93.4 39.15 95.3 33.75 95.5 36.65 98.05 38.15 100.05 38.05 101.3 36.35 108.15 27.05 99.7 17.85 L99.65 16.65 Q99.45 12.25 99.7 8.0 L99.6 7.55 Q99.75 0.95 98.95 -5.3 M319.6 -5.3 L325.9 -5.3 324.05 14.85 Q324.95 18.5 328.7 18.85 L332.55 23.2 Q333.25 28.9 331.8 34.45 329.95 41.4 332.3 45.3 L332.45 44.85 Q335.15 32.85 334.6 21.0 331.25 17.2 326.8 15.25 L326.7 14.85 Q328.05 4.7 326.95 -5.3 L335.0 -5.3 Q333.75 8.95 338.0 22.35 L338.3 22.55 Q337.6 8.9 336.15 -5.3 L340.7 -5.3 Q341.4 6.3 340.4 19.35 339.35 32.85 343.0 45.25 L337.5 46.15 336.8 46.25 333.3 46.4 331.45 46.45 329.8 46.45 325.15 46.05 321.45 45.5 320.65 45.4 321.3 41.05 Q323.3 40.1 324.4 38.3 331.2 26.9 321.2 18.85 320.05 12.05 320.5 5.05 320.85 -0.55 319.6 -5.3 M341.9 -5.3 L353.25 -5.3 Q351.2 11.1 351.5 28.3 351.65 37.25 355.15 42.1 L355.3 41.9 Q356.95 36.05 355.35 30.25 L355.4 29.7 Q355.8 12.25 355.1 -5.3 L357.45 -5.3 Q357.3 1.6 358.6 8.65 L359.0 8.35 Q360.0 1.25 359.4 -5.3 L369.6 -5.3 Q369.05 6.35 368.95 18.35 L369.05 18.9 Q368.75 28.05 369.2 37.25 365.6 39.0 361.75 40.0 L360.6 40.35 Q356.75 41.95 352.9 42.8 L351.75 43.15 349.35 43.95 345.4 44.85 344.3 45.05 343.85 45.15 Q343.35 41.5 343.35 37.9 343.4 16.4 341.9 -5.3 M110.8 34.45 Q110.3 34.7 110.3 35.45 L110.35 35.75 110.6 41.5 Q110.7 42.05 111.25 41.8 L111.3 41.65 Q112.2 37.75 110.8 34.45 M97.7 24.8 Q97.4 24.9 97.25 25.15 L97.45 28.15 Q97.85 30.7 99.95 30.65 L100.15 30.2 Q101.05 27.0 98.85 24.9 L98.6 24.85 98.0 24.7 97.7 24.8 M83.5 14.55 L83.75 20.0 Q84.6 31.55 83.45 42.95 83.7 43.55 84.2 43.3 84.85 40.5 85.15 37.5 86.25 25.8 83.6 14.55 L83.5 14.55 M240.3 420.05 L240.3 424.6 Q240.1 430.2 240.45 435.85 240.9 436.65 241.65 437.0 L241.9 436.95 242.25 436.55 242.25 436.45 241.75 435.35 242.3 422.95 Q242.5 419.0 241.25 415.75 240.15 417.45 240.3 420.05 M235.5 424.8 L234.65 429.3 Q233.85 433.8 234.6 437.3 L233.9 437.35 231.7 437.45 231.9 435.7 231.6 435.35 Q231.05 434.85 230.95 434.1 L230.85 434.1 229.7 435.45 229.7 435.85 229.35 437.7 222.8 438.8 Q226.95 434.7 231.4 430.9 233.4 429.15 234.3 427.25 L235.5 424.8 M237.45 420.65 Q241.15 412.55 244.3 404.0 243.4 412.4 243.25 420.9 243.2 426.95 243.5 433.05 L243.5 433.1 243.85 437.7 237.45 437.3 Q238.0 428.9 237.45 420.65" fill="#4d4d13" fill-rule="evenodd" stroke="none"/>
    <path d="M64.45 -5.3 L64.35 -6.75 64.6 -7.05 Q65.05 -7.0 65.3 -6.65 L65.45 -6.5 65.7 -5.3 Q67.85 5.3 66.75 16.05 66.4 19.2 66.4 22.35 66.4 24.35 66.0 26.2 L65.1 26.1 65.05 25.95 Q63.85 17.6 64.95 9.4 L65.1 8.8 Q64.95 1.65 64.45 -5.3 M111.85 -5.3 L112.0 -5.55 112.1 -5.3 Q112.6 -3.6 112.55 -1.35 112.55 4.35 112.05 10.1 111.7 14.35 112.2 18.65 112.4 20.1 112.25 21.45 111.7 21.7 111.6 21.2 110.1 12.65 111.2 4.2 111.55 1.65 111.1 -0.9 110.65 -3.5 111.85 -5.3 M335.0 -5.3 L335.55 -10.2 335.65 -10.2 336.15 -5.3 Q337.6 8.9 338.3 22.55 L338.0 22.35 Q333.75 8.95 335.0 -5.3 M353.25 -5.3 L354.6 -14.7 355.1 -5.3 Q355.8 12.25 355.4 29.7 L355.35 30.25 Q356.95 36.05 355.3 41.9 L355.15 42.1 Q351.65 37.25 351.5 28.3 351.2 11.1 353.25 -5.3 M110.8 34.45 Q112.2 37.75 111.3 41.65 L111.25 41.8 Q110.7 42.05 110.6 41.5 L110.35 35.75 110.3 35.45 Q110.3 34.7 110.8 34.45 M83.5 14.55 L83.6 14.55 Q86.25 25.8 85.15 37.5 84.85 40.5 84.2 43.3 83.7 43.55 83.45 42.95 84.6 31.55 83.75 20.0 L83.5 14.55 M97.7 24.8 L98.0 24.7 98.6 24.85 98.85 24.9 Q101.05 27.0 100.15 30.2 L99.95 30.65 Q97.85 30.7 97.45 28.15 L97.25 25.15 Q97.4 24.9 97.7 24.8 M240.3 420.05 Q240.15 417.45 241.25 415.75 242.5 419.0 242.3 422.95 L241.75 435.35 242.25 436.45 242.25 436.55 241.9 436.95 241.65 437.0 Q240.9 436.65 240.45 435.85 240.1 430.2 240.3 424.6 L240.3 420.05" fill="#878723" fill-rule="evenodd" stroke="none"/>
    <path d="M132.45 -5.3 Q131.95 -5.9 132.45 -6.4 L132.65 -6.55 133.6 -5.3 Q134.55 -3.7 134.75 -1.6 L135.5 7.4 135.7 8.6 Q136.25 11.3 135.1 13.65 134.45 13.6 134.2 12.85 L134.15 12.7 133.65 4.1 133.45 0.75 133.0 -3.6 132.7 -5.05 132.45 -5.3 M171.35 -5.3 L171.3 -5.4 Q171.15 -6.6 171.3 -7.75 171.55 -8.1 172.0 -8.15 L172.5 -7.9 172.6 -7.75 173.05 -5.3 Q173.75 -0.85 173.7 3.6 173.6 11.85 173.85 19.9 L174.1 21.85 174.2 22.3 174.1 22.55 173.9 22.85 174.05 23.75 174.0 24.2 Q173.75 24.0 173.75 23.45 L173.7 23.05 173.45 22.7 173.35 22.6 Q171.25 11.35 171.6 -0.2 L171.35 -5.3 M126.35 14.15 L126.45 14.3 Q128.65 20.9 127.65 27.8 127.5 29.0 127.7 30.25 127.95 31.5 127.7 32.6 127.2 33.15 126.7 32.6 125.3 27.05 126.15 21.35 126.35 20.0 126.0 18.65 125.4 16.5 125.4 14.3 L125.85 13.85 126.0 13.85 126.35 14.15" fill="#a08d21" fill-rule="evenodd" stroke="none"/>
    <path d="M507.8 13.15 L507.8 15.75 506.35 17.55 503.3 21.25 Q503.85 18.95 503.7 16.9 L504.2 16.3 505.3 15.35 507.8 13.15 M424.0 34.2 L424.2 39.1 418.6 36.5 418.5 32.7 419.1 33.05 Q420.15 33.8 421.2 33.9 L422.35 34.15 422.8 34.25 424.0 34.2 M417.05 32.1 L417.95 36.15 Q410.65 32.1 404.85 25.8 L406.45 25.4 406.85 24.95 407.4 25.65 Q408.0 26.5 408.9 27.15 L410.7 28.45 413.05 29.85 Q413.55 31.0 414.4 31.85 L414.5 30.7 414.5 30.6 414.6 30.65 415.4 31.1 417.05 32.1 M390.15 23.3 Q388.1 26.65 385.4 29.6 L384.0 31.1 384.5 28.45 386.1 27.1 386.55 26.6 387.15 25.85 Q388.45 24.55 390.15 23.3 M382.75 29.65 L383.1 32.0 376.55 38.05 375.8 38.7 375.75 37.15 375.6 34.6 378.1 33.1 378.65 32.7 378.85 33.05 379.35 32.65 379.35 32.25 380.9 31.0 381.7 30.45 382.35 29.95 382.75 29.65 M487.6 31.95 L491.05 29.3 491.05 29.25 491.35 29.7 491.55 28.8 493.9 26.45 493.85 29.85 486.1 34.55 483.15 35.95 483.35 33.65 483.65 33.55 486.8 32.4 487.55 33.6 487.6 33.2 487.6 31.95 M236.1 41.9 L236.4 41.85 238.7 41.2 241.05 40.6 242.0 40.35 242.9 40.05 246.05 39.2 245.85 43.4 245.85 43.45 Q237.55 47.05 228.7 49.35 220.25 51.6 212.1 52.3 L212.4 46.5 216.15 46.35 222.65 45.4 225.45 44.85 227.05 44.4 230.8 43.4 232.0 43.15 233.1 42.8 234.1 42.45 235.85 41.95 236.1 42.05 236.1 41.9 M192.0 46.65 L196.05 46.75 204.7 46.7 206.3 46.65 210.8 46.55 210.85 46.55 Q211.1 49.5 211.75 52.35 L211.45 52.4 191.35 51.65 192.0 46.65 M222.05 235.6 L222.3 229.45 222.2 229.05 222.2 228.3 Q226.1 222.2 226.5 214.85 L228.9 214.1 Q230.6 217.3 231.45 221.4 237.5 223.95 238.1 230.6 L237.7 232.0 237.55 231.8 236.65 230.4 Q235.95 229.35 234.8 228.75 L233.2 227.4 Q232.05 225.9 230.35 225.8 L230.25 225.8 Q230.45 223.0 230.25 220.4 L229.9 220.65 Q228.15 224.35 227.25 228.15 L227.15 228.35 227.1 228.65 227.1 228.7 Q226.4 231.4 224.5 233.45 L223.5 234.3 222.5 235.15 222.05 235.6 M214.2 244.1 L215.2 241.75 Q215.95 240.1 217.0 238.6 L217.0 237.9 217.0 234.45 217.65 233.8 220.05 231.25 Q219.7 233.6 219.6 236.3 L219.55 238.05 218.75 238.85 Q216.35 241.35 214.3 244.15 L214.2 244.1 M183.2 45.75 L185.8 46.15 189.75 46.6 190.5 51.5 182.95 49.8 Q183.5 48.9 183.4 47.85 183.15 47.25 183.2 46.7 L183.2 45.75 M49.8 32.4 L52.85 34.35 54.2 35.15 54.7 35.4 54.85 37.15 49.8 32.4 M29.2 38.1 L29.75 37.75 29.85 37.85 29.1 38.45 29.2 38.1 M14.75 43.55 L20.4 41.9 22.5 41.2 Q25.65 40.2 28.45 38.55 L28.65 38.85 Q22.1 44.1 14.25 47.4 L14.75 43.55 M250.8 385.8 L251.05 385.8 Q250.3 395.6 252.65 404.65 L252.55 405.45 251.4 409.55 Q250.6 410.35 249.95 411.3 L248.9 412.85 248.3 413.75 Q247.45 406.05 246.25 398.45 L247.8 393.8 247.75 392.1 247.55 390.35 Q250.25 388.75 250.8 385.8 M249.4 426.05 L250.1 426.85 250.2 427.7 250.85 430.15 249.7 430.4 249.55 427.75 249.4 426.05 M495.1 25.15 L495.4 24.8 496.35 23.9 499.45 21.1 501.1 19.55 501.25 21.1 Q501.5 22.35 502.5 22.15 498.75 26.2 494.35 29.45 L495.1 25.15" fill="#616018" fill-rule="evenodd" stroke="none"/>
    <path d="M-5.35 452.7 L-5.35 452.6 -5.0 452.6 -5.35 452.7 M-5.35 443.5 L-5.35 215.25 1.5 217.5 1.55 217.7 2.5 218.75 4.25 220.0 7.35 219.65 7.15 224.6 Q6.6 238.25 7.5 251.2 L8.1 262.2 8.65 275.05 Q8.95 279.7 8.3 284.25 L7.85 289.7 7.35 308.05 Q7.0 325.95 7.0 343.8 L7.1 378.65 Q7.15 395.65 6.4 412.55 6.1 419.9 6.25 427.25 L6.3 440.75 6.3 441.1 5.55 441.1 Q2.5 442.7 -0.9 443.4 L-5.35 443.5 M-5.35 169.95 L-5.35 102.75 Q-1.8 102.05 1.7 100.05 L2.4 99.65 2.65 100.0 Q0.6 104.4 2.45 109.05 5.35 116.4 6.35 124.6 L6.85 127.4 Q8.0 132.3 8.6 137.5 9.65 146.95 9.7 156.75 9.75 164.55 10.2 172.3 L10.3 173.3 Q10.7 177.85 10.3 182.4 L10.15 184.3 9.9 184.45 Q7.9 181.65 7.0 178.3 L5.4 176.75 3.8 174.85 1.35 174.35 1.35 173.65 1.05 173.35 -0.7 172.55 -1.25 172.95 -1.45 173.25 -2.05 172.7 -5.35 169.95 M-5.35 88.45 L-5.35 76.5 -0.45 76.3 2.9 75.7 2.15 76.8 Q0.85 79.2 1.7 82.4 L2.15 84.35 2.45 86.1 -2.15 87.65 -5.35 88.45 M-5.35 63.9 L-5.35 51.55 -1.9 52.4 -1.15 52.85 7.15 53.15 7.1 54.95 6.8 63.2 Q2.3 64.45 -2.4 64.15 L-5.05 63.9 -5.35 63.9 M367.5 47.8 Q383.85 37.75 395.3 22.1 L394.95 23.3 394.95 23.75 395.05 24.4 Q394.85 25.55 394.95 26.6 396.65 28.5 399.25 27.7 400.25 26.7 400.6 25.4 L400.6 25.3 Q412.7 40.5 432.2 44.55 440.7 46.3 449.0 46.35 L448.75 48.5 448.55 54.05 448.65 58.65 449.0 65.5 447.25 65.6 444.9 65.55 436.75 64.55 Q432.75 63.6 429.1 61.75 426.9 60.65 424.95 59.1 L423.65 58.15 420.8 55.95 420.75 56.0 420.75 55.9 420.85 55.5 Q421.05 54.9 420.85 54.3 420.35 53.2 419.2 53.75 L418.85 54.3 Q418.45 55.3 418.35 56.35 421.05 61.55 424.75 66.35 427.25 69.6 430.3 72.25 440.8 81.15 452.75 79.9 L453.55 81.9 Q454.05 83.4 453.9 85.25 L453.9 85.5 449.8 85.4 448.2 85.4 443.05 84.75 440.7 84.15 438.2 83.5 434.65 82.3 431.95 81.15 429.75 79.95 427.5 78.65 425.6 77.35 421.95 74.5 420.4 73.2 Q417.3 70.55 414.9 67.3 L413.8 65.65 412.85 64.15 Q412.0 63.15 411.45 61.95 L409.6 58.05 408.9 58.35 Q406.85 53.6 405.2 48.7 L404.95 48.05 403.45 43.95 402.95 42.8 402.2 41.15 Q400.6 41.85 401.1 44.05 404.35 57.6 410.45 70.4 416.55 83.2 427.25 92.4 442.05 105.2 457.75 101.0 L458.0 103.55 Q458.05 111.35 455.9 118.4 455.4 120.1 455.25 121.85 453.55 139.15 454.0 156.75 L454.1 161.35 454.75 196.2 Q454.95 212.75 454.0 229.25 L453.3 243.85 453.05 252.1 453.2 262.2 Q453.6 272.3 453.6 282.4 L453.5 317.65 Q445.85 318.45 439.1 320.95 436.6 312.85 430.65 307.1 L430.6 307.3 Q426.45 310.25 431.1 312.15 L431.65 313.5 435.65 322.35 433.1 323.55 432.5 322.0 432.5 322.25 432.45 323.85 432.05 324.1 432.45 324.1 432.4 326.9 Q429.1 326.1 426.05 324.3 L425.65 324.5 Q426.5 330.85 432.5 331.75 433.15 349.25 438.95 366.4 433.3 372.4 432.3 380.05 433.3 380.15 433.9 379.7 L439.25 374.85 441.2 372.7 441.65 373.8 442.05 372.7 442.15 371.55 442.45 371.1 444.9 371.05 Q442.65 379.65 447.15 386.45 L447.3 386.2 Q448.6 378.0 448.5 370.85 L454.9 370.3 454.85 379.6 Q454.5 396.55 454.5 413.5 454.5 430.0 454.85 446.5 L454.9 450.65 455.0 453.95 452.7 453.45 449.5 452.8 449.25 452.75 Q443.3 451.85 438.7 448.65 L435.95 446.65 431.2 442.95 Q425.9 438.75 422.5 433.95 L421.05 432.35 Q417.65 429.4 416.15 424.75 L415.2 422.2 413.4 417.3 Q409.85 377.85 410.85 337.05 412.55 268.9 406.9 201.9 405.9 203.6 405.2 205.6 L404.45 200.95 Q403.8 197.55 403.55 194.1 402.25 178.9 402.6 163.35 402.75 157.0 401.45 151.0 400.6 146.9 400.1 142.6 399.05 134.4 398.4 125.65 L397.7 116.5 397.6 114.9 397.0 108.8 396.7 106.45 Q395.95 102.7 395.45 98.8 L395.2 97.95 395.15 97.95 395.15 97.7 394.95 93.0 394.35 93.35 394.3 93.8 Q391.5 143.3 389.25 193.1 385.95 218.0 385.7 243.55 L384.45 377.85 Q384.4 385.15 386.5 389.8 386.25 403.5 384.1 416.9 383.25 422.4 381.65 427.65 L380.4 430.8 379.45 432.65 Q377.7 435.75 375.55 438.7 L375.5 438.25 375.45 434.0 374.45 404.35 372.9 371.3 Q372.0 354.7 370.05 338.3 L369.45 331.9 367.6 297.05 366.2 262.2 Q365.65 245.7 365.6 229.2 365.55 211.3 365.95 193.4 L366.0 186.1 Q366.1 174.5 367.6 163.2 368.6 155.5 368.7 147.6 L368.95 142.95 369.65 136.65 Q370.8 128.05 370.15 119.15 L369.3 107.2 368.8 104.6 Q368.0 102.15 367.65 99.55 375.2 93.85 381.15 86.45 384.6 82.05 387.5 77.15 L387.45 76.85 Q387.3 76.25 386.75 76.0 386.05 76.0 385.85 76.3 L386.2 75.0 386.45 74.05 387.05 72.2 387.5 71.1 387.95 70.05 389.0 67.5 Q389.65 65.7 389.95 63.8 L390.25 62.65 390.9 60.1 391.6 55.9 391.95 53.3 392.15 52.2 392.75 50.05 393.65 46.35 391.2 51.5 389.8 53.75 388.4 55.7 383.35 61.7 382.1 63.2 Q379.65 66.45 376.85 69.35 L375.6 70.45 373.15 72.25 367.45 76.05 367.45 75.15 367.05 66.0 366.8 63.15 366.8 63.05 Q378.05 54.4 386.3 42.25 388.75 38.7 387.65 35.95 L381.6 43.4 381.3 43.7 381.25 43.65 377.55 46.55 373.8 49.3 371.1 51.3 Q369.35 52.6 367.35 53.6 L366.95 53.8 367.05 53.1 367.5 47.8 M291.95 32.05 L291.85 33.3 Q291.1 32.8 290.15 32.55 L290.0 32.3 289.9 32.1 Q288.85 28.95 286.95 26.7 L286.95 26.4 287.1 25.45 290.7 30.4 291.95 32.05 M291.5 35.55 Q290.6 40.15 290.15 44.85 289.9 47.25 290.15 49.45 L290.2 49.6 Q290.4 51.5 291.0 53.25 L291.3 54.95 291.35 55.5 Q289.3 50.25 287.65 44.85 L286.1 39.7 286.2 39.4 Q286.8 38.0 285.4 37.5 284.45 37.6 284.55 38.6 285.7 51.1 290.65 63.0 L292.4 66.95 292.2 68.7 Q291.7 81.8 293.35 94.35 L293.85 98.1 Q294.55 102.6 294.85 107.2 L295.8 124.65 296.1 127.4 296.35 130.15 296.3 133.8 Q295.85 151.3 296.5 168.7 296.85 177.95 296.2 187.0 295.9 191.55 295.85 196.2 295.8 214.15 297.05 231.9 L297.4 236.55 299.55 271.35 Q300.65 289.2 301.1 307.1 L301.7 327.3 301.85 332.8 Q301.9 350.35 303.55 367.6 L304.15 375.9 305.2 390.6 Q306.5 406.75 306.5 423.3 L304.05 419.4 Q302.3 416.6 301.35 413.05 L300.35 409.3 302.0 414.35 298.9 363.8 Q294.85 296.75 291.15 229.6 L291.15 228.75 Q292.35 178.45 291.45 128.65 290.75 128.45 290.7 129.0 L290.5 132.35 290.15 124.95 290.05 123.35 Q289.75 116.65 288.8 110.35 288.2 106.65 287.9 102.65 L287.5 99.55 Q284.55 82.6 283.75 65.0 L283.55 65.0 283.55 84.75 283.0 84.85 282.6 90.85 Q281.9 100.95 282.1 111.25 283.3 178.95 274.45 244.8 266.8 301.95 263.55 360.1 262.05 364.4 258.8 367.55 256.1 370.15 253.65 371.7 L252.75 372.05 Q251.3 372.35 250.5 373.15 244.8 378.55 239.3 386.4 L237.95 388.35 Q235.4 392.25 233.9 396.3 231.6 402.4 228.45 407.1 224.75 412.5 221.8 417.55 L220.6 419.3 219.5 420.55 218.7 408.9 217.95 395.15 Q217.45 377.7 216.45 360.25 215.45 342.45 214.8 324.55 L214.6 317.2 Q214.25 303.5 214.25 289.7 214.25 282.85 214.55 275.95 215.15 264.4 215.25 252.8 L217.45 254.65 221.0 254.8 Q221.45 255.35 222.05 255.8 L222.15 255.4 222.15 254.85 238.3 256.5 Q239.45 255.65 239.95 254.45 242.0 249.5 240.6 244.1 240.4 243.75 240.1 243.7 238.75 243.4 239.0 242.25 239.1 240.35 240.6 238.85 L241.3 235.45 Q242.45 229.9 240.85 224.35 238.15 220.6 234.4 218.2 L234.25 217.5 Q234.0 214.45 232.9 211.9 236.65 209.1 238.55 204.2 L238.1 204.3 230.65 208.35 228.35 206.05 Q232.35 203.55 230.75 200.05 L230.7 200.2 Q227.85 201.25 225.2 202.95 L222.95 198.7 Q221.8 198.4 221.55 199.45 220.85 202.4 221.95 205.05 218.95 204.25 216.6 205.1 L216.5 204.45 216.55 200.75 216.45 197.95 215.75 184.25 215.55 178.75 Q215.15 162.7 215.25 146.65 215.3 136.45 216.4 126.5 L216.65 124.6 Q217.0 121.0 216.6 117.4 L216.35 116.3 215.75 114.35 Q220.35 113.0 224.6 110.5 244.4 98.8 258.8 81.05 273.35 63.1 279.15 40.95 279.8 38.3 280.85 35.9 282.3 32.35 281.6 29.55 L283.45 30.2 284.25 29.85 286.15 28.6 Q286.4 32.85 290.05 35.55 L291.5 35.55 M211.35 54.85 Q228.6 53.9 245.15 47.5 267.35 38.9 281.05 19.85 L282.35 18.95 284.2 21.5 283.8 21.55 Q282.95 20.7 281.5 20.55 L281.35 20.6 Q280.55 21.2 279.9 21.95 277.65 24.1 277.75 25.85 273.15 30.75 269.5 36.9 L269.25 37.35 Q269.05 38.05 269.5 38.6 272.05 38.5 273.9 36.3 277.15 32.4 277.85 28.85 L278.45 27.55 Q279.05 28.25 280.05 28.85 277.9 32.45 276.7 37.15 L275.45 41.9 275.15 42.8 275.0 42.75 270.4 50.8 267.55 54.7 266.55 55.9 266.25 56.3 264.95 58.0 262.6 61.1 256.95 67.9 256.0 69.1 253.95 71.25 Q252.05 72.75 250.9 74.75 L250.2 75.7 246.7 79.7 244.25 81.9 Q241.35 83.95 238.8 86.4 L237.6 87.3 229.45 92.1 227.85 92.9 219.2 96.85 216.75 97.7 214.7 98.3 215.15 88.9 Q215.15 87.95 214.75 87.4 L213.35 85.5 Q228.1 82.65 240.65 73.5 L240.8 73.2 240.7 72.55 241.05 72.35 243.0 70.9 245.85 68.45 246.7 67.6 Q249.05 65.45 250.75 62.65 L251.55 61.5 Q253.2 59.35 254.45 57.0 L254.05 56.75 247.85 62.15 Q244.4 65.0 240.3 66.75 235.85 68.65 231.05 69.85 L226.2 70.8 217.0 71.5 210.6 71.3 Q210.6 65.85 211.0 60.5 L211.35 54.85 M148.85 47.7 L145.5 42.8 145.1 42.2 144.4 41.2 144.15 41.35 Q143.55 46.45 147.3 51.3 L148.45 52.8 148.6 54.0 149.0 55.05 Q153.15 62.6 151.4 72.45 L150.6 76.9 150.35 77.95 149.8 79.65 149.55 80.65 Q149.15 87.05 149.05 93.45 148.65 111.25 150.65 128.35 151.0 131.1 150.95 133.8 150.9 142.65 151.5 151.3 151.9 156.3 151.9 161.35 L151.9 197.1 151.6 232.85 Q151.3 250.0 152.5 266.85 L153.0 275.95 154.25 295.25 154.85 305.3 Q155.6 322.25 156.65 339.25 L157.3 348.4 Q158.55 363.9 158.7 379.6 L158.9 391.5 159.5 426.35 159.85 448.95 159.6 448.75 Q157.8 447.4 156.55 445.55 153.9 441.6 152.1 437.4 154.45 421.2 152.5 404.6 146.7 355.15 148.4 306.25 150.65 238.6 150.05 171.15 149.15 176.25 148.4 181.45 148.05 176.95 147.3 172.55 L143.65 153.35 143.1 150.25 Q142.5 146.05 142.15 141.8 L141.15 125.65 140.85 120.3 140.3 108.8 Q139.6 96.55 139.45 84.15 L139.55 81.15 Q139.7 78.9 138.3 78.8 137.65 81.75 137.6 84.95 137.55 87.3 137.15 89.5 136.85 91.4 136.85 93.4 L136.45 101.85 136.1 108.0 136.25 108.05 136.1 109.05 Q133.75 124.45 134.15 141.8 135.85 209.55 126.7 276.0 119.6 327.1 121.75 378.5 121.2 381.4 121.1 384.65 L120.95 387.75 Q120.6 395.75 117.7 402.4 114.25 410.15 112.05 417.7 L111.3 419.2 Q106.0 426.5 101.5 433.9 L100.45 435.2 93.7 442.25 Q92.95 443.1 92.05 443.45 L83.8 447.0 Q81.35 448.15 78.3 448.0 L78.55 394.25 78.55 340.15 Q78.55 337.85 79.0 335.65 80.0 330.65 79.75 325.45 L79.1 309.0 79.0 306.2 79.1 304.35 79.45 296.1 79.45 282.4 Q79.45 257.15 79.85 231.95 L79.95 227.35 Q80.35 206.25 80.1 185.15 80.0 177.8 79.05 170.55 77.4 158.2 76.05 145.7 75.8 143.0 75.15 140.45 72.65 130.95 72.9 121.0 73.0 116.4 73.9 111.35 L75.85 111.1 Q82.35 114.1 90.05 112.3 L90.3 112.0 90.5 111.5 90.45 111.15 90.1 110.9 Q87.05 111.25 84.15 110.9 L81.1 109.3 Q78.75 108.05 77.25 105.85 L76.2 104.45 74.75 102.7 74.55 100.9 74.55 100.8 Q77.7 101.8 81.35 101.9 L84.0 102.05 87.15 102.1 88.15 102.0 89.6 101.85 92.85 101.15 92.15 101.85 Q96.8 101.4 101.8 99.15 120.95 90.35 127.8 70.35 L133.4 58.45 Q135.4 54.1 133.65 51.1 L133.65 51.2 Q130.1 57.0 127.45 63.55 L124.8 67.5 123.95 68.65 123.5 69.3 Q121.1 73.6 117.75 77.2 L117.1 77.95 Q114.15 81.8 110.4 84.9 L107.8 86.95 Q105.45 88.7 102.65 89.7 L100.8 90.4 97.35 91.25 92.5 92.1 90.75 92.35 89.1 92.55 79.65 92.25 77.25 91.9 75.7 91.65 Q73.95 91.4 72.3 90.75 L72.3 87.05 Q72.5 83.25 72.95 79.55 76.2 81.15 79.6 81.75 83.55 83.6 88.7 83.25 92.2 83.1 95.45 81.8 117.0 73.15 128.9 52.8 L131.3 48.75 Q133.75 44.7 132.1 41.9 131.55 41.95 131.25 42.55 L129.45 46.15 128.45 48.15 128.05 47.95 Q125.15 51.7 121.7 54.95 L120.55 55.9 115.75 59.45 114.55 60.15 113.05 61.15 Q111.7 62.2 110.0 62.65 L108.55 63.2 104.45 64.65 103.2 65.05 Q99.85 66.2 96.4 66.8 L95.2 67.05 85.7 69.2 84.5 69.35 79.6 68.8 78.45 68.55 78.5 67.8 78.65 63.2 78.8 56.0 Q81.55 56.95 84.4 57.1 92.1 59.55 100.65 56.15 122.3 47.5 136.0 28.5 L137.1 26.8 137.2 27.0 137.2 27.05 Q137.1 27.45 137.4 27.75 L137.55 27.9 137.45 28.15 137.35 28.6 Q137.1 28.7 137.3 29.05 137.2 29.7 137.25 30.3 L137.0 29.95 136.85 29.95 136.6 30.1 136.55 30.8 136.5 30.85 Q135.65 32.0 135.75 33.65 138.35 37.35 142.75 36.5 L143.15 35.8 Q143.9 34.6 144.0 33.35 142.75 31.95 141.65 33.8 139.8 34.15 138.55 32.9 L139.05 32.85 139.15 32.7 142.65 32.4 144.15 31.3 144.3 30.9 Q144.5 30.25 144.15 29.65 L143.5 29.5 141.85 29.55 142.5 28.7 142.5 28.65 142.3 28.3 Q141.8 28.4 141.4 28.8 L140.75 29.25 139.9 28.75 141.55 28.0 141.7 27.75 142.35 26.55 Q145.7 31.1 150.05 34.9 L151.9 36.65 Q151.05 41.7 149.4 46.4 L149.0 47.55 148.85 47.7 M216.4 230.4 L216.45 224.6 216.25 215.2 216.4 207.5 Q218.5 210.15 223.65 208.3 L224.1 208.3 224.1 211.1 224.05 211.75 217.0 215.2 Q217.35 215.55 217.7 215.55 L223.45 215.35 Q221.75 223.75 216.4 230.4" fill="#b7492f" fill-rule="evenodd" stroke="none"/>
    <path d="M403.6 20.35 Q405.5 20.5 403.6 18.5 L403.1 18.75 Q402.25 19.35 402.95 20.2 L403.6 20.35 M399.3 19.6 L399.3 19.75 399.3 19.6 M399.05 21.95 L398.9 22.1 398.55 22.45 398.5 22.55 397.9 23.55 397.15 25.25 396.75 24.05 397.4 22.15 397.95 21.8 398.7 21.35 399.05 21.95 M401.4 19.9 L401.5 19.5 402.5 17.4 Q406.4 18.5 405.55 22.1 404.95 23.65 403.05 22.65 402.0 21.4 401.4 19.9 M281.65 23.7 Q281.6 24.25 281.9 24.9 282.45 26.05 283.1 25.2 L283.1 25.15 282.75 24.25 283.75 24.3 283.7 25.15 Q283.75 26.05 283.35 26.75 L282.25 26.8 282.15 26.75 281.3 26.5 281.25 26.3 280.8 24.15 281.4 23.6 281.65 23.7 M280.05 24.95 L280.15 25.95 280.15 26.1 279.65 25.65 279.8 25.3 280.05 24.95 M133.55 19.45 L133.4 19.0 133.4 18.95 Q134.9 15.1 139.05 14.8 L139.7 14.9 139.85 14.95 139.7 15.15 139.7 15.35 139.75 15.4 Q140.6 15.55 141.5 15.95 143.3 16.75 144.1 18.5 L144.3 19.5 Q141.05 21.95 136.85 20.85 L136.75 20.75 Q135.45 20.0 134.55 18.85 L134.25 18.85 133.85 19.05 133.55 19.45 M136.0 18.25 L136.1 18.5 Q141.65 21.25 142.2 17.3 138.2 16.15 136.0 18.25 M139.8 25.75 L138.5 24.15 138.85 24.15 138.8 24.4 139.8 25.75 M37.45 27.3 L37.3 26.75 Q37.3 26.15 37.7 25.65 L39.65 23.45 41.0 23.2 41.65 24.4 41.7 25.65 41.3 26.5 41.15 26.9 39.9 27.6 38.55 28.35 38.3 28.35 38.05 28.15 37.45 27.3 M38.35 27.25 L38.4 27.3 40.35 27.25 40.5 27.05 40.5 26.95 40.5 26.9 Q40.4 26.55 40.05 26.55 39.15 26.6 38.4 27.0 38.3 27.1 38.35 27.25 M41.55 30.25 L41.8 30.5 Q42.1 31.65 42.95 32.35 L42.15 32.35 40.9 30.55 41.55 30.25" fill="#9a9a9a" fill-rule="evenodd" stroke="none"/>
    <path d="M400.35 16.3 L399.75 17.7 399.5 17.15 399.45 17.15 400.35 16.3 M135.35 22.55 Q132.55 21.35 132.65 18.6 L132.85 17.85 Q134.65 14.4 138.55 13.9 140.7 13.8 142.25 15.1 L142.35 15.3 Q144.9 16.65 145.05 19.1 L144.95 18.95 144.3 19.5 144.1 18.5 Q143.3 16.75 141.5 15.95 140.6 15.55 139.75 15.4 L139.7 15.35 139.7 15.15 139.85 14.95 139.7 14.9 139.05 14.8 Q134.9 15.1 133.4 18.95 L133.4 19.0 133.55 19.45 133.45 19.65 Q134.35 21.5 135.5 22.6 L135.35 22.55 M399.3 19.6 L399.3 19.75 399.4 20.95 399.5 21.15 399.55 21.4 399.05 21.95 398.7 21.35 397.95 21.8 397.4 22.15 397.95 20.6 398.4 20.3 398.35 20.15 398.4 20.1 399.35 19.25 399.3 19.6 M398.9 22.1 L397.9 23.55 398.5 22.55 398.55 22.45 398.9 22.1 M278.45 27.55 L277.85 28.85 278.05 26.95 278.45 27.55 M279.9 21.95 Q280.55 21.2 281.35 20.6 L281.5 20.55 Q282.95 20.7 283.8 21.55 L282.65 21.7 282.35 21.45 281.25 20.75 279.9 21.95 M282.75 24.25 L283.1 25.15 283.1 25.2 Q282.45 26.05 281.9 24.9 281.6 24.25 281.65 23.7 L281.75 23.7 Q282.2 24.15 282.75 24.25 M280.8 24.15 L281.25 26.3 281.3 26.5 282.15 26.75 282.25 26.8 Q281.1 26.75 280.15 26.1 L280.15 25.95 280.05 24.95 280.8 24.15 M290.0 32.3 L290.15 32.55 290.05 32.55 290.0 32.3 M139.8 25.75 L138.8 24.4 138.85 24.15 139.75 24.15 140.45 24.95 140.15 25.8 139.8 25.8 139.8 25.75 M137.1 23.7 L136.7 24.65 136.6 23.5 137.1 23.7 M137.55 27.9 L137.4 27.75 Q137.1 27.45 137.2 27.05 L137.2 27.0 137.7 27.6 137.55 27.9 M140.75 29.25 L141.4 28.8 Q141.8 28.4 142.3 28.3 L142.5 28.65 142.5 28.7 141.85 29.55 140.75 29.25 M139.15 32.7 L139.05 32.85 138.55 32.9 138.1 32.4 138.1 32.3 139.15 32.7 M136.55 30.8 L136.6 30.1 136.85 29.95 137.0 29.95 137.25 30.3 137.25 30.55 137.0 30.5 Q136.75 30.6 136.55 30.8 M45.55 33.3 L45.6 33.5 45.6 33.55 45.7 34.05 44.85 34.4 45.0 33.8 45.55 33.3 M35.95 30.85 L35.6 30.5 35.6 30.45 35.65 30.25 35.7 30.2 35.8 30.35 Q37.2 30.95 38.6 31.0 L38.35 31.05 36.6 31.1 35.95 30.85 M37.45 27.3 L38.05 28.15 38.3 28.35 38.55 28.35 38.4 28.4 Q37.65 28.45 37.55 27.6 L37.45 27.3 M38.35 27.25 Q38.3 27.1 38.4 27.0 39.15 26.6 40.05 26.55 40.4 26.55 40.5 26.9 L40.5 26.95 40.5 27.05 40.35 27.25 38.4 27.3 38.35 27.25 M44.4 31.1 L44.45 31.05 44.5 31.05 44.6 31.1 44.7 31.15 44.75 31.2 44.5 31.4 44.4 31.1 M41.55 30.25 L41.75 30.15 41.8 30.5 41.55 30.25" fill="#062d35" fill-rule="evenodd" stroke="none"/>
    <path d="M399.4 20.95 L399.5 21.15 399.4 20.95 M49.65 83.9 L49.75 83.6 49.9 83.75 49.65 83.9" fill="#0d596c" fill-rule="evenodd" stroke="none"/>
    <path d="M-5.35 452.6 L-5.35 443.5 -0.9 443.4 Q2.5 442.7 5.55 441.1 L6.3 441.1 5.75 454.8 0.55 453.05 -0.05 452.95 -0.4 452.95 -5.0 452.6 -5.35 452.6 M-5.35 99.5 L-5.35 88.45 -2.15 87.65 2.45 86.1 3.35 92.55 3.5 95.55 3.0 95.85 Q-1.05 98.45 -5.35 99.5 M-5.35 73.4 L-5.35 63.9 -5.05 63.9 -2.4 64.15 Q2.3 64.45 6.8 63.2 L6.6 65.9 6.35 67.85 Q5.9 70.3 5.05 72.4 0.1 73.75 -5.35 73.4 M366.95 53.8 L367.35 53.6 Q369.35 52.6 371.1 51.3 L373.8 49.3 377.55 46.55 381.25 43.65 381.3 43.7 376.3 50.0 Q373.25 53.85 369.8 57.45 L366.7 60.45 Q366.6 57.7 366.85 55.0 L366.95 53.8 M367.45 76.05 L373.15 72.25 375.6 70.45 376.85 69.35 Q379.65 66.45 382.1 63.2 L383.35 61.7 388.4 55.7 389.8 53.75 391.2 51.5 393.65 46.35 392.75 50.05 392.15 52.2 391.95 53.3 391.6 55.9 390.9 60.1 390.25 62.65 389.95 63.8 Q389.65 65.7 389.0 67.5 L387.95 70.05 387.5 71.1 387.05 72.2 386.45 74.05 386.2 75.0 385.85 76.3 Q377.9 87.1 367.95 96.0 L367.85 95.85 Q368.95 95.0 368.7 92.5 L367.9 84.35 Q367.5 80.3 367.45 76.05 M375.55 438.7 Q377.7 435.75 379.45 432.65 L380.4 430.8 381.65 427.65 Q383.25 422.4 384.1 416.9 386.25 403.5 386.5 389.8 387.55 392.15 389.25 393.8 390.75 373.9 390.0 353.7 387.65 290.15 392.55 227.05 397.7 161.6 395.15 97.95 L395.2 97.95 395.45 98.8 Q395.95 102.7 396.7 106.45 L397.0 108.8 397.6 114.9 397.7 116.5 398.4 125.65 Q399.05 134.4 400.1 142.6 400.6 146.9 401.45 151.0 402.75 157.0 402.6 163.35 402.25 178.9 403.55 194.1 403.8 197.55 404.45 200.95 L405.2 205.6 Q403.1 211.5 403.65 219.95 408.15 287.45 405.1 355.1 403.45 391.05 413.75 420.9 L413.4 417.3 415.2 422.2 416.15 424.75 Q417.65 429.4 421.05 432.35 L422.5 433.95 Q425.9 438.75 431.2 442.95 L435.95 446.65 438.7 448.65 Q443.3 451.85 449.25 452.75 L449.5 452.8 452.7 453.45 455.0 453.95 455.0 454.1 455.05 457.65 Q422.7 459.9 389.1 454.45 382.25 453.3 375.55 454.55 L375.55 438.7 M408.9 58.35 L409.6 58.05 411.45 61.95 Q412.0 63.15 412.85 64.15 L413.8 65.65 414.9 67.3 Q417.3 70.55 420.4 73.2 L421.95 74.5 425.6 77.35 427.5 78.65 429.75 79.95 431.95 81.15 434.65 82.3 438.2 83.5 440.7 84.15 443.05 84.75 448.2 85.4 449.8 85.4 453.9 85.5 Q453.4 91.1 454.5 96.2 454.8 97.8 456.25 98.3 L456.35 98.8 Q446.85 100.55 436.8 95.8 430.85 92.95 426.8 87.9 415.8 74.4 408.9 58.35 M420.75 56.0 L420.8 55.95 423.65 58.15 424.95 59.1 Q426.9 60.65 429.1 61.75 432.75 63.6 436.75 64.55 L444.9 65.55 447.25 65.6 449.0 65.5 449.25 71.45 Q449.35 74.5 450.6 76.2 L450.55 76.95 Q445.5 76.85 440.3 75.1 438.25 74.35 436.5 73.05 427.0 66.25 420.75 56.0 M210.6 71.3 L217.0 71.5 226.2 70.8 231.05 69.85 Q235.85 68.65 240.3 66.75 244.4 65.0 247.85 62.15 L254.05 56.75 254.45 57.0 Q253.2 59.35 251.55 61.5 L250.75 62.65 Q249.05 65.45 246.7 67.6 L245.85 68.45 243.0 70.9 241.05 72.35 240.7 72.55 240.3 72.05 Q235.55 73.65 230.8 76.2 221.55 81.15 211.85 82.95 L211.25 81.65 211.0 80.6 Q210.6 76.05 210.6 71.45 L210.6 71.3 M214.7 98.3 L216.75 97.7 219.2 96.85 227.85 92.9 229.45 92.1 237.6 87.3 238.8 86.4 Q241.35 83.95 244.25 81.9 L246.7 79.7 250.2 75.7 250.9 74.75 Q252.05 72.75 253.95 71.25 L256.0 69.1 256.95 67.9 262.6 61.1 264.95 58.0 266.25 56.3 266.55 55.9 267.55 54.7 270.4 50.8 275.0 42.75 275.15 42.8 Q271.6 54.5 265.45 65.2 252.25 88.25 230.35 103.95 224.35 108.2 217.4 110.25 L214.55 111.05 214.15 110.0 Q213.8 109.05 213.9 108.2 L214.65 98.45 214.7 98.3 M219.5 420.55 L220.6 419.3 221.8 417.55 Q224.75 412.5 228.45 407.1 231.6 402.4 233.9 396.3 235.4 392.25 237.95 388.35 L239.3 386.4 Q244.8 378.55 250.5 373.15 251.3 372.35 252.75 372.05 L253.65 371.7 Q256.1 370.15 258.8 367.55 262.05 364.4 263.55 360.1 L262.65 378.1 Q263.25 379.5 264.35 380.7 L264.25 381.55 Q263.75 384.3 265.2 385.0 L265.35 384.1 265.5 380.7 Q269.1 363.3 270.65 344.8 272.15 326.55 274.1 308.2 281.05 241.45 286.6 174.6 286.3 174.15 286.3 173.75 288.8 128.8 283.75 84.75 L283.55 84.75 283.55 65.0 283.75 65.0 Q284.55 82.6 287.5 99.55 L287.9 102.65 Q288.2 106.65 288.8 110.35 289.75 116.65 290.05 123.35 L290.15 124.95 290.5 132.35 Q287.4 181.8 286.3 231.3 L290.4 347.65 Q291.45 380.65 300.35 409.3 L301.35 413.05 Q302.3 416.6 304.05 419.4 L306.5 423.3 306.45 426.35 306.55 432.75 307.2 447.45 Q307.5 453.85 308.45 459.75 L308.45 460.15 Q284.85 459.35 261.5 454.55 261.2 446.2 256.95 439.15 L256.85 438.3 255.9 432.35 Q256.6 431.0 256.0 429.6 L255.45 429.6 254.65 425.45 254.0 424.7 Q252.45 423.2 252.4 421.15 L252.5 420.35 Q259.8 397.0 254.65 374.4 251.95 378.35 247.25 382.4 247.25 385.5 244.4 386.4 241.85 395.9 240.3 405.2 237.95 419.15 227.1 426.6 223.25 429.3 220.05 432.25 L219.5 420.55 M78.45 68.55 L79.6 68.8 84.5 69.35 85.7 69.2 95.2 67.05 96.4 66.8 Q99.85 66.2 103.2 65.05 L104.45 64.65 108.55 63.2 110.0 62.65 Q111.7 62.2 113.05 61.15 L114.55 60.15 115.75 59.45 120.55 55.9 121.7 54.95 Q125.15 51.7 128.05 47.95 L128.45 48.15 Q122.15 59.55 112.9 68.85 98.65 83.15 79.75 78.75 L76.2 76.6 76.4 75.95 77.05 74.35 78.0 71.55 78.45 68.55 M72.3 90.75 Q73.95 91.4 75.7 91.65 L77.25 91.9 79.65 92.25 89.1 92.55 90.75 92.35 92.5 92.1 97.35 91.25 100.8 90.4 102.65 89.7 Q105.45 88.7 107.8 86.95 L110.4 84.9 Q114.15 81.8 117.1 77.95 L117.75 77.2 Q121.1 73.6 123.5 69.3 L123.95 68.65 124.8 67.5 127.45 63.55 Q126.05 67.0 124.9 70.7 117.15 89.85 98.4 97.8 95.0 99.25 92.85 101.15 L89.6 101.85 88.15 102.0 87.15 102.1 84.0 102.05 81.35 101.9 Q77.7 101.8 74.55 100.8 L74.2 99.8 Q72.5 95.55 72.3 90.75 M74.75 102.7 L76.2 104.45 77.25 105.85 Q78.75 108.05 81.1 109.3 L84.15 110.9 Q79.65 110.25 75.55 107.9 L75.65 107.2 Q75.8 106.3 75.4 106.1 74.3 105.5 74.65 103.5 L74.75 102.7 M78.3 448.0 Q81.35 448.15 83.8 447.0 L92.05 443.45 Q92.95 443.1 93.7 442.25 L100.45 435.2 101.5 433.9 Q106.0 426.5 111.3 419.2 L112.05 417.7 Q114.25 410.15 117.7 402.4 120.6 395.75 120.95 387.75 L121.1 384.65 Q121.2 381.4 121.75 378.5 122.45 394.85 124.05 411.2 128.25 395.25 127.9 376.7 126.6 308.85 134.5 242.25 142.55 174.65 136.35 107.3 L136.25 108.05 136.1 108.0 136.45 101.85 136.85 93.4 Q136.85 91.4 137.15 89.5 137.55 87.3 137.6 84.95 137.65 81.75 138.3 78.8 139.7 78.9 139.55 81.15 L139.45 84.15 Q139.6 96.55 140.3 108.8 L140.85 120.3 141.15 125.65 142.15 141.8 Q142.5 146.05 143.1 150.25 L143.65 153.35 147.3 172.55 Q148.05 176.95 148.4 181.45 145.6 200.15 144.8 220.1 142.1 287.85 144.15 354.45 L146.35 422.1 Q146.7 433.1 152.0 438.0 L152.1 437.4 Q153.9 441.6 156.55 445.55 157.8 447.4 159.6 448.75 L159.85 448.95 160.0 457.05 Q143.5 457.65 126.95 457.3 L126.7 456.75 125.45 455.95 123.65 455.45 Q113.75 457.1 103.7 457.65 90.95 458.3 78.2 457.9 L78.3 448.0" fill="#993628" fill-rule="evenodd" stroke="none"/>
    <path d="M58.65 37.45 L61.45 39.25 62.75 40.1 64.05 40.85 65.55 41.5 67.75 42.3 70.25 43.1 70.35 43.65 70.3 43.1 71.4 43.4 75.4 44.35 77.25 44.75 78.6 44.95 Q78.95 48.75 79.85 52.45 L78.6 51.95 77.8 51.6 Q67.15 46.9 58.25 39.95 L58.65 37.45 M343.85 45.15 L344.3 45.05 345.4 44.85 349.35 43.95 351.75 43.15 352.9 42.8 Q356.75 41.95 360.6 40.35 L361.75 40.0 Q365.6 39.0 369.2 37.25 L369.3 38.85 Q368.35 41.45 369.4 43.45 L367.7 44.55 367.35 44.75 Q357.55 51.1 346.1 52.65 332.0 54.55 320.35 50.2 321.0 48.5 320.35 46.5 L320.55 45.9 320.65 45.4 321.45 45.5 325.15 46.05 329.8 46.45 331.45 46.45 333.3 46.4 336.8 46.25 337.5 46.15 343.0 45.25 344.5 49.8 344.1 46.95 343.85 45.15 M117.45 39.9 L117.6 43.55 Q113.3 46.95 108.35 49.8 96.05 56.8 83.45 53.65 L80.25 52.6 81.05 45.25 83.75 45.3 88.4 45.55 91.0 45.7 91.65 45.75 Q91.9 49.85 93.4 53.9 L93.5 53.55 Q93.1 49.45 93.2 45.8 L94.45 45.9 97.1 45.8 98.9 45.6 104.05 45.25 106.4 44.6 107.25 44.35 108.25 44.1 109.85 43.5 Q110.85 42.95 111.95 42.5 L117.45 39.9" fill="#302f0c" fill-rule="evenodd" stroke="none"/>
    <path d="M507.8 20.6 L507.8 104.65 505.4 126.15 Q498.4 192.9 490.4 259.5 482.35 327.15 482.75 392.65 L484.4 388.25 Q483.45 396.15 481.85 403.85 479.7 414.15 475.1 424.35 473.75 427.3 471.95 430.05 469.25 434.15 467.1 438.4 462.75 446.8 454.9 450.65 L454.85 446.5 Q454.5 430.0 454.5 413.5 454.5 396.55 454.85 379.6 L454.9 370.3 Q462.75 369.35 470.65 367.45 L471.3 369.0 Q472.95 372.9 475.15 376.6 476.2 376.85 476.8 377.45 L478.55 377.5 478.35 376.15 478.55 374.75 478.25 374.05 Q477.05 369.35 474.5 365.8 L474.45 365.2 468.3 325.35 468.25 324.8 Q473.6 321.25 471.9 315.35 L471.9 315.55 Q469.1 317.45 466.65 320.15 L465.75 318.6 464.65 318.0 463.8 317.55 Q470.5 309.2 469.2 299.1 468.7 299.2 468.6 299.45 464.75 308.9 458.85 317.25 L453.5 317.65 453.6 282.4 Q453.6 272.3 453.2 262.2 L453.05 252.1 453.3 243.85 454.0 229.25 Q454.95 212.75 454.75 196.2 L454.1 161.35 454.0 156.75 Q453.55 139.15 455.25 121.85 455.4 120.1 455.9 118.4 458.05 111.35 458.0 103.55 L457.75 101.0 Q463.85 99.4 470.15 95.15 493.45 79.4 505.35 54.2 L505.1 53.7 504.7 52.75 504.95 52.2 505.6 49.85 505.4 50.05 504.35 52.45 504.3 52.55 504.2 52.7 504.05 52.8 503.15 53.15 501.85 55.3 501.35 55.65 500.65 56.2 499.25 57.3 Q497.45 58.25 495.95 59.85 L492.2 63.8 486.15 69.35 485.5 69.95 482.45 72.2 Q481.9 72.55 481.35 73.0 L480.05 73.95 478.05 75.25 Q474.35 77.35 470.55 79.0 L466.1 81.05 464.55 81.8 Q461.6 83.4 458.45 84.25 457.25 84.6 456.15 85.1 L454.25 85.5 453.9 85.5 453.9 85.25 Q454.05 83.4 453.55 81.9 L452.75 79.9 Q457.55 79.4 462.55 77.3 484.1 68.15 497.3 48.75 L502.5 40.9 Q505.1 36.95 504.0 34.05 L502.6 36.2 502.3 36.6 500.65 39.0 500.25 38.8 497.85 41.7 496.6 43.05 495.85 44.1 494.3 45.85 493.25 46.85 492.15 47.85 490.4 49.4 488.55 50.85 486.45 52.2 483.2 54.35 481.7 55.3 Q480.35 56.15 478.9 56.8 L471.0 60.3 468.5 61.3 Q464.75 62.9 460.8 63.7 L458.4 64.2 449.8 65.45 449.0 65.5 448.65 58.65 448.55 54.05 448.75 48.5 449.0 46.35 Q463.55 46.35 477.6 41.05 495.4 34.4 507.8 20.6 M367.5 47.8 L367.05 53.1 366.95 53.8 359.9 57.35 Q357.0 58.7 353.85 59.4 L351.95 59.85 343.8 61.45 341.95 61.65 337.0 61.8 335.2 61.7 332.4 61.65 324.45 61.2 323.3 61.05 Q321.2 60.9 319.3 60.15 L314.9 58.25 Q314.3 58.0 313.8 57.6 L310.25 55.15 307.95 53.3 Q306.9 52.2 305.55 51.5 L304.0 50.65 302.7 50.0 302.45 50.2 302.0 49.6 300.2 47.1 Q299.15 46.6 298.55 47.6 302.45 58.35 313.1 64.3 318.65 69.55 325.65 72.75 339.25 79.0 352.8 72.0 360.3 68.1 366.8 63.1 L366.8 63.15 367.05 66.0 367.45 75.15 367.45 76.05 366.45 76.65 364.5 77.7 Q363.6 78.15 362.7 78.55 358.8 80.3 354.5 80.8 L351.7 81.1 343.1 81.45 335.85 81.0 332.65 80.45 329.3 79.8 326.1 79.05 320.95 77.85 Q316.95 77.05 313.25 75.25 L310.75 73.95 308.75 72.8 Q306.7 71.65 304.95 70.05 L301.45 66.75 299.85 64.9 296.25 60.1 294.95 58.15 293.95 56.1 Q292.4 52.65 290.25 49.55 L290.2 49.6 290.15 49.45 Q289.9 47.25 290.15 44.85 290.6 40.15 291.5 35.55 292.4 35.3 292.8 34.3 L291.85 33.3 291.95 32.05 Q302.45 45.65 318.15 52.35 341.1 62.15 362.25 50.8 L367.5 47.8 M367.65 99.55 Q368.0 102.15 368.8 104.6 L369.3 107.2 370.15 119.15 Q370.8 128.05 369.65 136.65 L368.95 142.95 368.7 147.6 Q368.6 155.5 367.6 163.2 366.1 174.5 366.0 186.1 L365.95 193.4 Q365.55 211.3 365.6 229.2 365.65 245.7 366.2 262.2 L367.6 297.05 369.45 331.9 370.05 338.3 Q372.0 354.7 372.9 371.3 L374.45 404.35 375.45 434.0 375.05 434.05 373.5 434.2 Q370.8 434.05 368.85 435.35 L366.45 436.65 365.25 437.25 Q358.0 441.65 350.55 446.4 344.65 450.15 337.4 449.7 L334.3 449.6 Q330.65 449.65 327.9 447.15 323.8 443.25 319.0 440.55 317.35 439.6 316.3 438.1 311.8 431.9 307.65 425.2 L306.5 423.3 Q306.5 406.75 305.2 390.6 L304.15 375.9 303.55 367.6 Q301.9 350.35 301.85 332.8 L301.7 327.3 301.1 307.1 Q300.65 289.2 299.55 271.35 L297.4 236.55 297.05 231.9 Q295.8 214.15 295.85 196.2 295.9 191.55 296.2 187.0 296.85 177.95 296.5 168.7 295.85 151.3 296.3 133.8 L296.35 130.15 296.1 127.4 295.8 124.65 294.85 107.2 Q294.55 102.6 293.85 98.1 L293.35 94.35 Q291.7 81.8 292.2 68.7 L292.4 66.95 293.2 68.6 296.3 75.5 Q301.85 87.85 312.75 95.45 317.15 98.55 321.95 101.0 335.8 108.1 351.2 107.8 354.25 107.75 356.9 106.35 362.65 103.3 367.65 99.55 M211.35 54.85 L211.0 60.5 Q210.6 65.85 210.6 71.3 L207.55 70.95 198.6 69.85 190.35 68.3 181.35 65.8 Q176.8 64.4 172.4 62.6 168.05 60.85 164.1 58.25 L162.05 56.65 155.1 50.3 Q154.65 49.8 154.05 49.45 151.8 48.2 149.75 46.65 L149.4 46.4 Q151.05 41.7 151.9 36.65 154.9 39.55 158.35 42.1 173.6 51.9 191.85 54.15 L211.35 54.85 M213.35 85.5 L214.75 87.4 Q215.15 87.95 215.15 88.9 L214.7 98.3 214.65 98.45 214.1 98.4 211.45 99.05 Q206.9 100.2 202.2 100.05 L199.3 100.15 196.65 100.4 Q194.3 100.55 192.0 100.35 L190.1 100.15 182.55 98.65 179.6 97.95 Q175.1 97.1 170.9 95.1 L169.8 94.35 Q168.75 93.35 167.5 92.5 L163.85 89.85 163.1 89.45 162.0 88.95 163.95 91.2 167.3 95.2 168.65 96.5 169.5 97.1 174.0 100.85 175.25 102.0 176.85 103.8 177.05 104.1 Q178.5 106.4 181.3 108.05 L181.45 108.65 181.7 109.25 Q188.4 113.6 196.25 115.0 L205.25 115.8 Q210.7 115.75 215.75 114.35 L216.35 116.3 216.6 117.4 Q217.0 121.0 216.65 124.6 L216.4 126.5 Q215.3 136.45 215.25 146.65 215.15 162.7 215.55 178.75 L215.75 184.25 216.45 197.95 216.55 200.75 216.5 204.45 216.45 205.1 215.4 205.6 Q215.75 206.7 216.4 207.5 L216.25 215.2 216.45 224.6 216.4 230.4 213.3 233.8 213.05 235.0 Q207.45 245.6 215.25 252.8 215.15 264.4 214.55 275.95 214.25 282.85 214.25 289.7 214.25 303.5 214.6 317.2 L214.8 324.55 Q215.45 342.45 216.45 360.25 217.45 377.7 217.95 395.15 L218.7 408.9 219.5 420.55 217.75 422.55 214.2 426.8 Q212.85 428.45 211.6 430.25 210.95 431.15 210.45 432.25 208.75 435.95 207.75 440.05 L207.15 442.2 206.15 445.45 Q204.8 449.45 201.25 452.2 200.2 453.05 198.9 453.4 L196.05 454.2 195.9 454.3 195.95 454.6 194.55 454.75 185.0 455.6 184.45 455.65 177.45 456.15 176.8 456.2 176.75 455.95 169.1 454.3 Q164.35 453.45 160.8 449.8 L159.85 448.95 159.5 426.35 158.9 391.5 158.7 379.6 Q158.55 363.9 157.3 348.4 L156.65 339.25 Q155.6 322.25 154.85 305.3 L154.25 295.25 153.0 275.95 152.5 266.85 Q151.3 250.0 151.6 232.85 L151.9 197.1 151.9 161.35 Q151.9 156.3 151.5 151.3 150.9 142.65 150.95 133.8 151.0 131.1 150.65 128.35 148.65 111.25 149.05 93.45 149.15 87.05 149.55 80.65 L149.8 79.65 150.35 77.95 150.6 76.9 151.4 72.45 Q153.15 62.6 149.0 55.05 L148.6 54.0 149.1 53.6 Q155.0 61.1 161.35 68.4 165.75 73.4 171.05 77.35 184.2 87.2 201.25 86.8 207.5 86.65 213.35 85.5 M78.8 56.0 L78.65 63.2 78.5 67.8 78.45 68.55 75.55 67.7 73.3 67.1 Q68.65 65.9 64.35 63.9 L63.45 63.3 Q61.35 61.3 58.8 59.75 L57.65 58.95 Q56.65 58.1 55.55 57.4 53.7 56.15 52.5 54.15 L52.35 54.25 51.25 52.4 50.85 51.7 50.75 51.4 Q50.4 50.0 49.7 48.8 L49.4 48.9 49.5 50.05 49.7 52.95 Q52.1 59.05 56.05 64.35 61.35 71.55 68.5 76.75 L72.95 79.55 Q72.5 83.25 72.3 87.05 L72.3 90.75 71.9 90.55 Q67.55 88.65 63.6 85.9 L62.75 85.1 60.5 83.0 59.55 82.25 55.65 78.9 55.1 79.15 54.7 78.3 52.6 74.25 51.9 73.0 50.65 70.55 50.4 70.7 Q50.55 76.35 52.95 82.05 58.4 95.1 68.05 105.3 71.7 109.15 75.85 111.1 L73.9 111.35 Q73.0 116.4 72.9 121.0 72.65 130.95 75.15 140.45 75.8 143.0 76.05 145.7 77.4 158.2 79.05 170.55 80.0 177.8 80.1 185.15 80.35 206.25 79.95 227.35 L79.85 231.95 Q79.45 257.15 79.45 282.4 L79.45 296.1 79.1 304.35 79.0 306.2 79.1 309.0 79.75 325.45 Q80.0 330.65 79.0 335.65 78.55 337.85 78.55 340.15 L78.55 394.25 78.3 448.0 77.55 447.95 Q73.3 447.55 70.75 443.8 62.3 431.45 58.15 417.05 L56.6 410.7 53.6 395.45 Q50.95 381.3 50.0 367.0 48.95 351.6 48.2 336.25 L46.45 306.25 Q45.35 291.3 44.7 276.3 L44.05 269.35 Q42.0 254.1 40.5 238.7 L40.2 234.8 39.55 234.85 39.3 229.95 39.05 225.65 38.9 222.5 38.3 208.0 Q36.1 151.7 38.3 95.6 34.3 120.4 34.2 147.5 33.9 214.7 34.75 282.6 35.65 350.8 24.3 416.9 L24.75 419.3 23.15 423.15 Q20.25 429.7 15.15 435.2 L14.0 436.35 Q12.15 438.2 8.35 439.8 L6.3 440.75 6.25 427.25 Q6.1 419.9 6.4 412.55 7.15 395.65 7.1 378.65 L7.0 343.8 Q7.0 325.95 7.35 308.05 L7.85 289.7 8.3 284.25 Q8.95 279.7 8.65 275.05 L8.1 262.2 7.5 251.2 Q6.6 238.25 7.15 224.6 L7.35 219.65 8.15 219.55 8.5 218.85 8.85 217.5 10.55 216.0 11.6 214.75 Q11.3 213.2 12.0 212.0 12.55 211.0 12.5 209.95 L12.3 209.25 12.0 208.55 11.35 207.2 12.15 201.05 Q12.85 196.85 14.35 192.75 14.3 189.4 12.05 187.0 L10.1 184.75 10.15 184.3 10.3 182.4 Q10.7 177.85 10.3 173.3 L10.2 172.3 Q9.75 164.55 9.7 156.75 9.65 146.95 8.6 137.5 8.0 132.3 6.85 127.4 L6.35 124.6 Q5.35 116.4 2.45 109.05 0.6 104.4 2.65 100.0 L2.9 99.35 Q22.65 87.55 33.6 68.05 36.2 63.35 34.95 59.2 34.7 59.2 34.7 59.35 L34.35 60.15 32.75 63.5 32.0 64.85 31.7 64.7 30.9 65.55 Q28.6 68.7 25.55 71.2 L24.6 72.15 Q21.3 75.7 17.1 78.25 L9.5 82.75 7.1 84.0 2.45 86.1 2.15 84.35 1.7 82.4 Q0.85 79.2 2.15 76.8 L2.4 76.95 3.5 75.5 6.6 74.35 Q24.5 65.9 36.2 49.6 41.0 43.05 39.15 36.4 L38.35 38.35 Q36.6 42.4 34.0 46.5 L33.4 47.4 33.3 47.35 27.7 53.15 24.35 55.85 Q21.2 58.0 17.55 59.6 L15.8 60.35 Q13.05 61.65 10.05 62.3 L7.3 63.05 6.8 63.2 7.1 54.95 7.15 53.15 Q12.9 52.45 18.4 49.2 25.15 45.25 31.6 40.55 36.25 37.15 39.4 32.8 L40.5 34.2 Q39.7 34.3 39.1 35.0 39.9 37.75 43.2 38.6 L44.1 38.2 Q47.9 36.4 45.95 33.9 L45.7 34.05 45.6 33.55 45.6 33.5 45.55 33.3 45.95 32.8 45.95 32.4 46.05 32.1 Q48.0 34.65 50.4 37.0 L55.3 41.6 Q59.3 45.15 63.85 47.85 L73.15 53.45 Q75.9 55.1 78.8 56.0 M74.55 100.8 L74.55 100.9 74.75 102.7 72.35 100.0 74.55 100.8 M44.4 31.1 L43.2 29.1 43.6 28.75 44.15 29.6 45.1 30.85 45.0 30.95 44.7 31.15 44.6 31.1 44.5 31.05 44.45 31.05 44.4 31.1 M42.65 35.0 L42.4 34.8 43.2 34.9 42.65 35.0 M45.0 33.8 L44.85 34.4 43.2 34.9 Q44.25 34.5 45.0 33.8 M49.65 83.9 L49.9 83.75 49.75 83.6 49.65 83.9 M455.0 454.1 L455.0 453.95 455.65 454.1 455.0 454.1" fill="#8ab87c" fill-rule="evenodd" stroke="none"/>
    <path d="M507.8 151.3 L507.8 454.65 505.3 454.55 Q494.9 445.35 483.0 444.3 L482.45 445.2 Q481.25 449.75 481.05 454.55 L466.5 456.6 455.05 457.65 455.0 454.1 455.65 454.1 455.0 453.95 454.9 450.65 Q462.75 446.8 467.1 438.4 469.25 434.15 471.95 430.05 473.75 427.3 475.1 424.35 479.7 414.15 481.85 403.85 483.45 396.15 484.4 388.25 488.45 376.45 488.9 363.05 491.25 295.4 498.3 228.55 502.35 189.75 507.8 151.3 M375.45 434.0 L375.5 438.25 375.55 438.7 375.55 454.55 374.75 454.65 Q341.4 461.25 308.5 460.15 L308.45 459.75 Q307.5 453.85 307.2 447.45 L306.55 432.75 306.45 426.35 306.5 423.3 307.65 425.2 Q311.8 431.9 316.3 438.1 317.35 439.6 319.0 440.55 323.8 443.25 327.9 447.15 330.65 449.65 334.3 449.6 L337.4 449.7 Q344.65 450.15 350.55 446.4 358.0 441.65 365.25 437.25 L366.45 436.65 368.85 435.35 Q370.8 434.05 373.5 434.2 L375.05 434.05 375.45 434.0 M302.45 50.2 L302.7 50.0 304.0 50.65 305.55 51.5 Q306.9 52.2 307.95 53.3 L310.25 55.15 313.8 57.6 Q314.3 58.0 314.9 58.25 L319.3 60.15 Q321.2 60.9 323.3 61.05 L324.45 61.2 332.4 61.65 335.2 61.7 337.0 61.8 341.95 61.65 343.8 61.45 351.95 59.85 353.85 59.4 Q357.0 58.7 359.9 57.35 L366.95 53.8 366.85 55.0 Q366.6 57.7 366.7 60.45 354.0 71.7 336.9 72.75 L335.05 72.55 Q315.0 66.6 302.45 50.2 M290.2 49.6 L290.25 49.55 Q292.4 52.65 293.95 56.1 L294.95 58.15 296.25 60.1 299.85 64.9 301.45 66.75 304.95 70.05 Q306.7 71.65 308.75 72.8 L310.75 73.95 313.25 75.25 Q316.95 77.05 320.95 77.85 L326.1 79.05 329.3 79.8 332.65 80.45 335.85 81.0 343.1 81.45 351.7 81.1 354.5 80.8 Q358.8 80.3 362.7 78.55 363.6 78.15 364.5 77.7 L366.45 76.65 367.45 76.05 Q367.5 80.3 367.9 84.35 L368.7 92.5 Q368.95 95.0 367.85 95.85 367.6 96.05 367.55 96.4 L361.9 101.1 Q357.85 104.35 352.65 104.45 330.55 104.85 312.15 91.9 309.1 89.75 307.25 86.6 302.45 78.7 298.15 70.45 294.35 63.15 291.35 55.5 L291.3 54.95 291.0 53.25 Q290.4 51.5 290.2 49.6 M149.4 46.4 L149.75 46.65 Q151.8 48.2 154.05 49.45 154.65 49.8 155.1 50.3 L162.05 56.65 164.1 58.25 Q168.05 60.85 172.4 62.6 176.8 64.4 181.35 65.8 L190.35 68.3 198.6 69.85 207.55 70.95 210.6 71.3 210.6 71.45 Q210.6 76.05 211.0 80.6 L211.25 81.65 211.85 82.95 Q199.6 85.25 186.65 82.6 178.95 81.05 173.5 75.9 159.65 62.8 148.95 47.8 L149.0 47.55 149.4 46.4 M176.85 103.8 L175.25 102.0 174.0 100.85 169.5 97.1 168.65 96.5 167.3 95.2 163.95 91.2 162.0 88.95 163.1 89.45 163.85 89.85 167.5 92.5 Q168.75 93.35 169.8 94.35 L170.9 95.1 Q175.1 97.1 179.6 97.95 L182.55 98.65 190.1 100.15 192.0 100.35 Q194.3 100.55 196.65 100.4 L199.3 100.15 202.2 100.05 Q206.9 100.2 211.45 99.05 L214.1 98.4 214.65 98.45 213.9 108.2 Q213.8 109.05 214.15 110.0 L214.55 111.05 206.9 112.45 Q193.45 113.95 181.95 106.8 179.6 104.25 176.9 103.75 L176.85 103.8 M52.35 54.25 L52.5 54.15 Q53.7 56.15 55.55 57.4 56.65 58.1 57.65 58.95 L58.8 59.75 Q61.35 61.3 63.45 63.3 L64.35 63.9 Q68.65 65.9 73.3 67.1 L75.55 67.7 78.45 68.55 78.0 71.55 77.05 74.35 76.4 75.95 76.2 76.6 73.3 74.9 Q60.15 67.25 52.35 54.25 M6.8 63.2 L7.3 63.05 10.05 62.3 Q13.05 61.65 15.8 60.35 L17.55 59.6 Q21.2 58.0 24.35 55.85 L27.7 53.15 33.3 47.35 33.4 47.4 Q28.8 54.4 23.25 60.6 15.0 69.8 5.05 72.4 5.9 70.3 6.35 67.85 L6.6 65.9 6.8 63.2 M2.45 86.1 L7.1 84.0 9.5 82.75 17.1 78.25 Q21.3 75.7 24.6 72.15 L25.55 71.2 Q28.6 68.7 30.9 65.55 L31.7 64.7 32.0 64.85 30.45 67.6 Q20.35 84.5 3.5 95.55 L3.35 92.55 2.45 86.1 M6.3 440.75 L8.35 439.8 Q12.15 438.2 14.0 436.35 L15.15 435.2 Q20.25 429.7 23.15 423.15 L24.75 419.3 25.45 422.6 25.95 422.0 Q27.15 419.95 28.85 418.05 31.8 403.05 33.85 387.95 39.9 343.2 40.55 297.45 41.05 266.25 39.55 234.85 L40.2 234.8 40.5 238.7 Q42.0 254.1 44.05 269.35 L44.7 276.3 Q45.35 291.3 46.45 306.25 L48.2 336.25 Q48.95 351.6 50.0 367.0 50.95 381.3 53.6 395.45 L56.6 410.7 58.15 417.05 Q62.3 431.45 70.75 443.8 73.3 447.55 77.55 447.95 L78.3 448.0 78.2 457.9 57.55 456.4 49.15 456.75 Q35.8 459.35 23.0 458.2 14.25 457.4 5.75 454.8 L6.3 441.1 6.3 440.75 M160.0 457.05 L159.85 448.95 160.8 449.8 Q164.35 453.45 169.1 454.3 L176.75 455.95 176.8 456.2 160.0 457.05 M195.95 454.6 L195.9 454.3 196.05 454.2 198.9 453.4 Q200.2 453.05 201.25 452.2 204.8 449.45 206.15 445.45 L207.15 442.2 207.75 440.05 Q208.75 435.95 210.45 432.25 210.95 431.15 211.6 430.25 212.85 428.45 214.2 426.8 L217.75 422.55 219.5 420.55 220.05 432.25 Q210.35 441.35 206.75 453.4 L195.95 454.6 M55.1 79.15 L55.65 78.9 59.55 82.25 60.5 83.0 62.75 85.1 63.6 85.9 Q67.55 88.65 71.9 90.55 L72.3 90.75 Q72.5 95.55 74.2 99.8 L74.55 100.8 72.35 100.0 74.75 102.7 74.65 103.5 Q74.3 105.5 75.4 106.1 75.8 106.3 75.65 107.2 L75.55 107.9 74.0 106.9 Q68.65 103.25 65.45 97.7 60.05 88.45 55.1 79.15 M449.0 65.5 L449.8 65.45 458.4 64.2 460.8 63.7 Q464.75 62.9 468.5 61.3 L471.0 60.3 478.9 56.8 Q480.35 56.15 481.7 55.3 L483.2 54.35 486.45 52.2 488.55 50.85 490.4 49.4 492.15 47.85 493.25 46.85 494.3 45.85 495.85 44.1 496.6 43.05 497.85 41.7 500.25 38.8 500.65 39.0 491.75 51.1 Q481.3 64.4 466.7 72.6 459.05 76.85 451.05 76.95 L450.6 76.2 Q449.35 74.5 449.25 71.45 L449.0 65.5 M453.9 85.5 L454.25 85.5 456.15 85.1 Q457.25 84.6 458.45 84.25 461.6 83.4 464.55 81.8 L466.1 81.05 470.55 79.0 Q474.35 77.35 478.05 75.25 L480.05 73.95 481.35 73.0 Q481.9 72.55 482.45 72.2 L485.5 69.95 486.15 69.35 492.2 63.8 495.95 59.85 Q497.45 58.25 499.25 57.3 L500.65 56.2 501.35 55.65 501.85 55.3 500.5 57.7 Q489.15 77.95 470.7 92.05 463.9 97.2 456.8 98.7 L456.25 98.3 Q454.8 97.8 454.5 96.2 453.4 91.1 453.9 85.5" fill="#74a55f" fill-rule="evenodd" stroke="none"/>
    <path d="M-5.35 181.9 L-5.35 173.9 -3.55 175.75 Q-2.65 177.35 -0.75 178.05 -0.75 180.25 -1.25 182.4 L-1.65 184.2 -2.2 183.8 -3.15 183.1 Q-4.15 182.3 -5.35 181.9 M-5.35 46.6 L-5.35 45.65 -3.15 45.75 -0.2 45.75 Q-0.05 47.95 0.7 49.8 -2.0 47.75 -5.35 46.6 M122.75 36.55 L123.55 36.0 125.9 34.2 129.35 31.25 Q126.15 35.6 122.3 39.35 L122.75 36.55 M146.55 27.6 L146.6 27.5 152.6 33.2 154.35 34.5 155.35 35.1 160.4 38.2 162.4 39.45 163.4 40.15 Q165.05 41.1 166.95 41.75 L167.9 42.05 168.4 44.2 Q161.85 40.95 155.55 36.4 154.05 34.8 152.35 33.35 L150.45 31.8 146.55 27.6 M252.9 37.25 L253.6 36.95 255.1 36.4 258.55 34.75 262.5 32.6 Q265.1 30.95 267.8 29.45 L268.6 28.9 269.45 28.35 270.15 27.65 Q270.8 26.8 271.75 26.2 L272.5 25.55 Q273.85 24.0 275.55 22.8 270.3 29.75 263.15 34.3 258.05 37.5 252.75 40.2 L252.75 40.15 252.9 37.25 M297.65 33.05 L299.55 34.9 301.35 36.15 302.8 37.0 304.1 37.9 304.55 40.45 302.35 38.35 Q299.85 35.8 297.65 33.05 M304.8 38.35 L308.5 40.55 309.65 41.3 310.7 41.95 312.3 42.9 313.4 43.45 313.5 47.0 Q308.9 44.35 304.7 40.6 304.55 39.5 304.8 38.35 M171.25 43.25 Q173.8 44.25 176.45 44.6 L176.7 44.65 176.65 47.75 171.0 45.45 171.25 43.25 M12.55 44.05 L12.55 48.05 7.1 49.85 2.3 51.0 2.85 45.65 5.0 45.4 12.55 44.05 M0.7 186.75 L1.25 178.45 3.1 178.55 Q4.55 180.0 5.05 181.8 L5.2 182.45 Q3.8 186.2 4.1 191.35 L4.2 191.65 2.05 189.35 1.4 188.8 1.1 188.2 0.7 186.85 0.7 186.75 M4.8 192.3 L6.0 192.15 6.25 191.75 Q7.4 188.55 6.9 185.75 L8.7 187.15 9.8 188.6 Q10.55 189.9 10.9 191.35 9.6 194.5 8.85 197.8 8.5 199.05 8.3 200.4 L8.0 203.1 Q7.85 206.6 8.85 209.95 L8.45 210.65 7.95 212.0 7.6 213.0 7.45 213.35 6.75 214.05 6.6 214.25 6.5 213.2 6.1 205.0 6.0 204.1 Q5.9 202.15 6.35 200.35 6.85 198.55 6.65 196.6 L6.6 196.2 5.3 193.1 4.8 192.3 M470.4 35.8 L470.8 35.65 476.1 33.95 475.75 38.85 475.8 38.95 Q463.05 43.4 449.4 43.4 L445.5 43.3 446.05 38.05 447.75 38.0 456.15 37.95 461.5 37.85 462.65 37.75 469.2 36.25 469.95 36.0 470.55 37.75 470.4 35.8 M436.35 37.15 L438.45 37.6 439.35 37.75 444.15 38.0 Q444.25 40.6 444.75 43.25 L438.25 42.65 437.25 42.5 437.25 42.3 436.35 37.15 M431.1 36.4 L431.25 36.5 Q432.55 37.15 434.2 37.1 L434.85 37.1 435.0 41.85 435.25 42.15 430.1 41.05 431.1 36.4" fill="#494010" fill-rule="evenodd" stroke="none"/>
    <path d="M366.8 63.05 L366.8 63.15 366.8 63.1 366.8 63.05 M367.85 95.85 L367.95 96.0 367.55 96.4 Q367.6 96.05 367.85 95.85 M216.5 204.45 L216.6 205.1 216.45 205.1 216.5 204.45 M308.45 459.75 L308.5 460.15 308.45 460.15 308.45 459.75 M148.95 47.8 L148.85 47.7 149.0 47.55 148.95 47.8 M148.45 52.8 L149.1 53.6 148.6 54.0 148.45 52.8 M224.1 208.3 L223.65 208.3 223.9 208.1 224.1 208.3 M226.4 210.4 L226.5 210.5 226.4 210.55 226.4 210.4 M139.75 24.15 L140.6 24.0 140.95 24.55 Q140.65 24.6 140.45 24.95 L139.75 24.15 M3.5 75.5 L2.4 76.95 2.15 76.8 2.9 75.7 3.5 75.5 M2.9 99.35 L2.65 100.0 2.4 99.65 2.9 99.35 M10.15 184.3 L10.1 184.75 9.9 184.45 10.15 184.3 M456.25 98.3 L456.8 98.7 456.35 98.8 456.25 98.3 M450.6 76.2 L451.05 76.95 450.55 76.95 450.6 76.2" fill="#edecc0" fill-rule="evenodd" stroke="none"/>
    <path d="M44.7 31.15 L45.0 30.95 44.75 31.2 44.7 31.15" fill="#b1d0a8" fill-rule="evenodd" stroke="none"/>
    <path d="M507.8 462.1 L507.8 501.0 -5.35 501.0 -5.35 455.15 Q-2.95 455.2 -0.7 456.15 L-0.4 456.25 Q2.45 457.45 5.45 458.35 13.95 460.95 23.0 461.15 L28.8 461.0 Q46.7 459.9 64.45 461.1 L77.65 461.65 Q101.7 462.1 125.35 458.25 142.4 461.5 160.05 461.5 L179.55 460.5 Q197.75 458.65 213.3 459.95 L213.55 459.15 211.9 450.55 212.1 450.35 Q215.9 451.85 220.55 452.1 226.25 452.4 233.2 450.85 246.35 457.35 256.65 452.0 257.55 455.15 258.1 458.5 284.6 466.1 312.35 465.9 333.5 465.7 355.35 460.95 365.1 458.85 374.7 460.25 L375.4 460.35 Q415.7 466.35 455.15 463.5 470.45 462.4 485.6 459.95 L485.95 459.1 Q486.4 454.7 487.9 450.85 L491.3 454.25 Q495.8 455.2 499.85 457.1 L500.1 457.65 Q500.85 459.7 502.7 461.1 L507.8 462.1" fill="#41380e" fill-rule="evenodd" stroke="none"/>
    <path d="M457.5 351.85 L457.2 352.5 Q456.25 354.3 457.25 355.95 459.95 356.25 460.45 352.55 L460.4 351.85 Q459.75 349.95 458.6 348.4 L457.8 348.65 Q456.75 349.95 457.5 351.85 M455.35 334.1 L454.6 335.1 Q447.85 343.95 451.75 354.15 L452.4 353.55 Q453.9 347.4 454.65 342.1 L455.4 333.95 455.35 334.1 M453.7 322.6 L456.2 322.3 456.8 323.4 Q457.5 323.6 457.8 323.4 L459.75 321.75 462.55 321.35 463.2 322.5 463.7 323.15 Q460.1 322.75 459.1 325.45 460.0 328.2 463.5 327.0 L464.6 326.65 464.6 326.85 464.6 328.9 465.4 330.0 Q466.6 345.85 470.05 361.35 L466.45 359.15 Q466.0 359.4 465.75 359.95 465.1 361.6 465.65 363.0 460.15 363.65 454.9 365.1 451.6 366.0 448.4 367.2 L448.1 363.95 447.5 364.4 Q446.5 366.35 445.75 368.25 L443.55 369.25 Q445.6 365.3 444.4 361.9 L443.6 362.3 441.7 363.8 440.8 356.75 Q439.25 343.65 435.8 331.9 L438.0 331.65 Q438.5 330.5 437.7 329.5 436.75 328.3 435.5 327.55 L434.4 327.2 433.3 324.1 436.5 324.0 437.1 325.25 437.8 325.85 440.05 325.9 440.15 325.5 439.85 323.85 453.7 322.6" fill="#6d261d" fill-rule="evenodd" stroke="none"/>
  </g>
</svg>
