<?xml version="1.0" encoding="UTF-8" standalone="no"?>
<svg xmlns:ffdec="https://www.free-decompiler.com/flash" xmlns:xlink="http://www.w3.org/1999/xlink" ffdec:objectType="shape" height="170.45px" width="408.6px" xmlns="http://www.w3.org/2000/svg">
  <g transform="matrix(1.0, 0.0, 0.0, 1.0, 0.0, 0.0)">
    <path d="M15.25 160.65 L13.0 160.6 11.0 160.6 8.7 160.55 3.55 160.5 3.35 160.95 Q2.15 162.6 2.1 164.4 1.85 167.55 3.75 170.45 L2.35 170.45 Q-0.2 167.8 0.0 164.65 0.2 162.25 2.1 160.2 L2.1 160.1 2.1 160.05 2.1 159.95 2.5 159.8 2.5 159.75 2.7 159.7 2.75 159.7 3.2 159.65 3.4 159.6 4.95 159.5 6.15 159.6 7.4 159.6 7.55 159.55 11.35 159.45 21.55 159.55 31.5 159.65 40.35 159.65 52.0 159.5 Q56.3 159.4 60.6 159.65 L60.85 159.65 61.05 159.5 61.25 159.5 61.45 159.5 61.45 159.45 Q62.9 159.55 63.65 159.95 L63.65 159.85 Q63.35 159.7 63.7 159.55 L66.3 159.2 66.8 159.2 75.3 159.65 Q77.35 159.85 76.75 160.8 L75.6 161.5 Q76.3 161.95 76.4 162.65 L76.55 166.55 76.75 166.65 76.8 166.7 76.5 166.9 76.5 166.95 78.3 166.95 Q78.55 167.35 78.25 167.95 77.85 168.6 76.55 168.65 L76.15 168.65 75.95 169.45 77.95 169.95 Q78.15 170.05 78.0 170.2 L78.3 170.45 65.8 170.45 65.4 170.35 64.95 170.15 Q63.65 169.7 63.35 168.65 L63.35 168.6 63.0 167.25 63.0 166.95 Q62.9 166.1 63.05 165.2 63.4 163.2 65.2 161.45 65.55 161.05 66.25 160.95 L66.9 161.15 Q67.7 160.55 69.65 160.7 L72.6 160.65 74.5 160.55 74.8 160.55 67.6 160.2 66.7 160.25 65.05 160.25 64.75 161.05 64.5 161.2 63.85 161.1 Q62.8 161.05 62.45 160.45 60.25 162.7 60.65 165.4 L61.0 166.95 61.1 167.25 61.2 167.5 61.5 168.25 61.65 168.55 Q62.05 169.55 62.8 170.45 L60.9 170.45 59.75 168.6 59.3 167.4 59.15 166.95 Q58.75 165.4 58.95 163.75 59.15 162.2 60.2 160.75 L60.3 160.6 56.95 160.65 56.4 160.65 54.2 160.65 51.6 160.65 51.05 160.65 49.7 160.65 48.55 160.7 40.1 160.7 15.25 160.65 M66.8 161.7 Q64.4 164.25 65.0 166.95 L65.05 167.3 65.3 168.0 65.55 168.8 65.7 169.7 66.5 169.7 72.85 169.65 74.0 169.55 74.6 169.5 74.7 168.75 74.8 167.7 74.85 167.3 73.1 167.2 72.9 167.15 71.95 167.05 70.2 167.05 67.15 166.95 65.15 166.8 74.9 166.5 74.9 165.4 72.1 165.3 70.85 165.25 Q67.95 165.55 65.4 165.15 L65.35 165.1 69.85 164.55 72.2 164.5 74.9 164.65 74.75 163.2 Q74.65 162.4 74.15 161.6 L69.4 161.8 66.8 161.7 M76.4 167.55 L76.75 167.5 76.4 167.35 76.4 167.55" fill="#000000" fill-rule="evenodd" stroke="none"/>
    <path d="M13.0 160.6 Q11.8 163.85 12.5 166.95 L12.55 167.3 12.85 168.35 13.85 170.45 11.15 170.45 10.4 168.3 10.15 167.25 10.15 166.95 Q9.7 163.8 11.0 160.6 L13.0 160.6 M16.45 170.45 L15.55 168.35 15.2 167.3 15.15 166.95 Q14.4 163.8 15.25 160.65 L40.1 160.7 48.55 160.7 47.8 162.75 Q47.4 164.85 47.3 166.95 L47.3 167.2 47.3 167.25 47.4 168.4 Q47.55 169.45 48.05 170.45 L16.45 170.45 M51.05 160.65 L51.6 160.65 54.2 160.65 Q52.65 163.85 53.0 166.95 L53.05 167.4 53.25 168.55 53.95 170.45 51.0 170.45 50.4 168.45 50.2 167.35 50.15 166.95 Q49.85 163.8 51.05 160.65 M56.95 160.65 L60.3 160.6 60.2 160.75 Q59.15 162.2 58.95 163.75 58.75 165.4 59.15 166.95 L59.3 167.4 59.75 168.6 60.9 170.45 56.5 170.45 55.95 168.6 55.75 167.45 55.7 166.95 Q55.4 163.8 56.95 160.65 M62.8 170.45 Q62.05 169.55 61.65 168.55 L61.5 168.25 61.2 167.5 61.1 167.25 61.0 166.95 60.65 165.4 Q60.25 162.7 62.45 160.45 62.8 161.05 63.85 161.1 L64.5 161.2 64.75 161.05 65.05 160.25 66.7 160.25 67.6 160.2 74.8 160.55 74.5 160.55 72.6 160.65 69.65 160.7 Q67.7 160.55 66.9 161.15 L66.25 160.95 Q65.55 161.05 65.2 161.45 63.4 163.2 63.05 165.2 62.9 166.1 63.0 166.95 L63.0 167.25 63.35 168.6 63.35 168.65 Q63.65 169.7 64.95 170.15 L65.4 170.35 65.8 170.45 62.8 170.45 M3.75 170.45 Q1.85 167.55 2.1 164.4 2.15 162.6 3.35 160.95 L3.55 160.5 8.7 160.55 Q6.95 163.05 7.35 165.9 L7.45 166.95 7.5 167.3 7.65 168.3 7.85 169.45 Q7.95 170.0 8.2 170.45 L3.75 170.45 M76.4 167.55 L76.4 167.35 76.75 167.5 76.4 167.55" fill="#612f62" fill-rule="evenodd" stroke="none"/>
    <path d="M13.0 160.6 L15.25 160.65 Q14.4 163.8 15.15 166.95 L15.2 167.3 15.55 168.35 16.45 170.45 13.85 170.45 12.85 168.35 12.55 167.3 12.5 166.95 Q11.8 163.85 13.0 160.6 M48.55 160.7 L49.7 160.65 51.05 160.65 Q49.85 163.8 50.15 166.95 L50.2 167.35 50.4 168.45 51.0 170.45 48.05 170.45 Q47.55 169.45 47.4 168.4 L47.3 167.25 47.3 167.2 47.3 166.95 Q47.4 164.85 47.8 162.75 L48.55 160.7 M54.2 160.65 L56.4 160.65 56.95 160.65 Q55.4 163.8 55.7 166.95 L55.75 167.45 55.95 168.6 56.5 170.45 53.95 170.45 53.25 168.55 53.05 167.4 53.0 166.95 Q52.65 163.85 54.2 160.65 M8.7 160.55 L11.0 160.6 Q9.7 163.8 10.15 166.95 L10.15 167.25 10.4 168.3 11.15 170.45 8.2 170.45 Q7.95 170.0 7.85 169.45 L7.65 168.3 7.5 167.3 7.45 166.95 7.35 165.9 Q6.95 163.05 8.7 160.55" fill="#f9d617" fill-rule="evenodd" stroke="none"/>
    <path d="M66.8 161.7 L69.4 161.8 74.15 161.6 Q74.65 162.4 74.75 163.2 L74.9 164.65 72.2 164.5 69.85 164.55 65.35 165.1 65.4 165.15 Q67.95 165.55 70.85 165.25 L72.1 165.3 74.9 165.4 74.9 166.5 65.15 166.8 67.15 166.95 70.2 167.05 71.95 167.05 72.9 167.15 73.1 167.2 74.85 167.3 74.8 167.7 74.7 168.75 74.6 169.5 74.0 169.55 72.85 169.65 66.5 169.7 65.7 169.7 65.55 168.8 65.3 168.0 65.05 167.3 65.0 166.95 Q64.4 164.25 66.8 161.7" fill="#fef7cf" fill-rule="evenodd" stroke="none"/>
    <path d="M66.65 150.25 L66.7 150.3 66.9 150.25 67.15 150.2 Q69.7 151.0 68.4 152.45 L68.3 152.55 66.15 152.9 Q67.3 153.6 67.6 154.7 L67.7 154.8 67.8 155.15 67.7 155.2 67.7 155.55 Q67.7 157.25 66.75 158.8 L67.3 158.95 67.5 159.05 67.7 159.2 67.6 159.35 67.45 159.45 66.85 159.8 66.1 159.75 65.75 160.2 67.4 160.2 Q68.1 160.2 68.55 160.55 70.35 161.85 68.45 162.2 L68.55 162.4 68.45 162.55 68.3 162.75 Q50.25 163.65 31.95 162.95 L17.85 162.45 17.0 162.15 Q16.5 162.35 16.3 162.65 L15.95 162.95 Q15.3 163.1 14.95 162.75 L14.95 162.65 Q13.95 162.6 13.65 162.05 L12.2 160.8 Q9.25 156.1 12.05 151.4 12.15 151.3 12.3 151.25 L12.7 150.75 12.9 150.5 13.1 150.45 13.4 150.3 13.8 150.25 14.25 150.2 Q15.3 150.5 15.95 151.05 L16.0 151.0 16.1 150.95 16.6 150.65 16.65 150.55 16.65 150.5 16.7 150.4 16.8 150.3 21.1 149.8 23.35 150.05 24.0 150.2 38.9 149.65 Q51.9 150.3 65.15 149.95 L66.5 150.15 66.65 150.25 M17.0 152.8 L17.05 152.7 Q17.0 152.3 17.8 152.3 L23.55 152.1 25.45 151.95 26.8 151.8 Q40.25 152.15 53.7 151.95 L60.45 151.85 61.95 151.9 62.0 151.85 66.6 151.65 66.5 150.95 Q55.45 151.6 44.1 150.75 L38.9 150.6 37.25 150.85 Q27.7 151.25 18.5 151.0 L17.85 151.0 17.4 151.3 16.7 151.75 16.45 151.9 16.15 152.05 15.85 152.1 15.75 152.1 15.0 152.1 14.25 151.6 14.0 151.4 12.9 151.75 Q13.15 152.3 12.6 153.0 11.95 153.9 11.95 154.9 11.9 157.9 14.05 160.55 L14.3 161.05 14.45 161.25 15.55 161.85 15.8 161.7 16.0 161.5 Q15.9 161.25 16.25 161.1 16.45 160.95 16.75 160.95 L16.95 160.95 17.3 161.0 Q17.8 161.35 18.5 161.55 L18.65 161.65 54.85 161.95 65.6 161.9 66.5 161.9 66.75 161.7 67.15 161.35 Q58.35 161.2 49.0 161.2 L39.85 161.25 Q31.55 161.4 23.35 160.85 21.45 161.2 19.65 160.9 L18.9 160.35 18.2 160.3 17.9 160.5 17.4 160.7 16.6 160.5 16.35 160.35 16.3 159.8 16.3 159.65 Q14.95 159.45 14.5 158.35 13.2 155.45 15.55 152.85 L15.8 152.8 16.05 152.8 16.25 152.8 16.5 152.8 16.85 152.8 17.0 152.8 M18.4 153.4 L18.4 153.5 18.4 153.55 18.4 153.65 18.4 153.75 18.35 153.85 18.3 153.85 Q19.25 155.05 19.6 156.6 L20.25 159.45 20.2 159.5 20.3 159.55 20.55 159.7 20.75 159.9 45.65 160.1 63.8 160.15 64.1 159.7 53.15 159.65 Q55.85 158.2 60.95 158.75 L63.35 158.75 64.55 158.9 65.15 157.2 Q53.05 157.65 40.95 157.3 L38.3 157.2 Q31.1 156.9 24.35 157.0 L24.4 156.9 24.55 156.8 24.75 156.7 24.85 156.65 25.0 156.65 Q36.45 156.4 48.0 156.5 L51.35 156.45 59.75 156.1 65.3 156.25 65.3 156.0 65.5 155.6 65.45 155.45 46.3 154.6 Q45.9 154.55 45.9 154.35 45.95 154.2 46.3 154.15 L46.6 154.15 47.0 154.1 53.25 154.05 65.05 154.45 64.25 153.2 Q62.25 153.5 59.7 153.25 L53.7 153.0 Q41.75 153.2 29.7 153.0 L20.5 153.15 19.2 153.15 18.45 153.2 18.4 153.3 18.4 153.4 M16.95 153.95 L16.6 153.75 16.5 153.75 Q15.25 156.55 17.3 159.3 L17.75 159.05 18.3 158.95 18.4 159.0 Q16.35 156.5 18.05 154.0 L17.9 154.0 17.25 154.0 16.95 153.95" fill="#000000" fill-rule="evenodd" stroke="none"/>
    <path d="M17.0 152.8 L16.85 152.8 16.5 152.8 16.25 152.8 16.05 152.8 15.8 152.8 15.55 152.85 Q13.2 155.45 14.5 158.35 14.95 159.45 16.3 159.65 L16.3 159.8 16.35 160.35 16.6 160.5 17.4 160.7 17.9 160.5 18.2 160.3 18.9 160.35 19.65 160.9 Q21.45 161.2 23.35 160.85 31.55 161.4 39.85 161.25 L49.0 161.2 Q58.35 161.2 67.15 161.35 L66.75 161.7 66.5 161.9 65.6 161.9 54.85 161.95 18.65 161.65 18.5 161.55 Q17.8 161.35 17.3 161.0 L16.95 160.95 16.75 160.95 Q16.45 160.95 16.25 161.1 15.9 161.25 16.0 161.5 L15.8 161.7 15.55 161.85 14.45 161.25 14.3 161.05 14.05 160.55 Q11.9 157.9 11.95 154.9 11.95 153.9 12.6 153.0 13.15 152.3 12.9 151.75 L14.0 151.4 14.25 151.6 15.0 152.1 15.75 152.1 15.85 152.1 16.15 152.05 16.45 151.9 16.7 151.75 17.4 151.3 17.85 151.0 18.5 151.0 Q27.7 151.25 37.25 150.85 L38.9 150.6 44.1 150.75 Q55.45 151.6 66.5 150.95 L66.6 151.65 62.0 151.85 61.95 151.9 60.45 151.85 53.7 151.95 Q40.25 152.15 26.8 151.8 L25.45 151.95 23.55 152.1 17.8 152.3 Q17.0 152.3 17.05 152.7 L17.0 152.8" fill="#284168" fill-rule="evenodd" stroke="none"/>
    <path d="M16.95 153.95 L17.25 154.0 17.9 154.0 18.05 154.0 Q16.35 156.5 18.4 159.0 L18.3 158.95 17.75 159.05 17.3 159.3 Q15.25 156.55 16.5 153.75 L16.6 153.75 16.95 153.95 M18.4 153.4 L18.4 153.3 18.45 153.2 19.2 153.15 20.5 153.15 29.7 153.0 Q41.75 153.2 53.7 153.0 L59.7 153.25 Q62.25 153.5 64.25 153.2 L65.05 154.45 53.25 154.05 47.0 154.1 46.6 154.15 46.3 154.15 Q45.95 154.2 45.9 154.35 45.9 154.55 46.3 154.6 L65.45 155.45 65.5 155.6 65.3 156.0 65.3 156.25 59.75 156.1 51.35 156.45 48.0 156.5 Q36.45 156.4 25.0 156.65 L24.85 156.65 24.75 156.7 24.55 156.8 24.4 156.9 24.35 157.0 Q31.1 156.9 38.3 157.2 L40.95 157.3 Q53.05 157.65 65.15 157.2 L64.55 158.9 63.35 158.75 60.95 158.75 Q55.85 158.2 53.15 159.65 L64.1 159.7 63.8 160.15 45.65 160.1 20.75 159.9 20.55 159.7 20.3 159.55 20.2 159.5 20.25 159.45 19.6 156.6 Q19.25 155.05 18.3 153.85 L18.35 153.85 18.4 153.75 18.4 153.65 18.4 153.55 18.4 153.5 18.4 153.4" fill="#fef7cf" fill-rule="evenodd" stroke="none"/>
    <path d="M387.8 13.3 L390.85 13.1 390.9 13.0 404.7 14.65 Q404.55 15.9 403.85 17.1 403.35 17.85 403.15 18.75 L401.0 18.45 Q396.8 18.85 392.35 18.55 372.8 17.3 354.35 21.1 L354.35 21.25 402.95 20.05 402.95 20.2 401.25 21.65 399.05 23.45 398.65 24.0 Q391.15 24.95 384.2 26.55 383.8 26.9 383.9 27.4 L383.9 27.65 383.95 27.95 384.1 28.25 384.85 28.5 Q394.7 27.9 404.1 30.0 L404.45 32.6 404.55 33.4 404.6 33.85 354.5 30.9 348.55 31.3 334.3 31.95 Q329.95 30.85 324.8 30.6 L273.5 28.45 Q253.8 27.65 235.4 27.75 230.95 23.2 225.65 27.95 L207.8 27.05 197.8 26.9 189.25 26.8 142.15 24.6 92.9 22.45 Q85.8 22.35 80.4 20.9 L80.05 20.7 Q77.05 19.9 75.7 17.75 75.45 17.55 75.2 17.5 L74.1 17.1 Q73.7 17.1 73.45 17.5 L71.25 20.35 67.7 20.8 60.35 20.7 Q43.25 20.55 26.55 21.0 L27.15 20.7 Q25.1 19.45 22.2 19.4 L22.5 18.35 24.35 14.2 25.3 14.4 Q42.15 15.1 58.1 14.15 L57.75 14.0 44.4 13.2 24.35 14.2 24.9 11.9 24.65 11.0 Q23.9 8.65 23.75 6.75 L27.5 7.2 54.1 6.3 54.0 6.2 Q43.0 5.9 32.25 4.1 L24.45 4.95 23.45 5.2 Q22.65 3.45 21.1 2.35 L21.15 2.25 22.35 2.35 59.15 2.9 Q63.3 4.75 69.0 4.95 84.7 5.55 98.4 8.45 97.4 8.75 97.0 9.5 L96.95 9.8 Q96.85 10.35 97.05 10.9 99.1 12.05 101.6 12.2 108.45 12.6 115.25 13.9 126.1 15.9 132.9 9.8 L132.7 9.25 132.35 7.8 131.0 7.2 134.1 7.2 Q139.2 7.3 142.3 5.75 L154.55 6.25 202.45 6.95 209.4 7.35 219.25 8.55 Q228.55 6.85 238.35 7.85 L251.9 8.65 269.55 8.85 320.35 10.6 324.35 10.8 377.7 13.25 380.05 13.35 Q363.85 13.7 348.1 15.65 373.0 16.3 397.5 14.55 L397.3 14.35 389.6 13.3 387.8 13.3 M367.15 27.4 L367.05 27.3 Q358.05 24.8 348.55 23.5 335.85 24.75 323.55 23.2 310.65 21.6 298.9 23.45 L312.2 23.95 321.2 24.7 328.0 25.25 346.55 25.95 367.15 27.4 M383.8 23.25 L374.3 24.0 Q379.65 26.05 386.4 24.15 L386.15 23.95 383.8 23.25 M320.95 14.2 L319.8 14.35 Q288.6 14.4 257.8 12.6 L289.6 15.4 Q312.55 17.0 334.8 15.65 L334.65 15.5 Q328.45 13.75 320.95 14.2 M342.75 20.0 L342.55 19.85 334.85 19.1 Q315.55 18.85 296.3 19.35 319.2 21.85 342.75 20.0 M30.65 10.2 L31.4 10.5 Q49.6 11.85 67.9 10.5 L67.75 10.2 Q63.3 7.0 56.45 8.85 52.3 10.1 46.6 10.2 L30.65 10.2 M46.15 17.55 L49.15 18.05 Q56.95 18.35 64.65 17.75 L64.4 17.55 Q59.0 15.85 53.0 16.4 L46.55 17.3 46.15 17.55 M110.5 3.75 L109.3 3.85 109.2 3.95 105.25 5.85 105.05 6.4 Q104.75 7.1 105.0 7.85 113.6 11.75 122.25 8.2 L122.55 7.35 Q122.7 6.45 122.35 5.65 120.5 4.4 118.6 4.15 L132.75 5.05 Q128.0 5.6 123.75 7.3 126.65 8.8 129.95 9.7 129.8 10.25 129.0 10.45 114.4 13.35 99.9 9.9 100.25 9.6 100.7 9.55 102.25 9.1 102.5 7.85 96.1 5.45 87.95 4.75 81.5 3.5 75.05 2.95 92.75 2.95 110.5 3.75 M116.2 22.2 L116.7 21.95 117.4 21.3 125.2 21.9 Q139.75 23.95 144.8 14.15 141.05 15.95 137.95 18.6 L116.15 19.85 Q111.45 19.9 107.35 21.7 L116.2 22.2 M136.85 10.35 L136.75 10.9 136.6 11.75 136.1 13.1 135.9 13.4 Q131.5 14.9 127.0 15.7 L116.7 16.65 Q106.45 16.65 97.25 14.6 L90.9 12.85 91.55 12.35 92.6 11.2 92.7 10.95 Q90.4 8.85 86.95 9.35 86.05 9.45 85.75 10.0 L86.4 10.6 86.85 10.9 89.4 11.15 Q89.6 11.15 89.75 11.3 L89.45 11.6 89.25 11.8 Q88.8 12.3 88.75 12.95 L88.75 13.25 Q89.05 13.85 89.6 14.3 90.3 14.9 91.35 15.15 108.15 19.65 126.15 18.6 131.9 18.2 135.4 16.0 137.8 14.45 139.15 12.0 153.55 8.0 168.45 10.45 L173.75 11.0 207.85 12.05 Q207.1 11.05 205.5 11.0 180.75 9.9 156.3 7.2 L150.6 7.65 Q143.45 8.75 136.85 10.35 M217.45 22.85 L216.55 22.6 173.75 20.25 Q170.7 21.45 166.15 20.9 162.75 20.5 160.05 21.8 161.25 23.1 163.2 23.2 191.85 24.3 217.45 22.85 M192.15 15.45 L191.75 15.2 Q175.5 12.55 159.1 11.4 L159.1 11.5 156.85 11.55 156.3 11.65 155.9 11.9 156.3 12.45 Q174.5 15.6 192.15 15.45 M189.7 18.45 L218.45 19.7 226.35 19.1 Q232.95 17.3 239.8 18.15 240.95 18.75 241.55 19.8 L242.15 20.75 Q242.3 22.15 242.0 23.55 241.8 24.25 241.95 25.0 242.1 25.5 242.7 25.8 L243.25 26.05 276.3 26.35 276.75 26.15 Q277.4 25.65 278.35 25.5 L278.3 25.4 243.8 24.1 243.9 23.55 244.2 22.7 244.35 22.45 244.05 21.6 243.95 20.45 243.9 20.15 242.45 18.45 Q241.55 16.95 239.7 16.15 L237.0 16.05 Q232.15 16.25 227.9 18.25 194.45 17.0 161.1 17.0 L145.1 17.05 173.75 19.25 189.7 18.45 M287.7 24.55 Q286.75 24.55 287.2 24.8 294.65 28.7 298.4 25.55 L297.1 25.25 287.7 24.55 M270.75 22.95 L270.55 22.75 250.55 19.35 250.05 19.4 250.2 18.55 249.9 17.15 248.3 15.3 246.95 12.35 246.1 11.9 Q244.45 10.9 242.3 11.25 233.45 11.3 224.95 14.0 234.1 13.15 244.25 13.8 L245.9 15.4 Q247.5 17.7 246.55 19.85 L247.1 20.6 Q248.25 21.55 249.35 20.4 L249.75 20.0 250.25 20.15 Q260.15 23.05 270.75 22.95" fill="#5b5617" fill-rule="evenodd" stroke="none"/>
    <path d="M387.8 13.3 L389.6 13.3 397.3 14.35 397.5 14.55 Q373.0 16.3 348.1 15.65 363.85 13.7 380.05 13.35 383.9 13.25 387.8 13.3 M383.8 23.25 L386.15 23.95 386.4 24.15 Q379.65 26.05 374.3 24.0 L383.8 23.25 M342.75 20.0 Q319.2 21.85 296.3 19.35 315.55 18.85 334.85 19.1 L342.55 19.85 342.75 20.0 M30.65 10.2 L46.6 10.2 Q52.3 10.1 56.45 8.85 63.3 7.0 67.75 10.2 L67.9 10.5 Q49.6 11.85 31.4 10.5 L30.65 10.2 M46.15 17.55 L46.55 17.3 53.0 16.4 Q59.0 15.85 64.4 17.55 L64.65 17.75 Q56.95 18.35 49.15 18.05 L46.15 17.55 M116.2 22.2 L107.35 21.7 Q111.45 19.9 116.15 19.85 L137.95 18.6 Q141.05 15.95 144.8 14.15 139.75 23.95 125.2 21.9 L117.4 21.3 116.7 21.95 116.2 22.2 M192.15 15.45 Q174.5 15.6 156.3 12.45 L155.9 11.9 156.3 11.65 156.85 11.55 159.1 11.5 159.1 11.4 Q175.5 12.55 191.75 15.2 L192.15 15.45 M217.45 22.85 Q191.85 24.3 163.2 23.2 161.25 23.1 160.05 21.8 162.75 20.5 166.15 20.9 170.7 21.45 173.75 20.25 L216.55 22.6 217.45 22.85 M270.75 22.95 Q260.15 23.05 250.25 20.15 L249.75 20.0 249.35 20.4 Q248.25 21.55 247.1 20.6 L246.55 19.85 Q247.5 17.7 245.9 15.4 L244.25 13.8 Q234.1 13.15 224.95 14.0 233.45 11.3 242.3 11.25 244.45 10.9 246.1 11.9 L246.95 12.35 248.3 15.3 249.9 17.15 250.2 18.55 250.05 19.4 250.55 19.35 270.55 22.75 270.75 22.95 M287.7 24.55 L297.1 25.25 298.4 25.55 Q294.65 28.7 287.2 24.8 286.75 24.55 287.7 24.55" fill="#8a7a24" fill-rule="evenodd" stroke="none"/>
    <path d="M380.05 13.35 L377.7 13.25 324.35 10.8 320.35 10.6 269.55 8.85 251.9 8.65 238.35 7.85 Q228.55 6.85 219.25 8.55 L209.4 7.35 202.45 6.95 154.55 6.25 142.3 5.75 Q139.2 7.3 134.1 7.2 L131.0 7.2 132.35 7.8 132.7 9.25 132.9 9.8 Q126.1 15.9 115.25 13.9 108.45 12.6 101.6 12.2 99.1 12.05 97.05 10.9 96.85 10.35 96.95 9.8 L97.0 9.5 Q97.4 8.75 98.4 8.45 84.7 5.55 69.0 4.95 63.3 4.75 59.15 2.9 L22.35 2.35 21.15 2.25 21.1 2.35 Q22.65 3.45 23.45 5.2 L24.45 4.95 32.25 4.1 Q43.0 5.9 54.0 6.2 L54.1 6.3 27.5 7.2 23.75 6.75 Q23.9 8.65 24.65 11.0 L24.9 11.9 24.35 14.2 44.4 13.2 57.75 14.0 58.1 14.15 Q42.15 15.1 25.3 14.4 L24.35 14.2 22.5 18.35 22.2 19.4 Q25.1 19.45 27.15 20.7 L26.55 21.0 Q43.25 20.55 60.35 20.7 L67.7 20.8 71.25 20.35 73.45 17.5 Q73.7 17.1 74.1 17.1 L75.2 17.5 Q75.45 17.55 75.7 17.75 77.05 19.9 80.05 20.7 L80.4 20.9 Q85.8 22.35 92.9 22.45 L142.15 24.6 189.25 26.8 197.8 26.9 207.8 27.05 225.65 27.95 Q230.95 23.2 235.4 27.75 253.8 27.65 273.5 28.45 L324.8 30.6 Q329.95 30.85 334.3 31.95 L348.55 31.3 354.5 30.9 404.6 33.85 404.55 33.4 404.45 32.6 404.1 30.0 Q394.7 27.9 384.85 28.5 L384.1 28.25 383.95 27.95 383.9 27.65 383.9 27.4 Q383.8 26.9 384.2 26.55 391.15 24.95 398.65 24.0 L399.05 23.45 401.25 21.65 402.95 20.2 402.95 20.05 354.35 21.25 354.35 21.1 Q372.8 17.3 392.35 18.55 396.8 18.85 401.0 18.45 L403.15 18.75 Q403.35 17.85 403.85 17.1 404.55 15.9 404.7 14.65 L390.9 13.0 390.85 13.1 387.8 13.3 Q383.9 13.25 380.05 13.35 M367.15 27.4 L346.55 25.95 328.0 25.25 321.2 24.7 312.2 23.95 298.9 23.45 Q310.65 21.6 323.55 23.2 335.85 24.75 348.55 23.5 358.05 24.8 367.05 27.3 L367.15 27.4 M320.95 14.2 Q328.45 13.75 334.65 15.5 L334.8 15.65 Q312.55 17.0 289.6 15.4 L257.8 12.6 Q288.6 14.4 319.8 14.35 L320.95 14.2 M339.7 33.8 Q332.55 36.05 323.45 34.1 315.05 32.3 306.35 32.3 L241.9 29.65 241.35 29.45 234.85 30.25 Q233.1 29.65 232.1 28.25 228.85 28.05 226.3 30.7 L189.1 29.6 114.45 25.55 90.05 24.5 86.95 24.35 Q83.7 24.1 80.55 24.4 78.65 23.75 77.95 22.15 76.0 21.45 74.5 20.5 L73.15 22.65 72.65 23.25 60.2 23.4 54.0 23.35 54.0 29.1 Q53.85 35.9 53.05 43.2 51.2 59.6 51.4 76.4 51.6 97.7 49.65 118.85 48.2 135.65 49.4 152.35 L49.95 152.85 49.5 153.65 49.5 153.7 49.3 154.05 49.1 154.35 48.6 153.9 41.45 152.85 Q40.75 152.0 39.7 151.65 L39.4 152.7 Q39.2 153.05 38.75 153.2 37.45 153.5 36.6 152.75 36.15 150.95 35.2 149.3 L34.9 148.75 34.3 151.0 33.95 151.8 Q29.3 153.65 25.9 151.55 L25.5 152.25 25.1 151.05 24.35 150.4 Q24.3 149.9 24.85 149.75 24.35 145.65 27.15 141.15 L29.35 137.85 Q27.4 131.5 29.4 125.15 L29.5 124.85 Q29.0 123.9 29.35 122.9 L29.5 122.6 Q31.8 121.45 34.65 121.75 34.75 120.85 35.25 120.05 L35.35 119.8 Q34.9 117.9 34.6 115.85 L34.55 115.55 33.55 114.7 Q32.0 114.5 30.55 113.9 30.35 112.3 29.65 110.8 L29.5 110.5 Q31.7 90.2 30.3 70.0 29.95 65.25 30.1 60.35 30.15 58.75 30.7 57.3 30.2 56.35 30.3 55.3 L30.35 55.0 32.15 53.4 32.8 51.15 32.85 50.9 35.15 48.45 Q32.1 46.0 28.8 44.15 29.05 42.45 30.85 41.4 31.65 35.0 31.5 28.7 L31.45 26.5 Q31.4 26.2 31.5 25.95 30.6 23.9 31.65 22.05 L25.3 21.45 Q22.1 22.4 19.15 21.35 22.4 14.8 20.65 8.25 L20.4 6.75 Q20.7 5.95 20.6 5.35 L20.6 5.05 18.45 2.7 Q18.3 1.85 19.05 1.3 L19.2 1.2 18.95 0.65 Q24.35 -0.55 30.8 0.45 L40.85 1.0 Q50.9 0.6 60.95 0.85 L73.2 1.2 Q85.25 1.65 97.35 1.1 104.4 0.75 111.4 1.4 157.05 5.45 202.7 4.75 210.8 4.6 218.8 6.15 223.75 5.15 228.95 5.45 L238.5 6.15 273.0 7.2 Q284.2 6.95 295.6 6.95 L300.05 6.75 331.25 8.6 385.1 10.95 390.15 11.25 Q394.3 10.5 399.1 11.15 L406.75 11.85 407.45 12.0 407.9 12.3 408.2 12.6 408.4 12.9 408.6 13.45 408.45 13.95 Q407.75 14.9 407.65 15.95 407.45 17.25 406.65 18.45 L406.55 18.75 406.65 19.0 406.75 19.3 406.95 20.75 406.55 21.25 405.2 22.45 403.3 23.7 Q403.2 23.8 403.25 23.95 L403.35 24.25 403.45 24.55 403.55 25.1 403.4 25.4 403.15 25.65 402.85 25.95 402.6 26.2 403.2 26.6 Q405.6 27.2 407.1 28.85 L407.3 29.1 407.4 29.65 407.8 31.9 Q408.15 33.25 407.5 34.45 L407.45 34.55 407.2 34.65 407.0 34.7 406.95 34.7 Q401.85 36.15 395.7 35.8 396.35 39.7 395.95 44.05 L395.4 47.7 Q395.1 49.25 395.1 51.0 L395.4 60.3 394.5 61.7 394.3 61.85 391.55 62.15 Q390.55 63.8 388.9 65.15 390.35 67.9 391.65 71.15 L389.35 112.5 Q388.75 123.8 389.1 135.05 389.4 147.6 391.5 159.9 392.1 163.35 391.15 166.55 L391.95 167.6 391.95 167.85 Q388.45 169.95 383.7 167.5 383.05 163.65 383.0 159.6 L383.0 158.75 Q382.0 160.05 382.0 162.45 381.95 162.9 381.55 163.2 379.95 163.75 379.2 162.55 378.55 163.2 377.9 164.85 L377.65 165.4 Q372.95 167.05 369.7 165.7 L369.45 166.7 Q368.1 166.95 367.55 165.95 368.8 155.65 370.8 145.55 L370.95 145.25 370.65 144.1 370.55 143.85 Q372.05 136.95 371.35 130.05 L371.35 129.75 Q370.25 122.65 374.3 116.8 L375.35 114.7 374.85 112.15 374.8 111.85 Q373.1 110.5 370.85 109.65 369.75 98.75 371.15 87.4 372.75 74.15 373.05 61.0 372.7 50.9 373.4 41.0 L374.0 34.2 Q356.05 33.4 338.6 33.35 L339.7 33.8 M377.75 41.2 Q378.0 37.8 378.4 34.4 L374.65 34.2 Q375.35 37.55 375.65 41.1 376.0 45.15 375.85 49.45 L374.65 71.95 Q373.45 90.0 373.1 107.95 381.95 112.7 375.6 119.75 373.5 122.0 373.95 124.95 374.65 130.15 374.35 135.6 373.5 150.3 370.1 164.2 L374.05 163.65 Q374.5 157.8 375.35 151.45 L375.85 151.35 Q377.1 157.45 375.0 163.5 L375.95 163.35 Q376.35 161.45 377.55 159.75 L377.9 159.2 379.95 158.9 380.2 158.85 Q380.95 155.1 383.2 152.6 381.9 151.15 382.05 148.3 L382.2 146.0 Q383.95 139.5 383.8 132.6 383.95 131.7 384.45 131.1 L384.55 131.1 Q384.5 141.35 383.85 152.05 L384.35 152.25 Q384.6 152.35 384.85 152.55 386.3 158.55 385.65 164.95 L385.6 165.5 388.8 166.1 Q386.75 145.9 386.0 125.5 L385.85 118.35 Q387.15 107.9 386.9 97.2 L388.0 88.4 Q387.55 80.85 388.8 73.2 L388.85 72.4 Q387.35 70.9 387.7 68.95 L387.7 68.65 Q386.95 67.5 385.8 66.6 386.4 61.15 392.85 59.45 391.7 51.3 393.1 43.75 393.8 39.65 395.3 35.75 L391.4 35.3 389.45 35.05 Q389.5 38.0 388.45 41.2 L388.2 41.35 Q386.95 37.6 389.15 35.0 L386.5 34.8 379.25 34.4 Q379.7 37.8 379.8 41.4 L379.55 49.2 Q378.9 56.5 378.65 63.8 378.6 65.05 377.75 66.05 376.75 53.95 377.75 41.2 M384.5 66.95 Q384.7 72.25 383.95 77.9 L383.9 78.2 Q384.5 79.2 385.65 79.95 L383.45 100.15 383.0 101.0 Q381.85 91.4 384.0 81.3 L384.1 80.45 382.65 78.7 Q382.6 72.75 384.05 67.05 L384.5 66.95 M390.8 43.35 L391.3 41.75 391.7 41.65 391.5 43.5 Q390.8 51.8 390.35 60.2 L390.1 60.4 Q388.35 52.1 390.8 43.35 M42.55 28.3 Q42.75 25.85 44.25 24.55 L44.95 28.2 45.55 33.15 Q45.75 36.0 48.25 38.05 L49.35 39.15 Q48.75 33.65 46.95 28.35 L46.95 28.25 Q46.4 26.65 46.6 24.9 L46.7 23.5 47.05 23.1 38.2 22.6 37.85 28.65 37.05 46.8 38.35 47.7 Q37.95 50.05 35.5 51.8 L34.95 54.05 34.8 54.35 33.35 55.95 Q33.05 76.25 33.7 96.6 33.85 102.9 32.4 108.9 33.0 110.0 33.25 111.2 L33.3 111.5 Q35.8 112.75 37.55 114.85 39.6 120.15 36.0 124.55 L32.55 125.1 Q31.05 132.4 30.95 139.7 30.95 140.85 30.45 142.15 28.75 146.2 26.85 149.85 L27.9 150.25 Q30.1 150.25 31.55 149.65 31.8 145.7 34.1 142.55 34.25 142.3 34.7 142.25 L35.75 142.55 36.1 142.75 Q37.3 145.2 37.6 147.9 L37.75 148.45 Q40.75 148.8 43.05 150.65 L46.55 150.95 Q45.85 149.1 45.95 146.6 L46.25 135.35 Q46.9 113.0 48.25 90.9 L50.8 46.2 50.9 43.55 Q50.15 43.0 49.75 42.1 42.15 37.1 42.5 28.7 L42.55 28.3 M36.45 28.65 Q36.9 25.6 37.7 22.55 L32.85 22.15 33.45 28.6 Q33.75 35.3 32.9 42.5 L32.85 42.8 Q32.8 44.15 36.15 46.2 L36.55 46.45 Q35.1 37.5 36.45 28.65 M51.45 28.75 Q51.9 25.85 53.0 23.3 L48.55 23.15 Q48.2 25.75 48.4 28.4 48.8 33.25 51.05 38.25 L51.05 38.3 51.1 33.55 Q51.1 31.05 51.45 28.75 M45.7 79.35 Q45.25 71.6 44.2 63.35 43.45 57.35 43.6 51.3 L43.85 44.15 44.95 45.35 45.15 45.6 Q44.9 59.25 45.65 72.75 L45.85 79.35 45.7 79.35 M41.25 58.6 Q42.55 75.3 41.55 92.45 L41.45 92.65 Q40.75 75.55 41.0 58.6 L41.25 58.6 M111.6 3.8 Q111.55 5.65 107.3 6.9 L107.35 7.1 Q114.2 8.95 120.15 6.7 117.45 5.95 116.2 4.2 L117.35 4.1 111.6 3.8 M110.5 3.75 Q92.75 2.95 75.05 2.95 81.5 3.5 87.95 4.75 96.1 5.45 102.5 7.85 102.25 9.1 100.7 9.55 100.25 9.6 99.9 9.9 114.4 13.35 129.0 10.45 129.8 10.25 129.95 9.7 126.65 8.8 123.75 7.3 128.0 5.6 132.75 5.05 L118.6 4.15 Q120.5 4.4 122.35 5.65 122.7 6.45 122.55 7.35 L122.25 8.2 Q113.6 11.75 105.0 7.85 104.75 7.1 105.05 6.4 L105.25 5.85 109.2 3.95 109.3 3.85 110.5 3.75 M136.85 10.35 Q143.45 8.75 150.6 7.65 L156.3 7.2 Q180.75 9.9 205.5 11.0 207.1 11.05 207.85 12.05 L173.75 11.0 168.45 10.45 Q153.55 8.0 139.15 12.0 137.8 14.45 135.4 16.0 131.9 18.2 126.15 18.6 108.15 19.65 91.35 15.15 90.3 14.9 89.6 14.3 89.05 13.85 88.75 13.25 L88.75 12.95 Q88.8 12.3 89.25 11.8 L89.45 11.6 89.75 11.3 Q89.6 11.15 89.4 11.15 L86.85 10.9 86.4 10.6 85.75 10.0 Q86.05 9.45 86.95 9.35 90.4 8.85 92.7 10.95 L92.6 11.2 91.55 12.35 90.9 12.85 97.25 14.6 Q106.45 16.65 116.7 16.65 L127.0 15.7 Q131.5 14.9 135.9 13.4 L136.1 13.1 136.6 11.75 136.75 10.9 136.85 10.35 M189.7 18.45 L173.75 19.25 145.1 17.05 161.1 17.0 Q194.45 17.0 227.9 18.25 232.15 16.25 237.0 16.05 L239.7 16.15 Q241.55 16.95 242.45 18.45 L243.9 20.15 243.95 20.45 244.05 21.6 244.35 22.45 244.2 22.7 243.9 23.55 243.8 24.1 278.3 25.4 278.35 25.5 Q277.4 25.65 276.75 26.15 L276.3 26.35 243.25 26.05 242.7 25.8 Q242.1 25.5 241.95 25.0 241.8 24.25 242.0 23.55 242.3 22.15 242.15 20.75 L241.55 19.8 Q240.95 18.75 239.8 18.15 232.95 17.3 226.35 19.1 L218.45 19.7 189.7 18.45 M36.7 81.75 Q39.55 92.2 37.45 102.35 L37.4 102.6 Q36.65 106.65 39.8 110.3 39.8 111.5 40.6 112.6 41.9 120.55 38.6 128.05 37.65 129.65 35.8 130.2 36.8 136.45 36.6 142.5 L36.25 142.7 Q33.65 136.9 35.0 130.2 33.05 129.15 32.75 127.25 34.4 126.7 35.65 128.3 36.05 127.75 36.6 127.3 38.65 122.4 38.5 117.5 37.75 110.6 35.55 103.95 35.1 102.55 35.35 101.0 36.5 93.65 36.0 86.15 35.8 83.55 36.7 81.75 M43.0 109.95 Q45.95 128.15 43.9 146.65 L43.85 146.9 Q41.6 143.25 42.35 137.9 43.3 130.8 43.0 123.6 42.65 116.05 43.0 109.95 M376.9 85.65 Q378.25 94.75 377.25 104.7 L377.35 105.0 Q378.2 105.5 379.55 105.75 L381.9 108.35 Q384.25 118.9 378.85 128.75 378.2 129.95 378.2 131.35 378.25 137.1 376.55 142.55 377.0 143.6 376.45 144.5 L376.3 144.8 375.35 141.95 Q376.6 134.05 376.55 126.2 L376.55 125.9 Q380.7 120.7 381.25 114.25 381.15 110.4 378.8 107.2 L376.55 106.75 375.5 105.6 376.6 85.9 Q376.6 85.65 376.9 85.65" fill="#000000" fill-rule="evenodd" stroke="none"/>
    <path d="M111.6 3.8 L117.35 4.1 116.2 4.2 Q117.45 5.95 120.15 6.7 114.2 8.95 107.35 7.1 L107.3 6.9 Q111.55 5.65 111.6 3.8" fill="#39360f" fill-rule="evenodd" stroke="none"/>
    <path d="M375.65 41.1 Q375.35 37.55 374.65 34.2 L378.4 34.4 Q378.0 37.8 377.75 41.2 L375.65 41.1 M379.8 41.4 Q379.7 37.8 379.25 34.4 L386.5 34.8 389.15 35.0 Q386.95 37.6 388.2 41.35 L388.45 41.2 Q389.5 38.0 389.45 35.05 L391.4 35.3 395.3 35.75 Q393.8 39.65 393.1 43.75 L391.5 43.5 391.7 41.65 391.3 41.75 390.8 43.35 387.95 42.8 379.8 41.4 M42.55 28.3 L40.35 28.5 37.85 28.65 38.2 22.6 47.05 23.1 46.7 23.5 46.6 24.9 Q46.4 26.65 46.95 28.25 L45.7 28.2 44.95 28.2 44.25 24.55 Q42.75 25.85 42.55 28.3 M33.45 28.6 L32.85 22.15 37.7 22.55 Q36.9 25.6 36.45 28.65 L33.45 28.6 M48.4 28.4 Q48.2 25.75 48.55 23.15 L53.0 23.3 Q51.9 25.85 51.45 28.75 L48.4 28.4" fill="#46450f" fill-rule="evenodd" stroke="none"/>
    <path d="M377.75 41.2 Q376.75 53.95 377.75 66.05 378.6 65.05 378.65 63.8 378.9 56.5 379.55 49.2 L379.8 41.4 387.95 42.8 390.8 43.35 Q388.35 52.1 390.1 60.4 L390.35 60.2 Q390.8 51.8 391.5 43.5 L393.1 43.75 Q391.7 51.3 392.85 59.45 386.4 61.15 385.8 66.6 386.95 67.5 387.7 68.65 L387.7 68.95 Q387.35 70.9 388.85 72.4 L388.8 73.2 Q387.55 80.85 388.0 88.4 L386.9 97.2 386.55 90.4 Q383.75 93.85 384.4 99.75 386.05 115.75 380.25 129.65 380.35 139.25 381.5 148.3 L382.2 146.0 382.05 148.3 Q381.9 151.15 383.2 152.6 380.95 155.1 380.2 158.85 L379.95 158.9 377.9 159.2 377.55 159.75 Q376.35 161.45 375.95 163.35 L375.0 163.5 Q377.1 157.45 375.85 151.35 L375.35 151.45 Q374.5 157.8 374.05 163.65 L370.1 164.2 Q373.5 150.3 374.35 135.6 374.65 130.15 373.95 124.95 373.5 122.0 375.6 119.75 381.95 112.7 373.1 107.95 373.45 90.0 374.65 71.95 L375.85 49.45 Q376.0 45.15 375.65 41.1 L377.75 41.2 M385.85 118.35 L386.0 125.5 Q386.75 145.9 388.8 166.1 L385.6 165.5 385.65 164.95 Q386.3 158.55 384.85 152.55 384.6 152.35 384.35 152.25 L383.85 152.05 Q384.5 141.35 384.55 131.1 L384.45 131.1 Q383.95 131.7 383.8 132.6 L383.65 129.75 384.0 129.3 385.85 118.35 M383.75 44.4 L383.25 44.45 Q379.35 56.65 380.55 69.05 L380.8 68.7 Q384.65 56.7 383.75 44.4 M384.5 66.95 L384.05 67.05 Q382.6 72.75 382.65 78.7 L384.1 80.45 384.0 81.3 Q381.85 91.4 383.0 101.0 L383.45 100.15 385.65 79.95 Q384.5 79.2 383.9 78.2 L383.95 77.9 Q384.7 72.25 384.5 66.95 M377.85 69.25 L377.65 69.3 Q374.0 77.8 376.2 85.65 376.2 85.4 376.35 85.2 379.4 77.25 377.85 69.25 M37.85 28.65 L40.35 28.5 42.55 28.3 42.5 28.7 Q42.15 37.1 49.75 42.1 50.15 43.0 50.9 43.55 L50.8 46.2 48.25 90.9 Q46.9 113.0 46.25 135.35 L45.95 146.6 Q45.85 149.1 46.55 150.95 L43.05 150.65 Q40.75 148.8 37.75 148.45 L37.6 147.9 Q37.3 145.2 36.1 142.75 L35.75 142.55 34.7 142.25 Q34.25 142.3 34.1 142.55 31.8 145.7 31.55 149.65 30.1 150.25 27.9 150.25 L26.85 149.85 Q28.75 146.2 30.45 142.15 30.95 140.85 30.95 139.7 31.05 132.4 32.55 125.1 L36.0 124.55 Q39.6 120.15 37.55 114.85 35.8 112.75 33.3 111.5 L33.25 111.2 Q33.0 110.0 32.4 108.9 33.85 102.9 33.7 96.6 33.05 76.25 33.35 55.95 L34.8 54.35 34.95 54.05 35.5 51.8 Q37.95 50.05 38.35 47.7 L37.05 46.8 37.85 28.65 M44.95 28.2 L45.7 28.2 46.95 28.25 46.95 28.35 Q48.75 33.65 49.35 39.15 L48.25 38.05 Q45.75 36.0 45.55 33.15 L44.95 28.2 M45.85 79.35 L45.65 72.75 Q44.9 59.25 45.15 45.6 L44.95 45.35 43.85 44.15 43.6 51.3 Q43.45 57.35 44.2 63.35 45.25 71.6 45.7 79.35 45.45 79.3 45.45 79.55 44.55 90.1 42.2 100.4 L42.15 100.85 Q41.7 104.25 43.0 106.55 L43.15 106.05 Q46.95 93.0 45.95 79.4 L45.85 79.35 M36.0 58.05 L35.8 58.05 Q31.65 69.9 35.5 80.55 L35.65 80.1 Q36.45 69.3 36.0 58.05 M40.35 30.15 Q39.85 30.0 39.85 30.3 38.75 42.25 40.4 53.5 L40.7 53.2 Q42.7 41.6 40.35 30.15 M41.25 58.6 L41.0 58.6 Q40.75 75.55 41.45 92.65 L41.55 92.45 Q42.55 75.3 41.25 58.6 M43.0 109.95 Q42.65 116.05 43.0 123.6 43.3 130.8 42.35 137.9 41.6 143.25 43.85 146.9 L43.9 146.65 Q45.95 128.15 43.0 109.95 M36.7 81.75 Q35.8 83.55 36.0 86.15 36.5 93.65 35.35 101.0 35.1 102.55 35.55 103.95 37.75 110.6 38.5 117.5 38.65 122.4 36.6 127.3 36.05 127.75 35.65 128.3 34.4 126.7 32.75 127.25 33.05 129.15 35.0 130.2 33.65 136.9 36.25 142.7 L36.6 142.5 Q36.8 136.45 35.8 130.2 37.65 129.65 38.6 128.05 41.9 120.55 40.6 112.6 39.8 111.5 39.8 110.3 36.65 106.65 37.4 102.6 L37.45 102.35 Q39.55 92.2 36.7 81.75 M40.85 142.5 L41.0 142.0 Q42.35 134.2 41.3 127.0 38.6 129.65 38.3 134.55 37.95 140.1 40.85 142.5 M376.9 85.65 Q376.6 85.65 376.6 85.9 L375.5 105.6 376.55 106.75 378.8 107.2 Q381.15 110.4 381.25 114.25 380.7 120.7 376.55 125.9 L376.55 126.2 Q376.6 134.05 375.35 141.95 L376.3 144.8 376.45 144.5 Q377.0 143.6 376.55 142.55 378.25 137.1 378.2 131.35 378.2 129.95 378.85 128.75 384.25 118.9 381.9 108.35 L379.55 105.75 Q378.2 105.5 377.35 105.0 L377.25 104.7 Q378.25 94.75 376.9 85.65 M375.55 124.35 Q379.9 121.75 377.8 119.05 377.3 119.1 376.9 119.6 375.0 121.9 374.85 124.6 L375.55 124.35" fill="#595913" fill-rule="evenodd" stroke="none"/>
    <path d="M386.9 97.2 Q387.15 107.9 385.85 118.35 L384.0 129.3 383.65 129.75 383.8 132.6 Q383.95 139.5 382.2 146.0 L381.5 148.3 Q380.35 139.25 380.25 129.65 386.05 115.75 384.4 99.75 383.75 93.85 386.55 90.4 L386.9 97.2 M383.75 44.4 Q384.65 56.7 380.8 68.7 L380.55 69.05 Q379.35 56.65 383.25 44.45 L383.75 44.4 M377.85 69.25 Q379.4 77.25 376.35 85.2 376.2 85.4 376.2 85.65 374.0 77.8 377.65 69.3 L377.85 69.25 M45.85 79.35 L45.95 79.4 Q46.95 93.0 43.15 106.05 L43.0 106.55 Q41.7 104.25 42.15 100.85 L42.2 100.4 Q44.55 90.1 45.45 79.55 45.45 79.3 45.7 79.35 L45.85 79.35 M40.35 30.15 Q42.7 41.6 40.7 53.2 L40.4 53.5 Q38.75 42.25 39.85 30.3 39.85 30.0 40.35 30.15 M36.0 58.05 Q36.45 69.3 35.65 80.1 L35.5 80.55 Q31.65 69.9 35.8 58.05 L36.0 58.05 M40.85 142.5 Q37.95 140.1 38.3 134.55 38.6 129.65 41.3 127.0 42.35 134.2 41.0 142.0 L40.85 142.5 M375.55 124.35 L374.85 124.6 Q375.0 121.9 376.9 119.6 377.3 119.1 377.8 119.05 379.9 121.75 375.55 124.35" fill="#77771a" fill-rule="evenodd" stroke="none"/>
    <path d="M33.45 28.6 L36.45 28.65 Q35.1 37.5 36.55 46.45 L36.15 46.2 Q32.8 44.15 32.85 42.8 L32.9 42.5 Q33.75 35.3 33.45 28.6 M48.4 28.4 L51.45 28.75 Q51.1 31.05 51.1 33.55 L51.05 38.3 51.05 38.25 Q48.8 33.25 48.4 28.4" fill="#515913" fill-rule="evenodd" stroke="none"/>
  </g>
</svg>
