<?xml version="1.0" encoding="UTF-8" standalone="no"?>
<svg xmlns:ffdec="https://www.free-decompiler.com/flash" xmlns:xlink="http://www.w3.org/1999/xlink" ffdec:objectType="shape" height="591.2px" width="534.3px" xmlns="http://www.w3.org/2000/svg">
  <g transform="matrix(1.0, 0.0, 0.0, 1.0, 14.85, 19.7)">
    <path d="M421.65 -19.7 L423.35 29.05 469.55 27.5 470.7 61.2 490.75 60.5 491.3 76.7 519.45 75.75 519.45 571.5 -14.85 571.5 -14.85 86.85 43.9 84.8 41.75 22.4 84.2 20.9 82.8 -19.7 421.65 -19.7 M354.45 400.7 Q354.9 401.65 355.75 401.5 L355.85 401.15 356.0 400.4 356.05 400.2 356.0 400.0 Q355.1 397.35 352.15 397.7 351.3 397.85 350.65 398.6 L349.9 399.55 349.9 399.75 350.05 400.15 350.15 400.35 350.75 400.2 Q351.8 399.45 353.05 399.45 353.95 399.85 354.45 400.7 M321.55 299.9 L321.55 299.8 Q321.0 298.9 319.85 298.9 L319.6 298.95 318.95 299.2 318.8 299.4 318.7 299.6 318.65 299.75 318.65 299.9 318.65 299.95 318.65 300.05 318.65 300.1 318.7 300.1 318.85 300.2 318.95 300.2 319.0 300.15 319.2 299.8 319.4 299.65 319.85 299.55 320.05 299.55 320.55 299.7 321.35 300.0 321.45 300.0 321.55 299.9 M257.15 97.95 L257.0 97.95 Q255.55 98.05 255.05 99.3 L255.4 99.4 Q256.3 98.65 257.45 98.7 257.85 98.8 258.05 99.15 258.45 99.8 259.0 100.15 L259.15 100.0 259.2 99.7 259.2 99.6 Q258.75 98.05 257.15 97.95 M449.7 298.15 L449.6 298.15 447.7 297.65 447.4 297.7 Q446.05 298.15 445.6 299.4 L445.65 299.45 445.75 299.55 445.85 299.6 446.25 299.35 447.25 298.6 449.3 298.7 449.3 298.8 449.4 298.95 449.45 299.05 449.45 299.2 449.45 299.3 449.5 299.35 449.65 299.4 449.8 299.35 449.8 299.3 449.9 299.0 449.95 298.8 449.9 298.7 449.8 298.35 449.7 298.15" fill="#ffffff" fill-rule="evenodd" stroke="none"/>
    <path d="M449.7 298.15 L449.8 298.35 449.9 298.7 449.95 298.8 449.9 299.0 449.8 299.3 449.8 299.35 449.65 299.4 449.5 299.35 449.45 299.3 449.45 299.2 449.45 299.05 449.4 298.95 449.3 298.8 449.3 298.7 447.25 298.6 446.25 299.35 445.85 299.6 445.75 299.55 445.65 299.45 445.6 299.4 Q446.05 298.15 447.4 297.7 L447.7 297.65 449.6 298.15 449.7 298.15 M257.15 97.95 Q258.75 98.05 259.2 99.6 L259.2 99.7 259.15 100.0 259.0 100.15 Q258.45 99.8 258.05 99.15 257.85 98.8 257.45 98.7 256.3 98.65 255.4 99.4 L255.05 99.3 Q255.55 98.05 257.0 97.95 L257.15 97.95 M321.55 299.9 L321.45 300.0 321.35 300.0 320.55 299.7 320.05 299.55 319.85 299.55 319.4 299.65 319.2 299.8 319.0 300.15 318.95 300.2 318.85 300.2 318.7 300.1 318.65 300.1 318.65 300.05 318.65 299.95 318.65 299.9 318.65 299.75 318.7 299.6 318.8 299.4 318.95 299.2 319.6 298.95 319.85 298.9 Q321.0 298.9 321.55 299.8 L321.55 299.9 M354.45 400.7 Q353.95 399.85 353.05 399.45 351.8 399.45 350.75 400.2 L350.15 400.35 350.05 400.15 349.9 399.75 349.9 399.55 350.65 398.6 Q351.3 397.85 352.15 397.7 355.1 397.35 356.0 400.0 L356.05 400.2 356.0 400.4 355.85 401.15 355.75 401.5 Q354.9 401.65 354.45 400.7" fill="#dadada" fill-rule="evenodd" stroke="none"/>
  </g>
</svg>
