<?xml version="1.0" encoding="UTF-8" standalone="no"?>
<svg xmlns:ffdec="https://www.free-decompiler.com/flash" xmlns:xlink="http://www.w3.org/1999/xlink" ffdec:objectType="shape" height="35.0px" width="40.0px" xmlns="http://www.w3.org/2000/svg">
  <g transform="matrix(1.0, 0.0, 0.0, 1.0, 20.0, 17.5)">
    <path d="M12.75 -13.75 Q15.6 -11.85 17.15 -9.05 L17.4 -8.75 17.45 -8.65 17.75 -8.6 Q19.8 -4.7 20.0 -0.3 L20.0 0.15 19.85 0.15 Q19.9 2.25 19.3 4.5 18.55 7.2 16.7 9.25 16.15 10.4 15.0 10.75 14.65 12.75 13.1 14.0 10.7 16.85 7.1 16.1 6.35 16.6 5.35 16.9 1.8 18.05 -1.7 16.95 -3.55 16.3 -4.7 14.85 L-4.75 14.8 -4.75 14.75 -4.9 14.4 Q-6.75 13.75 -7.8 11.8 -9.45 8.65 -9.95 5.1 -10.1 4.05 -9.8 3.25 -10.4 3.1 -10.7 2.15 L-10.8 1.0 -10.8 0.85 -10.4 -0.35 -10.35 -0.4 -10.35 -0.45 -10.7 -0.5 Q-11.3 -2.1 -11.35 -3.65 L-11.4 -3.55 -11.45 -4.5 -11.45 -4.55 Q-11.35 -4.85 -11.4 -5.1 L-11.35 -5.2 -11.1 -6.65 -13.3 -6.25 -13.35 -3.05 Q-12.45 -0.9 -10.95 0.85 L-10.9 0.95 -11.05 1.25 Q-11.0 1.6 -11.4 2.15 L-12.1 3.35 -12.3 3.35 -12.7 3.25 Q-13.35 1.95 -13.35 0.7 -14.1 -2.65 -13.9 -5.95 L-16.5 -4.3 Q-16.45 -3.8 -16.8 -3.2 L-17.2 -2.1 -17.5 -1.1 -17.05 1.45 -16.95 1.55 -16.9 1.75 -16.9 1.85 -16.95 1.95 -16.95 2.05 -16.3 4.0 Q-16.05 4.1 -16.05 4.4 L-16.05 4.45 -16.2 4.6 -16.2 4.7 -16.45 4.8 Q-17.9 5.9 -19.55 5.25 L-19.6 5.45 -19.9 5.25 -19.9 5.1 -20.0 5.1 -19.95 4.95 -19.9 4.9 Q-19.95 2.85 -19.4 0.9 L-19.4 0.7 -18.9 -0.15 -18.85 -0.2 -17.55 -3.05 -17.0 -4.2 -17.05 -4.25 -17.05 -4.35 Q-16.0 -5.6 -14.6 -6.25 L-14.6 -6.4 -13.85 -6.8 -13.5 -9.15 -12.9 -11.4 Q-11.9 -12.45 -10.5 -12.7 L-10.4 -12.75 -10.35 -12.65 -8.5 -12.85 -7.2 -12.85 -6.65 -13.3 -6.7 -13.35 -6.5 -13.5 -5.6 -14.05 Q-3.3 -15.9 -0.7 -17.05 L3.2 -17.5 Q7.2 -17.65 10.4 -15.65 L10.55 -15.75 11.9 -14.7 12.0 -14.65 12.05 -14.6 12.3 -14.35 12.3 -14.3 12.5 -14.05 12.75 -13.8 12.75 -13.75 M14.8 6.05 L14.95 6.55 Q14.85 7.45 15.15 8.05 L15.1 10.15 Q19.1 6.05 19.15 0.15 L19.1 -1.55 18.5 -4.45 18.3 -4.55 18.25 -4.95 18.05 -5.8 17.65 -6.8 17.55 -6.85 17.1 -7.65 17.05 -7.85 Q15.6 -11.0 12.8 -13.05 L12.8 -13.1 12.75 -13.1 13.65 -10.3 13.75 -9.8 Q14.15 -7.5 13.8 -5.1 15.85 -4.45 16.5 -2.1 16.85 -1.0 16.85 0.1 16.9 2.85 14.85 5.15 L14.65 5.4 14.8 6.05 M13.1 -10.05 L13.05 -10.3 12.95 -10.7 12.1 -12.9 12.1 -12.85 11.55 -13.55 Q11.15 -14.9 9.5 -15.55 4.15 -17.75 -0.85 -16.25 -2.8 -15.4 -4.5 -14.05 L-5.45 -13.15 -5.5 -13.1 -5.7 -13.0 -6.15 -12.7 Q-4.45 -12.35 -3.0 -11.35 L-2.95 -11.3 -2.9 -11.25 -2.85 -11.05 -2.7 -10.85 -2.75 -10.55 -2.75 -10.5 -2.8 -10.5 -2.9 -10.5 -3.05 -10.5 Q-4.8 -11.8 -6.8 -12.15 -9.2 -10.2 -10.1 -7.45 L-8.85 -6.65 -8.8 -6.6 -8.85 -6.55 -8.95 -6.4 -9.05 -6.35 -9.15 -6.3 -9.3 -6.4 -9.5 -6.5 -9.6 -6.6 -10.35 -6.65 -10.75 -3.95 -10.7 -2.7 -10.35 -1.25 -10.3 -1.15 -9.95 -2.9 -9.9 -2.95 Q-9.25 -1.2 -10.0 0.75 L-10.0 0.8 -10.15 1.0 -10.2 1.05 -10.15 1.75 -10.15 1.9 -9.75 2.7 -9.4 2.8 -9.25 2.65 Q-7.8 0.2 -7.9 -2.75 L-7.9 -2.85 -7.75 -3.0 -7.65 -2.7 Q-7.35 -1.9 -7.35 -1.1 -5.8 0.35 -5.3 2.2 L-5.3 2.25 -5.25 2.65 -5.2 2.9 Q-5.05 3.85 -5.2 4.95 L-5.55 5.6 -5.8 5.45 -5.8 5.35 -5.75 5.25 -5.85 5.3 -6.85 4.8 Q-6.7 5.45 -6.7 6.25 L-6.4 7.3 -5.95 7.95 -5.8 7.8 -5.65 7.8 Q-5.4 7.85 -5.2 8.05 -2.45 8.55 -0.15 8.1 3.55 7.3 6.3 3.95 L6.35 3.8 6.4 3.65 Q8.7 0.8 8.95 -2.55 L8.35 -5.6 7.7 -7.85 7.8 -7.95 8.2 -7.35 9.0 -5.5 9.1 -5.45 8.65 -7.4 7.85 -9.75 9.15 -7.8 9.25 -7.35 9.6 -5.25 9.6 -4.55 Q9.5 -4.35 9.35 -4.45 L9.45 -3.5 9.55 -1.7 9.5 -1.65 9.45 -1.6 9.4 -1.05 9.25 -0.15 8.9 1.0 9.85 0.45 10.2 0.35 10.25 0.3 10.55 -0.15 10.5 -0.2 Q10.85 -2.3 11.75 -4.25 L12.6 -5.25 12.8 -5.25 12.85 -5.25 12.95 -5.25 13.25 -5.2 Q13.7 -7.5 13.1 -10.05 M14.75 -3.7 L14.4 -4.1 13.75 -4.5 13.75 -4.45 13.65 -4.5 13.1 -4.55 13.1 -4.6 12.65 -4.4 Q11.9 -2.8 11.5 -1.05 L11.5 -1.1 11.5 -1.05 10.85 1.35 10.85 1.5 10.85 1.65 10.75 1.65 Q10.5 3.1 11.6 4.4 12.55 5.55 13.75 5.1 14.3 5.05 14.55 4.7 L14.6 4.65 Q17.55 0.8 15.05 -3.3 L14.75 -3.7 M14.2 6.5 L13.95 5.75 13.5 5.8 Q10.9 5.85 10.3 3.4 10.0 2.25 10.3 1.05 L9.35 1.65 8.5 1.95 Q7.8 3.45 6.6 4.85 L6.25 5.2 7.65 6.35 7.7 6.45 Q8.6 7.45 9.05 8.6 9.5 9.85 9.5 11.25 9.5 14.0 7.85 15.55 L9.4 15.4 10.65 15.05 Q12.0 14.3 13.05 13.2 L13.15 13.1 13.15 13.0 13.2 12.95 13.7 12.3 13.95 11.9 Q14.85 9.1 14.2 6.5 M-10.55 -12.0 Q-10.75 -11.9 -11.05 -11.75 -12.8 -11.05 -13.05 -9.05 L-13.25 -7.05 -11.8 -7.45 -10.8 -7.55 -10.15 -9.2 Q-9.2 -10.95 -7.85 -12.25 L-10.55 -12.0 M-18.9 1.25 Q-19.4 3.05 -19.55 4.8 -18.1 4.85 -16.8 4.25 -18.2 1.7 -17.95 -1.1 L-18.9 1.25 M-2.55 -5.35 L-3.1 -6.15 -3.0 -6.25 -2.95 -6.2 -2.8 -6.05 -2.75 -5.95 Q0.5 -4.7 4.0 -5.1 L4.8 -5.35 5.25 -5.7 5.9 -5.75 5.95 -5.7 Q5.3 -4.95 4.55 -4.5 L4.85 -4.2 5.0 -4.1 5.1 -4.05 5.1 -3.85 Q6.1 -2.4 4.8 -0.8 3.85 0.35 2.7 0.1 L2.75 -0.05 Q1.8 -0.05 0.9 -0.85 L-0.55 -2.5 Q-1.25 -3.6 -1.55 -4.8 L-2.55 -5.35 M2.6 -7.6 L2.45 -7.45 2.35 -7.4 Q0.65 -7.15 -1.05 -7.45 L-1.9 -8.35 -1.9 -8.55 -1.75 -8.65 -0.9 -8.1 -0.85 -8.05 3.7 -8.2 4.5 -8.05 Q5.35 -7.6 5.4 -6.7 L5.25 -6.65 5.1 -6.65 Q4.45 -7.35 3.6 -7.6 L2.6 -7.6 M0.55 -4.4 L-0.55 -4.6 -1.25 -4.7 Q-0.15 -2.2 1.1 -1.35 2.4 -0.55 3.15 -0.35 4.1 -0.85 4.8 -1.65 L4.85 -2.6 Q4.35 -2.05 3.05 -2.3 2.5 -2.35 2.1 -2.8 1.4 -3.5 1.4 -4.15 L0.55 -4.4 M2.6 -4.05 L1.85 -4.1 3.45 -2.7 3.75 -2.65 4.55 -3.15 4.6 -3.8 4.3 -4.4 3.5 -4.15 3.4 -4.15 3.2 -4.25 2.6 -4.1 2.6 -4.05 M0.75 1.5 L-2.1 2.65 Q-3.0 3.3 -3.6 4.3 -3.8 4.65 -4.15 4.6 L-4.15 4.3 -4.1 4.0 Q-2.85 1.7 -0.15 1.35 L0.2 1.2 Q0.55 1.15 0.7 1.45 L0.75 1.5 M1.75 4.65 L2.05 4.65 2.2 4.7 2.5 4.95 2.6 5.25 2.5 5.4 2.2 5.55 2.05 5.5 1.9 5.35 -0.45 6.05 -0.5 6.0 -0.55 5.85 -0.55 5.8 -0.35 5.5 -0.1 5.25 1.75 4.65 M-13.15 -0.2 L-12.35 2.6 Q-12.1 1.7 -11.45 1.0 L-13.25 -1.6 -13.15 -0.2 M-5.9 8.55 L-5.95 8.6 Q-7.85 7.0 -7.3 4.45 -8.2 3.75 -8.5 2.65 L-8.95 3.05 -8.95 3.1 -9.05 3.15 -9.3 3.3 Q-9.3 8.9 -5.6 13.1 L-3.85 14.15 Q-2.05 13.95 -0.65 12.5 L-0.55 12.45 Q-0.25 12.15 -0.2 11.7 L-0.05 11.55 0.0 11.5 0.35 10.65 0.4 10.6 0.5 10.45 0.55 10.4 0.95 8.55 -3.55 8.95 -5.5 8.6 -5.65 8.45 -5.9 8.55 M-7.7 1.2 Q-7.15 2.45 -5.85 2.15 -6.15 1.25 -6.75 0.45 L-7.35 -0.55 -7.7 1.2 M-7.95 1.85 L-8.25 2.35 Q-7.35 3.9 -5.7 4.95 -5.5 3.8 -5.7 2.75 -6.45 3.3 -7.5 2.3 L-7.9 1.7 -7.95 1.85 M8.3 8.6 L7.05 6.85 5.8 5.7 Q3.9 7.55 1.65 8.35 1.8 9.0 1.55 9.85 L1.1 10.9 0.45 12.05 Q-0.2 13.3 -1.45 14.0 -2.75 14.8 -4.05 14.85 -2.4 15.9 -0.45 16.45 3.85 17.7 7.2 15.05 8.55 14.0 8.8 12.3 9.1 10.3 8.3 8.6 L8.5 8.8 8.3 8.6 M1.1 10.9 L1.05 10.95 Q0.35 11.6 0.05 12.5 0.35 11.6 1.05 10.95 L1.1 10.9" fill="#000000" fill-rule="evenodd" stroke="none"/>
    <path d="M13.75 -9.8 L13.65 -10.3 12.75 -13.1 12.8 -13.1 12.8 -13.05 Q15.6 -11.0 17.05 -7.85 L17.1 -7.65 17.55 -6.85 17.65 -6.8 18.05 -5.8 18.25 -4.95 18.3 -4.55 18.5 -4.45 19.1 -1.55 19.15 0.15 Q19.1 6.05 15.1 10.15 L15.15 8.05 Q14.85 7.45 14.95 6.55 L14.8 6.05 14.85 6.0 15.0 5.85 15.65 5.3 16.25 4.55 Q16.75 3.9 16.95 3.05 L17.0 2.9 17.5 1.4 17.5 1.15 17.5 0.15 17.5 -0.2 17.3 -1.55 16.0 -5.35 15.95 -5.55 15.55 -6.55 15.35 -6.85 Q14.35 -8.3 13.75 -9.8 M10.85 1.35 L11.5 -1.05 11.5 -1.1 11.5 -1.05 Q11.9 -2.8 12.65 -4.4 L13.1 -4.6 13.1 -4.55 13.65 -4.5 13.75 -4.45 13.75 -4.5 14.4 -4.1 14.75 -3.7 Q15.3 -2.95 15.25 -1.95 L15.2 -1.65 14.65 0.1 14.55 0.45 14.0 1.5 Q13.3 2.35 12.25 2.55 11.55 2.65 11.15 2.2 L11.0 1.95 10.85 1.35 M12.75 -3.5 L12.65 -3.2 12.75 -3.35 12.75 -3.5 M-18.9 1.25 L-17.95 -1.1 Q-18.2 1.7 -16.8 4.25 -18.1 4.85 -19.55 4.8 -19.4 3.05 -18.9 1.25 M12.5 -2.9 L12.55 -2.9 12.55 -2.95 12.5 -2.9 M-13.15 -0.2 L-13.25 -1.6 -11.45 1.0 Q-12.1 1.7 -12.35 2.6 L-13.15 -0.2 M1.1 10.9 L2.6 9.65 Q3.55 8.9 4.7 8.5 L4.95 8.4 5.2 8.3 7.1 8.15 7.7 8.35 7.85 8.4 8.1 8.55 8.3 8.6 Q9.1 10.3 8.8 12.3 8.55 14.0 7.2 15.05 3.85 17.7 -0.45 16.45 -2.4 15.9 -4.05 14.85 -2.75 14.8 -1.45 14.0 -0.2 13.3 0.45 12.05 L1.1 10.9" fill="#ffcc66" fill-rule="evenodd" stroke="none"/>
    <path d="M-7.65 -2.7 L-7.75 -3.0 -7.9 -2.85 -7.9 -2.75 Q-7.8 0.2 -9.25 2.65 L-9.4 2.8 -9.75 2.7 -10.15 1.9 -10.15 1.75 -10.2 1.05 -10.15 1.0 -10.0 0.8 -10.0 0.75 Q-9.25 -1.2 -9.9 -2.95 L-9.95 -2.9 -10.3 -1.15 -10.35 -1.25 -10.7 -2.7 -10.75 -3.95 -10.35 -6.65 -9.6 -6.6 -9.5 -6.5 -9.3 -6.4 -9.15 -6.3 -9.05 -6.35 -8.95 -6.4 -8.85 -6.55 -8.8 -6.6 -8.85 -6.65 -10.1 -7.45 Q-9.2 -10.2 -6.8 -12.15 -4.8 -11.8 -3.05 -10.5 L-2.9 -10.5 -2.8 -10.5 -2.75 -10.5 -2.75 -10.55 -2.7 -10.85 -2.85 -11.05 -2.9 -11.25 -2.95 -11.3 -3.0 -11.35 Q-4.45 -12.35 -6.15 -12.7 L-5.7 -13.0 -5.5 -13.1 -5.45 -13.15 -4.5 -14.05 Q-2.8 -15.4 -0.85 -16.25 4.15 -17.75 9.5 -15.55 11.15 -14.9 11.55 -13.55 L12.1 -12.85 12.1 -12.9 12.95 -10.7 13.05 -10.3 13.1 -10.05 Q13.2 -9.3 12.85 -8.65 L12.75 -8.4 12.15 -7.65 11.9 -7.45 Q11.0 -6.65 9.8 -7.0 L9.25 -7.35 9.15 -7.8 7.85 -9.75 8.65 -7.4 8.2 -7.35 7.8 -7.95 7.7 -7.85 8.35 -5.6 8.25 -2.35 8.05 -1.4 7.55 0.0 7.5 0.25 6.65 1.75 6.45 2.0 5.1 3.8 4.95 4.05 4.35 4.7 4.2 4.85 2.65 6.4 2.5 6.5 1.2 7.35 0.85 7.55 -0.15 8.1 Q-2.45 8.55 -5.2 8.05 -5.4 7.85 -5.65 7.8 L-5.8 7.8 -5.95 7.95 -6.4 7.3 -6.7 6.25 Q-6.7 5.45 -6.85 4.8 L-5.85 5.3 -5.75 5.25 -5.8 5.35 -5.8 5.45 -5.55 5.6 -5.2 4.95 Q-5.05 3.85 -5.2 2.9 L-5.25 2.65 -5.35 1.65 Q-5.75 -0.35 -6.85 -2.05 L-7.65 -2.7 M9.05 8.6 L9.45 7.15 9.5 7.0 10.6 5.65 10.75 5.55 10.95 5.6 11.7 6.25 12.15 6.55 13.35 6.65 13.9 6.55 14.1 6.5 14.2 6.5 Q14.85 9.1 13.95 11.9 L13.7 12.3 13.2 12.95 13.15 13.0 13.15 13.1 13.05 13.2 Q12.0 14.3 10.65 15.05 L9.4 15.4 7.85 15.55 Q9.5 14.0 9.5 11.25 9.5 9.85 9.05 8.6 M-0.55 -2.5 L0.9 -0.85 Q1.8 -0.05 2.75 -0.05 L2.7 0.1 Q3.85 0.35 4.8 -0.8 6.1 -2.4 5.1 -3.85 L5.1 -4.05 5.0 -4.1 4.85 -4.2 4.55 -4.5 Q5.3 -4.95 5.95 -5.7 L5.9 -5.75 5.25 -5.7 4.8 -5.35 4.0 -5.1 Q0.5 -4.7 -2.75 -5.95 L-2.8 -6.05 -2.95 -6.2 -3.0 -6.25 -3.1 -6.15 -2.55 -5.35 -1.95 -4.35 -0.7 -2.7 -0.55 -2.5 M2.6 -7.6 L3.6 -7.6 Q4.45 -7.35 5.1 -6.65 L5.25 -6.65 5.4 -6.7 Q5.35 -7.6 4.5 -8.05 L3.7 -8.2 -0.85 -8.05 -0.9 -8.1 -1.75 -8.65 -1.9 -8.55 -1.9 -8.35 -1.05 -7.45 Q0.65 -7.15 2.35 -7.4 L2.45 -7.45 2.6 -7.6 M-1.1 -6.35 L-1.75 -6.6 -1.75 -6.7 -1.85 -7.0 -1.85 -7.05 Q-1.65 -7.35 -2.0 -7.5 L-2.05 -7.45 -2.3 -6.8 -2.3 -6.7 -2.05 -6.2 -0.9 -6.15 0.45 -5.95 0.4 -6.0 -0.9 -6.35 -1.1 -6.35 M0.4 2.55 L0.25 2.6 Q-1.65 3.05 -2.65 4.5 L-2.6 4.5 Q-1.15 3.4 0.4 2.55 M1.75 4.65 L-0.1 5.25 -0.35 5.5 -0.55 5.8 -0.55 5.85 -0.5 6.0 -0.45 6.05 1.9 5.35 2.05 5.5 2.2 5.55 2.5 5.4 2.6 5.25 2.5 4.95 2.2 4.7 2.05 4.65 1.75 4.65 M0.75 1.5 L0.7 1.45 Q0.55 1.15 0.2 1.2 L-0.15 1.35 Q-2.85 1.7 -4.1 4.0 L-4.15 4.3 -4.15 4.6 Q-3.8 4.65 -3.6 4.3 -3.0 3.3 -2.1 2.65 L0.75 1.5 M-9.8 1.05 L-9.9 1.15 Q-10.15 1.45 -9.9 1.85 L-9.65 2.05 -9.65 2.15 -9.55 2.15 -9.4 2.05 -9.4 2.0 -9.35 2.0 Q-8.55 1.2 -8.8 0.25 L-8.9 0.25 -9.55 1.65 -9.8 1.05 M-0.55 12.45 L-0.65 12.5 Q-2.05 13.95 -3.85 14.15 L-5.6 13.1 Q-9.3 8.9 -9.3 3.3 L-9.05 3.15 -8.95 3.1 -8.95 3.05 -8.5 2.65 Q-8.2 3.75 -7.3 4.45 -7.85 7.0 -5.95 8.6 L-5.9 8.55 Q-5.75 8.9 -5.25 8.95 L-4.4 9.05 -2.25 9.85 Q-1.1 10.4 -0.7 11.55 -0.55 11.95 -0.55 12.45 M-9.0 4.4 L-8.95 4.95 Q-8.2 9.75 -4.35 12.65 L-4.2 12.7 -4.05 12.6 -4.05 12.55 Q-7.5 9.4 -8.5 4.8 L-8.55 4.7 -8.9 4.35 -9.0 4.4" fill="#66cc99" fill-rule="evenodd" stroke="none"/>
    <path d="M-7.65 -2.7 L-6.85 -2.05 Q-5.75 -0.35 -5.35 1.65 L-5.25 2.65 -5.3 2.25 -5.3 2.2 Q-5.8 0.35 -7.35 -1.1 -7.35 -1.9 -7.65 -2.7 M-0.15 8.1 L0.85 7.55 1.2 7.35 2.5 6.5 2.65 6.4 4.2 4.85 4.35 4.7 4.95 4.05 5.1 3.8 6.45 2.0 6.65 1.75 7.5 0.25 7.55 0.0 8.05 -1.4 8.25 -2.35 8.35 -5.6 8.95 -2.55 Q8.7 0.8 6.4 3.65 L6.35 3.8 6.3 3.95 Q3.55 7.3 -0.15 8.1 M8.2 -7.35 L8.65 -7.4 9.1 -5.45 9.0 -5.5 8.2 -7.35 M9.25 -7.35 L9.8 -7.0 Q11.0 -6.65 11.9 -7.45 L12.15 -7.65 12.75 -8.4 12.85 -8.65 Q13.2 -9.3 13.1 -10.05 13.7 -7.5 13.25 -5.2 L12.95 -5.25 12.85 -5.25 12.8 -5.25 12.6 -5.25 11.75 -4.25 Q10.85 -2.3 10.5 -0.2 L10.55 -0.15 10.25 0.3 10.2 0.35 9.85 0.45 8.9 1.0 9.25 -0.15 9.4 -1.05 9.45 -1.6 9.5 -1.65 9.55 -1.7 9.45 -3.5 9.35 -4.45 Q9.5 -4.35 9.6 -4.55 L9.6 -5.25 9.25 -7.35 M14.2 6.5 L14.1 6.5 13.9 6.55 13.35 6.65 12.15 6.55 11.7 6.25 10.95 5.6 10.75 5.55 10.6 5.65 9.5 7.0 9.45 7.15 9.05 8.6 Q8.6 7.45 7.7 6.45 L7.65 6.35 6.25 5.2 6.6 4.85 Q7.8 3.45 8.5 1.95 L9.35 1.65 10.3 1.05 Q10.0 2.25 10.3 3.4 10.9 5.85 13.5 5.8 L13.95 5.75 14.2 6.5 M-0.55 -2.5 L-0.7 -2.7 -1.95 -4.35 -2.55 -5.35 -1.55 -4.8 Q-1.25 -3.6 -0.55 -2.5 M-0.55 12.45 Q-0.55 11.95 -0.7 11.55 -1.1 10.4 -2.25 9.85 L-4.4 9.05 -5.25 8.95 Q-5.75 8.9 -5.9 8.55 L-5.65 8.45 -5.5 8.6 -3.55 8.95 0.95 8.55 0.55 10.4 0.5 10.45 0.4 10.6 0.35 10.65 0.0 11.5 -0.05 11.55 -0.2 11.7 Q-0.25 12.15 -0.55 12.45" fill="#3ab176" fill-rule="evenodd" stroke="none"/>
    <path d="M13.75 -9.8 Q14.35 -8.3 15.35 -6.85 L15.55 -6.55 15.95 -5.55 16.0 -5.35 17.3 -1.55 17.5 -0.2 17.5 0.15 17.5 1.15 17.5 1.4 17.0 2.9 16.95 3.05 Q16.75 3.9 16.25 4.55 L15.65 5.3 15.0 5.85 14.85 6.0 14.8 6.05 14.65 5.4 14.85 5.15 Q16.9 2.85 16.85 0.1 16.85 -1.0 16.5 -2.1 15.85 -4.45 13.8 -5.1 14.15 -7.5 13.75 -9.8 M10.85 1.35 L11.0 1.95 11.15 2.2 Q11.55 2.65 12.25 2.55 13.3 2.35 14.0 1.5 L14.55 0.45 14.65 0.1 15.2 -1.65 15.25 -1.95 Q15.3 -2.95 14.75 -3.7 L15.05 -3.3 Q17.55 0.8 14.6 4.65 L14.55 4.7 Q14.3 5.05 13.75 5.1 12.55 5.55 11.6 4.4 10.5 3.1 10.75 1.65 L10.85 1.65 10.85 1.5 10.85 1.35 M1.1 10.9 L1.55 9.85 Q1.8 9.0 1.65 8.35 3.9 7.55 5.8 5.7 L7.05 6.85 8.3 8.6 8.1 8.55 7.85 8.4 7.7 8.35 7.1 8.15 5.2 8.3 4.95 8.4 4.7 8.5 Q3.55 8.9 2.6 9.65 L1.1 10.9" fill="#feb030" fill-rule="evenodd" stroke="none"/>
    <path d="M12.75 -3.5 L12.75 -3.35 12.65 -3.2 12.75 -3.5 M-16.5 -0.55 L-16.55 -0.85 -16.4 -0.45 -16.5 -0.55 M12.5 -2.9 L12.55 -2.95 12.55 -2.9 12.5 -2.9" fill="#998204" fill-rule="evenodd" stroke="none"/>
    <path d="M-1.1 -6.35 L-0.9 -6.35 0.4 -6.0 0.45 -5.95 -0.9 -6.15 -2.05 -6.2 -2.3 -6.7 -2.3 -6.8 -2.05 -7.45 -2.0 -7.5 Q-1.65 -7.35 -1.85 -7.05 L-1.85 -7.0 -1.75 -6.7 -1.75 -6.6 -1.1 -6.35 M0.4 2.55 Q-1.15 3.4 -2.6 4.5 L-2.65 4.5 Q-1.65 3.05 0.25 2.6 L0.4 2.55 M-9.8 1.05 L-9.55 1.65 -8.9 0.25 -8.8 0.25 Q-8.55 1.2 -9.35 2.0 L-9.4 2.0 -9.4 2.05 -9.55 2.15 -9.65 2.15 -9.65 2.05 -9.9 1.85 Q-10.15 1.45 -9.9 1.15 L-9.8 1.05 M-9.0 4.4 L-8.9 4.35 -8.55 4.7 -8.5 4.8 Q-7.5 9.4 -4.05 12.55 L-4.05 12.6 -4.2 12.7 -4.35 12.65 Q-8.2 9.75 -8.95 4.95 L-9.0 4.4" fill="#c2ebd6" fill-rule="evenodd" stroke="none"/>
    <path d="M0.55 -4.4 L1.4 -4.15 Q1.4 -3.5 2.1 -2.8 2.5 -2.35 3.05 -2.3 4.35 -2.05 4.85 -2.6 L4.8 -1.65 Q4.1 -0.85 3.15 -0.35 2.4 -0.55 1.1 -1.35 -0.15 -2.2 -1.25 -4.7 L-0.55 -4.6 0.55 -4.4 M3.5 -4.15 L3.5 -4.1 3.45 -3.5 3.4 -3.4 Q2.95 -3.25 2.6 -3.65 L2.6 -3.95 2.6 -4.05 2.6 -4.1 3.2 -4.25 3.4 -4.15 3.5 -4.15 M-7.3 0.7 L-7.1 0.5 Q-6.4 0.75 -6.35 1.5 L-6.35 1.6 Q-6.5 1.85 -6.8 1.85 L-6.95 1.85 -7.25 1.35 -7.35 1.2 -7.3 0.7 M-7.95 1.85 L-7.9 1.7 -7.5 2.3 Q-6.45 3.3 -5.7 2.75 -5.5 3.8 -5.7 4.95 -7.35 3.9 -8.25 2.35 L-7.95 1.85" fill="#ffffff" fill-rule="evenodd" stroke="none"/>
    <path d="M2.6 -4.05 L2.6 -3.95 2.6 -3.65 Q2.95 -3.25 3.4 -3.4 L3.45 -3.5 3.5 -4.1 3.5 -4.15 4.3 -4.4 4.6 -3.8 4.55 -3.15 3.75 -2.65 3.45 -2.7 1.85 -4.1 2.6 -4.05 M-7.7 1.2 L-7.35 -0.55 -6.75 0.45 Q-6.15 1.25 -5.85 2.15 -7.15 2.45 -7.7 1.2 M-7.3 0.7 L-7.35 1.2 -7.25 1.35 -6.95 1.85 -6.8 1.85 Q-6.5 1.85 -6.35 1.6 L-6.35 1.5 Q-6.4 0.75 -7.1 0.5 L-7.3 0.7" fill="#151515" fill-rule="evenodd" stroke="none"/>
    <path d="M8.3 8.6 L8.5 8.8 M0.05 12.5 Q0.35 11.6 1.05 10.95 L1.1 10.9" ffdec:has-small-stroke="true" ffdec:original-stroke-width="0.05" fill="none" stroke="#000000" stroke-linecap="round" stroke-linejoin="round" stroke-width="1.0"/>
  </g>
</svg>
