<?xml version="1.0" encoding="UTF-8" standalone="no"?>
<svg xmlns:ffdec="https://www.free-decompiler.com/flash" xmlns:xlink="http://www.w3.org/1999/xlink" ffdec:objectType="shape" height="170.4px" width="408.6px" xmlns="http://www.w3.org/2000/svg">
  <g transform="matrix(1.0, 0.0, 0.0, 1.0, -20.0, -317.0)">
    <path d="M35.25 477.55 L33.0 477.55 31.0 477.5 28.7 477.5 23.55 477.4 23.35 477.9 Q22.15 479.55 22.1 481.35 21.85 484.5 23.75 487.4 L22.35 487.4 Q19.8 484.7 20.0 481.6 20.2 479.2 22.1 477.1 L22.1 477.05 22.1 477.0 22.1 476.9 22.5 476.7 Q22.55 476.6 22.7 476.6 L22.75 476.65 23.2 476.55 23.4 476.55 24.95 476.45 26.15 476.55 27.4 476.5 27.55 476.5 31.35 476.4 41.55 476.45 51.5 476.55 60.35 476.6 72.0 476.4 Q76.3 476.3 80.6 476.55 L80.85 476.55 81.05 476.45 81.25 476.4 81.45 476.4 Q82.9 476.5 83.65 476.9 L83.65 476.8 Q83.35 476.65 83.7 476.5 L86.3 476.15 86.8 476.15 95.3 476.55 Q97.35 476.75 96.75 477.7 L95.6 478.4 Q96.3 478.9 96.4 479.6 96.7 481.55 96.55 483.5 L96.75 483.6 96.8 483.65 96.5 483.8 96.5 483.9 98.3 483.9 Q98.55 484.25 98.25 484.85 97.85 485.5 96.55 485.55 L96.15 485.6 95.95 486.4 Q97.1 486.45 97.95 486.85 L98.0 487.15 98.3 487.4 85.8 487.4 85.4 487.3 84.95 487.1 Q83.65 486.6 83.35 485.6 L83.35 485.55 83.0 484.2 83.0 483.9 Q82.9 483.0 83.05 482.15 83.4 480.15 85.2 478.4 85.55 478.0 86.25 477.9 L86.9 478.05 Q87.7 477.5 89.65 477.65 L92.6 477.55 94.5 477.5 94.8 477.5 87.6 477.1 86.7 477.2 85.05 477.2 84.75 478.0 84.5 478.1 83.85 478.0 Q82.8 477.95 82.45 477.35 80.25 479.65 80.65 482.3 L81.0 483.9 81.1 484.15 81.2 484.4 81.5 485.2 81.65 485.5 Q82.05 486.45 82.8 487.4 L80.9 487.4 79.75 485.5 79.3 484.35 79.15 483.9 Q78.75 482.3 78.95 480.65 79.15 479.1 80.2 477.7 L80.3 477.55 76.95 477.55 76.4 477.55 74.2 477.6 71.6 477.6 71.05 477.6 69.7 477.6 68.55 477.6 60.1 477.65 35.25 477.55 M86.8 478.65 Q84.4 481.15 85.0 483.9 L85.05 484.25 85.3 484.95 85.55 485.75 85.7 486.65 86.5 486.6 92.85 486.55 94.0 486.45 94.6 486.4 94.7 485.65 94.8 484.6 94.85 484.2 93.1 484.1 92.9 484.1 91.95 483.95 90.2 484.0 87.15 483.9 85.15 483.75 94.9 483.45 94.9 482.35 92.1 482.25 90.85 482.2 85.4 482.05 85.35 482.0 89.85 481.5 92.2 481.45 94.9 481.55 94.75 480.15 Q94.65 479.3 94.15 478.55 L89.4 478.7 86.8 478.65 M96.4 484.45 L96.75 484.45 96.4 484.25 96.4 484.45" fill="#000000" fill-rule="evenodd" stroke="none"/>
    <path d="M35.25 477.55 L60.1 477.65 68.55 477.6 Q68.05 478.6 67.8 479.7 67.4 481.75 67.3 483.9 L67.3 484.1 67.3 484.15 67.4 485.3 Q67.55 486.4 68.05 487.4 L36.45 487.4 35.55 485.3 35.2 484.25 35.15 483.9 Q34.4 480.75 35.25 477.55 M71.05 477.6 L71.6 477.6 74.2 477.6 Q72.65 480.8 73.0 483.9 L73.05 484.35 73.25 485.45 73.95 487.4 71.0 487.4 70.4 485.4 70.2 484.25 70.15 483.9 Q69.85 480.75 71.05 477.6 M76.95 477.55 L80.3 477.55 80.2 477.7 Q79.15 479.1 78.95 480.65 78.75 482.3 79.15 483.9 L79.3 484.35 79.75 485.5 80.9 487.4 76.5 487.4 75.95 485.5 75.75 484.35 75.7 483.9 Q75.4 480.7 76.95 477.55 M82.8 487.4 Q82.05 486.45 81.65 485.5 L81.5 485.2 81.2 484.4 81.1 484.15 81.0 483.9 80.65 482.3 Q80.25 479.65 82.45 477.35 82.8 477.95 83.85 478.0 L84.5 478.1 84.75 478.0 85.05 477.2 86.7 477.2 87.6 477.1 94.8 477.5 94.5 477.5 92.6 477.55 89.65 477.65 Q87.7 477.5 86.9 478.05 L86.25 477.9 Q85.55 478.0 85.2 478.4 83.4 480.15 83.05 482.15 82.9 483.0 83.0 483.9 L83.0 484.2 83.35 485.55 83.35 485.6 Q83.65 486.6 84.95 487.1 L85.4 487.3 85.8 487.4 82.8 487.4 M23.75 487.4 Q21.85 484.5 22.1 481.35 22.15 479.55 23.35 477.9 L23.55 477.4 28.7 477.5 Q26.95 480.0 27.35 482.8 L27.45 483.9 27.5 484.2 27.65 485.2 27.85 486.35 28.2 487.4 23.75 487.4 M31.0 477.5 L33.0 477.55 Q31.8 480.75 32.5 483.9 L32.55 484.2 32.85 485.3 33.85 487.4 31.15 487.4 30.4 485.25 30.15 484.2 30.15 483.9 Q29.7 480.7 31.0 477.5 M96.4 484.45 L96.4 484.25 96.75 484.45 96.4 484.45" fill="#612f62" fill-rule="evenodd" stroke="none"/>
    <path d="M33.0 477.55 L35.25 477.55 Q34.4 480.75 35.15 483.9 L35.2 484.25 35.55 485.3 36.45 487.4 33.85 487.4 32.85 485.3 32.55 484.2 32.5 483.9 Q31.8 480.75 33.0 477.55 M68.55 477.6 L69.7 477.6 71.05 477.6 Q69.85 480.75 70.15 483.9 L70.2 484.25 70.4 485.4 71.0 487.4 68.05 487.4 Q67.55 486.4 67.4 485.3 L67.3 484.15 67.3 484.1 67.3 483.9 Q67.4 481.75 67.8 479.7 68.05 478.6 68.55 477.6 M74.2 477.6 L76.4 477.55 76.95 477.55 Q75.4 480.7 75.7 483.9 L75.75 484.35 75.95 485.5 76.5 487.4 73.95 487.4 73.25 485.45 73.05 484.35 73.0 483.9 Q72.65 480.8 74.2 477.6 M28.7 477.5 L31.0 477.5 Q29.7 480.7 30.15 483.9 L30.15 484.2 30.4 485.25 31.15 487.4 28.2 487.4 27.85 486.35 27.65 485.2 27.5 484.2 27.45 483.9 27.35 482.8 Q26.95 480.0 28.7 477.5" fill="#f9d617" fill-rule="evenodd" stroke="none"/>
    <path d="M86.8 478.65 L89.4 478.7 94.15 478.55 Q94.65 479.3 94.75 480.15 L94.9 481.55 92.2 481.45 89.85 481.5 85.35 482.0 85.4 482.05 90.85 482.2 92.1 482.25 94.9 482.35 94.9 483.45 85.15 483.75 87.15 483.9 90.2 484.0 91.95 483.95 92.9 484.1 93.1 484.1 94.85 484.2 94.8 484.6 94.7 485.65 94.6 486.4 94.0 486.45 92.85 486.55 86.5 486.6 85.7 486.65 85.55 485.75 85.3 484.95 85.05 484.25 85.0 483.9 Q84.4 481.15 86.8 478.65" fill="#fef7cf" fill-rule="evenodd" stroke="none"/>
    <path d="M86.65 467.2 L86.7 467.25 86.9 467.2 87.15 467.15 Q89.7 467.95 88.4 469.4 L88.3 469.5 86.15 469.85 Q87.3 470.6 87.6 471.65 L87.7 471.75 87.8 472.1 87.7 472.15 87.7 472.5 Q87.7 474.2 86.75 475.75 L87.3 475.9 87.5 476.0 87.7 476.15 87.6 476.3 87.45 476.4 86.85 476.75 86.1 476.7 85.75 477.15 87.4 477.15 88.55 477.5 Q90.35 478.8 88.45 479.15 L88.45 479.2 88.55 479.35 88.45 479.55 88.3 479.7 Q70.25 480.65 51.95 479.9 L37.85 479.4 37.0 479.15 Q36.5 479.3 36.3 479.65 L35.95 479.9 Q35.3 480.05 34.95 479.7 L34.95 479.65 Q33.95 479.55 33.65 479.0 L32.2 477.75 Q29.25 473.05 32.05 468.35 L32.3 468.2 32.7 467.75 32.9 467.5 33.1 467.4 33.4 467.25 33.8 467.2 34.25 467.15 Q35.3 467.45 35.95 468.05 L36.0 468.0 36.1 467.9 36.6 467.65 36.65 467.55 36.65 467.45 36.7 467.35 36.8 467.25 41.1 466.75 43.35 467.0 44.0 467.2 58.9 466.6 Q71.9 467.25 85.15 466.9 L86.5 467.1 86.65 467.2 M37.0 469.75 L37.05 469.7 Q37.0 469.25 37.8 469.25 L43.55 469.05 45.45 468.9 46.8 468.75 Q60.25 469.1 73.7 468.9 L80.45 468.8 81.95 468.85 82.0 468.85 86.6 468.65 86.5 467.9 Q75.45 468.55 64.1 467.7 L58.9 467.55 57.25 467.85 Q47.7 468.2 38.5 467.95 L37.85 468.0 37.4 468.25 36.7 468.7 36.45 468.85 36.15 469.0 35.85 469.05 35.75 469.05 35.0 469.05 34.25 468.55 34.0 468.35 32.9 468.7 Q33.15 469.25 32.6 470.0 31.95 470.85 31.95 471.85 31.9 474.85 34.05 477.5 L34.3 478.05 34.45 478.2 35.55 478.8 35.8 478.65 36.0 478.45 Q35.9 478.2 36.25 478.05 36.45 477.9 36.75 477.9 L36.95 477.95 37.3 478.0 38.5 478.5 38.65 478.6 74.85 478.9 85.6 478.85 86.5 478.85 86.75 478.65 87.15 478.3 69.0 478.15 59.85 478.25 Q51.55 478.4 43.35 477.8 41.45 478.15 39.65 477.85 L38.9 477.3 38.2 477.25 37.9 477.5 37.4 477.65 36.6 477.45 36.35 477.3 36.3 476.75 36.3 476.65 Q34.95 476.4 34.5 475.35 33.2 472.45 35.55 469.85 L35.8 469.8 36.05 469.75 36.25 469.75 36.5 469.75 36.85 469.75 37.0 469.75 M38.4 470.35 L38.4 470.45 38.4 470.55 38.4 470.6 38.4 470.7 38.35 470.8 38.3 470.85 Q39.25 472.0 39.6 473.55 L40.25 476.4 40.2 476.45 40.3 476.5 40.55 476.7 40.75 476.85 65.65 477.05 83.8 477.1 84.1 476.7 73.15 476.6 Q75.85 475.15 80.95 475.7 L83.35 475.7 84.55 475.85 85.15 474.2 Q73.05 474.65 60.95 474.25 L58.3 474.15 Q51.1 473.85 44.35 473.95 L44.4 473.85 44.55 473.75 44.75 473.7 44.85 473.65 45.0 473.6 Q56.45 473.35 68.0 473.45 L71.35 473.4 79.75 473.05 85.3 473.2 85.3 473.0 85.5 472.55 85.45 472.4 66.3 471.55 Q65.9 471.55 65.9 471.35 65.95 471.15 66.3 471.15 L66.6 471.1 67.0 471.05 Q70.15 471.3 73.25 471.0 L85.05 471.4 84.25 470.15 Q82.25 470.45 79.7 470.2 L73.7 470.0 Q61.75 470.2 49.7 470.0 45.15 469.9 40.5 470.1 L39.2 470.15 38.45 470.2 38.4 470.25 38.4 470.35 M36.95 470.9 L36.6 470.75 36.5 470.7 Q35.25 473.5 37.3 476.25 L37.75 476.0 38.3 475.9 38.4 475.95 Q36.35 473.45 38.05 470.95 L37.9 471.0 37.25 471.0 36.95 470.9" fill="#000000" fill-rule="evenodd" stroke="none"/>
    <path d="M37.0 469.75 L36.85 469.75 36.5 469.75 36.25 469.75 36.05 469.75 35.8 469.8 35.55 469.85 Q33.2 472.45 34.5 475.35 34.95 476.4 36.3 476.65 L36.3 476.75 36.35 477.3 36.6 477.45 37.4 477.65 37.9 477.5 38.2 477.25 38.9 477.3 39.65 477.85 Q41.45 478.15 43.35 477.8 51.55 478.4 59.85 478.25 L69.0 478.15 87.15 478.3 86.75 478.65 86.5 478.85 85.6 478.85 74.85 478.9 38.65 478.6 38.5 478.5 37.3 478.0 36.95 477.95 36.75 477.9 Q36.45 477.9 36.25 478.05 35.9 478.2 36.0 478.45 L35.8 478.65 35.55 478.8 34.45 478.2 34.3 478.05 34.05 477.5 Q31.9 474.85 31.95 471.85 31.95 470.85 32.6 470.0 33.15 469.25 32.9 468.7 L34.0 468.35 34.25 468.55 35.0 469.05 35.75 469.05 35.85 469.05 36.15 469.0 36.45 468.85 36.7 468.7 37.4 468.25 37.85 468.0 38.5 467.95 Q47.7 468.2 57.25 467.85 L58.9 467.55 64.1 467.7 Q75.45 468.55 86.5 467.9 L86.6 468.65 82.0 468.85 81.95 468.85 80.45 468.8 73.7 468.9 Q60.25 469.1 46.8 468.75 L45.45 468.9 43.55 469.05 37.8 469.25 Q37.0 469.25 37.05 469.7 L37.0 469.75" fill="#284168" fill-rule="evenodd" stroke="none"/>
    <path d="M36.95 470.9 L37.25 471.0 37.9 471.0 38.05 470.95 Q36.35 473.45 38.4 475.95 L38.3 475.9 37.75 476.0 37.3 476.25 Q35.25 473.5 36.5 470.7 L36.6 470.75 36.95 470.9 M38.4 470.35 L38.4 470.25 38.45 470.2 39.2 470.15 40.5 470.1 Q45.15 469.9 49.7 470.0 61.75 470.2 73.7 470.0 L79.7 470.2 Q82.25 470.45 84.25 470.15 L85.05 471.4 73.25 471.0 Q70.15 471.3 67.0 471.05 L66.6 471.1 66.3 471.15 Q65.95 471.15 65.9 471.35 65.9 471.55 66.3 471.55 L85.45 472.4 85.5 472.55 85.3 473.0 85.3 473.2 79.75 473.05 71.35 473.4 68.0 473.45 Q56.45 473.35 45.0 473.6 L44.85 473.65 44.75 473.7 44.55 473.75 44.4 473.85 44.35 473.95 Q51.1 473.85 58.3 474.15 L60.95 474.25 Q73.05 474.65 85.15 474.2 L84.55 475.85 83.35 475.7 80.95 475.7 Q75.85 475.15 73.15 476.6 L84.1 476.7 83.8 477.1 65.65 477.05 40.75 476.85 40.55 476.7 40.3 476.5 40.2 476.45 40.25 476.4 39.6 473.55 Q39.25 472.0 38.3 470.85 L38.35 470.8 38.4 470.7 38.4 470.6 38.4 470.55 38.4 470.45 38.4 470.35" fill="#fef7cf" fill-rule="evenodd" stroke="none"/>
    <path d="M307.7 341.5 Q306.75 341.55 307.2 341.8 314.65 345.7 318.4 342.55 317.75 342.25 317.1 342.2 L307.7 341.5 M407.8 330.25 L410.85 330.05 410.9 329.95 424.7 331.6 Q424.55 332.9 423.85 334.05 423.35 334.85 423.15 335.75 L420.95 335.4 Q416.8 335.8 412.35 335.55 392.75 334.3 374.35 338.1 L374.35 338.25 422.95 337.0 422.9 337.2 421.25 338.65 419.05 340.45 418.6 341.0 Q411.15 341.95 404.2 343.55 403.8 343.9 403.9 344.35 L403.95 344.65 403.95 344.9 404.1 345.2 Q404.5 345.5 404.85 345.5 414.7 344.9 424.1 347.0 L424.4 349.55 424.5 350.35 424.65 350.85 374.5 347.85 368.55 348.3 354.25 348.95 Q349.95 347.85 344.8 347.6 L293.45 345.4 Q273.8 344.65 255.4 344.7 250.95 340.2 245.65 344.95 L227.8 344.0 217.8 343.9 209.25 343.8 162.15 341.55 112.85 339.4 Q105.8 339.35 100.4 337.9 L100.05 337.7 Q97.0 336.9 95.7 334.7 L95.2 334.45 94.1 334.05 Q93.7 334.1 93.45 334.5 L91.25 337.35 87.65 337.8 80.35 337.7 Q63.2 337.55 46.5 337.95 L47.15 337.65 Q45.1 336.45 42.2 336.4 42.2 335.85 42.5 335.35 L44.35 331.2 45.3 331.4 Q62.15 332.05 78.1 331.1 L77.75 331.0 64.4 330.15 Q53.9 329.7 44.35 331.2 L44.85 328.85 44.65 327.95 Q43.95 325.65 43.75 323.75 L47.5 324.15 74.05 323.3 73.95 323.2 Q63.0 322.9 52.25 321.05 L44.45 321.95 43.45 322.2 Q42.65 320.4 41.05 319.35 L41.1 319.2 42.3 319.35 Q60.7 319.8 79.15 319.85 83.25 321.75 89.0 321.95 104.7 322.6 118.4 325.4 117.4 325.7 117.0 326.5 L116.95 326.75 117.0 327.9 Q119.05 329.1 121.6 329.25 128.45 329.65 135.25 330.9 146.1 332.9 152.9 326.8 L152.65 326.25 152.35 324.8 151.0 324.2 154.1 324.2 Q159.25 324.25 162.35 322.75 L174.5 323.25 222.45 323.95 229.35 324.35 239.25 325.5 258.35 324.8 271.9 325.7 289.5 325.85 340.3 327.6 344.3 327.8 397.7 330.25 400.05 330.3 Q383.85 330.65 368.1 332.65 392.95 333.3 417.45 331.5 L417.3 331.3 409.6 330.3 407.8 330.25 M340.95 331.2 L339.8 331.3 Q308.6 331.4 277.8 329.6 L309.6 332.4 Q332.55 334.0 354.85 332.65 L354.65 332.5 Q348.45 330.75 340.95 331.2 M341.15 341.7 L348.0 342.2 366.55 342.95 387.15 344.35 387.0 344.25 Q378.1 341.75 368.55 340.5 355.9 341.75 343.5 340.2 330.65 338.6 318.9 340.4 L332.25 340.95 341.15 341.7 M406.15 340.9 L403.75 340.25 394.25 341.0 Q399.65 343.1 406.35 341.15 L406.15 340.9 M362.75 337.0 L362.55 336.8 354.85 336.05 Q335.55 335.8 316.3 336.35 339.2 338.85 362.75 337.0 M109.6 331.3 Q110.3 331.85 111.3 332.15 128.15 336.65 146.15 335.55 151.95 335.2 155.35 333.0 157.8 331.45 159.15 329.0 173.5 325.0 188.4 327.4 L193.75 327.95 227.8 329.05 Q227.1 328.0 225.5 327.95 200.8 326.9 176.25 324.2 L170.6 324.65 Q163.45 325.8 156.85 327.35 L156.75 327.9 156.6 328.75 156.05 330.1 155.9 330.35 Q151.5 331.9 147.0 332.7 L136.7 333.6 Q126.4 333.65 117.25 331.55 L110.9 329.85 111.55 329.3 112.6 328.2 112.7 327.95 Q110.4 325.85 106.9 326.3 106.05 326.45 105.75 327.0 L106.4 327.55 106.85 327.85 109.4 328.1 109.7 328.3 109.45 328.55 109.25 328.8 Q108.75 329.3 108.75 329.95 L108.7 330.2 109.6 331.3 M125.05 323.4 Q124.75 324.1 125.0 324.8 133.6 328.7 142.2 325.2 L142.55 324.35 Q142.7 323.45 142.35 322.65 140.5 321.4 138.6 321.15 L152.75 322.0 Q147.95 322.6 143.75 324.3 146.7 325.75 150.0 326.7 149.8 327.25 149.0 327.4 134.45 330.35 119.9 326.85 L120.7 326.5 Q122.25 326.1 122.55 324.8 116.15 322.4 107.95 321.75 L95.05 319.9 Q112.8 320.0 130.45 320.75 L129.3 320.85 129.15 320.95 125.25 322.85 125.05 323.4 M180.05 338.8 Q181.25 340.1 183.15 340.15 211.85 341.25 237.45 339.8 L236.5 339.6 193.75 337.25 Q190.75 338.45 186.1 337.9 182.75 337.5 180.05 338.8 M176.85 328.55 L176.3 328.6 175.85 328.9 176.3 329.4 Q194.5 332.6 212.15 332.45 L211.75 332.15 Q195.5 329.6 179.1 328.35 L179.1 328.45 176.85 328.55 M136.65 338.95 L137.4 338.3 145.2 338.9 Q159.75 340.9 164.75 331.15 161.05 332.95 157.9 335.6 L136.1 336.85 Q131.5 336.9 127.35 338.65 L136.2 339.15 136.65 338.95 M181.05 333.95 L165.05 334.0 193.75 336.25 209.7 335.45 238.4 336.7 Q242.55 337.1 246.3 336.1 252.95 334.3 259.8 335.1 260.95 335.75 261.5 336.75 L262.15 337.75 Q262.35 339.15 262.0 340.55 261.8 341.3 261.95 341.95 262.1 342.5 262.7 342.75 L263.25 343.05 296.35 343.35 296.75 343.15 Q297.4 342.65 298.35 342.45 L298.3 342.35 263.8 341.05 263.85 340.5 264.2 339.65 264.35 339.4 264.05 338.55 263.95 337.4 263.9 337.15 262.45 335.4 Q261.55 333.9 259.65 333.15 L256.95 333.05 Q252.15 333.2 247.85 335.25 214.4 334.0 181.05 333.95 M266.95 329.35 L266.1 328.9 Q264.45 327.9 262.3 328.2 253.45 328.3 244.95 331.0 254.1 330.1 264.25 330.8 265.25 331.5 265.85 332.35 267.55 334.75 266.5 336.8 L267.1 337.55 Q268.3 338.55 269.35 337.4 L269.7 336.95 270.25 337.15 Q280.1 340.05 290.75 339.9 290.65 339.75 290.55 339.75 280.65 337.75 270.5 336.35 L270.05 336.4 270.15 335.55 Q270.2 334.85 269.9 334.1 268.85 333.35 268.3 332.25 L266.95 329.35 M66.15 334.5 L69.1 335.05 Q76.9 335.3 84.6 334.7 L84.45 334.55 Q78.95 332.85 72.95 333.35 L66.55 334.25 66.15 334.5 M50.65 327.25 L51.4 327.45 Q69.55 328.85 87.85 327.5 L87.75 327.15 Q83.3 324.0 76.45 325.85 72.3 327.1 66.6 327.15 L50.65 327.25" fill="#5b5617" fill-rule="evenodd" stroke="none"/>
    <path d="M307.7 341.5 L317.1 342.2 Q317.75 342.25 318.4 342.55 314.65 345.7 307.2 341.8 306.75 341.55 307.7 341.5 M407.8 330.25 L409.6 330.3 417.3 331.3 417.45 331.5 Q392.95 333.3 368.1 332.65 383.85 330.65 400.05 330.3 L407.8 330.25 M362.75 337.0 Q339.2 338.85 316.3 336.35 335.55 335.8 354.85 336.05 L362.55 336.8 362.75 337.0 M406.15 340.9 L406.35 341.15 Q399.65 343.1 394.25 341.0 L403.75 340.25 406.15 340.9 M136.65 338.95 L136.2 339.15 127.35 338.65 Q131.5 336.9 136.1 336.85 L157.9 335.6 Q161.05 332.95 164.75 331.15 159.75 340.9 145.2 338.9 L137.4 338.3 136.65 338.95 M176.85 328.55 L179.1 328.45 179.1 328.35 Q195.5 329.6 211.75 332.15 L212.15 332.45 Q194.5 332.6 176.3 329.4 L175.85 328.9 176.3 328.6 176.85 328.55 M180.05 338.8 Q182.75 337.5 186.1 337.9 190.75 338.45 193.75 337.25 L236.5 339.6 237.45 339.8 Q211.85 341.25 183.15 340.15 181.25 340.1 180.05 338.8 M266.95 329.35 L268.3 332.25 Q268.85 333.35 269.9 334.1 270.2 334.85 270.15 335.55 L270.05 336.4 270.5 336.35 Q280.65 337.75 290.55 339.75 290.65 339.75 290.75 339.9 280.1 340.05 270.25 337.15 L269.7 336.95 269.35 337.4 Q268.3 338.55 267.1 337.55 L266.5 336.8 Q267.55 334.75 265.85 332.35 265.25 331.5 264.25 330.8 254.1 330.1 244.95 331.0 253.45 328.3 262.3 328.2 264.45 327.9 266.1 328.9 L266.95 329.35 M50.65 327.25 L66.6 327.15 Q72.3 327.1 76.45 325.85 83.3 324.0 87.75 327.15 L87.85 327.5 Q69.55 328.85 51.4 327.45 L50.65 327.25 M66.15 334.5 L66.55 334.25 72.95 333.35 Q78.95 332.85 84.45 334.55 L84.6 334.7 Q76.9 335.3 69.1 335.05 L66.15 334.5" fill="#8a7a24" fill-rule="evenodd" stroke="none"/>
    <path d="M320.05 323.75 L351.2 325.6 405.1 327.95 410.15 328.25 Q414.3 327.5 419.1 328.15 L426.75 328.8 427.4 329.0 427.85 329.3 428.2 329.6 428.4 329.9 428.6 330.45 428.4 330.95 Q427.7 331.9 427.6 332.95 427.5 334.25 426.6 335.4 L426.55 335.7 426.65 335.95 426.8 336.35 Q427.05 337.0 426.95 337.7 L426.5 338.25 425.15 339.45 423.3 340.65 423.2 340.95 423.35 341.25 423.45 341.5 423.55 342.05 423.4 342.35 423.15 342.6 422.8 342.95 422.6 343.2 423.15 343.55 Q425.6 344.2 427.05 345.8 L427.3 346.05 427.35 346.6 Q427.5 347.8 427.8 348.9 428.1 350.25 427.45 351.45 L427.45 351.55 427.2 351.65 427.0 351.65 426.95 351.7 Q421.85 353.15 415.65 352.75 416.35 356.7 415.9 361.05 L415.4 364.65 Q415.15 366.2 415.15 367.95 L415.4 377.3 414.5 378.65 414.3 378.85 411.55 379.1 Q410.55 380.75 408.9 382.1 410.35 384.85 411.65 388.1 L409.35 429.45 Q408.75 440.75 409.05 452.0 409.4 464.6 411.5 476.85 412.05 480.3 411.15 483.5 L411.95 484.55 411.95 484.8 Q408.45 486.9 403.7 484.45 403.05 480.6 403.0 476.55 L403.0 475.75 Q402.05 477.0 402.0 479.4 401.95 479.85 401.5 480.15 399.95 480.7 399.2 479.5 398.55 480.1 397.9 481.8 L397.7 482.35 Q392.95 483.95 389.7 482.65 L389.45 483.65 Q388.1 483.9 387.55 482.9 388.8 472.6 390.8 462.5 L390.95 462.2 390.6 461.05 390.55 460.8 Q392.05 453.9 391.35 447.0 L391.3 446.75 Q390.25 439.65 394.25 433.75 L395.35 431.65 394.85 429.1 394.8 428.8 Q393.1 427.45 390.85 426.55 389.8 415.7 391.15 404.35 392.75 391.1 393.05 377.95 392.75 367.85 393.4 358.0 393.6 354.55 393.95 351.2 376.05 350.4 358.6 350.3 L359.7 350.75 Q352.55 353.0 343.45 351.1 335.05 349.3 326.3 349.25 L261.9 346.6 261.35 346.45 254.85 347.25 Q253.05 346.6 252.1 345.25 248.85 345.0 246.3 347.65 L209.05 346.6 134.45 342.55 110.05 341.45 106.95 341.35 Q103.7 341.1 100.55 341.35 98.65 340.75 97.9 339.1 L94.5 337.5 93.15 339.65 92.65 340.2 80.2 340.4 74.0 340.3 74.0 346.1 Q73.85 352.85 73.0 360.2 71.2 376.6 71.35 393.4 71.6 414.7 69.65 435.8 68.25 452.6 69.35 469.3 L69.95 469.8 69.5 470.6 69.35 471.0 69.05 471.25 68.6 470.85 61.45 469.75 Q60.75 468.95 59.7 468.6 L59.4 469.65 Q59.2 470.0 58.7 470.15 57.45 470.45 56.55 469.7 56.15 467.9 55.2 466.25 L54.9 465.65 54.25 467.9 53.9 468.75 Q49.3 470.6 45.85 468.55 L45.5 469.15 45.1 468.0 44.4 467.35 Q44.3 466.85 44.85 466.7 44.35 462.6 47.15 458.1 L49.35 454.8 Q47.4 448.45 49.35 442.1 L49.45 441.8 Q48.95 440.9 49.35 439.85 L49.5 439.55 Q51.8 438.4 54.65 438.7 54.7 437.8 55.25 437.0 L55.3 436.75 54.55 432.8 54.55 432.55 53.55 431.65 50.5 430.9 Q50.35 429.25 49.65 427.75 L49.5 427.45 Q51.65 407.2 50.25 386.95 49.9 382.25 50.1 377.3 50.15 375.75 50.65 374.2 50.2 373.3 50.3 372.25 L50.3 372.0 52.1 370.35 52.8 368.15 52.85 367.85 55.1 365.4 Q52.1 362.95 48.8 361.1 49.05 359.4 50.85 358.4 51.65 351.95 51.5 345.65 L51.4 343.5 51.45 342.9 Q50.6 340.85 51.6 339.05 L45.3 338.4 Q42.05 339.45 39.15 338.3 42.4 331.8 40.65 325.2 L40.35 323.75 40.6 322.3 40.55 322.05 38.45 319.7 Q38.3 318.85 39.05 318.25 L39.15 318.2 38.9 317.65 Q44.35 316.45 50.8 317.45 L60.85 318.0 Q70.85 317.55 80.95 317.85 L93.2 318.2 Q105.3 318.65 117.35 318.1 124.4 317.75 131.4 318.35 177.05 322.45 222.7 321.75 230.85 321.6 238.8 323.15 L248.9 322.4 258.5 323.1 292.95 324.2 Q304.2 323.95 315.6 323.95 L320.05 323.75 M341.15 341.7 L332.25 340.95 318.9 340.4 Q330.65 338.6 343.5 340.2 355.9 341.75 368.55 340.5 378.1 341.75 387.0 344.25 L387.15 344.35 366.55 342.95 348.0 342.2 341.15 341.7 M340.95 331.2 Q348.45 330.75 354.65 332.5 L354.85 332.65 Q332.55 334.0 309.6 332.4 L277.8 329.6 Q308.6 331.4 339.8 331.3 L340.95 331.2 M400.05 330.3 L397.7 330.25 344.3 327.8 340.3 327.6 289.5 325.85 271.9 325.7 258.35 324.8 239.25 325.5 229.35 324.35 222.45 323.95 174.5 323.25 162.35 322.75 Q159.25 324.25 154.1 324.2 L151.0 324.2 152.35 324.8 152.65 326.25 152.9 326.8 Q146.1 332.9 135.25 330.9 128.45 329.65 121.6 329.25 119.05 329.1 117.0 327.9 L116.95 326.75 117.0 326.5 Q117.4 325.7 118.4 325.4 104.7 322.6 89.0 321.95 83.25 321.75 79.15 319.85 60.7 319.8 42.3 319.35 L41.1 319.2 41.05 319.35 Q42.65 320.4 43.45 322.2 L44.45 321.95 52.25 321.05 Q63.0 322.9 73.95 323.2 L74.05 323.3 47.5 324.15 43.75 323.75 Q43.95 325.65 44.65 327.95 L44.85 328.85 44.35 331.2 Q53.9 329.7 64.4 330.15 L77.75 331.0 78.1 331.1 Q62.15 332.05 45.3 331.4 L44.35 331.2 42.5 335.35 Q42.2 335.85 42.2 336.4 45.1 336.45 47.15 337.65 L46.5 337.95 Q63.2 337.55 80.35 337.7 L87.65 337.8 91.25 337.35 93.45 334.5 Q93.7 334.1 94.1 334.05 L95.2 334.45 95.7 334.7 Q97.0 336.9 100.05 337.7 L100.4 337.9 Q105.8 339.35 112.85 339.4 L162.15 341.55 209.25 343.8 217.8 343.9 227.8 344.0 245.65 344.95 Q250.95 340.2 255.4 344.7 273.8 344.65 293.45 345.4 L344.8 347.6 Q349.95 347.85 354.25 348.95 L368.55 348.3 374.5 347.85 424.65 350.85 424.5 350.35 424.4 349.55 424.1 347.0 Q414.7 344.9 404.85 345.5 404.5 345.5 404.1 345.2 L403.95 344.9 403.95 344.65 403.9 344.35 Q403.8 343.9 404.2 343.55 411.15 341.95 418.6 341.0 L419.05 340.45 421.25 338.65 422.9 337.2 422.95 337.0 374.35 338.25 374.35 338.1 Q392.75 334.3 412.35 335.55 416.8 335.8 420.95 335.4 L423.15 335.75 Q423.35 334.85 423.85 334.05 424.55 332.9 424.7 331.6 L410.9 329.95 410.85 330.05 407.8 330.25 400.05 330.3 M127.35 324.1 Q134.2 325.95 140.15 323.7 137.45 322.9 136.2 321.2 L137.35 321.1 131.6 320.8 Q131.55 322.65 127.3 323.95 L127.35 324.1 M125.05 323.4 L125.25 322.85 129.15 320.95 129.3 320.85 130.45 320.75 Q112.8 320.0 95.05 319.9 L107.95 321.75 Q116.15 322.4 122.55 324.8 122.25 326.1 120.7 326.5 L119.9 326.85 Q134.45 330.35 149.0 327.4 149.8 327.25 150.0 326.7 146.7 325.75 143.75 324.3 147.95 322.6 152.75 322.0 L138.6 321.15 Q140.5 321.4 142.35 322.65 142.7 323.45 142.55 324.35 L142.2 325.2 Q133.6 328.7 125.0 324.8 124.75 324.1 125.05 323.4 M109.6 331.3 L108.7 330.2 108.75 329.95 Q108.75 329.3 109.25 328.8 L109.45 328.55 109.7 328.3 109.4 328.1 106.85 327.85 106.4 327.55 105.75 327.0 Q106.05 326.45 106.9 326.3 110.4 325.85 112.7 327.95 L112.6 328.2 111.55 329.3 110.9 329.85 117.25 331.55 Q126.4 333.65 136.7 333.6 L147.0 332.7 Q151.5 331.9 155.9 330.35 L156.05 330.1 156.6 328.75 156.75 327.9 156.85 327.35 Q163.45 325.8 170.6 324.65 L176.25 324.2 Q200.8 326.9 225.5 327.95 227.1 328.0 227.8 329.05 L193.75 327.95 188.4 327.4 Q173.5 325.0 159.15 329.0 157.8 331.45 155.35 333.0 151.95 335.2 146.15 335.55 128.15 336.65 111.3 332.15 110.3 331.85 109.6 331.3 M181.05 333.95 Q214.4 334.0 247.85 335.25 252.15 333.2 256.95 333.05 L259.65 333.15 Q261.55 333.9 262.45 335.4 L263.9 337.15 263.95 337.4 264.05 338.55 264.35 339.4 264.2 339.65 263.85 340.5 263.8 341.05 298.3 342.35 298.35 342.45 Q297.4 342.65 296.75 343.15 L296.35 343.35 263.25 343.05 262.7 342.75 Q262.1 342.5 261.95 341.95 261.8 341.3 262.0 340.55 262.35 339.15 262.15 337.75 L261.5 336.75 Q260.95 335.75 259.8 335.1 252.95 334.3 246.3 336.1 242.55 337.1 238.4 336.7 L209.7 335.45 193.75 336.25 165.05 334.0 181.05 333.95 M413.05 360.7 Q413.85 356.65 415.25 352.75 L411.45 352.3 409.45 352.0 Q409.5 355.0 408.4 358.2 L408.15 358.35 Q406.95 354.6 409.15 352.0 L406.45 351.75 399.25 351.4 Q399.7 354.8 399.8 358.35 L399.55 366.15 Q398.9 373.45 398.65 380.75 398.6 382.0 397.8 383.0 396.8 370.95 397.75 358.2 398.0 354.8 398.4 351.35 L394.65 351.2 395.65 358.05 Q396.0 362.15 395.85 366.4 L394.65 388.9 Q393.45 407.0 393.1 424.9 401.95 429.65 395.55 436.65 393.55 438.95 393.9 441.9 394.7 447.05 394.35 452.55 393.55 467.25 390.1 481.15 L394.05 480.55 Q394.5 474.75 395.4 468.4 L395.85 468.3 Q397.1 474.4 395.0 480.45 L396.0 480.3 Q396.35 478.4 397.55 476.7 L397.85 476.2 Q398.85 475.75 399.95 475.85 L400.2 475.75 Q401.0 472.05 403.25 469.55 401.9 468.1 402.05 465.2 L402.2 462.95 Q404.0 456.45 403.75 449.55 403.95 448.65 404.45 448.05 L404.5 448.05 Q404.5 458.3 403.85 469.0 L404.35 469.2 404.85 469.5 Q406.25 475.5 405.6 481.9 L405.6 482.45 408.8 483.0 Q406.75 462.9 405.95 442.45 L405.8 435.3 Q407.1 424.85 406.9 414.2 L408.0 405.35 Q407.55 397.85 408.75 390.15 L408.85 389.3 Q407.35 387.85 407.65 385.9 L407.7 385.6 405.75 383.6 Q406.35 378.15 412.85 376.45 411.7 368.3 413.05 360.7 M410.8 360.35 L411.3 358.7 411.7 358.65 411.5 360.45 Q410.8 368.8 410.35 377.2 L410.05 377.35 Q408.35 369.05 410.8 360.35 M404.5 383.9 Q404.7 389.2 403.9 394.9 L403.9 395.15 Q404.5 396.15 405.6 396.9 L403.45 417.1 403.0 417.95 Q401.9 408.4 404.0 398.25 L404.1 397.4 402.6 395.65 Q402.55 389.7 404.05 384.05 404.1 383.85 404.5 383.9 M401.9 425.35 Q404.25 435.85 398.85 445.7 398.2 446.95 398.2 448.3 398.25 454.05 396.5 459.5 397.0 460.55 396.45 461.45 L396.3 461.75 395.3 458.9 Q396.65 451.05 396.5 443.15 L396.5 442.85 Q400.7 437.65 401.25 431.2 401.15 427.35 398.8 424.15 L396.55 423.75 395.45 422.55 Q395.95 412.65 396.6 402.9 396.6 402.65 396.9 402.6 398.25 411.7 397.2 421.7 L397.3 421.95 Q398.2 422.5 399.55 422.7 L401.9 425.35 M66.9 345.25 Q66.4 343.65 66.6 341.9 L66.65 340.45 67.05 340.05 58.2 339.6 57.8 345.65 Q57.35 354.65 57.05 363.75 L58.35 364.7 Q57.95 367.05 55.5 368.8 L54.95 371.0 54.75 371.25 53.35 372.9 Q53.0 393.2 53.65 413.5 53.9 419.85 52.4 425.85 53.0 426.95 53.25 428.15 L53.25 428.45 Q55.8 429.75 57.55 431.8 59.6 437.1 55.95 441.5 L52.5 442.05 Q51.05 449.35 50.95 456.65 50.95 457.8 50.45 459.1 48.75 463.15 46.85 466.75 L47.9 467.2 Q50.1 467.2 51.55 466.6 51.8 462.7 54.1 459.45 L54.7 459.2 55.75 459.5 56.1 459.7 Q57.35 462.15 57.6 464.8 L57.7 465.4 Q60.75 465.75 63.05 467.55 L66.55 467.9 Q65.85 466.0 65.95 463.55 L66.25 452.3 Q66.9 430.0 68.25 407.85 L70.75 363.15 70.9 360.5 69.7 359.1 Q62.15 354.05 62.55 345.65 L62.55 345.25 Q62.75 342.8 64.25 341.5 L64.95 345.15 65.55 350.15 Q65.75 353.0 68.3 355.05 L69.35 356.15 Q68.75 350.65 66.95 345.3 L66.9 345.25 M71.45 345.75 Q71.9 342.85 73.0 340.3 L68.55 340.15 Q68.2 342.75 68.4 345.4 68.8 350.25 71.0 355.25 L71.05 355.3 71.1 350.55 Q71.05 348.05 71.45 345.75 M56.45 345.65 Q56.95 342.6 57.7 339.5 L52.85 339.15 Q53.3 342.3 53.4 345.6 53.75 352.3 52.9 359.5 L52.85 359.75 Q52.8 361.15 56.1 363.15 L56.55 363.4 Q55.1 354.5 56.45 345.65 M65.7 396.35 Q65.25 388.6 64.2 380.3 63.45 374.3 63.6 368.25 L63.85 361.15 64.95 362.3 65.1 362.6 Q64.9 376.2 65.65 389.7 L65.85 396.35 65.7 396.35 M61.25 375.55 Q62.55 392.3 61.55 409.4 L61.45 409.6 Q60.8 392.55 60.95 375.55 L61.25 375.55 M56.75 398.7 Q59.5 409.15 57.4 419.3 L57.4 419.55 Q56.7 423.6 59.8 427.25 59.8 428.45 60.55 429.55 61.95 437.45 58.6 444.95 57.65 446.65 55.8 447.15 56.8 453.35 56.6 459.45 L56.2 459.65 Q53.65 453.85 55.0 447.15 53.1 446.1 52.75 444.2 54.4 443.7 55.65 445.25 L56.6 444.25 Q58.65 439.35 58.5 434.45 57.7 427.55 55.55 420.9 55.1 419.55 55.35 418.0 56.5 410.65 56.0 403.1 55.85 400.5 56.75 398.7 M62.95 440.5 Q62.7 433.05 62.95 426.95 65.95 445.1 63.85 463.55 L63.8 463.85 Q61.6 460.15 62.35 454.8 63.3 447.75 62.95 440.5" fill="#000000" fill-rule="evenodd" stroke="none"/>
    <path d="M127.35 324.1 L127.3 323.95 Q131.55 322.65 131.6 320.8 L137.35 321.1 136.2 321.2 Q137.45 322.9 140.15 323.7 134.2 325.95 127.35 324.1" fill="#39360f" fill-rule="evenodd" stroke="none"/>
    <path d="M399.8 358.35 Q399.7 354.8 399.25 351.4 L406.45 351.75 409.15 352.0 Q406.95 354.6 408.15 358.35 L408.4 358.2 Q409.5 355.0 409.45 352.0 L411.45 352.3 415.25 352.75 Q413.85 356.65 413.05 360.7 L411.5 360.45 411.7 358.65 411.3 358.7 410.8 360.35 407.95 359.75 399.8 358.35 M395.65 358.05 L394.65 351.2 398.4 351.35 Q398.0 354.8 397.75 358.2 L395.65 358.05 M57.8 345.65 L58.2 339.6 67.05 340.05 66.65 340.45 66.6 341.9 Q66.4 343.65 66.9 345.25 L65.65 345.15 64.95 345.15 64.25 341.5 Q62.75 342.8 62.55 345.25 L60.35 345.45 57.8 345.65 M68.4 345.4 Q68.2 342.75 68.55 340.15 L73.0 340.3 Q71.9 342.85 71.45 345.75 L68.4 345.4 M56.45 345.65 L53.4 345.6 Q53.3 342.3 52.85 339.15 L57.7 339.5 Q56.95 342.6 56.45 345.65" fill="#46450f" fill-rule="evenodd" stroke="none"/>
    <path d="M399.8 358.35 L407.95 359.75 410.8 360.35 Q408.35 369.05 410.05 377.35 L410.35 377.2 Q410.8 368.8 411.5 360.45 L413.05 360.7 Q411.7 368.3 412.85 376.45 406.35 378.15 405.75 383.6 L407.7 385.6 407.65 385.9 Q407.35 387.85 408.85 389.3 L408.75 390.15 Q407.55 397.85 408.0 405.35 L406.9 414.2 406.5 407.35 Q403.8 410.8 404.35 416.7 406.05 432.75 400.3 446.55 400.35 456.2 401.45 465.25 L402.2 462.95 402.05 465.2 Q401.9 468.1 403.25 469.55 401.0 472.05 400.2 475.75 L399.95 475.85 Q398.85 475.75 397.85 476.2 L397.55 476.7 Q396.35 478.4 396.0 480.3 L395.0 480.45 Q397.1 474.4 395.85 468.3 L395.4 468.4 Q394.5 474.75 394.05 480.55 L390.1 481.15 Q393.55 467.25 394.35 452.55 394.7 447.05 393.9 441.9 393.55 438.95 395.55 436.65 401.95 429.65 393.1 424.9 393.45 407.0 394.65 388.9 L395.85 366.4 Q396.0 362.15 395.65 358.05 L397.75 358.2 Q396.8 370.95 397.8 383.0 398.6 382.0 398.65 380.75 398.9 373.45 399.55 366.15 L399.8 358.35 M405.8 435.3 L405.95 442.45 Q406.75 462.9 408.8 483.0 L405.6 482.45 405.6 481.9 Q406.25 475.5 404.85 469.5 L404.35 469.2 403.85 469.0 Q404.5 458.3 404.5 448.05 L404.45 448.05 Q403.95 448.65 403.75 449.55 L403.65 446.7 404.0 446.2 Q405.1 440.8 405.8 435.3 M403.75 361.35 L403.25 361.45 Q399.35 373.65 400.5 386.0 L400.8 385.65 Q404.65 373.7 403.75 361.35 M401.9 425.35 L399.55 422.7 Q398.2 422.5 397.3 421.95 L397.2 421.7 Q398.25 411.7 396.9 402.6 396.6 402.65 396.6 402.9 395.95 412.65 395.45 422.55 L396.55 423.75 398.8 424.15 Q401.15 427.35 401.25 431.2 400.7 437.65 396.5 442.85 L396.5 443.15 Q396.65 451.05 395.3 458.9 L396.3 461.75 396.45 461.45 Q397.0 460.55 396.5 459.5 398.25 454.05 398.2 448.3 398.2 446.95 398.85 445.7 404.25 435.85 401.9 425.35 M404.5 383.9 Q404.1 383.85 404.05 384.05 402.55 389.7 402.6 395.65 L404.1 397.4 404.0 398.25 Q401.9 408.4 403.0 417.95 L403.45 417.1 405.6 396.9 Q404.5 396.15 403.9 395.15 L403.9 394.9 Q404.7 389.2 404.5 383.9 M394.85 441.55 L395.5 441.3 Q399.9 438.75 397.8 436.0 397.3 436.05 396.85 436.55 395.0 438.9 394.85 441.55 M397.85 386.2 L397.65 386.25 Q394.0 394.8 396.2 402.55 L396.35 402.15 Q399.4 394.25 397.85 386.2 M57.8 345.65 L60.35 345.45 62.55 345.25 62.55 345.65 Q62.15 354.05 69.7 359.1 L70.9 360.5 70.75 363.15 68.25 407.85 Q66.9 430.0 66.25 452.3 L65.95 463.55 Q65.85 466.0 66.55 467.9 L63.05 467.55 Q60.75 465.75 57.7 465.4 L57.6 464.8 Q57.35 462.15 56.1 459.7 L55.75 459.5 54.7 459.2 54.1 459.45 Q51.8 462.7 51.55 466.6 50.1 467.2 47.9 467.2 L46.85 466.75 Q48.75 463.15 50.45 459.1 50.95 457.8 50.95 456.65 51.05 449.35 52.5 442.05 L55.95 441.5 Q59.6 437.1 57.55 431.8 55.8 429.75 53.25 428.45 L53.25 428.15 Q53.0 426.95 52.4 425.85 53.9 419.85 53.65 413.5 53.0 393.2 53.35 372.9 L54.75 371.25 54.95 371.0 55.5 368.8 Q57.95 367.05 58.35 364.7 L57.05 363.75 Q57.35 354.65 57.8 345.65 M64.95 345.15 L65.65 345.15 66.9 345.25 66.95 345.3 Q68.75 350.65 69.35 356.15 L68.3 355.05 Q65.75 353.0 65.55 350.15 L64.95 345.15 M60.35 347.15 L59.85 347.25 Q58.75 359.25 60.35 370.5 L60.7 370.15 Q62.75 358.55 60.35 347.15 M65.85 396.35 L65.65 389.7 Q64.9 376.2 65.1 362.6 L64.95 362.3 63.85 361.15 63.6 368.25 Q63.45 374.3 64.2 380.3 65.25 388.6 65.7 396.35 65.45 396.25 65.4 396.45 64.55 407.05 62.2 417.35 L62.15 417.85 Q61.7 421.25 62.95 423.5 L63.15 423.0 Q66.95 409.95 66.0 396.35 L65.85 396.35 M61.25 375.55 L60.95 375.55 Q60.8 392.55 61.45 409.6 L61.55 409.4 Q62.55 392.3 61.25 375.55 M55.95 374.95 L55.75 375.0 Q51.65 386.85 55.5 397.5 L55.6 397.05 Q56.45 386.25 55.95 374.95 M56.75 398.7 Q55.85 400.5 56.0 403.1 56.5 410.65 55.35 418.0 55.1 419.55 55.55 420.9 57.7 427.55 58.5 434.45 58.65 439.35 56.6 444.25 L55.65 445.25 Q54.4 443.7 52.75 444.2 53.1 446.1 55.0 447.15 53.65 453.85 56.2 459.65 L56.6 459.45 Q56.8 453.35 55.8 447.15 57.65 446.65 58.6 444.95 61.95 437.45 60.55 429.55 59.8 428.45 59.8 427.25 56.7 423.6 57.4 419.55 L57.4 419.3 Q59.5 409.15 56.75 398.7 M60.85 459.4 L60.95 458.95 Q62.35 451.15 61.3 443.95 58.6 446.6 58.25 451.5 57.9 457.0 60.85 459.4 M62.95 440.5 Q63.3 447.75 62.35 454.8 61.6 460.15 63.8 463.85 L63.85 463.55 Q65.95 445.1 62.95 426.95 62.7 433.05 62.95 440.5" fill="#595913" fill-rule="evenodd" stroke="none"/>
    <path d="M406.9 414.2 Q407.1 424.85 405.8 435.3 405.1 440.8 404.0 446.2 L403.65 446.7 403.75 449.55 Q404.0 456.45 402.2 462.95 L401.45 465.25 Q400.35 456.2 400.3 446.55 406.05 432.75 404.35 416.7 403.8 410.8 406.5 407.35 L406.9 414.2 M403.75 361.35 Q404.65 373.7 400.8 385.65 L400.5 386.0 Q399.35 373.65 403.25 361.45 L403.75 361.35 M397.85 386.2 Q399.4 394.25 396.35 402.15 L396.2 402.55 Q394.0 394.8 397.65 386.25 L397.85 386.2 M394.85 441.55 Q395.0 438.9 396.85 436.55 397.3 436.05 397.8 436.0 399.9 438.75 395.5 441.3 L394.85 441.55 M60.35 347.15 Q62.75 358.55 60.7 370.15 L60.35 370.5 Q58.75 359.25 59.85 347.25 L60.35 347.15 M65.85 396.35 L66.0 396.35 Q66.95 409.95 63.15 423.0 L62.95 423.5 Q61.7 421.25 62.15 417.85 L62.2 417.35 Q64.55 407.05 65.4 396.45 65.45 396.25 65.7 396.35 L65.85 396.35 M55.95 374.95 Q56.45 386.25 55.6 397.05 L55.5 397.5 Q51.65 386.85 55.75 375.0 L55.95 374.95 M60.85 459.4 Q57.9 457.0 58.25 451.5 58.6 446.6 61.3 443.95 62.35 451.15 60.95 458.95 L60.85 459.4" fill="#77771a" fill-rule="evenodd" stroke="none"/>
    <path d="M68.4 345.4 L71.45 345.75 Q71.05 348.05 71.1 350.55 L71.05 355.3 71.0 355.25 Q68.8 350.25 68.4 345.4 M53.4 345.6 L56.45 345.65 Q55.1 354.5 56.55 363.4 L56.1 363.15 Q52.8 361.15 52.85 359.75 L52.9 359.5 Q53.75 352.3 53.4 345.6" fill="#515913" fill-rule="evenodd" stroke="none"/>
  </g>
</svg>
