<?xml version="1.0" encoding="UTF-8" standalone="no"?>
<svg xmlns:ffdec="https://www.free-decompiler.com/flash" xmlns:xlink="http://www.w3.org/1999/xlink" ffdec:objectType="shape" height="310.75px" width="729.9px" xmlns="http://www.w3.org/2000/svg">
  <g transform="matrix(1.0, 0.0, 0.0, 1.0, 133.6, -502.0)">
    <path d="M-106.35 794.85 L-110.4 794.8 -113.95 794.75 -118.05 794.7 -127.25 794.6 -127.65 795.45 Q-129.75 798.45 -129.9 801.75 -130.3 807.45 -126.9 812.75 L-129.4 812.75 Q-134.0 807.9 -133.55 802.2 -133.25 797.8 -129.9 794.05 L-129.9 793.85 -129.9 793.8 -129.9 793.6 -129.15 793.3 -129.1 793.25 -128.75 793.15 -128.65 793.15 -127.95 793.05 -127.6 793.0 -124.75 792.85 -122.6 792.95 -120.35 792.95 -120.1 792.9 -113.35 792.7 -95.15 792.85 Q-86.2 792.85 -77.3 793.0 -69.45 793.2 -61.5 793.05 L-40.7 792.75 Q-33.05 792.6 -25.4 793.0 L-24.9 793.05 -24.55 792.85 -24.2 792.75 -23.85 792.75 -23.85 792.7 Q-21.25 792.9 -19.95 793.6 L-19.95 793.45 Q-20.5 793.15 -19.85 792.9 -17.85 792.2 -15.2 792.3 L-14.25 792.25 0.9 793.0 Q4.6 793.4 3.45 795.15 2.85 796.05 1.4 796.4 2.65 797.3 2.85 798.55 3.4 802.1 3.1 805.65 L3.5 805.85 3.6 805.9 3.0 806.25 3.0 806.4 6.25 806.4 Q6.75 807.1 6.15 808.15 5.4 809.35 3.1 809.45 L2.45 809.45 2.1 810.95 Q4.15 811.1 5.65 811.85 6.0 812.0 5.7 812.3 L6.25 812.75 -16.1 812.75 -16.8 812.55 -17.55 812.2 Q-19.9 811.35 -20.5 809.5 L-20.5 809.4 -21.05 806.95 -21.1 806.4 Q-21.25 804.8 -21.0 803.2 -20.4 799.55 -17.15 796.35 -16.5 795.65 -15.25 795.45 L-14.15 795.75 Q-12.65 794.7 -9.2 795.0 L-3.9 794.85 -0.55 794.75 0.05 794.7 -12.85 794.05 -14.5 794.15 -17.4 794.15 -17.95 795.6 -18.4 795.85 -19.55 795.7 Q-21.45 795.55 -22.05 794.5 -25.95 798.65 -25.25 803.5 L-24.65 806.4 -24.5 806.9 -24.35 807.35 -23.75 808.8 -23.5 809.35 -21.45 812.75 -24.85 812.75 Q-26.05 811.1 -26.85 809.35 L-27.7 807.2 -27.9 806.4 Q-28.7 803.5 -28.25 800.5 -27.9 797.7 -26.05 795.05 L-25.85 794.85 -31.85 794.85 -32.9 794.85 -36.8 794.9 -41.5 794.9 -42.45 794.9 -44.85 794.9 -46.9 794.95 -61.95 795.0 -106.35 794.85 M-14.3 796.85 Q-18.55 801.45 -17.5 806.4 L-17.35 807.05 -16.95 808.3 -16.5 809.75 -16.25 811.4 -14.85 811.35 -3.45 811.3 -1.45 811.1 -0.35 811.0 -0.15 809.6 0.05 807.7 0.1 807.0 -3.05 806.8 -3.4 806.75 -5.1 806.5 -8.25 806.6 -13.7 806.4 -17.25 806.1 0.15 805.6 0.2 803.55 -4.85 803.35 -7.1 803.3 Q-12.2 803.8 -16.75 803.05 L-16.85 802.95 Q-13.4 802.05 -8.85 802.0 L-4.65 801.9 0.15 802.15 -0.1 799.55 Q-0.25 798.05 -1.2 796.65 L-9.65 796.95 -14.3 796.85 M2.85 807.45 L3.5 807.4 2.9 807.1 2.85 807.45" fill="#000000" fill-rule="evenodd" stroke="none"/>
    <path d="M-110.4 794.8 Q-112.55 800.7 -111.3 806.4 L-111.2 807.0 -110.65 808.9 -108.9 812.75 -113.7 812.75 Q-114.6 810.8 -115.05 808.85 L-115.45 806.95 -115.5 806.4 Q-116.3 800.6 -113.95 794.75 L-110.4 794.8 M-104.25 812.75 L-105.9 808.9 -106.45 807.05 -106.6 806.4 Q-107.85 800.65 -106.35 794.85 L-61.95 795.0 -46.9 794.95 Q-47.8 796.75 -48.2 798.7 -48.95 802.5 -49.1 806.4 L-49.1 806.8 -49.1 806.9 -48.95 809.0 Q-48.7 810.95 -47.8 812.75 L-104.25 812.75 M-42.45 794.9 L-41.5 794.9 -36.8 794.9 Q-39.6 800.7 -38.95 806.4 L-38.85 807.2 -38.45 809.3 -37.3 812.75 -42.55 812.75 -43.6 809.15 -43.95 807.05 -44.0 806.4 Q-44.55 800.65 -42.45 794.9 M-31.85 794.85 L-25.85 794.85 -26.05 795.05 Q-27.9 797.7 -28.25 800.5 -28.7 803.5 -27.9 806.4 L-27.7 807.2 -26.85 809.35 Q-26.05 811.1 -24.85 812.75 L-32.7 812.75 -33.7 809.35 -34.05 807.25 -34.15 806.4 Q-34.6 800.6 -31.85 794.85 M-21.45 812.75 L-23.5 809.35 -23.75 808.8 -24.35 807.35 -24.5 806.9 -24.65 806.4 -25.25 803.5 Q-25.95 798.65 -22.05 794.5 -21.45 795.55 -19.55 795.7 L-18.4 795.85 -17.95 795.6 -17.4 794.15 -14.5 794.15 -12.85 794.05 0.05 794.7 -0.55 794.75 -3.9 794.85 -9.2 795.0 Q-12.65 794.7 -14.15 795.75 L-15.25 795.45 Q-16.5 795.65 -17.15 796.35 -20.4 799.55 -21.0 803.2 -21.25 804.8 -21.1 806.4 L-21.05 806.95 -20.5 809.4 -20.5 809.5 Q-19.9 811.35 -17.55 812.2 L-16.8 812.55 -16.1 812.75 -21.45 812.75 M-126.9 812.75 Q-130.3 807.45 -129.9 801.75 -129.75 798.45 -127.65 795.45 L-127.25 794.6 -118.05 794.7 Q-121.2 799.25 -120.5 804.45 L-120.25 806.4 -120.2 807.0 -119.95 808.8 -119.6 810.9 -118.95 812.75 -126.9 812.75 M2.85 807.45 L2.9 807.1 3.5 807.4 2.85 807.45" fill="#612f62" fill-rule="evenodd" stroke="none"/>
    <path d="M-110.4 794.8 L-106.35 794.85 Q-107.85 800.65 -106.6 806.4 L-106.45 807.05 -105.9 808.9 -104.25 812.75 -108.9 812.75 -110.65 808.9 -111.2 807.0 -111.3 806.4 Q-112.55 800.7 -110.4 794.8 M-46.9 794.95 L-44.85 794.9 -42.45 794.9 Q-44.55 800.65 -44.0 806.4 L-43.95 807.05 -43.6 809.15 -42.55 812.75 -47.8 812.75 Q-48.7 810.95 -48.95 809.0 L-49.1 806.9 -49.1 806.8 -49.1 806.4 Q-48.95 802.5 -48.2 798.7 -47.8 796.75 -46.9 794.95 M-36.8 794.9 L-32.9 794.85 -31.85 794.85 Q-34.6 800.6 -34.15 806.4 L-34.05 807.25 -33.7 809.35 -32.7 812.75 -37.3 812.75 -38.45 809.3 -38.85 807.2 -38.95 806.4 Q-39.6 800.7 -36.8 794.9 M-118.05 794.7 L-113.95 794.75 Q-116.3 800.6 -115.5 806.4 L-115.45 806.95 -115.05 808.85 Q-114.6 810.8 -113.7 812.75 L-118.95 812.75 -119.6 810.9 -119.95 808.8 -120.2 807.0 -120.25 806.4 -120.5 804.45 Q-121.2 799.25 -118.05 794.7" fill="#f9d617" fill-rule="evenodd" stroke="none"/>
    <path d="M-14.3 796.85 L-9.65 796.95 -1.2 796.65 Q-0.25 798.05 -0.1 799.55 L0.15 802.15 -4.65 801.9 -8.85 802.0 Q-13.4 802.05 -16.85 802.95 L-16.75 803.05 Q-12.2 803.8 -7.1 803.3 L-4.85 803.35 0.2 803.55 0.15 805.6 -17.25 806.1 -13.7 806.4 -8.25 806.6 -5.1 806.5 -3.4 806.75 -3.05 806.8 0.1 807.0 0.05 807.7 -0.15 809.6 -0.35 811.0 -1.45 811.1 -3.45 811.3 -14.85 811.35 -16.25 811.4 -16.5 809.75 -16.95 808.3 -17.35 807.05 -17.5 806.4 Q-18.55 801.45 -14.3 796.85" fill="#fef7cf" fill-rule="evenodd" stroke="none"/>
    <path d="M-14.55 775.95 L-14.45 776.05 -14.1 775.95 -13.6 775.9 Q-9.05 777.35 -11.35 780.0 L-11.6 780.2 -15.45 780.8 Q-13.35 782.15 -12.8 784.05 L-12.8 784.1 -12.6 784.25 Q-12.3 784.55 -12.5 784.9 L-12.65 785.05 -12.6 785.65 Q-12.7 788.75 -14.3 791.55 L-13.35 791.85 -12.95 792.0 -12.6 792.3 -12.85 792.6 -13.1 792.8 -14.2 793.35 -15.55 793.35 -16.15 794.1 -13.25 794.15 Q-11.95 794.15 -11.15 794.75 -7.9 797.1 -11.3 797.8 L-11.1 798.15 -11.35 798.45 -11.6 798.8 Q-43.8 800.45 -76.5 799.15 L-101.65 798.25 Q-102.65 798.2 -103.2 797.7 -104.15 798.1 -104.45 798.65 L-105.1 799.1 Q-106.3 799.4 -106.9 798.8 L-106.9 798.65 Q-108.65 798.5 -109.2 797.5 L-111.8 795.25 Q-117.05 786.65 -112.05 778.1 L-111.6 777.8 -110.9 776.95 -110.5 776.5 -110.2 776.3 -109.6 776.05 -108.9 775.95 -108.1 775.9 Q-106.3 776.45 -105.1 777.45 L-105.05 777.4 -104.8 777.2 -103.9 776.75 -103.85 776.6 -103.8 776.4 -103.75 776.25 -103.6 776.1 Q-100.15 775.2 -95.9 775.15 L-91.9 775.65 -90.7 775.95 -64.05 774.85 Q-40.85 776.05 -17.25 775.4 -15.85 775.35 -14.8 775.8 L-14.55 775.95 M-102.55 777.9 L-103.75 778.7 -104.25 779.0 -104.75 779.25 -105.3 779.35 -105.5 779.35 Q-106.1 779.55 -106.8 779.35 L-108.1 778.45 -108.6 778.1 -110.5 778.7 Q-110.1 779.7 -111.05 781.05 -112.25 782.65 -112.25 784.45 -112.35 789.9 -108.5 794.75 L-108.0 795.75 -107.8 796.05 Q-106.65 796.55 -105.75 797.15 L-105.4 796.85 -105.0 796.55 Q-105.2 796.05 -104.6 795.75 L-103.7 795.5 -103.3 795.55 -102.7 795.6 Q-101.8 796.2 -100.55 796.6 L-100.3 796.75 -35.65 797.3 -16.4 797.2 -14.85 797.2 -14.35 796.9 Q-13.7 796.6 -13.6 796.2 -29.35 796.0 -46.05 795.95 L-62.4 796.1 Q-77.25 796.35 -91.9 795.3 -95.3 795.95 -98.5 795.4 L-99.8 794.4 -101.1 794.3 -101.6 794.7 -102.5 795.05 -103.9 794.7 -104.4 794.4 -104.5 793.45 -104.45 793.15 Q-106.85 792.75 -107.7 790.8 -110.05 785.5 -105.8 780.75 L-105.4 780.65 -104.9 780.6 -104.55 780.65 -104.1 780.6 -103.5 780.65 -103.25 780.6 -103.1 780.5 Q-103.25 779.75 -101.8 779.7 L-91.5 779.35 -88.1 779.1 -85.7 778.85 Q-61.65 779.45 -37.65 779.05 L-25.6 778.9 -22.9 778.95 -22.85 778.95 -14.6 778.55 Q-14.45 778.0 -14.8 777.25 -34.5 778.4 -54.8 776.9 L-64.05 776.6 Q-65.8 776.6 -67.1 777.1 -84.1 777.8 -100.5 777.35 L-101.7 777.4 -102.55 777.9 M-100.7 781.75 L-100.7 781.9 -100.7 782.05 -100.7 782.2 -100.75 782.35 -100.85 782.55 -100.9 782.6 Q-99.25 784.75 -98.6 787.6 L-97.4 792.8 -97.55 792.85 -97.3 792.95 -96.9 793.25 -96.5 793.6 Q-74.45 794.0 -52.05 793.9 -35.8 793.85 -19.6 794.05 L-19.1 793.25 Q-28.95 793.05 -38.65 793.15 -33.8 790.45 -24.65 791.45 L-20.4 791.5 -18.25 791.75 Q-17.55 790.25 -17.2 788.7 -38.8 789.5 -60.45 788.85 L-65.2 788.7 Q-78.1 788.15 -90.1 788.25 L-89.95 788.1 -89.7 787.95 -89.4 787.8 -89.15 787.7 -88.9 787.65 Q-68.45 787.15 -47.85 787.35 L-41.85 787.3 -26.8 786.65 Q-21.35 786.05 -16.9 786.9 L-16.9 786.5 -16.6 785.7 -16.65 785.5 -50.85 783.95 -51.55 783.5 Q-51.45 783.2 -50.85 783.15 L-50.35 783.1 -49.65 782.95 Q-44.0 783.4 -38.45 782.9 L-17.4 783.6 Q-17.95 782.45 -18.85 781.4 -22.4 781.9 -26.9 781.45 L-37.65 781.05 Q-59.05 781.4 -80.5 781.05 -88.7 780.9 -96.9 781.25 L-99.3 781.3 -100.6 781.4 -100.7 781.55 -100.7 781.75 M-103.3 782.75 L-103.95 782.4 -104.1 782.35 Q-106.35 787.45 -102.7 792.45 -102.4 792.2 -101.9 792.05 L-100.9 791.85 -100.75 791.9 Q-104.35 787.4 -101.3 782.8 L-101.65 782.85 -102.8 782.85 -103.3 782.75" fill="#000000" fill-rule="evenodd" stroke="none"/>
    <path d="M-102.55 777.9 L-101.7 777.4 -100.5 777.35 Q-84.1 777.8 -67.1 777.1 -65.8 776.6 -64.05 776.6 L-54.8 776.9 Q-34.5 778.4 -14.8 777.25 -14.45 778.0 -14.6 778.55 L-22.85 778.95 -22.9 778.95 -25.6 778.9 -37.65 779.05 Q-61.65 779.45 -85.7 778.85 L-88.1 779.1 -91.5 779.35 -101.8 779.7 Q-103.25 779.75 -103.1 780.5 L-103.25 780.6 -103.5 780.65 -104.1 780.6 -104.55 780.65 -104.9 780.6 -105.4 780.65 -105.8 780.75 Q-110.05 785.5 -107.7 790.8 -106.85 792.75 -104.45 793.15 L-104.5 793.45 -104.4 794.4 -103.9 794.7 -102.5 795.05 -101.6 794.7 -101.1 794.3 -99.8 794.4 -98.5 795.4 Q-95.3 795.95 -91.9 795.3 -77.25 796.35 -62.4 796.1 L-46.05 795.95 Q-29.35 796.0 -13.6 796.2 -13.7 796.6 -14.35 796.9 L-14.85 797.2 -16.4 797.2 -35.65 797.3 -100.3 796.75 -100.55 796.6 Q-101.8 796.2 -102.7 795.6 L-103.3 795.55 -103.7 795.5 -104.6 795.75 Q-105.2 796.05 -105.0 796.55 L-105.4 796.85 -105.75 797.15 Q-106.65 796.55 -107.8 796.05 L-108.0 795.75 -108.5 794.75 Q-112.35 789.9 -112.25 784.45 -112.25 782.65 -111.05 781.05 -110.1 779.7 -110.5 778.7 L-108.6 778.1 -108.1 778.45 -106.8 779.35 Q-106.1 779.55 -105.5 779.35 L-105.3 779.35 -104.75 779.25 -104.25 779.0 -103.75 778.7 -102.55 777.9" fill="#284168" fill-rule="evenodd" stroke="none"/>
    <path d="M-103.3 782.75 L-102.8 782.85 -101.65 782.85 -101.3 782.8 Q-104.35 787.4 -100.75 791.9 L-100.9 791.85 -101.9 792.05 Q-102.4 792.2 -102.7 792.45 -106.35 787.45 -104.1 782.35 L-103.95 782.4 -103.3 782.75 M-100.7 781.75 L-100.7 781.55 -100.6 781.4 -99.3 781.3 -96.9 781.25 Q-88.7 780.9 -80.5 781.05 -59.05 781.4 -37.65 781.05 L-26.9 781.45 Q-22.4 781.9 -18.85 781.4 -17.95 782.45 -17.4 783.6 L-38.45 782.9 Q-44.0 783.4 -49.65 782.95 L-50.35 783.1 -50.85 783.15 Q-51.45 783.2 -51.55 783.5 L-50.85 783.95 -16.65 785.5 -16.6 785.7 -16.9 786.5 -16.9 786.9 Q-21.35 786.05 -26.8 786.65 L-41.85 787.3 -47.85 787.35 Q-68.45 787.15 -88.9 787.65 L-89.15 787.7 -89.4 787.8 -89.7 787.95 -89.95 788.1 -90.1 788.25 Q-78.1 788.15 -65.2 788.7 L-60.45 788.85 Q-38.8 789.5 -17.2 788.7 -17.55 790.25 -18.25 791.75 L-20.4 791.5 -24.65 791.45 Q-33.8 790.45 -38.65 793.15 -28.95 793.05 -19.1 793.25 L-19.6 794.05 Q-35.8 793.85 -52.05 793.9 -74.45 794.0 -96.5 793.6 L-96.9 793.25 -97.3 792.95 -97.55 792.85 -97.4 792.8 -98.6 787.6 Q-99.25 784.75 -100.9 782.6 L-100.85 782.55 -100.75 782.35 -100.7 782.2 -100.7 782.05 -100.7 781.9 -100.7 781.75" fill="#fef7cf" fill-rule="evenodd" stroke="none"/>
    <path d="M380.3 546.7 Q378.7 546.8 379.4 547.15 392.75 554.35 399.45 548.6 398.3 548.1 397.05 548.0 L380.3 546.7 M559.15 526.2 L564.6 525.8 564.7 525.7 589.35 528.6 Q589.05 531.0 587.85 533.1 586.95 534.55 586.6 536.15 L582.7 535.6 Q575.25 536.35 567.25 535.85 532.3 533.55 499.45 540.4 L499.4 540.65 586.2 538.45 586.15 538.8 Q584.9 540.35 583.15 541.45 580.9 542.9 579.2 544.7 L578.45 545.7 Q565.15 547.5 552.7 550.35 552.05 551.0 552.2 551.9 L552.2 552.4 552.25 552.9 552.55 553.45 Q553.25 554.0 553.85 553.9 571.45 552.9 588.25 556.7 L588.85 561.35 589.0 562.9 589.15 563.7 Q544.85 560.0 499.7 558.25 495.2 559.5 489.05 559.05 476.15 558.1 463.5 560.25 455.8 558.25 446.65 557.8 L354.9 553.8 Q319.8 552.45 286.95 552.55 279.0 544.3 269.5 552.9 L237.6 551.3 219.75 551.05 204.45 550.85 Q162.25 550.1 120.35 546.85 76.15 543.35 32.35 542.9 19.75 542.75 10.0 540.05 L9.35 539.7 Q4.05 538.25 1.6 534.3 L0.75 533.8 Q-0.15 533.4 -1.2 533.15 -1.85 533.2 -2.4 533.85 L-6.35 539.1 Q-8.7 539.9 -12.7 539.85 L-25.8 539.7 Q-56.35 539.45 -86.2 540.2 L-85.1 539.7 Q-88.75 537.4 -93.9 537.3 -93.85 536.3 -93.35 535.4 -91.3 531.8 -90.1 527.9 L-88.35 528.2 Q-58.25 529.5 -29.8 527.8 -30.1 527.5 -30.4 527.5 L-54.25 526.0 Q-73.05 525.15 -90.1 527.9 L-89.15 523.6 -89.6 522.0 Q-90.85 517.8 -91.15 514.3 L-84.4 515.0 -37.0 513.45 -37.15 513.25 Q-56.75 512.7 -76.05 509.4 L-89.9 511.0 -91.7 511.45 Q-93.1 508.25 -95.9 506.25 L-95.8 506.05 -93.7 506.25 Q-60.9 507.05 -27.95 507.25 -20.55 510.6 -10.3 511.05 17.75 512.15 42.25 517.35 40.45 517.95 39.65 519.3 L39.65 519.8 Q39.45 520.85 39.75 521.85 43.4 523.95 47.9 524.25 60.15 525.0 72.25 527.3 91.7 531.0 103.8 519.85 L103.45 518.8 102.8 516.2 100.45 515.1 105.95 515.15 Q115.15 515.3 120.65 512.45 L142.45 513.4 Q185.3 514.2 228.05 514.6 L240.45 515.35 258.05 517.55 Q274.65 514.45 292.2 516.3 L316.35 517.8 347.9 518.15 Q393.0 518.15 438.65 521.25 L445.75 521.65 541.05 526.15 545.35 526.35 Q516.4 526.95 488.25 530.5 532.7 531.7 576.4 528.45 L576.1 528.1 562.35 526.2 559.15 526.2 M439.7 527.9 L437.7 528.1 Q381.95 528.25 326.9 524.95 L383.75 530.1 Q424.75 532.95 464.5 530.55 L464.2 530.2 Q453.15 527.05 439.7 527.9 M440.1 547.0 L452.35 548.0 485.5 549.25 522.25 551.95 522.0 551.7 Q506.05 547.2 489.0 544.85 466.4 547.2 444.3 544.35 421.35 541.35 400.35 544.7 L424.15 545.65 Q432.2 545.6 440.1 547.0 M556.2 545.6 Q554.1 544.85 551.95 544.4 543.35 544.25 534.95 545.75 544.6 549.5 556.6 545.95 L556.2 545.6 M478.65 538.45 L478.3 538.1 464.6 536.75 Q430.1 536.3 395.7 537.25 436.65 541.9 478.65 538.45 M26.5 528.05 Q27.7 529.1 29.55 529.6 59.6 537.85 91.8 535.9 102.05 535.2 108.25 531.15 112.6 528.35 115.0 523.9 140.65 516.6 167.35 521.0 L176.8 522.05 Q207.9 523.75 237.65 523.9 236.4 522.1 233.5 522.0 189.35 520.05 145.6 515.1 L135.45 515.95 Q122.7 517.95 110.9 520.85 L110.7 521.8 110.4 523.35 109.5 525.9 109.15 526.4 Q101.35 529.15 93.3 530.6 84.25 532.25 74.85 532.3 56.55 532.4 40.2 528.55 34.4 527.2 28.8 525.4 L29.95 524.45 Q31.2 523.65 31.85 522.4 L32.0 521.95 Q27.9 518.15 21.7 519.05 20.2 519.2 19.6 520.25 L20.75 521.3 21.5 521.8 26.15 522.25 26.7 522.55 26.2 523.1 25.8 523.55 Q25.0 524.45 24.95 525.6 L24.95 526.1 Q25.55 527.25 26.5 528.05 M54.1 513.65 Q53.6 514.95 54.0 516.25 69.3 523.4 84.75 516.9 L85.3 515.4 Q85.6 513.7 85.0 512.25 81.7 510.05 78.25 509.55 L103.55 511.15 Q95.05 512.2 87.5 515.25 92.7 518.0 98.55 519.65 98.3 520.65 96.85 521.0 70.85 526.35 44.9 520.0 45.5 519.55 46.3 519.3 49.05 518.6 49.55 516.25 38.15 511.9 23.55 510.65 12.05 508.4 0.5 507.3 32.15 507.4 63.75 508.8 L61.65 509.05 61.45 509.1 54.4 512.65 54.1 513.65 M152.3 541.7 Q154.5 544.1 157.95 544.2 209.2 546.25 254.85 543.6 L253.25 543.15 Q214.95 542.4 176.8 538.95 171.4 541.05 163.15 540.05 157.2 539.35 152.3 541.7 M146.6 523.0 L145.6 523.2 144.85 523.7 Q145.15 524.55 145.65 524.65 178.2 530.4 209.7 530.15 209.35 529.7 208.95 529.65 179.95 524.9 150.65 522.75 L150.65 522.9 146.6 523.0 M74.85 542.05 L76.1 540.8 90.05 541.95 Q116.05 545.65 125.05 527.8 118.4 531.1 112.8 535.95 93.45 538.45 73.85 538.15 65.55 538.3 58.15 541.5 L73.95 542.4 74.85 542.05 M154.15 532.9 L125.6 533.0 176.8 537.0 205.3 535.6 Q231.0 535.2 256.6 537.85 264.05 538.65 270.7 536.8 282.55 533.5 294.75 535.0 296.85 536.2 297.85 538.05 L299.0 539.8 Q299.25 542.4 298.75 544.95 298.4 546.2 298.6 547.55 298.9 548.45 299.95 549.05 L300.9 549.45 Q330.4 550.0 360.0 550.05 L360.75 549.6 Q361.95 548.8 363.6 548.45 L363.55 548.25 301.9 545.9 302.1 544.9 302.65 543.4 302.85 542.9 302.4 541.3 Q302.1 540.3 302.15 539.25 L302.05 538.75 Q300.55 537.3 299.55 535.6 297.9 532.9 294.6 531.45 L289.75 531.25 Q281.1 531.6 273.5 535.25 213.75 532.95 154.15 532.9 M307.55 524.5 L306.0 523.7 Q303.05 521.85 299.25 522.45 283.5 522.6 268.25 527.55 284.6 525.95 302.7 527.15 304.5 528.4 305.65 530.0 308.55 534.3 306.8 538.15 307.1 539.05 307.8 539.55 309.9 541.3 311.8 539.2 L312.5 538.45 313.45 538.75 Q331.15 544.0 350.1 543.8 L349.7 543.45 Q332.0 539.8 313.95 537.3 L313.05 537.35 313.3 535.8 Q313.3 534.5 312.85 533.25 311.0 531.75 310.0 529.85 308.6 527.2 307.55 524.5 M-51.2 533.95 Q-48.55 534.75 -45.85 534.85 -31.9 535.4 -18.1 534.35 L-18.55 533.95 Q-28.25 530.85 -38.9 531.85 L-50.4 533.45 Q-50.8 533.55 -51.2 533.95 M-78.85 520.6 L-77.5 521.1 Q-45.05 523.6 -12.35 521.15 -12.3 520.75 -12.55 520.5 -20.5 514.75 -32.75 518.05 -40.15 520.4 -50.4 520.55 L-78.85 520.6" fill="#5b5617" fill-rule="evenodd" stroke="none"/>
    <path d="M380.3 546.7 L397.05 548.0 Q398.3 548.1 399.45 548.6 392.75 554.35 379.4 547.15 378.7 546.8 380.3 546.7 M559.15 526.2 L562.35 526.2 576.1 528.1 576.4 528.45 Q532.7 531.7 488.25 530.5 516.4 526.95 545.35 526.35 552.25 526.15 559.15 526.2 M478.65 538.45 Q436.65 541.9 395.7 537.25 430.1 536.3 464.6 536.75 L478.3 538.1 478.65 538.45 M556.2 545.6 L556.6 545.95 Q544.6 549.5 534.95 545.75 543.35 544.25 551.95 544.4 554.1 544.85 556.2 545.6 M74.85 542.05 L73.95 542.4 58.15 541.5 Q65.55 538.3 73.85 538.15 93.45 538.45 112.8 535.95 118.4 531.1 125.05 527.8 116.05 545.65 90.05 541.95 L76.1 540.8 74.85 542.05 M146.6 523.0 L150.65 522.9 150.65 522.75 Q179.95 524.9 208.95 529.65 209.35 529.7 209.7 530.15 178.2 530.4 145.65 524.65 145.15 524.55 144.85 523.7 L145.6 523.2 146.6 523.0 M152.3 541.7 Q157.2 539.35 163.15 540.05 171.4 541.05 176.8 538.95 214.95 542.4 253.25 543.15 L254.85 543.6 Q209.2 546.25 157.95 544.2 154.5 544.1 152.3 541.7 M307.55 524.5 Q308.6 527.2 310.0 529.85 311.0 531.75 312.85 533.25 313.3 534.5 313.3 535.8 L313.05 537.35 313.95 537.3 Q332.0 539.8 349.7 543.45 L350.1 543.8 Q331.15 544.0 313.45 538.75 L312.5 538.45 311.8 539.2 Q309.9 541.3 307.8 539.55 307.1 539.05 306.8 538.15 308.55 534.3 305.65 530.0 304.5 528.4 302.7 527.15 284.6 525.95 268.25 527.55 283.5 522.6 299.25 522.45 303.05 521.85 306.0 523.7 L307.55 524.5 M-78.85 520.6 L-50.4 520.55 Q-40.15 520.4 -32.75 518.05 -20.5 514.75 -12.55 520.5 -12.3 520.75 -12.35 521.15 -45.05 523.6 -77.5 521.1 L-78.85 520.6 M-51.2 533.95 Q-50.8 533.55 -50.4 533.45 L-38.9 531.85 Q-28.25 530.85 -18.55 533.95 L-18.1 534.35 Q-31.9 535.4 -45.85 534.85 -48.55 534.75 -51.2 533.95" fill="#8a7a24" fill-rule="evenodd" stroke="none"/>
    <path d="M402.35 514.3 L458.1 517.6 554.25 521.9 563.3 522.5 Q570.75 521.15 579.35 522.3 L593.0 523.6 594.25 523.85 594.95 524.45 595.55 524.95 595.9 525.45 596.3 526.5 596.0 527.4 Q594.75 529.15 594.55 531.1 594.3 533.45 592.8 535.6 L592.65 536.1 592.75 536.6 593.05 537.2 Q593.5 538.45 593.4 539.75 L592.65 540.7 590.2 542.9 586.8 545.15 586.75 545.65 586.9 546.2 587.1 546.7 587.25 547.75 587.05 548.2 586.55 548.75 586.0 549.3 585.55 549.7 Q586.05 550.3 586.65 550.4 590.95 551.6 593.55 554.55 L594.0 555.05 594.1 556.05 594.85 560.2 Q595.5 562.65 594.3 564.8 L594.25 565.0 593.75 565.15 593.45 565.25 593.3 565.25 Q584.25 567.95 573.2 567.25 574.4 574.35 573.65 582.35 L572.75 588.95 Q572.2 591.75 572.2 594.95 572.25 603.4 572.7 611.95 L571.15 614.45 570.75 614.8 565.9 615.25 Q564.05 618.3 561.15 620.75 563.7 625.8 566.0 631.75 563.9 669.2 561.95 707.1 560.9 727.75 561.4 748.25 562.0 771.2 565.8 793.55 566.8 799.9 565.1 805.65 566.1 806.45 566.55 807.5 L566.5 808.0 Q560.35 811.9 551.75 807.45 550.65 800.4 550.6 793.0 L550.55 791.5 Q548.85 793.8 548.75 798.2 548.75 799.05 547.95 799.6 545.15 800.6 543.75 798.4 542.6 799.55 541.45 802.55 L541.05 803.6 Q532.65 806.6 526.85 804.1 L526.35 805.95 Q524.0 806.45 522.95 804.6 525.2 785.8 528.75 767.35 L529.05 766.8 Q529.0 765.75 528.45 764.7 L528.35 764.25 Q531.05 751.75 529.75 739.1 L529.75 738.6 Q527.85 725.7 534.95 715.0 536.15 713.2 536.85 711.1 536.3 708.8 536.05 706.45 L535.95 705.95 Q532.85 703.45 528.85 701.85 526.95 682.05 529.4 661.3 532.25 637.15 532.75 613.15 532.2 594.8 533.4 576.75 L534.45 564.3 Q502.45 562.95 471.25 562.75 L473.25 563.6 Q460.5 567.7 444.15 564.15 429.2 560.95 413.6 560.85 355.45 560.55 298.5 556.0 298.0 556.0 297.5 555.65 291.75 555.95 285.9 557.1 282.8 556.05 281.05 553.55 275.2 553.1 270.7 557.95 237.4 557.2 204.2 555.95 137.5 553.4 70.85 548.5 L27.3 546.65 21.8 546.4 Q15.95 545.9 10.25 546.45 6.9 545.25 5.6 542.3 2.2 541.15 -0.5 539.3 L-2.9 543.3 -3.8 544.35 Q-15.0 544.75 -26.05 544.65 L-37.15 544.55 Q-37.0 549.65 -37.15 555.0 -37.4 567.4 -38.85 580.7 -42.1 610.7 -41.8 641.3 -41.35 680.15 -44.85 718.7 -47.45 749.3 -45.35 779.8 L-44.3 780.75 Q-44.45 781.5 -45.15 782.15 L-45.15 782.2 -45.5 782.9 -45.9 783.4 -46.8 782.65 Q-53.15 782.05 -59.55 780.65 -60.7 779.15 -62.65 778.5 L-63.25 780.35 Q-63.5 781.05 -64.4 781.35 -66.65 781.9 -68.2 780.5 -69.0 777.25 -70.7 774.2 L-71.25 773.2 Q-71.9 775.05 -72.35 777.25 L-72.95 778.75 Q-81.25 782.15 -87.35 778.35 L-88.05 779.55 -88.75 777.4 -90.05 776.25 Q-90.1 775.35 -89.2 775.0 -90.1 767.55 -85.1 759.35 L-81.15 753.3 Q-84.6 741.75 -81.1 730.2 L-80.85 729.65 Q-81.8 727.95 -81.2 726.1 L-80.85 725.55 Q-76.75 723.45 -71.7 724.0 -71.55 722.35 -70.65 720.9 L-70.45 720.45 -71.8 713.2 -71.9 712.7 -73.6 711.1 Q-76.35 710.8 -79.05 709.65 -79.3 706.75 -80.6 704.0 L-80.95 703.45 Q-76.95 666.5 -79.5 629.6 -80.1 621.0 -79.8 612.0 -79.7 609.15 -78.8 606.4 -79.65 604.7 -79.4 602.8 L-79.4 602.3 -76.2 599.3 -75.0 595.25 -74.95 594.75 Q-72.4 592.65 -70.85 590.3 -76.2 585.85 -82.15 582.45 -81.65 579.35 -78.45 577.5 -77.05 565.75 -77.35 554.25 L-77.45 550.25 -77.35 549.25 Q-78.85 545.55 -77.1 542.2 L-88.4 541.05 Q-94.1 542.85 -99.35 540.85 -93.55 528.95 -96.7 516.95 L-97.15 514.25 Q-96.6 512.85 -96.75 511.7 L-96.8 511.2 -100.6 506.95 Q-100.9 505.4 -99.5 504.35 L-99.3 504.15 -99.8 503.15 Q-90.05 501.0 -78.55 502.8 L-60.65 503.8 Q-42.7 503.05 -24.65 503.5 L-2.85 504.2 Q18.75 505.05 40.3 504.0 52.95 503.4 65.45 504.5 147.05 511.9 228.5 510.6 243.0 510.35 257.3 513.2 266.1 511.35 275.35 511.9 L292.45 513.15 Q323.0 515.85 354.05 515.15 374.1 514.6 394.45 514.65 L402.35 514.3 M440.1 547.0 Q432.2 545.6 424.15 545.65 L400.35 544.7 Q421.35 541.35 444.3 544.35 466.4 547.2 489.0 544.85 506.05 547.2 522.0 551.7 L522.25 551.95 485.5 549.25 452.35 548.0 440.1 547.0 M439.7 527.9 Q453.15 527.05 464.2 530.2 L464.5 530.55 Q424.75 532.95 383.75 530.1 L326.9 524.95 Q381.95 528.25 437.7 528.1 L439.7 527.9 M545.35 526.35 L541.05 526.15 445.75 521.65 438.65 521.25 Q393.0 518.15 347.9 518.15 L316.35 517.8 292.2 516.3 Q274.65 514.45 258.05 517.55 L240.45 515.35 228.05 514.6 Q185.3 514.2 142.45 513.4 L120.65 512.45 Q115.15 515.3 105.95 515.15 L100.45 515.1 102.8 516.2 103.45 518.8 103.8 519.85 Q91.7 531.0 72.25 527.3 60.15 525.0 47.9 524.25 43.4 523.95 39.75 521.85 39.45 520.85 39.65 519.8 L39.65 519.3 Q40.45 517.95 42.25 517.35 17.75 512.15 -10.3 511.05 -20.55 510.6 -27.95 507.25 -60.9 507.05 -93.7 506.25 L-95.8 506.05 -95.9 506.25 Q-93.1 508.25 -91.7 511.45 L-89.9 511.0 -76.05 509.4 Q-56.75 512.7 -37.15 513.25 L-37.0 513.45 -84.4 515.0 -91.15 514.3 Q-90.85 517.8 -89.6 522.0 L-89.15 523.6 -90.1 527.9 Q-73.05 525.15 -54.25 526.0 L-30.4 527.5 Q-30.1 527.5 -29.8 527.8 -58.25 529.5 -88.35 528.2 L-90.1 527.9 Q-91.3 531.8 -93.35 535.4 -93.85 536.3 -93.9 537.3 -88.75 537.4 -85.1 539.7 L-86.2 540.2 Q-56.35 539.45 -25.8 539.7 L-12.7 539.85 Q-8.7 539.9 -6.35 539.1 L-2.4 533.85 Q-1.85 533.2 -1.2 533.15 -0.15 533.4 0.75 533.8 L1.6 534.3 Q4.05 538.25 9.35 539.7 L10.0 540.05 Q19.75 542.75 32.35 542.9 76.15 543.35 120.35 546.85 162.25 550.1 204.45 550.85 L219.75 551.05 237.6 551.3 269.5 552.9 Q279.0 544.3 286.95 552.55 319.8 552.45 354.9 553.8 L446.65 557.8 Q455.8 558.25 463.5 560.25 476.15 558.1 489.05 559.05 495.2 559.5 499.7 558.25 544.85 560.0 589.15 563.7 L589.0 562.9 588.85 561.35 588.25 556.7 Q571.45 552.9 553.85 553.9 553.25 554.0 552.55 553.45 L552.25 552.9 552.2 552.4 552.2 551.9 Q552.05 551.0 552.7 550.35 565.15 547.5 578.45 545.7 L579.2 544.7 Q580.9 542.9 583.15 541.45 584.9 540.35 586.15 538.8 L586.2 538.45 499.4 540.65 499.45 540.4 Q532.3 533.55 567.25 535.85 575.25 536.35 582.7 535.6 L586.6 536.15 Q586.95 534.55 587.85 533.1 589.05 531.0 589.35 528.6 L564.7 525.7 564.6 525.8 559.15 526.2 Q552.25 526.15 545.35 526.35 M58.15 514.85 Q70.45 518.3 81.05 514.25 76.25 512.8 74.0 509.65 L76.05 509.45 65.75 508.9 Q65.7 512.3 58.05 514.6 L58.15 514.85 M54.1 513.65 L54.4 512.65 61.45 509.1 61.65 509.05 63.75 508.8 Q32.15 507.4 0.5 507.3 12.05 508.4 23.55 510.65 38.15 511.9 49.55 516.25 49.05 518.6 46.3 519.3 45.5 519.55 44.9 520.0 70.85 526.35 96.85 521.0 98.3 520.65 98.55 519.65 92.7 518.0 87.5 515.25 95.05 512.2 103.55 511.15 L78.25 509.55 Q81.7 510.05 85.0 512.25 85.6 513.7 85.3 515.4 L84.75 516.9 Q69.3 523.4 54.0 516.25 53.6 514.95 54.1 513.65 M26.5 528.05 Q25.55 527.25 24.95 526.1 L24.95 525.6 Q25.0 524.45 25.8 523.55 L26.2 523.1 26.7 522.55 26.15 522.25 21.5 521.8 20.75 521.3 19.6 520.25 Q20.2 519.2 21.7 519.05 27.9 518.15 32.0 521.95 L31.85 522.4 Q31.2 523.65 29.95 524.45 L28.8 525.4 Q34.4 527.2 40.2 528.55 56.55 532.4 74.85 532.3 84.25 532.25 93.3 530.6 101.35 529.15 109.15 526.4 L109.5 525.9 110.4 523.35 110.7 521.8 110.9 520.85 Q122.7 517.95 135.45 515.95 L145.6 515.1 Q189.35 520.05 233.5 522.0 236.4 522.1 237.65 523.9 207.9 523.75 176.8 522.05 L167.35 521.0 Q140.65 516.6 115.0 523.9 112.6 528.35 108.25 531.15 102.05 535.2 91.8 535.9 59.6 537.85 29.55 529.6 27.7 529.1 26.5 528.05 M154.15 532.9 Q213.75 532.95 273.5 535.25 281.1 531.6 289.75 531.25 L294.6 531.45 Q297.9 532.9 299.55 535.6 300.55 537.3 302.05 538.75 L302.15 539.25 Q302.1 540.3 302.4 541.3 L302.85 542.9 302.65 543.4 302.1 544.9 301.9 545.9 363.55 548.25 363.6 548.45 Q361.95 548.8 360.75 549.6 L360.0 550.05 Q330.4 550.0 300.9 549.45 L299.95 549.05 Q298.9 548.45 298.6 547.55 298.4 546.2 298.75 544.95 299.25 542.4 299.0 539.8 L297.85 538.05 Q296.85 536.2 294.75 535.0 282.55 533.5 270.7 536.8 264.05 538.65 256.6 537.85 231.0 535.2 205.3 535.6 L176.8 537.0 125.6 533.0 154.15 532.9 M568.6 581.75 Q569.9 574.35 572.5 567.15 L565.6 566.35 562.1 565.85 Q562.2 571.35 560.25 577.1 L559.8 577.35 Q557.6 570.55 561.55 565.8 L556.75 565.4 543.85 564.7 Q544.7 570.95 544.9 577.5 545.05 584.4 544.4 591.7 543.3 605.0 542.75 618.35 542.7 620.6 541.2 622.4 539.45 600.35 541.15 577.15 L542.3 564.65 535.7 564.4 Q536.9 570.45 537.4 576.9 538.05 584.3 537.8 592.1 537.0 612.6 535.65 633.15 533.55 666.15 532.85 698.8 548.75 707.5 537.35 720.3 533.65 724.4 534.35 729.8 535.7 739.25 535.15 749.25 533.65 776.1 527.5 801.4 L534.6 800.35 Q535.45 789.7 536.95 778.1 536.95 777.8 537.75 777.95 540.0 789.1 536.3 800.1 L538.0 799.85 Q538.75 796.4 540.8 793.3 L541.45 792.3 Q543.15 791.6 545.15 791.75 L545.55 791.6 Q546.95 784.85 550.95 780.25 548.6 777.65 548.9 772.4 L549.1 768.25 Q552.35 756.45 552.0 743.8 552.3 742.2 553.15 741.1 L553.3 741.05 Q553.25 759.7 552.05 779.25 L553.0 779.6 553.85 780.15 Q556.45 791.05 555.3 802.8 L555.2 803.8 561.0 804.85 Q557.3 768.1 555.9 730.85 L555.6 717.75 Q557.95 698.7 557.5 679.2 558.3 671.2 559.45 663.15 558.7 649.45 560.9 635.45 L561.05 633.95 Q558.3 631.25 558.9 627.65 L559.0 627.15 Q557.65 625.1 555.5 623.45 556.6 613.5 568.15 610.4 566.2 595.6 568.6 581.75 M564.5 581.05 L565.4 578.05 Q565.45 577.75 566.05 577.95 L565.8 581.3 Q564.5 596.45 563.7 611.75 L563.2 612.1 Q560.1 596.95 564.5 581.05 M553.25 624.05 Q553.6 633.75 552.2 644.05 L552.15 644.55 Q553.25 646.45 555.25 647.7 L551.3 684.6 Q551.2 685.5 550.6 686.1 548.6 668.65 552.4 650.2 L552.55 648.65 549.9 645.45 Q549.85 634.6 552.45 624.25 552.55 623.85 553.25 624.05 M548.6 699.55 Q552.8 718.8 543.15 736.75 542.0 738.95 542.0 741.5 542.1 752.0 539.0 761.9 539.85 763.8 538.9 765.5 L538.6 765.95 536.9 760.8 Q539.2 746.45 539.0 732.05 L539.05 731.55 Q546.45 722.15 547.45 710.3 547.3 703.3 543.1 697.45 L539.1 696.65 537.15 694.5 Q538.0 676.45 539.15 658.6 539.2 658.15 539.7 658.15 542.1 674.75 540.3 692.95 L540.45 693.45 Q542.0 694.4 544.45 694.8 L548.6 699.55 M-49.75 553.5 Q-50.7 550.65 -50.3 547.4 L-50.15 544.8 -49.55 544.05 -65.3 543.15 -65.95 554.2 Q-66.9 570.6 -67.35 587.25 L-65.1 588.95 Q-65.8 593.3 -70.15 596.45 L-71.2 600.5 -71.4 601.05 -74.0 604.05 Q-74.55 641.0 -73.4 678.05 -73.05 689.6 -75.7 700.55 -74.65 702.55 -74.2 704.75 L-74.15 705.25 Q-69.6 707.6 -66.55 711.35 -62.85 721.05 -69.3 729.1 -73.1 729.35 -75.5 730.05 -78.1 743.4 -78.25 756.7 -78.25 758.85 -79.2 761.1 -82.2 768.5 -85.6 775.15 L-83.8 775.95 Q-79.85 775.95 -77.2 774.85 -76.8 767.7 -72.6 761.85 -72.35 761.5 -71.65 761.35 L-69.7 761.9 -69.1 762.3 Q-66.9 766.75 -66.4 771.65 L-66.2 772.7 Q-60.75 773.3 -56.65 776.65 -53.2 776.45 -50.45 777.25 -51.65 773.85 -51.55 769.35 L-50.95 748.75 Q-49.75 708.1 -47.4 667.7 -44.95 626.45 -42.9 586.2 L-42.65 581.35 Q-43.95 580.4 -44.7 578.75 -58.25 569.6 -57.65 554.25 L-57.6 553.55 Q-57.2 549.1 -54.55 546.7 -53.85 549.85 -53.3 553.35 -52.65 557.6 -52.25 562.4 -51.85 567.65 -47.4 571.35 L-45.4 573.4 Q-46.45 563.4 -49.7 553.7 L-49.75 553.5 M-41.65 554.45 Q-40.85 549.1 -38.9 544.45 L-46.85 544.2 Q-47.5 548.95 -47.1 553.8 -46.4 562.6 -42.45 571.75 L-42.4 571.8 -42.35 563.15 Q-42.35 558.55 -41.65 554.45 M-68.45 554.15 Q-67.6 548.65 -66.2 543.1 L-74.9 542.4 Q-74.15 548.2 -73.85 554.15 -73.25 566.4 -74.75 579.45 L-74.95 579.95 Q-74.95 582.45 -69.0 586.15 -68.65 586.35 -68.3 586.65 -70.9 570.4 -68.45 554.15 M-51.95 646.65 Q-52.75 632.55 -54.6 617.45 -55.9 606.55 -55.7 595.5 L-55.25 582.45 -53.35 584.6 -52.95 585.1 Q-53.35 610.0 -52.05 634.6 -51.75 640.6 -51.7 646.7 L-51.95 646.65 M-59.85 608.85 Q-57.55 639.3 -59.35 670.55 L-59.55 670.9 Q-60.8 639.75 -60.4 608.85 L-59.85 608.85 M-68.0 651.05 Q-62.95 670.15 -66.7 688.55 L-66.8 689.1 Q-68.1 696.45 -62.45 703.15 -62.45 705.35 -61.1 707.3 -58.7 721.75 -64.6 735.45 -66.3 738.4 -69.55 739.45 -67.8 750.8 -68.25 761.85 -68.25 762.0 -68.9 762.15 -73.45 751.55 -71.0 739.4 -74.5 737.5 -75.05 734.0 -72.15 733.05 -69.9 735.9 L-68.2 734.1 Q-64.55 725.2 -64.75 716.25 -66.15 703.65 -70.05 691.5 -70.9 689.0 -70.45 686.15 -68.35 672.8 -69.3 659.05 -69.6 654.35 -68.0 651.05 M-56.8 727.3 Q-57.3 713.6 -56.8 702.45 -51.5 735.7 -55.2 769.35 L-55.3 769.85 Q-59.25 763.15 -57.95 753.4 -56.25 740.5 -56.8 727.3" fill="#000000" fill-rule="evenodd" stroke="none"/>
    <path d="M58.15 514.85 L58.05 514.6 Q65.7 512.3 65.75 508.9 L76.05 509.45 74.0 509.65 Q76.25 512.8 81.05 514.25 70.45 518.3 58.15 514.85" fill="#39360f" fill-rule="evenodd" stroke="none"/>
    <path d="M544.9 577.5 Q544.7 570.95 543.85 564.7 L556.75 565.4 561.55 565.8 Q557.6 570.55 559.8 577.35 L560.25 577.1 Q562.2 571.35 562.1 565.85 L565.6 566.35 572.5 567.15 Q569.9 574.35 568.6 581.75 L565.8 581.3 566.05 577.95 Q565.45 577.75 565.4 578.05 L564.5 581.05 559.4 580.0 Q552.1 578.3 544.9 577.5 M537.4 576.9 Q536.9 570.45 535.7 564.4 L542.3 564.65 541.15 577.15 537.4 576.9 M-65.95 554.2 L-65.3 543.15 -49.55 544.05 -50.15 544.8 -50.3 547.4 Q-50.7 550.65 -49.75 553.5 L-52.0 553.4 -53.3 553.35 Q-53.85 549.85 -54.55 546.7 -57.2 549.1 -57.6 553.55 L-61.55 553.95 -65.95 554.2 M-47.1 553.8 Q-47.5 548.95 -46.85 544.2 L-38.9 544.45 Q-40.85 549.1 -41.65 554.45 L-47.1 553.8 M-68.45 554.15 L-73.85 554.15 Q-74.15 548.2 -74.9 542.4 L-66.2 543.1 Q-67.6 548.65 -68.45 554.15" fill="#46450f" fill-rule="evenodd" stroke="none"/>
    <path d="M544.9 577.5 Q552.1 578.3 559.4 580.0 L564.5 581.05 Q560.1 596.95 563.2 612.1 L563.7 611.75 Q564.5 596.45 565.8 581.3 L568.6 581.75 Q566.2 595.6 568.15 610.4 556.6 613.5 555.5 623.45 557.65 625.1 559.0 627.15 L558.9 627.65 Q558.3 631.25 561.05 633.95 L560.9 635.45 Q558.7 649.45 559.45 663.15 558.3 671.2 557.5 679.2 L556.9 666.8 Q551.9 673.1 553.05 683.8 556.05 713.1 545.7 738.35 545.8 755.9 547.9 772.45 L549.1 768.25 548.9 772.4 Q548.6 777.65 550.95 780.25 546.95 784.85 545.55 791.6 L545.15 791.75 Q543.15 791.6 541.45 792.3 L540.8 793.3 Q538.75 796.4 538.0 799.85 L536.3 800.1 Q540.0 789.1 537.75 777.95 536.95 777.8 536.95 778.1 535.45 789.7 534.6 800.35 L527.5 801.4 Q533.65 776.1 535.15 749.25 535.7 739.25 534.35 729.8 533.65 724.4 537.35 720.3 548.75 707.5 532.85 698.8 533.55 666.15 535.65 633.15 537.0 612.6 537.8 592.1 538.05 584.3 537.4 576.9 L541.15 577.15 Q539.45 600.35 541.2 622.4 542.7 620.6 542.75 618.35 543.3 605.0 544.4 591.7 545.05 584.4 544.9 577.5 M555.6 717.75 L555.9 730.85 Q557.3 768.1 561.0 804.85 L555.2 803.8 555.3 802.8 Q556.45 791.05 553.85 780.15 L553.0 779.6 552.05 779.25 Q553.25 759.7 553.3 741.05 L553.15 741.1 Q552.3 742.2 552.0 743.8 L551.75 738.55 Q552.25 738.2 552.35 737.7 554.35 727.8 555.6 717.75 M551.9 582.95 L551.0 583.05 Q544.05 605.3 546.15 627.85 L546.6 627.25 Q553.55 605.3 551.9 582.95 M548.6 699.55 L544.45 694.8 Q542.0 694.4 540.45 693.45 L540.3 692.95 Q542.1 674.75 539.7 658.15 539.2 658.15 539.15 658.6 538.0 676.45 537.15 694.5 L539.1 696.65 543.1 697.45 Q547.3 703.3 547.45 710.3 546.45 722.15 539.05 731.55 L539.0 732.05 Q539.2 746.45 536.9 760.8 L538.6 765.95 538.9 765.5 Q539.85 763.8 539.0 761.9 542.1 752.0 542.0 741.5 542.0 738.95 543.15 736.75 552.8 718.8 548.6 699.55 M553.25 624.05 Q552.55 623.85 552.45 624.25 549.85 634.6 549.9 645.45 L552.55 648.65 552.4 650.2 Q548.6 668.65 550.6 686.1 551.2 685.5 551.3 684.6 L555.25 647.7 Q553.25 646.45 552.15 644.55 L552.2 644.05 Q553.6 633.75 553.25 624.05 M536.0 729.15 L537.25 728.7 Q545.05 724.05 541.3 719.1 540.4 719.15 539.65 720.05 536.25 724.3 536.0 729.15 M541.4 628.25 L541.05 628.3 Q534.5 643.85 538.45 658.1 L538.65 657.3 Q544.15 642.9 541.4 628.25 M-65.95 554.2 L-61.55 553.95 -57.6 553.55 -57.65 554.25 Q-58.25 569.6 -44.7 578.75 -43.95 580.4 -42.65 581.35 L-42.9 586.2 Q-44.95 626.45 -47.4 667.7 -49.75 708.1 -50.95 748.75 L-51.55 769.35 Q-51.65 773.85 -50.45 777.25 -53.2 776.45 -56.65 776.65 -60.75 773.3 -66.2 772.7 L-66.4 771.65 Q-66.9 766.75 -69.1 762.3 L-69.7 761.9 -71.65 761.35 Q-72.35 761.5 -72.6 761.85 -76.8 767.7 -77.2 774.85 -79.85 775.95 -83.8 775.95 L-85.6 775.15 Q-82.2 768.5 -79.2 761.1 -78.25 758.85 -78.25 756.7 -78.1 743.4 -75.5 730.05 -73.1 729.35 -69.3 729.1 -62.85 721.05 -66.55 711.35 -69.6 707.6 -74.15 705.25 L-74.2 704.75 Q-74.65 702.55 -75.7 700.55 -73.05 689.6 -73.4 678.05 -74.55 641.0 -74.0 604.05 L-71.4 601.05 -71.2 600.5 -70.15 596.45 Q-65.8 593.3 -65.1 588.95 L-67.35 587.25 Q-66.9 570.6 -65.95 554.2 M-53.3 553.35 L-52.0 553.4 -49.75 553.5 -49.7 553.7 Q-46.45 563.4 -45.4 573.4 L-47.4 571.35 Q-51.85 567.65 -52.25 562.4 -52.65 557.6 -53.3 553.35 M-61.5 556.95 Q-62.35 556.7 -62.4 557.2 -64.3 579.05 -61.45 599.5 L-60.85 598.95 Q-57.3 577.8 -61.5 556.95 M-51.7 646.7 Q-51.75 640.6 -52.05 634.6 -53.35 610.0 -52.95 585.1 L-53.35 584.6 -55.25 582.45 -55.7 595.5 Q-55.9 606.55 -54.6 617.45 -52.75 632.55 -51.95 646.65 -52.4 646.6 -52.45 646.95 -54.05 666.3 -58.2 685.0 L-58.3 685.85 Q-59.05 692.1 -56.8 696.25 L-56.5 695.35 Q-49.65 671.55 -51.45 646.75 L-51.7 646.7 M-59.85 608.85 L-60.4 608.85 Q-60.8 639.75 -59.55 670.9 L-59.35 670.55 Q-57.55 639.3 -59.85 608.85 M-69.3 607.8 L-69.65 607.8 Q-77.05 629.4 -70.15 648.85 L-69.9 648.05 Q-68.4 628.35 -69.3 607.8 M-68.0 651.05 Q-69.6 654.35 -69.3 659.05 -68.35 672.8 -70.45 686.15 -70.9 689.0 -70.05 691.5 -66.15 703.65 -64.75 716.25 -64.55 725.2 -68.2 734.1 L-69.9 735.9 Q-72.15 733.05 -75.05 734.0 -74.5 737.5 -71.0 739.4 -73.45 751.55 -68.9 762.15 -68.25 762.0 -68.25 761.85 -67.8 750.8 -69.55 739.45 -66.3 738.4 -64.6 735.45 -58.7 721.75 -61.1 707.3 -62.45 705.35 -62.45 703.15 -68.1 696.45 -66.8 689.1 L-66.7 688.55 Q-62.95 670.15 -68.0 651.05 M-60.65 761.8 L-60.35 760.9 Q-57.95 746.7 -59.8 733.5 -64.65 738.4 -65.25 747.35 -65.8 757.4 -60.65 761.8 M-56.8 727.3 Q-56.25 740.5 -57.95 753.4 -59.25 763.15 -55.3 769.85 L-55.2 769.35 Q-51.5 735.7 -56.8 702.45 -57.3 713.6 -56.8 727.3" fill="#595913" fill-rule="evenodd" stroke="none"/>
    <path d="M557.5 679.2 Q557.95 698.7 555.6 717.75 554.35 727.8 552.35 737.7 552.25 738.2 551.75 738.55 L552.0 743.8 Q552.35 756.45 549.1 768.25 L547.9 772.45 Q545.8 755.9 545.7 738.35 556.05 713.1 553.05 683.8 551.9 673.1 556.9 666.8 L557.5 679.2 M551.9 582.95 Q553.55 605.3 546.6 627.25 L546.15 627.85 Q544.05 605.3 551.0 583.05 L551.9 582.95 M541.4 628.25 Q544.15 642.9 538.65 657.3 L538.45 658.1 Q534.5 643.85 541.05 628.3 L541.4 628.25 M536.0 729.15 Q536.25 724.3 539.65 720.05 540.4 719.15 541.3 719.1 545.05 724.05 537.25 728.7 L536.0 729.15 M-61.5 556.95 Q-57.3 577.8 -60.85 598.95 L-61.45 599.5 Q-64.3 579.05 -62.4 557.2 -62.35 556.7 -61.5 556.95 M-51.7 646.7 L-51.45 646.75 Q-49.65 671.55 -56.5 695.35 L-56.8 696.25 Q-59.05 692.1 -58.3 685.85 L-58.2 685.0 Q-54.05 666.3 -52.45 646.95 -52.4 646.6 -51.95 646.65 L-51.7 646.7 M-69.3 607.8 Q-68.4 628.35 -69.9 648.05 L-70.15 648.85 Q-77.05 629.4 -69.65 607.8 L-69.3 607.8 M-60.65 761.8 Q-65.8 757.4 -65.25 747.35 -64.65 738.4 -59.8 733.5 -57.95 746.7 -60.35 760.9 L-60.65 761.8" fill="#77771a" fill-rule="evenodd" stroke="none"/>
    <path d="M-47.1 553.8 L-41.65 554.45 Q-42.35 558.55 -42.35 563.15 L-42.4 571.8 -42.45 571.75 Q-46.4 562.6 -47.1 553.8 M-73.85 554.15 L-68.45 554.15 Q-70.9 570.4 -68.3 586.65 -68.65 586.35 -69.0 586.15 -74.95 582.45 -74.95 579.95 L-74.75 579.45 Q-73.25 566.4 -73.85 554.15" fill="#515913" fill-rule="evenodd" stroke="none"/>
  </g>
</svg>
